<?xml version="1.0" standalone="no"?>
<!DOCTYPE svg PUBLIC "-//W3C//DTD SVG 20010904//EN"
 "http://www.w3.org/TR/2001/REC-SVG-20010904/DTD/svg10.dtd">
<svg version="1.0" xmlns="http://www.w3.org/2000/svg"
 width="1334.000000pt" height="548.000000pt" viewBox="0 0 1334.000000 548.000000"
 preserveAspectRatio="xMidYMid meet">

<g transform="translate(0.000000,548.000000) scale(0.100000,-0.100000)"
fill="#000000" stroke="none">
<path d="M1930 5360 c0 -100 3 -120 15 -120 11 0 15 12 15 50 l0 50 41 0 c31
0 47 6 70 29 31 32 34 45 19 85 -9 25 -13 26 -85 26 l-75 0 0 -120z m118 98
c17 -17 15 -54 -4 -72 -8 -9 -31 -16 -50 -16 l-34 0 0 50 0 50 38 0 c21 0 43
-5 50 -12z"/>
<path d="M2360 5460 c0 -11 -4 -20 -10 -20 -5 0 -10 -7 -10 -15 0 -8 5 -15 10
-15 6 0 10 -29 10 -66 0 -87 10 -104 60 -104 51 0 57 27 8 32 l-33 3 -3 68 -3
67 36 0 c24 0 35 4 35 15 0 10 -11 15 -35 15 -28 0 -35 4 -35 20 0 11 -7 20
-15 20 -8 0 -15 -9 -15 -20z"/>
<path d="M2500 5360 c0 -100 3 -120 15 -120 12 0 15 15 15 71 0 77 12 98 56
99 35 0 44 -20 44 -97 0 -58 3 -73 15 -73 23 0 22 162 -2 185 -16 17 -58 17
-95 0 -15 -6 -18 -2 -18 24 0 21 -5 31 -15 31 -12 0 -15 -20 -15 -120z"/>
<path d="M2876 5373 c-22 -60 -41 -114 -44 -120 -2 -7 3 -13 12 -13 9 0 22 16
30 35 15 34 16 35 71 35 55 0 56 -1 71 -35 8 -19 21 -35 29 -35 8 0 15 3 15 6
0 4 -19 58 -41 120 -41 112 -42 114 -73 114 -31 0 -32 -2 -70 -107z m109 -10
c6 -22 3 -23 -39 -23 -25 0 -46 2 -46 5 0 2 10 30 22 62 l21 58 18 -40 c9 -22
20 -50 24 -62z"/>
<path d="M5640 5365 c0 -108 1 -115 20 -115 19 0 20 7 20 107 l0 107 35 -72
c19 -40 38 -72 42 -72 5 0 25 33 45 73 l37 72 0 -107 c1 -101 2 -108 21 -108
19 0 20 7 20 115 l0 115 -33 0 c-30 0 -36 -5 -57 -50 -13 -27 -26 -50 -30 -50
-4 0 -17 23 -30 50 -21 45 -27 50 -57 50 l-33 0 0 -115z"/>
<path d="M6880 5462 c0 -14 -7 -17 -43 -14 -39 3 -47 0 -70 -28 -55 -65 -22
-174 52 -172 18 0 39 6 47 13 10 8 14 8 14 0 0 -6 7 -11 15 -11 12 0 15 19 15
115 0 96 -3 115 -15 115 -8 0 -15 -8 -15 -18z m-2 -100 c4 -63 -8 -82 -53 -82
-27 0 -35 5 -45 30 -13 30 -7 74 12 98 7 7 26 12 47 10 36 -3 36 -3 39 -56z"/>
<path d="M7550 5465 c0 -8 -4 -15 -10 -15 -5 0 -10 -7 -10 -15 0 -8 5 -15 10
-15 6 0 10 -29 10 -66 0 -87 10 -104 60 -104 51 0 57 27 8 32 l-33 3 -3 68 -3
67 36 0 c24 0 35 4 35 15 0 10 -11 15 -35 15 -24 0 -35 5 -35 15 0 8 -7 15
-15 15 -8 0 -15 -7 -15 -15z"/>
<path d="M7690 5365 c0 -96 3 -115 15 -115 12 0 15 15 15 71 0 77 12 98 56 99
35 0 44 -20 44 -97 0 -58 3 -73 15 -73 23 0 22 162 -2 185 -16 17 -58 17 -95
0 -15 -6 -18 -2 -18 19 0 16 -6 26 -15 26 -12 0 -15 -19 -15 -115z"/>
<path d="M8053 5461 c-38 -60 -17 -168 37 -196 33 -17 112 -20 141 -5 10 6 19
20 19 31 0 19 -1 19 -22 5 -32 -23 -103 -21 -128 4 -37 37 -39 122 -4 161 16
18 16 19 -7 19 -13 0 -29 -8 -36 -19z"/>
<path d="M8211 5477 c2 -1 12 -9 22 -16 14 -12 17 -11 17 3 0 10 -8 16 -22 16
-12 0 -19 -1 -17 -3z"/>
<path d="M10640 5360 c0 -100 2 -120 15 -120 11 0 15 12 15 50 l0 50 35 0 c73
0 119 51 99 108 -9 26 -13 27 -87 30 l-77 3 0 -121z m118 98 c7 -7 12 -24 12
-38 0 -36 -17 -50 -62 -50 l-38 0 0 50 0 50 38 0 c21 0 43 -5 50 -12z"/>
<path d="M11070 5460 c0 -11 -4 -20 -10 -20 -5 0 -10 -7 -10 -15 0 -8 5 -15
10 -15 6 0 10 -30 10 -69 0 -81 13 -101 66 -101 24 0 34 5 34 15 0 10 -10 15
-29 15 -35 0 -41 13 -41 86 l0 54 35 0 c24 0 35 5 35 15 0 10 -11 15 -35 15
-28 0 -35 4 -35 20 0 11 -7 20 -15 20 -8 0 -15 -9 -15 -20z"/>
<path d="M11210 5360 c0 -113 1 -120 20 -120 18 0 20 7 20 75 0 65 3 76 21 85
11 6 30 10 42 8 20 -3 22 -9 25 -85 3 -75 5 -83 22 -83 18 0 20 7 20 69 0 38
-4 81 -10 95 -11 31 -52 43 -92 28 -27 -10 -28 -9 -28 19 0 22 -5 29 -20 29
-19 0 -20 -7 -20 -120z"/>
<path d="M11570 5360 l0 -120 71 0 c65 0 73 2 100 29 35 36 37 64 5 96 -23 23
-24 27 -12 51 8 14 12 34 9 45 -5 17 -15 19 -89 19 l-84 0 0 -120z m137 94
c11 -28 -11 -49 -56 -52 -41 -3 -41 -3 -41 32 0 36 0 36 45 36 33 0 47 -5 52
-16z m4 -94 c12 -7 19 -21 19 -40 0 -36 -23 -50 -79 -50 l-41 0 0 50 0 50 41
0 c22 0 49 -5 60 -10z"/>
<path d="M5959 5421 c-21 -22 -29 -39 -29 -66 0 -69 33 -104 97 -105 51 0 73
8 73 26 0 11 -7 13 -27 7 -45 -12 -76 -6 -95 17 -10 12 -18 26 -18 31 0 4 33
9 73 11 l72 3 -2 35 c-3 71 -89 95 -144 41z m109 -28 c3 -22 0 -23 -53 -23
-57 0 -59 3 -32 38 6 8 25 12 46 10 29 -2 37 -8 39 -25z"/>
<path d="M6160 5350 c0 -82 3 -100 15 -100 12 0 15 14 15 68 0 77 9 92 57 92
26 0 33 4 33 20 0 24 -20 26 -60 5 -27 -14 -30 -14 -30 0 0 8 -7 15 -15 15
-12 0 -15 -18 -15 -100z"/>
<path d="M6326 5419 c-63 -75 3 -202 83 -160 27 15 31 14 31 -8 0 -30 -25 -43
-75 -39 -38 3 -45 0 -45 -14 0 -15 9 -18 54 -18 47 0 57 4 75 26 18 23 21 41
21 134 l0 107 -59 2 c-55 1 -61 -1 -85 -30z m112 -60 c3 -54 2 -57 -27 -68
-37 -16 -66 -2 -75 35 -14 56 13 96 63 92 l36 -3 3 -56z"/>
<path d="M6567 5439 c-28 -16 -49 -74 -41 -115 9 -46 45 -74 100 -74 55 0 74
8 74 31 0 17 -2 17 -35 4 -49 -21 -104 2 -105 43 0 8 21 12 70 12 l70 0 0 33
c0 62 -76 99 -133 66z m91 -31 c26 -26 13 -38 -43 -38 -38 0 -55 4 -55 13 0
22 22 37 55 37 17 0 36 -5 43 -12z"/>
<path d="M7110 5315 c0 -113 2 -135 15 -135 11 0 15 11 15 38 l0 37 43 -3 c35
-3 46 1 66 22 54 57 28 176 -40 176 -16 0 -39 -5 -50 -10 -13 -7 -19 -7 -19 0
0 5 -7 10 -15 10 -13 0 -15 -22 -15 -135z m118 93 c7 -7 12 -33 12 -58 0 -56
-12 -70 -62 -70 l-38 0 0 60 c0 46 4 61 18 69 23 14 55 14 70 -1z"/>
<path d="M7337 5443 c-19 -18 -5 -31 27 -26 44 7 86 -3 86 -21 0 -8 -17 -16
-47 -20 -25 -3 -55 -14 -65 -23 -22 -20 -24 -76 -2 -94 19 -16 79 -15 99 1 11
9 15 9 15 1 0 -6 7 -11 15 -11 12 0 15 16 15 84 0 76 -2 86 -22 100 -22 16
-108 22 -121 9z m113 -117 c0 -32 -22 -48 -62 -44 -66 6 -40 68 29 68 28 0 33
-4 33 -24z"/>
<path d="M2147 5433 c-19 -18 -5 -31 27 -26 44 7 86 -3 86 -21 0 -8 -17 -16
-47 -20 -25 -3 -55 -14 -65 -23 -22 -20 -24 -76 -2 -94 19 -16 79 -15 99 1 11
9 15 9 15 1 0 -6 7 -11 15 -11 12 0 15 16 15 84 0 76 -2 86 -22 100 -22 16
-108 22 -121 9z m113 -117 c0 -32 -22 -48 -62 -44 -66 6 -40 68 29 68 28 0 33
-4 33 -24z"/>
<path d="M10867 5433 c-19 -19 -3 -29 45 -28 40 0 53 -4 56 -16 2 -12 -7 -18
-38 -22 -58 -8 -90 -31 -90 -67 0 -31 22 -59 48 -61 31 -2 57 3 70 13 8 7 12
7 12 -1 0 -6 9 -11 21 -11 20 0 21 4 18 79 -5 100 -21 121 -89 121 -26 0 -50
-3 -53 -7z m103 -122 c0 -17 -6 -31 -16 -35 -18 -7 -74 -8 -74 -2 0 2 -3 11
-6 19 -8 22 24 47 62 47 31 0 34 -3 34 -29z"/>
<path d="M917 5108 c-23 -14 -45 -38 -57 -63 -20 -41 -20 -65 -20 -2196 l0
-2155 23 -44 c13 -27 35 -50 57 -62 33 -17 104 -18 1580 -18 1514 0 1546 0
1577 20 72 44 67 -14 73 859 l5 784 550 203 c303 112 557 206 567 209 12 4 18
-2 23 -25 9 -40 51 -89 92 -106 26 -11 170 -14 773 -14 407 0 740 -1 740 -2 0
-2 -7 -25 -15 -52 l-15 -50 30 29 30 29 0 -1042 0 -1042 3205 0 3205 0 0 498
0 498 -237 136 -238 135 -5 1699 -5 1699 -22 31 c-49 69 74 64 -1630 64 -1479
0 -1540 -1 -1573 -19 -19 -10 -45 -36 -57 -57 l-23 -39 0 -2165 c0 -2088 1
-2167 19 -2200 10 -19 33 -45 51 -57 l33 -23 1552 0 1552 0 34 23 c70 46 69
39 69 550 0 251 2 457 4 457 2 0 104 -58 227 -128 l224 -128 3 -472 2 -472
-3180 0 -3180 0 0 1027 0 1027 34 -33 35 -34 -15 48 c-7 27 -14 52 -14 56 0 5
339 10 754 11 749 3 755 3 783 24 15 12 37 36 48 55 20 33 20 52 20 1234 0
1182 0 1201 -20 1234 -11 19 -33 43 -48 55 l-28 21 -1553 3 -1553 2 -33 -22
c-18 -13 -43 -36 -54 -51 -21 -28 -21 -29 -24 -1170 -2 -893 -5 -1143 -15
-1149 -9 -6 -9 -8 1 -8 6 0 12 -10 12 -23 0 -21 -43 -39 -563 -230 -309 -114
-565 -207 -569 -207 -5 0 -8 620 -8 1379 l0 1378 -23 34 c-12 19 -38 42 -57
51 -33 17 -129 18 -1575 18 l-1540 0 -38 -22z m3141 -18 c18 -11 41 -34 52
-52 20 -33 20 -51 17 -1408 l-2 -1374 -55 -21 c-32 -12 -56 -28 -58 -38 -3
-15 2 -15 54 3 31 11 59 20 61 20 1 0 3 -343 3 -763 0 -719 -1 -764 -18 -796
-10 -19 -34 -43 -53 -53 -32 -17 -101 -18 -1564 -18 -1499 0 -1531 0 -1562 20
-18 10 -40 31 -50 47 -17 26 -18 122 -18 2194 l0 2168 21 28 c11 15 36 36 55
45 32 17 127 18 1559 18 1504 0 1525 0 1558 -20z m4453 -2 c74 -42 70 51 67
-1286 l-3 -1200 -25 -27 c-52 -57 -28 -55 -824 -55 l-735 0 -22 73 -22 72 -17
-62 c-10 -34 -21 -67 -25 -72 -7 -12 -1427 -16 -1484 -5 -31 6 -91 53 -91 71
0 4 49 43 108 86 l107 79 -112 -7 -113 -8 0 1134 c0 1090 1 1135 19 1165 42
68 -79 64 1610 64 l1523 0 39 -22z m4266 -4 c15 -11 36 -36 45 -55 17 -32 18
-134 18 -1706 l0 -1672 -86 49 c-47 28 -87 50 -89 50 -1 0 -5 -6 -8 -14 -4
-10 23 -30 89 -67 l94 -52 0 -461 c0 -442 -1 -462 -20 -494 -11 -18 -34 -41
-52 -52 -33 -20 -54 -20 -1564 -20 l-1531 0 -34 23 c-19 12 -42 38 -52 57 -16
33 -17 154 -15 2192 l3 2157 21 28 c11 15 36 36 55 46 32 16 123 17 1566 15
1531 -3 1532 -3 1560 -24z m-7439 -2440 c-7 -15 -14 -21 -16 -15 -5 16 5 41
17 41 7 0 6 -10 -1 -26z"/>
<path d="M1195 4902 c-68 -23 -107 -53 -144 -108 -52 -79 -55 -207 -7 -289 90
-152 292 -179 416 -55 51 51 73 104 78 183 4 61 1 75 -27 132 -36 73 -88 117
-165 140 -63 19 -89 18 -151 -3z m181 -33 c79 -38 144 -139 144 -224 0 -48
-33 -128 -68 -167 -47 -52 -108 -79 -177 -79 -100 0 -177 52 -223 150 -20 44
-24 64 -19 110 8 95 67 180 147 215 52 22 145 20 196 -5z"/>
<path d="M1161 4818 c-60 -161 -83 -230 -78 -235 13 -12 35 7 42 37 l7 31 61
-3 c60 -3 62 -4 71 -35 6 -23 15 -33 29 -33 11 0 17 5 14 13 -2 6 -24 65 -47
130 -38 105 -45 117 -67 117 -15 0 -26 -8 -32 -22z m57 -78 l21 -60 -45 0
c-49 0 -50 2 -30 51 7 19 16 42 19 52 4 9 8 17 11 17 2 0 13 -27 24 -60z"/>
<path d="M1330 4670 c0 -5 22 -10 50 -10 l49 0 -41 -76 c-25 -46 -36 -75 -27
-72 15 4 88 133 89 156 0 8 -18 12 -60 12 -33 0 -60 -4 -60 -10z"/>
<path d="M2448 4913 c-27 -7 -22 -23 7 -23 16 0 25 6 25 15 0 15 -2 16 -32 8z"/>
<path d="M2510 4904 c0 -8 11 -14 25 -14 14 0 25 4 25 9 0 5 -11 11 -25 13
-17 4 -25 1 -25 -8z"/>
<path d="M3613 4906 c-121 -39 -193 -136 -193 -261 0 -107 55 -198 146 -245
38 -19 64 -25 119 -25 145 0 251 97 263 240 6 80 -9 136 -53 196 -60 83 -188
126 -282 95z m161 -30 c47 -19 104 -73 129 -120 30 -57 30 -165 0 -221 -118
-221 -435 -160 -460 89 -10 99 57 211 151 252 40 17 138 18 180 0z"/>
<path d="M3558 4803 c-8 -27 -29 -85 -46 -130 -28 -76 -29 -83 -12 -83 12 0
22 12 30 35 11 35 12 35 70 35 58 0 59 0 70 -35 8 -24 18 -35 30 -35 18 0 16
10 -21 113 -23 61 -43 120 -46 130 -3 11 -15 17 -32 17 -24 0 -29 -6 -43 -47z
m65 -46 c9 -30 17 -57 17 -60 0 -4 -18 -7 -40 -7 -22 0 -40 3 -40 7 0 16 34
113 40 113 3 0 14 -24 23 -53z"/>
<path d="M3750 4661 c-11 -21 -4 -51 13 -51 5 0 3 -8 -6 -18 -36 -39 -15 -82
39 -82 56 0 81 44 47 82 -9 10 -11 18 -6 18 15 0 22 34 11 54 -13 24 -84 22
-98 -3z m64 3 c18 -7 22 -39 6 -49 -6 -3 -19 -3 -30 0 -22 7 -27 40 -7 48 6 3
13 6 14 6 1 1 8 -2 17 -5z m10 -87 c30 -22 -2 -65 -38 -51 -31 12 -29 64 3 64
10 0 25 -6 35 -13z"/>
<path d="M2371 4891 c-9 -6 -10 -11 -2 -15 15 -10 53 3 46 15 -8 11 -26 11
-44 0z"/>
<path d="M2580 4886 c0 -16 27 -29 42 -20 7 5 4 12 -7 21 -24 17 -35 17 -35
-1z"/>
<path d="M2322 4858 c-7 -7 -12 -18 -12 -25 0 -11 4 -11 20 -1 11 7 20 18 20
25 0 16 -12 17 -28 1z"/>
<path d="M2640 4846 c0 -14 29 -31 38 -21 6 6 -18 35 -29 35 -5 0 -9 -6 -9
-14z"/>
<path d="M2272 4808 c-14 -14 -16 -38 -3 -38 5 0 14 7 21 15 17 20 0 41 -18
23z"/>
<path d="M1840 4745 l0 -65 -71 0 -70 0 3 -32 3 -33 68 -3 67 -3 0 -64 0 -65
35 0 35 0 0 65 0 65 65 0 65 0 0 35 0 35 -65 0 -65 0 0 65 0 65 -35 0 -35 0 0
-65z"/>
<path d="M2696 4802 c-9 -15 4 -42 20 -42 12 0 13 4 3 23 -16 29 -16 30 -23
19z"/>
<path d="M2347 4783 c-20 -20 -5 -30 38 -25 28 3 50 0 60 -8 22 -18 19 -30 -7
-30 -52 0 -99 -21 -109 -48 -23 -59 33 -104 96 -77 19 7 35 10 35 4 0 -5 7 -9
15 -9 12 0 15 16 15 80 0 100 -15 120 -88 120 -27 0 -52 -3 -55 -7z m113 -117
c0 -32 -22 -48 -62 -44 -66 6 -40 68 29 68 28 0 33 -4 33 -24z"/>
<path d="M2237 4738 c-7 -25 0 -41 14 -33 12 8 12 55 0 55 -5 0 -11 -10 -14
-22z"/>
<path d="M2927 4743 c-4 -3 -7 -19 -7 -35 l0 -28 160 0 160 0 0 35 0 35 -153
0 c-85 0 -157 -3 -160 -7z"/>
<path d="M2720 4721 c0 -20 17 -37 27 -28 7 8 -7 47 -18 47 -5 0 -9 -9 -9 -19z"/>
<path d="M2220 4655 c0 -28 15 -34 24 -9 10 25 7 34 -9 34 -9 0 -15 -9 -15
-25z"/>
<path d="M2547 4674 c-16 -16 -5 -22 33 -17 35 5 40 3 40 -15 0 -12 -9 -23
-20 -27 -26 -8 -26 -25 -1 -25 25 0 34 -15 26 -41 -6 -17 -13 -20 -46 -17 -27
2 -39 0 -39 -9 0 -17 82 -17 98 -1 17 17 15 53 -3 68 -14 11 -14 15 2 32 25
28 6 52 -43 56 -22 2 -43 0 -47 -4z"/>
<path d="M2730 4635 c0 -36 13 -47 24 -19 11 28 6 54 -9 54 -10 0 -15 -11 -15
-35z"/>
<path d="M2224 4594 c3 -9 6 -20 6 -25 0 -5 7 -9 16 -9 11 0 14 5 10 16 -3 9
-6 20 -6 25 0 5 -7 9 -16 9 -11 0 -14 -5 -10 -16z"/>
<path d="M2920 4580 l0 -30 160 0 160 0 0 30 0 30 -160 0 -160 0 0 -30z"/>
<path d="M2717 4558 c-8 -30 9 -47 18 -18 4 12 3 26 -3 32 -6 6 -11 1 -15 -14z"/>
<path d="M2250 4528 c0 -22 17 -41 29 -34 8 5 8 13 1 27 -12 21 -30 26 -30 7z"/>
<path d="M2681 4491 c-6 -10 -7 -21 -4 -25 9 -8 33 14 33 30 0 20 -18 17 -29
-5z"/>
<path d="M2290 4465 c0 -16 27 -32 37 -21 7 7 -16 36 -28 36 -5 0 -9 -7 -9
-15z"/>
<path d="M2638 4449 c-18 -10 -25 -39 -9 -39 12 0 33 28 29 39 -2 6 -9 6 -20
0z"/>
<path d="M2340 4426 c0 -15 37 -32 48 -22 6 6 -27 35 -40 36 -5 0 -8 -6 -8
-14z"/>
<path d="M2567 4409 c-9 -6 -15 -14 -12 -19 8 -13 45 0 45 16 0 16 -8 17 -33
3z"/>
<path d="M2410 4390 c0 -5 7 -10 15 -10 8 0 18 0 22 -1 4 0 9 4 11 10 2 6 -8
11 -22 11 -14 0 -26 -4 -26 -10z"/>
<path d="M2493 4393 c-22 -8 -14 -23 12 -23 16 0 25 6 25 15 0 15 -14 18 -37
8z"/>
<path d="M1582 4304 c13 -12 223 -141 226 -139 2 2 -4 14 -12 27 -24 37 -12
82 27 101 31 15 26 16 -107 16 -77 1 -137 -2 -134 -5z"/>
<path d="M1820 4236 c0 -12 28 -25 53 -26 14 0 7 28 -9 34 -26 10 -44 7 -44
-8z"/>
<path d="M1912 4214 c4 -24 58 -33 58 -10 0 9 -6 16 -14 16 -8 0 -22 3 -31 6
-13 5 -16 2 -13 -12z"/>
<path d="M2000 4186 c0 -12 28 -25 53 -26 14 0 7 28 -9 34 -26 10 -44 7 -44
-8z"/>
<path d="M2090 4165 c0 -9 12 -20 26 -25 33 -13 34 -13 34 5 0 9 -12 20 -26
25 -33 13 -34 13 -34 -5z"/>
<path d="M2180 4136 c0 -14 21 -26 46 -26 23 0 16 27 -8 34 -33 8 -38 8 -38
-8z"/>
<path d="M2270 4106 c0 -17 52 -28 62 -13 4 6 2 15 -5 19 -20 13 -57 9 -57 -6z"/>
<path d="M2367 4093 c-13 -12 -7 -21 22 -31 39 -14 54 14 15 28 -30 12 -29 12
-37 3z"/>
<path d="M2455 4072 c-3 -3 -5 -18 -5 -34 0 -25 3 -28 35 -28 32 0 35 3 35 29
0 24 -5 29 -30 33 -17 3 -32 2 -35 0z"/>
<path d="M1240 4040 c0 -28 3 -30 35 -30 32 0 35 2 35 30 0 28 -3 30 -35 30
-32 0 -35 -2 -35 -30z"/>
<path d="M3670 4040 c0 -28 3 -30 35 -30 32 0 35 2 35 30 0 28 -3 30 -35 30
-32 0 -35 -2 -35 -30z"/>
<path d="M2550 4029 c0 -10 6 -19 14 -19 8 0 22 -3 31 -6 13 -5 16 -2 14 11
-2 10 -16 22 -31 26 -23 6 -28 4 -28 -12z"/>
<path d="M2640 4006 c0 -14 21 -26 46 -26 23 0 16 27 -8 34 -33 8 -38 8 -38
-8z"/>
<path d="M2730 3976 c0 -7 12 -16 28 -19 32 -6 37 -3 29 18 -8 19 -57 20 -57
1z"/>
<path d="M2820 3956 c0 -8 14 -19 30 -25 26 -9 30 -8 30 8 0 11 -10 21 -22 25
-33 8 -38 8 -38 -8z"/>
<path d="M2910 3926 c0 -19 51 -31 61 -14 5 8 2 15 -9 20 -29 11 -52 9 -52 -6z"/>
<path d="M3004 3909 c-3 -5 -3 -13 0 -18 8 -12 56 -20 56 -10 0 5 0 12 0 17 0
11 -49 21 -56 11z"/>
<path d="M3097 3884 c-13 -13 -7 -22 19 -28 24 -6 55 7 43 18 -9 9 -55 17 -62
10z"/>
<path d="M1240 3850 c0 -28 3 -30 35 -30 32 0 35 2 35 30 0 28 -3 30 -35 30
-32 0 -35 -2 -35 -30z"/>
<path d="M2450 3850 c0 -28 3 -30 35 -30 32 0 35 2 35 30 0 28 -3 30 -35 30
-32 0 -35 -2 -35 -30z"/>
<path d="M3670 3850 c0 -28 3 -30 35 -30 32 0 35 2 35 30 0 28 -3 30 -35 30
-32 0 -35 -2 -35 -30z"/>
<path d="M3186 3854 c-6 -16 38 -39 55 -28 17 10 9 22 -20 32 -23 8 -31 7 -35
-4z"/>
<path d="M1240 3660 c0 -28 3 -30 35 -30 32 0 35 2 35 30 0 28 -3 30 -35 30
-32 0 -35 -2 -35 -30z"/>
<path d="M2450 3660 c0 -28 3 -30 35 -30 32 0 35 2 35 30 0 28 -3 30 -35 30
-32 0 -35 -2 -35 -30z"/>
<path d="M3670 3660 c0 -28 3 -30 35 -30 32 0 35 2 35 30 0 28 -3 30 -35 30
-32 0 -35 -2 -35 -30z"/>
<path d="M1165 3256 c-62 -28 -131 -104 -147 -160 -36 -127 12 -260 116 -321
190 -111 423 36 403 256 -9 106 -81 199 -180 236 -55 20 -136 15 -192 -11z
m216 -26 c43 -23 96 -81 116 -129 24 -57 19 -143 -11 -205 -90 -184 -345 -179
-432 8 -98 210 123 429 327 326z"/>
<path d="M1130 3089 c-25 -68 -46 -126 -48 -131 -2 -4 5 -8 16 -8 13 0 22 10
28 33 9 31 11 32 70 35 l61 3 9 -33 c7 -22 17 -34 31 -36 20 -3 18 4 -26 125
-41 114 -49 128 -72 131 -23 3 -27 -5 -69 -119z m85 44 c33 -79 32 -83 -18
-83 l-46 0 21 60 c11 33 22 60 24 60 2 0 11 -17 19 -37z"/>
<path d="M1350 3037 c0 -9 10 -12 31 -9 19 3 34 0 39 -9 12 -18 -14 -64 -50
-91 -47 -35 -39 -48 30 -48 33 0 60 4 60 10 0 6 -21 10 -47 10 l-47 0 42 40
c63 61 55 110 -20 110 -25 0 -38 -5 -38 -13z"/>
<path d="M2425 3271 c-3 -5 -1 -12 5 -16 13 -8 50 3 50 16 0 12 -47 12 -55 0z"/>
<path d="M2510 3265 c0 -11 7 -15 23 -13 12 2 22 8 22 13 0 6 -10 11 -22 13
-16 2 -23 -2 -23 -13z"/>
<path d="M3600 3259 c-213 -96 -220 -391 -13 -498 42 -22 116 -30 168 -19 179
38 267 236 179 398 -66 120 -214 173 -334 119z m210 -29 c178 -92 177 -355 -2
-444 -207 -103 -429 128 -320 334 63 122 205 170 322 110z"/>
<path d="M3578 3163 c-8 -27 -29 -85 -46 -130 -28 -76 -29 -83 -12 -83 12 0
22 12 30 35 11 35 12 35 70 35 58 0 59 0 70 -35 8 -24 18 -35 30 -35 18 0 16
10 -21 113 -23 61 -43 120 -46 130 -3 11 -15 17 -32 17 -24 0 -29 -6 -43 -47z
m65 -46 c9 -30 17 -57 17 -60 0 -4 -18 -7 -40 -7 -22 0 -40 3 -40 7 0 16 34
113 40 113 3 0 14 -24 23 -53z"/>
<path d="M3770 3038 c0 -8 14 -13 37 -13 45 0 52 -23 13 -42 l-24 -12 28 -10
c20 -8 27 -17 24 -34 -3 -19 -9 -22 -46 -21 -55 1 -50 -20 6 -24 34 -3 43 1
57 22 13 19 14 29 5 45 -6 12 -16 21 -23 21 -7 0 -4 5 6 11 21 13 22 55 1 63
-28 11 -84 7 -84 -6z"/>
<path d="M2381 3259 c-16 -6 -21 -13 -14 -20 13 -13 43 -1 43 17 0 8 -1 14 -2
13 -2 0 -14 -5 -27 -10z"/>
<path d="M2577 3253 c-7 -6 21 -32 36 -33 14 0 7 28 -9 34 -19 7 -19 7 -27 -1z"/>
<path d="M2322 3224 c-17 -12 -21 -19 -13 -27 8 -8 16 -7 27 5 25 25 14 42
-14 22z"/>
<path d="M2637 3213 c-4 -3 2 -13 14 -21 24 -17 37 -9 19 13 -14 16 -23 19
-33 8z"/>
<path d="M1840 3115 l0 -65 -71 0 -70 0 3 -32 3 -33 68 -3 67 -3 0 -64 0 -65
35 0 35 0 0 65 0 65 65 0 65 0 0 35 0 35 -65 0 -65 0 0 65 0 65 -35 0 -35 0 0
-65z"/>
<path d="M2263 3161 c-9 -15 -9 -20 1 -24 13 -5 39 27 29 37 -10 10 -18 7 -30
-13z"/>
<path d="M2686 3162 c-6 -10 22 -47 30 -40 3 4 3 16 -1 27 -6 21 -20 27 -29
13z"/>
<path d="M2347 3143 c-20 -20 -5 -30 38 -25 28 3 50 0 60 -8 22 -18 19 -30 -7
-30 -52 0 -99 -21 -109 -48 -23 -59 33 -104 96 -77 19 7 35 10 35 4 0 -5 7 -9
15 -9 12 0 15 16 15 80 0 100 -15 120 -88 120 -27 0 -52 -3 -55 -7z m113 -117
c0 -32 -22 -48 -62 -44 -66 6 -40 68 29 68 28 0 33 -4 33 -24z"/>
<path d="M2235 3099 c-8 -23 -1 -34 14 -24 13 8 15 45 2 45 -5 0 -13 -9 -16
-21z"/>
<path d="M2927 3113 c-4 -3 -7 -19 -7 -35 l0 -28 160 0 160 0 0 35 0 35 -153
0 c-85 0 -157 -3 -160 -7z"/>
<path d="M2717 3080 c6 -22 21 -35 30 -27 2 3 2 15 -2 26 -8 28 -35 28 -28 1z"/>
<path d="M2220 3026 c0 -14 5 -26 10 -26 6 0 10 9 10 19 0 11 -4 23 -10 26 -6
4 -10 -5 -10 -19z"/>
<path d="M2590 3040 c0 -5 -7 -10 -15 -10 -8 0 -15 -4 -15 -10 0 -5 7 -10 15
-10 11 0 15 -13 15 -54 0 -47 -3 -55 -22 -61 -22 -8 -22 -8 5 -12 15 -2 39 -2
55 0 26 4 26 4 5 12 -21 7 -23 14 -23 81 0 43 -4 74 -10 74 -5 0 -10 -4 -10
-10z"/>
<path d="M2730 2995 c0 -19 5 -35 10 -35 6 0 10 16 10 35 0 19 -4 35 -10 35
-5 0 -10 -16 -10 -35z"/>
<path d="M2920 2950 l0 -30 160 0 160 0 0 30 0 30 -160 0 -160 0 0 -30z"/>
<path d="M2224 2954 c3 -9 6 -20 6 -25 0 -6 5 -7 10 -4 16 10 12 45 -6 45 -11
0 -14 -5 -10 -16z"/>
<path d="M2715 2919 c-8 -23 -1 -34 14 -24 13 8 15 45 2 45 -5 0 -13 -9 -16
-21z"/>
<path d="M2252 2875 c11 -24 28 -34 28 -16 0 21 -13 41 -26 41 -11 0 -11 -5
-2 -25z"/>
<path d="M2680 2855 c-7 -9 -10 -18 -7 -22 8 -7 37 15 37 28 0 14 -16 11 -30
-6z"/>
<path d="M2286 2842 c-3 -5 3 -17 13 -26 11 -10 22 -13 25 -8 3 5 -3 17 -13
26 -11 10 -22 13 -25 8z"/>
<path d="M2627 2806 c-12 -9 -14 -16 -7 -21 12 -7 40 11 40 26 0 13 -12 11
-33 -5z"/>
<path d="M2337 2793 c-10 -10 31 -35 45 -27 7 5 5 11 -7 21 -21 15 -29 16 -38
6z"/>
<path d="M2563 2773 c-7 -2 -13 -9 -13 -15 0 -14 43 -6 48 10 4 12 -12 15 -35
5z"/>
<path d="M1570 2766 c0 -5 228 -146 236 -146 2 0 -2 13 -11 30 -20 39 -10 77
26 96 16 8 29 17 29 19 0 3 -63 5 -140 5 -77 0 -140 -2 -140 -4z"/>
<path d="M2410 2756 c0 -10 9 -16 25 -16 14 0 25 5 25 10 0 6 -4 10 -9 10 -5
0 -16 3 -25 6 -11 4 -16 1 -16 -10z"/>
<path d="M2480 2744 c0 -11 5 -14 16 -10 9 3 20 6 25 6 5 0 9 5 9 10 0 6 -11
10 -25 10 -16 0 -25 -6 -25 -16z"/>
<path d="M1817 2696 c-7 -18 49 -41 59 -25 8 13 -4 25 -32 33 -14 4 -24 2 -27
-8z"/>
<path d="M1910 2666 c0 -14 21 -26 46 -26 23 0 16 27 -8 34 -33 8 -38 8 -38
-8z"/>
<path d="M2000 2639 c0 -10 6 -19 14 -19 8 0 22 -3 31 -6 13 -5 16 -2 14 11
-2 10 -16 22 -31 26 -23 6 -28 4 -28 -12z"/>
<path d="M2090 2616 c0 -8 14 -19 30 -25 26 -9 30 -8 30 8 0 11 -10 21 -22 25
-33 8 -38 8 -38 -8z"/>
<path d="M2180 2586 c0 -17 52 -28 62 -13 4 6 2 15 -5 19 -20 13 -57 9 -57 -6z"/>
<path d="M2277 2573 c-13 -12 -7 -21 22 -31 39 -14 54 14 15 28 -30 12 -29 12
-37 3z"/>
<path d="M2367 2544 c-13 -13 -7 -22 19 -28 24 -6 55 7 43 18 -9 9 -55 17 -62
10z"/>
<path d="M2456 2514 c-6 -15 3 -21 39 -26 30 -5 24 24 -7 33 -19 5 -28 3 -32
-7z"/>
<path d="M2547 2486 c-5 -13 19 -26 51 -26 21 0 13 27 -10 34 -32 8 -35 8 -41
-8z"/>
<path d="M2640 2459 c0 -10 3 -19 8 -19 4 0 17 -3 30 -6 35 -10 28 22 -8 35
-27 9 -30 8 -30 -10z"/>
<path d="M2731 2435 c2 -10 16 -22 32 -26 22 -6 27 -4 27 12 0 10 -6 19 -14
19 -8 0 -22 3 -31 6 -13 5 -16 2 -14 -11z"/>
<path d="M2820 2406 c0 -19 51 -31 61 -14 5 8 2 15 -9 20 -29 11 -52 9 -52 -6z"/>
<path d="M2914 2389 c-8 -13 4 -25 32 -33 14 -4 24 -2 27 8 7 18 -49 41 -59
25z"/>
<path d="M3007 2364 c-13 -13 -7 -22 19 -28 24 -6 55 7 43 18 -9 9 -55 17 -62
10z"/>
<path d="M3096 2334 c-6 -16 38 -39 55 -28 17 10 9 22 -20 32 -23 8 -31 7 -35
-4z"/>
<path d="M3187 2306 c-6 -15 12 -26 44 -26 10 0 19 7 19 15 0 8 -6 15 -14 15
-8 0 -21 3 -29 6 -8 3 -17 -1 -20 -10z"/>
<path d="M1182 2261 c-189 -65 -237 -327 -84 -461 45 -40 119 -70 172 -70 139
0 270 133 270 275 0 109 -74 217 -176 255 -67 25 -113 25 -182 1z m220 -47
c193 -135 122 -433 -108 -452 -78 -6 -136 14 -188 64 -48 47 -67 86 -73 153
-10 109 38 199 130 246 45 23 62 26 124 23 61 -3 78 -8 115 -34z"/>
<path d="M1161 2178 c-60 -161 -83 -230 -78 -235 13 -12 35 7 42 37 l7 31 61
-3 c60 -3 62 -4 71 -35 6 -23 15 -33 29 -33 11 0 17 5 14 13 -2 6 -24 65 -47
130 -38 105 -45 117 -67 117 -15 0 -26 -8 -32 -22z m57 -78 l21 -60 -45 0
c-49 0 -50 2 -30 51 7 19 16 42 19 52 4 9 8 17 11 17 2 0 13 -27 24 -60z"/>
<path d="M1373 2026 c-26 -12 -30 -26 -8 -26 12 0 15 -13 15 -55 0 -42 -3 -55
-15 -55 -8 0 -15 -4 -15 -10 0 -5 20 -10 45 -10 25 0 45 5 45 10 0 6 -7 10
-15 10 -12 0 -15 15 -15 75 0 41 -3 74 -7 74 -5 -1 -18 -6 -30 -13z"/>
<path d="M3595 2256 c-84 -39 -135 -103 -154 -193 -35 -167 89 -324 256 -324
209 -1 337 217 237 401 -68 124 -215 175 -339 116z m214 -26 c224 -115 145
-469 -104 -470 -179 0 -300 196 -219 358 61 123 205 173 323 112z"/>
<path d="M3550 2089 c-25 -68 -46 -126 -48 -131 -2 -4 5 -8 16 -8 13 0 22 10
28 33 9 31 11 32 70 35 l61 3 9 -33 c7 -22 17 -34 31 -36 20 -3 18 4 -26 125
-41 114 -49 128 -72 131 -23 3 -27 -5 -69 -119z m85 44 c33 -79 32 -83 -18
-83 l-46 0 21 60 c11 33 22 60 24 60 2 0 11 -17 19 -37z"/>
<path d="M3770 2037 c0 -9 10 -12 31 -9 19 3 34 0 39 -9 12 -18 -14 -64 -50
-91 -47 -35 -39 -48 30 -48 33 0 60 4 60 10 0 6 -21 10 -47 10 l-47 0 42 40
c63 61 55 110 -20 110 -25 0 -38 -5 -38 -13z"/>
<path d="M2430 2260 c0 -5 11 -10 25 -10 14 0 25 5 25 10 0 6 -11 10 -25 10
-14 0 -25 -4 -25 -10z"/>
<path d="M2510 2261 c0 -5 9 -11 20 -14 13 -3 20 0 20 9 0 8 -9 14 -20 14 -11
0 -20 -4 -20 -9z"/>
<path d="M2377 2249 c-24 -14 -11 -32 14 -19 10 6 19 15 19 20 0 13 -10 12
-33 -1z"/>
<path d="M2577 2246 c-5 -13 12 -26 34 -26 16 0 10 19 -10 29 -14 8 -20 7 -24
-3z"/>
<path d="M2317 2212 c-10 -10 -14 -21 -11 -25 9 -9 44 16 44 30 0 18 -14 16
-33 -5z"/>
<path d="M2640 2207 c0 -21 26 -41 35 -27 4 6 5 12 4 13 -2 2 -12 9 -21 16
-15 11 -18 11 -18 -2z"/>
<path d="M1840 2105 l0 -65 -71 0 -70 0 3 -32 3 -33 68 -3 67 -3 0 -64 0 -65
35 0 35 0 0 65 0 65 65 0 65 0 0 35 0 35 -65 0 -65 0 0 65 0 65 -35 0 -35 0 0
-65z"/>
<path d="M2263 2155 c-3 -9 -3 -19 1 -22 7 -7 36 16 36 28 0 15 -30 10 -37 -6z"/>
<path d="M2686 2152 c-2 -4 2 -15 9 -25 15 -20 28 -8 19 17 -7 17 -20 21 -28
8z"/>
<path d="M2347 2133 c-21 -20 -4 -30 42 -25 42 4 51 1 60 -16 10 -18 6 -20
-40 -26 -29 -4 -58 -15 -69 -26 -43 -43 -10 -106 52 -100 18 1 48 2 66 2 l32
-1 0 80 c0 99 -15 119 -88 119 -27 0 -52 -3 -55 -7z m113 -118 c0 -28 -25 -45
-69 -45 -26 0 -31 4 -31 25 0 29 23 44 68 45 27 0 32 -3 32 -25z"/>
<path d="M2237 2103 c-10 -10 -8 -43 2 -43 9 0 21 24 21 41 0 11 -14 12 -23 2z"/>
<path d="M2927 2103 c-4 -3 -7 -19 -7 -35 l0 -28 160 0 160 0 0 35 0 35 -153
0 c-85 0 -157 -3 -160 -7z"/>
<path d="M2725 2088 c-10 -24 2 -55 16 -41 6 6 6 18 0 34 -8 21 -10 22 -16 7z"/>
<path d="M2220 2015 c0 -14 5 -25 10 -25 6 0 10 11 10 25 0 14 -4 25 -10 25
-5 0 -10 -11 -10 -25z"/>
<path d="M2547 2033 c-15 -14 -5 -18 33 -15 35 4 40 1 40 -16 0 -12 -9 -23
-20 -27 -25 -8 -26 -25 -1 -25 10 0 22 -7 25 -16 10 -27 -14 -46 -51 -42 -22
3 -33 0 -33 -9 0 -19 75 -17 94 3 20 19 20 48 1 64 -13 11 -13 15 0 33 22 32
3 57 -44 57 -21 0 -41 -3 -44 -7z"/>
<path d="M2730 1985 c0 -19 5 -35 10 -35 6 0 10 16 10 35 0 19 -4 35 -10 35
-5 0 -10 -16 -10 -35z"/>
<path d="M2226 1961 c-8 -12 3 -41 15 -41 12 0 12 37 0 45 -5 3 -12 1 -15 -4z"/>
<path d="M2920 1940 l0 -30 160 0 160 0 0 30 0 30 -160 0 -160 0 0 -30z"/>
<path d="M2717 1923 c-10 -10 -8 -43 2 -43 9 0 21 24 21 41 0 11 -14 12 -23 2z"/>
<path d="M2246 1891 c-7 -11 20 -48 29 -39 9 8 -4 48 -15 48 -5 0 -11 -4 -14
-9z"/>
<path d="M2680 1850 c-15 -28 -4 -39 17 -17 13 12 14 20 6 28 -8 8 -14 5 -23
-11z"/>
<path d="M2286 1831 c-7 -10 28 -44 37 -35 7 7 -14 44 -25 44 -4 0 -9 -4 -12
-9z"/>
<path d="M2625 1797 c-13 -10 -15 -16 -6 -21 12 -8 41 10 41 25 0 13 -13 11
-35 -4z"/>
<path d="M2349 1770 c12 -11 27 -17 33 -14 14 9 -12 34 -36 34 -21 -1 -21 -1
3 -20z"/>
<path d="M2555 1759 c-4 -6 -5 -13 -2 -16 8 -7 47 7 47 18 0 13 -37 11 -45 -2z"/>
<path d="M1653 1751 l-72 -6 108 -67 c60 -38 112 -68 116 -68 4 0 -3 16 -16
36 -21 34 -21 36 -3 31 150 -46 1437 -407 1449 -407 73 0 -87 52 -706 227
-393 112 -721 205 -729 208 -11 5 -6 12 18 27 17 11 32 22 32 24 0 5 -101 2
-197 -5z"/>
<path d="M2412 1748 c5 -15 37 -18 41 -3 1 6 -9 12 -22 13 -16 3 -22 -1 -19
-10z"/>
<path d="M2480 1740 c0 -5 11 -10 25 -10 14 0 25 5 25 10 0 6 -11 10 -25 10
-14 0 -25 -4 -25 -10z"/>
<path d="M1233 1272 c-34 -5 -28 -22 7 -22 17 0 30 4 30 9 0 14 -11 18 -37 13z"/>
<path d="M3615 1268 c-38 -14 -99 -58 -125 -91 -36 -45 -53 -99 -53 -167 0
-156 111 -269 263 -270 292 0 372 400 105 521 -45 21 -141 24 -190 7z m191
-36 c86 -45 136 -126 136 -223 0 -180 -179 -300 -337 -225 -245 116 -156 492
111 472 28 -3 69 -13 90 -24z"/>
<path d="M3591 1188 c-60 -161 -83 -230 -78 -235 13 -12 35 7 42 37 l7 31 61
-3 c60 -3 62 -4 71 -35 6 -23 15 -33 29 -33 11 0 17 5 14 13 -2 6 -24 65 -47
130 -38 105 -45 117 -67 117 -15 0 -26 -8 -32 -22z m57 -78 l21 -60 -45 0
c-49 0 -50 2 -30 51 7 19 16 42 19 52 4 9 8 17 11 17 2 0 13 -27 24 -60z"/>
<path d="M3803 1036 c-26 -12 -30 -26 -8 -26 12 0 15 -13 15 -55 0 -42 -3 -55
-15 -55 -8 0 -15 -4 -15 -10 0 -5 20 -10 45 -10 25 0 45 5 45 10 0 6 -7 10
-15 10 -12 0 -15 15 -15 75 0 41 -3 74 -7 74 -5 -1 -18 -6 -30 -13z"/>
<path d="M1290 1260 c0 -5 11 -10 25 -10 14 0 25 5 25 10 0 6 -11 10 -25 10
-14 0 -25 -4 -25 -10z"/>
<path d="M2448 1263 c-29 -7 -21 -25 10 -21 15 2 26 7 25 13 -2 12 -12 14 -35
8z"/>
<path d="M2510 1254 c0 -8 11 -14 25 -14 14 0 25 4 25 9 0 5 -11 11 -25 13
-17 4 -25 1 -25 -8z"/>
<path d="M1160 1250 c-8 -5 -12 -12 -8 -15 10 -10 49 5 43 16 -8 11 -16 11
-35 -1z"/>
<path d="M1360 1246 c0 -16 37 -32 48 -21 7 7 -25 35 -40 35 -4 0 -8 -6 -8
-14z"/>
<path d="M2375 1239 c-10 -15 1 -22 24 -14 12 3 19 11 16 16 -8 12 -32 11 -40
-2z"/>
<path d="M2580 1236 c0 -16 27 -29 42 -20 7 5 4 12 -7 21 -24 17 -35 17 -35
-1z"/>
<path d="M1100 1215 c-19 -23 -1 -39 21 -19 10 9 19 21 19 26 0 13 -27 9 -40
-7z"/>
<path d="M1426 1212 c-3 -5 3 -17 13 -26 11 -10 22 -13 25 -8 3 5 -3 17 -13
26 -11 10 -22 13 -25 8z"/>
<path d="M2320 1205 c-7 -9 -10 -19 -6 -22 8 -9 38 9 44 25 5 17 -23 15 -38
-3z"/>
<path d="M2646 1202 c-7 -12 19 -35 34 -30 7 2 3 11 -8 21 -11 10 -23 14 -26
9z"/>
<path d="M1052 1160 c-15 -25 -15 -30 2 -30 17 0 30 30 19 41 -5 5 -14 0 -21
-11z"/>
<path d="M1476 1162 c-9 -15 4 -42 20 -42 18 0 18 11 1 35 -9 11 -16 14 -21 7z"/>
<path d="M1840 1105 l0 -65 -71 0 -70 0 3 -32 3 -33 68 -3 67 -3 0 -64 0 -65
35 0 35 0 0 65 0 65 65 0 65 0 0 35 0 35 -65 0 -65 0 0 65 0 65 -35 0 -35 0 0
-65z"/>
<path d="M2270 1150 c-15 -28 -4 -39 17 -17 13 12 14 20 6 28 -8 8 -14 5 -23
-11z"/>
<path d="M2696 1152 c-9 -15 4 -42 20 -42 18 0 18 11 1 35 -9 11 -16 14 -21 7z"/>
<path d="M1137 1133 c-19 -19 -3 -29 45 -28 40 0 53 -4 56 -16 2 -12 -7 -18
-38 -22 -58 -8 -90 -31 -90 -67 0 -31 22 -59 48 -61 31 -2 57 3 70 13 8 7 12
7 12 -1 0 -6 9 -11 21 -11 20 0 21 4 18 79 -5 100 -21 121 -89 121 -26 0 -50
-3 -53 -7z m103 -122 c0 -17 -6 -31 -16 -35 -18 -7 -74 -8 -74 -2 0 2 -3 11
-6 19 -8 22 24 47 62 47 31 0 34 -3 34 -29z"/>
<path d="M2347 1123 c-20 -20 -5 -30 38 -25 28 3 50 0 60 -8 22 -18 19 -30 -7
-30 -52 0 -99 -21 -109 -48 -23 -59 33 -104 96 -77 19 7 35 10 35 4 0 -5 7 -9
15 -9 12 0 15 16 15 80 0 100 -15 120 -88 120 -27 0 -52 -3 -55 -7z m113 -117
c0 -32 -22 -48 -62 -44 -66 6 -40 68 29 68 28 0 33 -4 33 -24z"/>
<path d="M1021 1099 c-9 -25 -6 -39 8 -39 13 0 22 43 11 54 -6 6 -13 0 -19
-15z"/>
<path d="M2241 1088 c-9 -24 -6 -38 8 -38 12 0 20 49 10 56 -5 3 -13 -5 -18
-18z"/>
<path d="M2927 1103 c-4 -3 -7 -19 -7 -35 l0 -28 160 0 160 0 0 35 0 35 -153
0 c-85 0 -157 -3 -160 -7z"/>
<path d="M1506 1091 c-9 -14 4 -41 19 -41 8 0 11 8 8 20 -6 24 -19 34 -27 21z"/>
<path d="M2720 1082 c0 -19 12 -42 22 -42 14 0 5 43 -9 48 -7 2 -13 -1 -13 -6z"/>
<path d="M1006 1024 c-10 -25 -7 -34 9 -34 9 0 15 9 15 25 0 28 -15 34 -24 9z"/>
<path d="M1363 1026 c-26 -12 -30 -26 -8 -26 12 0 15 -13 15 -55 0 -42 -3 -55
-15 -55 -8 0 -15 -4 -15 -10 0 -5 20 -10 45 -10 25 0 45 5 45 10 0 6 -7 10
-15 10 -12 0 -15 15 -15 75 0 41 -3 74 -7 74 -5 -1 -18 -6 -30 -13z"/>
<path d="M1518 1023 c-2 -5 -3 -20 -3 -35 0 -42 20 -38 23 5 3 32 -10 51 -20
30z"/>
<path d="M2227 1023 c-13 -12 -7 -43 8 -43 9 0 15 9 15 25 0 24 -10 32 -23 18z"/>
<path d="M2550 1017 c0 -9 10 -12 31 -9 19 3 34 0 39 -9 12 -18 -14 -64 -50
-91 -47 -35 -39 -48 30 -48 33 0 60 4 60 10 0 6 -21 10 -47 10 l-47 0 42 40
c63 61 55 110 -20 110 -25 0 -38 -5 -38 -13z"/>
<path d="M2739 1018 c0 -2 -3 -18 -5 -35 -4 -25 -1 -33 10 -33 12 0 16 10 16
35 0 19 -4 35 -10 35 -5 0 -10 -1 -11 -2z"/>
<path d="M1010 951 c0 -19 17 -38 25 -29 7 7 -7 48 -16 48 -5 0 -9 -9 -9 -19z"/>
<path d="M2920 940 l0 -30 160 0 160 0 0 30 0 30 -160 0 -160 0 0 -30z"/>
<path d="M2230 941 c0 -19 17 -38 25 -29 7 7 -7 48 -16 48 -5 0 -9 -9 -9 -19z"/>
<path d="M1497 910 c-7 -27 9 -35 22 -11 14 26 14 31 -3 31 -7 0 -16 -9 -19
-20z"/>
<path d="M2720 905 c0 -8 0 -17 0 -20 0 -14 15 -4 22 14 5 15 3 21 -7 21 -8 0
-15 -7 -15 -15z"/>
<path d="M1030 892 c0 -15 28 -47 35 -40 8 8 -13 48 -25 48 -6 0 -10 -4 -10
-8z"/>
<path d="M2250 882 c0 -15 28 -47 35 -40 8 8 -13 48 -25 48 -6 0 -10 -4 -10
-8z"/>
<path d="M1463 850 c-9 -13 -9 -21 -2 -26 11 -7 40 26 33 38 -8 13 -19 9 -31
-12z"/>
<path d="M2683 840 c-7 -10 -9 -21 -4 -24 11 -7 43 28 34 37 -10 11 -17 8 -30
-13z"/>
<path d="M1070 831 c0 -13 29 -35 37 -28 7 8 -15 37 -28 37 -5 0 -9 -4 -9 -9z"/>
<path d="M2290 821 c0 -13 29 -35 37 -28 7 8 -15 37 -28 37 -5 0 -9 -4 -9 -9z"/>
<path d="M1416 801 c-21 -23 -8 -34 19 -15 13 10 16 17 9 24 -7 7 -16 4 -28
-9z"/>
<path d="M2635 794 c-13 -10 -16 -17 -9 -24 7 -7 16 -4 28 9 21 23 8 34 -19
15z"/>
<path d="M1126 793 c-11 -12 -6 -20 19 -31 20 -9 25 -9 25 3 0 16 -34 38 -44
28z"/>
<path d="M2344 779 c-7 -12 12 -29 34 -29 19 0 14 18 -7 30 -14 7 -22 7 -27
-1z"/>
<path d="M1358 772 c-10 -2 -18 -10 -18 -18 0 -16 9 -18 29 -5 18 12 10 28
-11 23z"/>
<path d="M2578 762 c-10 -2 -18 -10 -18 -18 0 -16 9 -18 29 -5 18 12 10 28
-11 23z"/>
<path d="M1190 750 c0 -5 4 -10 9 -10 5 0 16 -3 25 -6 11 -4 16 -1 16 10 0 10
-9 16 -25 16 -14 0 -25 -4 -25 -10z"/>
<path d="M1278 753 c-27 -7 -22 -23 7 -23 16 0 25 6 25 15 0 15 -2 16 -32 8z"/>
<path d="M2410 740 c0 -5 4 -10 9 -10 5 0 16 -3 25 -6 11 -4 16 -1 16 10 0 10
-9 16 -25 16 -14 0 -25 -4 -25 -10z"/>
<path d="M2493 743 c-22 -8 -14 -23 12 -23 16 0 25 6 25 15 0 15 -14 18 -37 8z"/>
<path d="M5653 4906 c-121 -39 -193 -136 -193 -261 0 -107 55 -198 146 -245
38 -19 64 -25 119 -25 145 0 251 97 263 240 6 80 -9 136 -53 196 -60 83 -188
126 -282 95z m161 -30 c47 -19 104 -73 129 -120 30 -57 30 -165 0 -221 -118
-221 -435 -160 -460 89 -10 99 57 211 151 252 40 17 138 18 180 0z"/>
<path d="M5629 4844 c-48 -20 -69 -59 -69 -129 0 -51 3 -60 34 -91 30 -30 40
-34 86 -34 61 0 90 13 90 41 0 19 -1 19 -22 5 -35 -24 -100 -21 -126 7 -46 49
-36 144 19 173 30 15 93 11 105 -7 9 -16 24 -10 24 11 0 14 -11 22 -37 29 -48
14 -60 13 -104 -5z"/>
<path d="M5817 4673 c-15 -14 -5 -18 33 -15 35 4 40 1 40 -16 0 -12 -9 -23
-20 -27 -25 -8 -26 -25 -1 -25 10 0 22 -7 25 -16 10 -27 -14 -46 -51 -42 -22
3 -33 0 -33 -9 0 -19 75 -17 94 3 20 19 20 48 1 64 -13 11 -13 15 0 33 22 32
3 57 -44 57 -21 0 -41 -3 -44 -7z"/>
<path d="M6898 4913 c-29 -7 -21 -25 10 -21 15 2 26 7 25 13 -2 12 -12 14 -35
8z"/>
<path d="M6960 4904 c0 -8 11 -14 25 -14 14 0 25 4 25 9 0 5 -11 11 -25 13
-17 4 -25 1 -25 -8z"/>
<path d="M8055 4902 c-76 -26 -121 -66 -156 -138 -28 -56 -31 -71 -27 -131 5
-79 27 -132 78 -183 131 -131 343 -93 426 75 24 50 26 64 22 134 -4 62 -10 88
-32 125 -33 56 -92 101 -159 121 -64 19 -90 18 -152 -3z m173 -28 c52 -21 100
-70 128 -129 75 -159 -44 -346 -221 -346 -106 0 -199 70 -229 172 -20 65 -20
83 -1 145 18 62 71 125 127 153 52 25 142 28 196 5z"/>
<path d="M8043 4839 c-65 -19 -98 -107 -68 -185 20 -53 54 -74 120 -74 56 0
85 14 85 41 0 19 -1 19 -22 5 -12 -9 -42 -16 -65 -16 -68 0 -102 48 -90 127
12 72 69 99 137 65 l40 -19 0 23 c0 18 -8 25 -37 33 -44 13 -57 13 -100 0z"/>
<path d="M8242 4629 c-23 -29 -42 -55 -42 -60 0 -4 19 -9 43 -11 35 -2 43 -7
45 -25 4 -31 22 -29 22 1 0 13 6 27 13 30 10 5 10 7 0 12 -8 3 -13 25 -13 55
0 64 -15 63 -68 -2z m45 -46 c-3 -2 -18 -3 -33 -1 l-27 3 29 35 29 34 3 -33
c2 -18 1 -35 -1 -38z"/>
<path d="M6825 4889 c-10 -15 1 -22 24 -14 12 3 19 11 16 16 -8 12 -32 11 -40
-2z"/>
<path d="M7030 4886 c0 -16 27 -29 42 -20 7 5 4 12 -7 21 -24 17 -35 17 -35
-1z"/>
<path d="M6770 4855 c-7 -9 -11 -18 -8 -20 9 -10 38 7 38 21 0 18 -14 18 -30
-1z"/>
<path d="M7090 4852 c0 -13 23 -32 39 -32 11 0 10 4 -4 20 -19 21 -35 26 -35
12z"/>
<path d="M6720 4800 c-15 -28 -4 -39 17 -17 13 12 14 20 6 28 -8 8 -14 5 -23
-11z"/>
<path d="M6290 4745 l0 -65 -71 0 -70 0 3 -32 3 -33 68 -3 67 -3 0 -64 0 -65
35 0 35 0 0 65 0 65 65 0 65 0 0 35 0 35 -65 0 -65 0 0 65 0 65 -35 0 -35 0 0
-65z"/>
<path d="M7146 4802 c-9 -15 4 -42 20 -42 12 0 13 4 3 23 -16 29 -16 30 -23
19z"/>
<path d="M6819 4761 c-39 -40 -41 -109 -4 -146 37 -38 135 -34 135 6 0 17 -2
17 -36 3 -32 -13 -38 -13 -59 0 -53 35 -37 128 22 134 18 2 41 -2 53 -8 17 -9
20 -8 20 8 0 21 -25 32 -73 32 -18 0 -39 -11 -58 -29z"/>
<path d="M6690 4740 c-11 -21 -5 -44 9 -35 13 7 20 44 11 50 -5 3 -14 -4 -20
-15z"/>
<path d="M7377 4743 c-4 -3 -7 -19 -7 -35 l0 -28 160 0 160 0 0 35 0 35 -153
0 c-85 0 -157 -3 -160 -7z"/>
<path d="M7170 4732 c0 -19 12 -42 22 -42 14 0 5 43 -9 48 -7 2 -13 -1 -13 -6z"/>
<path d="M6670 4654 c0 -31 23 -28 28 4 2 15 -2 22 -12 22 -11 0 -16 -9 -16
-26z"/>
<path d="M6987 4673 c-15 -14 -5 -18 33 -15 35 4 40 1 40 -16 0 -12 -9 -23
-20 -27 -25 -8 -26 -25 -1 -25 10 0 22 -7 25 -16 10 -27 -14 -46 -51 -42 -22
3 -33 0 -33 -9 0 -19 75 -17 94 3 20 19 20 48 1 64 -13 11 -13 15 0 33 22 32
3 57 -44 57 -21 0 -41 -3 -44 -7z"/>
<path d="M7180 4634 c0 -45 24 -42 28 4 2 24 -1 32 -12 32 -12 0 -16 -10 -16
-36z"/>
<path d="M6678 4585 c2 -14 11 -25 19 -25 10 0 13 6 9 16 -3 9 -6 20 -6 25 0
5 -6 9 -14 9 -9 0 -12 -8 -8 -25z"/>
<path d="M7370 4580 l0 -30 160 0 160 0 0 30 0 30 -160 0 -160 0 0 -30z"/>
<path d="M7166 4554 c-7 -18 1 -37 13 -29 5 2 11 14 14 25 6 24 -18 28 -27 4z"/>
<path d="M6700 4528 c0 -22 17 -41 29 -34 8 5 8 13 1 27 -12 21 -30 26 -30 7z"/>
<path d="M7131 4491 c-6 -10 -7 -21 -4 -25 9 -8 33 14 33 30 0 20 -18 17 -29
-5z"/>
<path d="M6740 4471 c0 -13 29 -35 37 -28 7 8 -15 37 -28 37 -5 0 -9 -4 -9 -9z"/>
<path d="M7088 4446 c-19 -14 -24 -36 -9 -36 12 0 33 28 29 39 -2 6 -10 4 -20
-3z"/>
<path d="M6790 4426 c0 -16 37 -32 48 -21 7 7 -25 35 -40 35 -4 0 -8 -6 -8
-14z"/>
<path d="M7022 4409 c-13 -5 -21 -13 -18 -18 9 -13 46 -1 46 15 0 8 -1 14 -2
13 -2 0 -13 -4 -26 -10z"/>
<path d="M6860 4390 c0 -5 4 -10 9 -10 5 0 16 -3 25 -6 11 -4 16 -1 16 10 0
10 -9 16 -25 16 -14 0 -25 -4 -25 -10z"/>
<path d="M6943 4393 c-22 -8 -14 -23 12 -23 16 0 25 6 25 15 0 15 -14 18 -37
8z"/>
<path d="M6032 4305 c13 -13 228 -143 228 -138 0 3 -9 21 -20 39 l-21 33 68
-20 c37 -10 191 -54 341 -96 238 -67 272 -79 272 -96 0 -18 5 -19 48 -14 39 4
102 -10 392 -93 302 -85 386 -103 357 -74 -3 4 -163 51 -354 105 -191 54 -357
103 -368 108 -11 5 -33 12 -50 15 -67 14 -685 190 -685 196 0 4 15 14 33 23
31 15 28 16 -107 16 -77 1 -137 -1 -134 -4z"/>
<path d="M5690 4040 c0 -28 3 -30 35 -30 32 0 35 2 35 30 0 28 -3 30 -35 30
-32 0 -35 -2 -35 -30z"/>
<path d="M8120 4040 c0 -28 3 -30 35 -30 32 0 35 2 35 30 0 28 -3 30 -35 30
-32 0 -35 -2 -35 -30z"/>
<path d="M5690 3850 c0 -28 3 -30 35 -30 32 0 35 2 35 30 0 28 -3 30 -35 30
-32 0 -35 -2 -35 -30z"/>
<path d="M6900 3850 c0 -28 3 -30 35 -30 32 0 35 2 35 30 0 28 -3 30 -35 30
-32 0 -35 -2 -35 -30z"/>
<path d="M8120 3850 c0 -28 3 -30 35 -30 32 0 35 2 35 30 0 28 -3 30 -35 30
-32 0 -35 -2 -35 -30z"/>
<path d="M6036 3742 c15 -14 224 -141 224 -137 0 2 -9 20 -21 39 l-20 35 68
-20 c37 -10 367 -104 733 -208 430 -123 669 -186 675 -180 6 7 6 12 -2 17 -6
4 -336 99 -732 211 -397 113 -721 208 -721 211 0 4 15 14 33 23 31 15 28 16
-107 16 -77 1 -136 -3 -130 -7z"/>
<path d="M5690 3660 c0 -28 3 -30 35 -30 32 0 35 2 35 30 0 28 -3 30 -35 30
-32 0 -35 -2 -35 -30z"/>
<path d="M6900 3660 c0 -28 3 -30 35 -30 32 0 35 2 35 30 0 28 -3 30 -35 30
-32 0 -35 -2 -35 -30z"/>
<path d="M8120 3660 c0 -28 3 -30 35 -30 32 0 35 2 35 30 0 28 -3 30 -35 30
-32 0 -35 -2 -35 -30z"/>
<path d="M5615 3256 c-99 -47 -158 -140 -157 -251 1 -153 114 -268 265 -267
76 0 122 18 181 72 54 50 86 126 86 204 0 67 -46 163 -98 206 -76 63 -190 78
-277 36z m215 -26 c122 -63 170 -219 104 -340 -77 -141 -249 -173 -368 -69
-147 130 -94 374 92 425 55 16 123 9 172 -16z"/>
<path d="M5570 3089 c-25 -68 -46 -126 -48 -131 -2 -4 5 -8 16 -8 13 0 22 10
28 33 9 31 11 32 70 35 l61 3 9 -33 c7 -22 17 -34 31 -36 20 -3 18 4 -26 125
-41 114 -49 128 -72 131 -23 3 -27 -5 -69 -119z m85 44 c33 -79 32 -83 -18
-83 l-46 0 21 60 c11 33 22 60 24 60 2 0 11 -17 19 -37z"/>
<path d="M5790 3037 c0 -9 10 -12 31 -9 19 3 34 0 39 -9 12 -18 -14 -64 -50
-91 -47 -35 -39 -48 30 -48 33 0 60 4 60 10 0 6 -21 10 -47 10 l-47 0 42 40
c63 61 55 110 -20 110 -25 0 -38 -5 -38 -13z"/>
<path d="M6841 3263 c-52 -18 -118 -81 -146 -138 -49 -102 -22 -238 61 -315
59 -54 105 -72 181 -72 151 -1 264 114 265 267 1 193 -180 322 -361 258z m148
-14 c147 -31 231 -197 171 -337 -40 -93 -129 -152 -229 -152 -171 0 -287 196
-210 355 l24 50 3 -127 3 -128 65 0 c68 0 117 17 128 45 12 33 5 67 -19 89
-22 21 -23 25 -10 36 21 17 19 46 -5 70 -16 16 -33 20 -87 20 l-66 0 19 21
c23 25 67 50 109 60 43 10 49 10 104 -2z m-104 -144 c0 -29 -2 -30 -47 -33
l-48 -3 0 36 0 36 48 -3 c45 -3 47 -4 47 -33z m6 -75 c12 -7 19 -21 19 -40 0
-36 -23 -50 -79 -50 l-41 0 0 50 0 50 41 0 c22 0 49 -5 60 -10z"/>
<path d="M6990 2998 c0 -8 14 -13 37 -13 54 0 54 -24 -1 -83 -25 -27 -46 -52
-46 -56 0 -3 27 -6 60 -6 33 0 60 4 60 10 0 6 -20 10 -44 10 l-44 0 39 39 c40
40 50 76 27 99 -16 16 -88 16 -88 0z"/>
<path d="M8045 3256 c-99 -47 -158 -140 -157 -251 1 -153 114 -268 265 -267
76 0 122 18 181 72 146 135 94 391 -92 454 -67 23 -138 20 -197 -8z m215 -26
c122 -63 170 -219 104 -340 -127 -233 -475 -125 -451 140 15 174 196 278 347
200z"/>
<path d="M8059 3204 c-48 -20 -69 -59 -69 -129 0 -51 3 -60 34 -91 30 -30 40
-34 86 -34 61 0 90 13 90 41 0 19 -1 19 -22 5 -35 -24 -100 -21 -126 7 -46 49
-36 144 19 173 30 15 93 11 105 -7 9 -16 24 -10 24 11 0 14 -11 22 -37 29 -48
14 -60 13 -104 -5z"/>
<path d="M8273 3036 c-26 -12 -30 -26 -8 -26 12 0 15 -13 15 -55 0 -42 -3 -55
-15 -55 -8 0 -15 -4 -15 -10 0 -5 20 -10 45 -10 25 0 45 5 45 10 0 6 -7 10
-15 10 -12 0 -15 15 -15 75 0 41 -3 74 -7 74 -5 -1 -18 -6 -30 -13z"/>
<path d="M6290 3115 l0 -65 -71 0 -70 0 3 -32 3 -33 68 -3 67 -3 0 -64 0 -65
35 0 35 0 0 65 0 65 65 0 65 0 0 35 0 35 -65 0 -65 0 0 65 0 65 -35 0 -35 0 0
-65z"/>
<path d="M7377 3113 c-4 -3 -7 -19 -7 -35 l0 -28 160 0 160 0 0 35 0 35 -153
0 c-85 0 -157 -3 -160 -7z"/>
<path d="M7370 2950 l0 -30 160 0 160 0 0 30 0 30 -160 0 -160 0 0 -30z"/>
<path d="M9918 4910 c-206 -52 -271 -329 -111 -470 183 -161 462 -15 440 231
-14 162 -174 278 -329 239z m189 -53 c78 -50 115 -116 116 -212 2 -223 -260
-331 -416 -170 -79 81 -89 228 -21 311 l23 29 1 -117 0 -118 65 0 c69 0 118
17 129 45 12 33 5 67 -19 89 -22 21 -23 25 -10 36 19 16 19 40 1 66 -11 14
-31 20 -78 25 l-63 5 45 22 c63 32 167 27 227 -11z m-162 -82 c0 -29 -2 -30
-47 -33 l-48 -3 0 36 0 36 48 -3 c45 -3 47 -4 47 -33z m6 -75 c12 -7 19 -21
19 -40 0 -36 -23 -50 -79 -50 l-41 0 0 50 0 50 41 0 c22 0 49 -5 60 -10z"/>
<path d="M10040 4670 c0 -5 22 -10 50 -10 l49 0 -41 -76 c-25 -46 -36 -75 -27
-72 15 4 88 133 89 156 0 8 -18 12 -60 12 -33 0 -60 -4 -60 -10z"/>
<path d="M11153 4913 c-22 -8 -14 -23 12 -23 16 0 25 6 25 15 0 15 -14 18 -37
8z"/>
<path d="M11220 4904 c0 -8 9 -14 19 -14 30 0 34 17 6 22 -17 4 -25 1 -25 -8z"/>
<path d="M12335 4911 c-16 -4 -49 -17 -71 -29 -158 -81 -184 -321 -47 -442
135 -118 332 -79 412 81 88 176 -23 378 -217 394 -26 2 -60 1 -77 -4z m183
-55 c138 -87 158 -280 40 -393 -44 -43 -99 -64 -164 -64 -173 0 -292 180 -224
339 41 95 50 88 50 -37 l0 -111 71 0 c65 0 73 2 100 29 35 36 37 64 5 96 -23
23 -24 27 -12 51 15 27 11 60 -8 71 -6 4 -33 10 -61 14 l-50 5 35 17 c54 27
163 18 218 -17z m-161 -52 c11 -28 -11 -49 -56 -52 -41 -3 -41 -3 -41 32 0 36
0 36 45 36 33 0 47 -5 52 -16z m4 -94 c12 -7 19 -21 19 -40 0 -36 -23 -50 -79
-50 l-41 0 0 50 0 50 41 0 c22 0 49 -5 60 -10z"/>
<path d="M12460 4661 c-11 -21 -4 -51 13 -51 5 0 3 -8 -6 -18 -36 -39 -15 -82
39 -82 56 0 81 44 47 82 -9 10 -11 18 -6 18 15 0 22 34 11 54 -13 24 -84 22
-98 -3z m64 3 c18 -7 22 -39 6 -49 -6 -3 -19 -3 -30 0 -22 7 -27 40 -7 48 6 3
13 6 14 6 1 1 8 -2 17 -5z m10 -87 c30 -22 -2 -65 -38 -51 -31 12 -29 64 3 64
10 0 25 -6 35 -13z"/>
<path d="M11083 4894 c-7 -3 -10 -11 -7 -19 4 -9 0 -12 -13 -9 -22 5 -58 -21
-49 -35 4 -6 13 -8 21 -4 13 4 15 -14 15 -115 l0 -121 33 -1 c17 0 43 -1 56
-1 58 -2 96 85 68 154 -18 42 -54 56 -99 39 l-28 -10 0 44 c0 33 5 47 20 56
33 21 20 37 -17 22z m86 -148 c7 -8 11 -36 9 -63 -2 -40 -7 -50 -28 -60 -15
-7 -36 -10 -48 -6 -19 5 -22 12 -22 64 0 45 4 60 18 68 25 15 58 13 71 -3z"/>
<path d="M11290 4886 c0 -16 27 -29 42 -20 5 3 1 12 -9 20 -23 17 -33 17 -33
0z"/>
<path d="M11346 4851 c-3 -4 3 -16 13 -25 22 -20 40 -4 21 19 -14 17 -26 19
-34 6z"/>
<path d="M10982 4808 c-14 -14 -16 -38 -2 -38 13 0 32 38 22 44 -5 3 -14 0
-20 -6z"/>
<path d="M10550 4745 l0 -65 -71 0 -70 0 3 -32 3 -33 68 -3 67 -3 0 -64 0 -65
35 0 35 0 0 65 0 65 65 0 65 0 0 35 0 35 -65 0 -65 0 0 65 0 65 -35 0 -35 0 0
-65z"/>
<path d="M11400 4781 c13 -25 33 -28 28 -4 -2 10 -11 19 -21 21 -16 3 -17 1
-7 -17z"/>
<path d="M10945 4740 c-4 -12 -2 -27 3 -32 7 -7 12 -3 17 12 4 12 2 27 -3 32
-7 7 -12 3 -17 -12z"/>
<path d="M11637 4743 c-4 -3 -7 -19 -7 -35 l0 -28 160 0 160 0 0 35 0 35 -153
0 c-85 0 -157 -3 -160 -7z"/>
<path d="M11430 4721 c0 -20 17 -37 27 -28 7 8 -7 47 -18 47 -5 0 -9 -9 -9
-19z"/>
<path d="M10930 4655 c0 -14 4 -25 9 -25 5 0 11 11 13 25 4 17 1 25 -8 25 -8
0 -14 -11 -14 -25z"/>
<path d="M11267 4673 c-15 -14 -5 -18 33 -15 35 4 40 1 40 -16 0 -12 -9 -23
-20 -27 -25 -8 -26 -25 -1 -25 10 0 22 -7 25 -16 10 -27 -14 -46 -51 -42 -22
3 -33 0 -33 -9 0 -19 75 -17 94 3 20 19 20 48 1 64 -13 11 -13 15 0 33 22 32
3 57 -44 57 -21 0 -41 -3 -44 -7z"/>
<path d="M11440 4635 c0 -39 15 -48 22 -12 5 27 0 47 -13 47 -5 0 -9 -16 -9
-35z"/>
<path d="M10934 4594 c3 -9 6 -20 6 -25 0 -5 5 -9 10 -9 6 0 10 11 10 25 0 16
-6 25 -16 25 -11 0 -14 -5 -10 -16z"/>
<path d="M11630 4580 l0 -30 160 0 160 0 0 30 0 30 -160 0 -160 0 0 -30z"/>
<path d="M11424 4555 c-8 -21 6 -41 17 -24 12 19 11 39 -1 39 -6 0 -13 -7 -16
-15z"/>
<path d="M10960 4528 c0 -19 18 -43 25 -36 9 9 -4 48 -16 48 -5 0 -9 -6 -9
-12z"/>
<path d="M11390 4495 c-16 -19 -3 -40 16 -24 15 13 19 39 5 39 -5 0 -14 -7
-21 -15z"/>
<path d="M10997 4473 c-9 -9 12 -33 29 -33 17 0 18 12 2 28 -14 14 -22 15 -31
5z"/>
<path d="M11341 4446 c-20 -24 -9 -39 14 -22 15 11 17 18 9 26 -8 8 -14 7 -23
-4z"/>
<path d="M11045 4430 c-6 -9 25 -30 44 -30 20 0 11 17 -14 28 -14 7 -27 7 -30
2z"/>
<path d="M11278 4413 c-10 -3 -18 -11 -18 -19 0 -11 6 -13 23 -8 12 3 24 8 26
10 9 8 -15 20 -31 17z"/>
<path d="M11120 4394 c0 -8 7 -14 15 -14 8 0 18 0 22 -1 21 -2 10 19 -12 23
-17 4 -25 1 -25 -8z"/>
<path d="M11197 4393 c-14 -13 -6 -23 18 -23 16 0 25 6 25 15 0 15 -31 21 -43
8z"/>
<path d="M10391 4239 c63 -39 118 -73 122 -76 5 -3 0 12 -10 33 -15 30 -17 44
-9 62 6 12 13 22 16 22 4 0 15 7 26 15 17 13 4 14 -120 15 l-139 0 114 -71z"/>
<path d="M10525 4239 c-9 -13 -7 -15 27 -23 30 -7 49 11 27 25 -19 12 -46 11
-54 -2z"/>
<path d="M10617 4216 c-7 -18 49 -41 59 -25 8 13 -4 25 -32 33 -14 4 -24 2
-27 -8z"/>
<path d="M10710 4186 c0 -14 21 -26 46 -26 23 0 16 27 -8 34 -33 8 -38 8 -38
-8z"/>
<path d="M10800 4159 c0 -10 6 -19 14 -19 8 0 22 -3 31 -6 13 -5 16 -2 14 11
-2 10 -16 22 -31 26 -23 6 -28 4 -28 -12z"/>
<path d="M10890 4136 c0 -14 21 -26 46 -26 23 0 16 27 -8 34 -33 8 -38 8 -38
-8z"/>
<path d="M10980 4106 c0 -17 52 -28 62 -13 4 6 2 15 -5 19 -20 13 -57 9 -57
-6z"/>
<path d="M11077 4093 c-13 -12 -7 -21 22 -31 39 -14 54 14 15 28 -30 12 -29
12 -37 3z"/>
<path d="M11165 4072 c-3 -3 -5 -18 -5 -34 0 -25 3 -28 35 -28 32 0 35 3 35
29 0 24 -5 29 -30 33 -17 3 -32 2 -35 0z"/>
<path d="M9940 4040 c0 -28 3 -30 35 -30 32 0 35 2 35 30 0 28 -3 30 -35 30
-32 0 -35 -2 -35 -30z"/>
<path d="M12370 4040 c0 -28 3 -30 35 -30 32 0 35 2 35 30 0 28 -3 30 -35 30
-32 0 -35 -2 -35 -30z"/>
<path d="M11256 4034 c-6 -15 3 -21 39 -26 30 -5 24 24 -7 33 -19 5 -28 3 -32
-7z"/>
<path d="M11347 4006 c-5 -13 19 -26 51 -26 21 0 13 27 -10 34 -32 8 -35 8
-41 -8z"/>
<path d="M11440 3979 c0 -10 3 -19 8 -19 4 0 17 -3 30 -6 35 -10 28 22 -8 35
-27 9 -30 8 -30 -10z"/>
<path d="M11532 3954 c4 -24 58 -33 58 -10 0 9 -6 16 -14 16 -8 0 -22 3 -31 6
-13 5 -16 2 -13 -12z"/>
<path d="M11620 3926 c0 -19 51 -31 61 -14 5 8 2 15 -9 20 -29 11 -52 9 -52
-6z"/>
<path d="M11714 3909 c-3 -5 -3 -13 0 -18 8 -12 56 -20 56 -10 0 5 0 12 0 17
0 11 -49 21 -56 11z"/>
<path d="M11807 3884 c-13 -13 -7 -22 19 -28 24 -6 55 7 43 18 -9 9 -55 17
-62 10z"/>
<path d="M9940 3850 c0 -28 3 -30 35 -30 32 0 35 2 35 30 0 28 -3 30 -35 30
-32 0 -35 -2 -35 -30z"/>
<path d="M11160 3850 c0 -28 3 -30 35 -30 32 0 35 2 35 30 0 28 -3 30 -35 30
-32 0 -35 -2 -35 -30z"/>
<path d="M12370 3850 c0 -28 3 -30 35 -30 32 0 35 2 35 30 0 28 -3 30 -35 30
-32 0 -35 -2 -35 -30z"/>
<path d="M11896 3854 c-6 -16 38 -39 55 -28 17 10 9 22 -20 32 -23 8 -31 7
-35 -4z"/>
<path d="M9940 3660 c0 -28 3 -30 35 -30 32 0 35 2 35 30 0 28 -3 30 -35 30
-32 0 -35 -2 -35 -30z"/>
<path d="M11160 3660 c0 -28 3 -30 35 -30 32 0 35 2 35 30 0 28 -3 30 -35 30
-32 0 -35 -2 -35 -30z"/>
<path d="M12370 3660 c0 -28 3 -30 35 -30 32 0 35 2 35 30 0 28 -3 30 -35 30
-32 0 -35 -2 -35 -30z"/>
<path d="M9895 3268 c-86 -32 -156 -114 -175 -205 -35 -169 89 -325 260 -325
152 0 264 116 264 272 0 107 -58 200 -152 246 -44 21 -154 28 -197 12z m149
-22 c104 -31 166 -110 174 -218 6 -84 -13 -140 -66 -193 -50 -51 -105 -75
-172 -75 -178 0 -294 190 -216 355 12 28 30 56 39 64 16 12 17 4 17 -108 l0
-121 69 0 c59 0 74 4 97 23 36 31 38 82 4 109 -18 14 -20 22 -12 30 17 17 15
59 -5 80 -12 13 -30 18 -70 18 -64 0 -62 13 5 34 61 19 79 19 136 2z m-93 -82
c22 -26 -1 -49 -55 -52 l-46 -3 0 35 c0 36 0 36 44 36 28 0 48 -6 57 -16z m20
-105 c28 -44 -4 -79 -72 -79 l-49 0 0 51 0 51 56 -4 c33 -3 60 -11 65 -19z"/>
<path d="M10057 3043 c-15 -14 -5 -18 33 -15 37 4 40 2 40 -22 0 -17 -13 -38
-40 -63 -55 -52 -52 -63 15 -63 30 0 55 5 55 10 0 6 -19 10 -41 10 l-42 0 42
45 c44 48 47 56 31 86 -8 14 -21 19 -49 19 -21 0 -41 -3 -44 -7z"/>
<path d="M11135 3271 c-3 -5 -1 -12 5 -16 13 -8 50 3 50 16 0 12 -47 12 -55 0z"/>
<path d="M11212 3268 c3 -7 15 -15 27 -16 16 -3 22 1 19 10 -3 7 -15 15 -27
16 -16 3 -22 -1 -19 -10z"/>
<path d="M12305 3257 c-104 -49 -158 -134 -159 -247 -1 -156 112 -272 264
-272 151 0 263 113 264 267 1 155 -101 264 -254 272 -53 3 -75 -1 -115 -20z
m169 -11 c104 -31 166 -110 174 -218 6 -85 -14 -141 -69 -197 -54 -54 -113
-75 -187 -68 -68 6 -103 22 -151 69 -73 71 -93 188 -48 278 l22 45 3 -119 3
-118 73 4 c90 4 116 22 116 79 0 30 -6 42 -25 55 -22 14 -23 18 -10 31 22 21
18 60 -7 77 -14 10 -44 16 -78 16 l-55 1 30 25 c30 25 102 52 141 53 11 1 42
-5 68 -13z m-129 -131 c0 -29 -2 -30 -47 -33 l-48 -3 0 36 0 36 48 -3 c45 -3
47 -4 47 -33z m13 -81 c49 -34 14 -84 -60 -84 l-48 0 0 50 0 50 43 0 c23 0 53
-7 65 -16z"/>
<path d="M12457 3013 c-15 -14 -5 -18 33 -15 35 4 40 1 40 -16 0 -12 -9 -23
-20 -27 -25 -8 -26 -25 -1 -25 10 0 22 -7 25 -16 10 -27 -14 -46 -51 -42 -22
3 -33 0 -33 -9 0 -19 75 -17 94 3 20 19 20 48 1 64 -13 11 -13 15 0 33 22 32
3 57 -44 57 -21 0 -41 -3 -44 -7z"/>
<path d="M11087 3259 c-9 -6 -15 -14 -12 -19 8 -13 45 0 45 16 0 16 -8 17 -33
3z"/>
<path d="M11285 3251 c-5 -9 24 -31 39 -31 13 0 5 28 -10 34 -20 8 -22 8 -29
-3z"/>
<path d="M11022 3218 c-18 -18 -14 -30 8 -23 19 6 20 2 20 -119 l0 -125 33 -1
c17 0 43 -1 56 -1 58 -2 96 85 68 154 -18 42 -54 56 -98 40 -28 -11 -28 -11
-31 36 -2 37 -7 47 -23 49 -11 1 -26 -3 -33 -10z m147 -112 c7 -8 11 -36 9
-63 -2 -40 -7 -50 -28 -60 -15 -7 -36 -10 -48 -6 -19 5 -22 12 -22 64 0 45 4
60 18 68 25 15 58 13 71 -3z"/>
<path d="M11345 3211 c-6 -11 33 -36 42 -27 7 7 -16 36 -28 36 -4 0 -10 -4
-14 -9z"/>
<path d="M10550 3115 l0 -65 -71 0 -70 0 3 -32 3 -33 68 -3 67 -3 0 -64 0 -65
35 0 35 0 0 65 0 65 65 0 65 0 0 35 0 35 -65 0 -65 0 0 65 0 65 -35 0 -35 0 0
-65z"/>
<path d="M10970 3161 c-7 -14 -7 -22 1 -26 11 -8 40 25 33 37 -9 14 -23 9 -34
-11z"/>
<path d="M11397 3164 c-8 -9 11 -44 23 -44 6 0 10 6 10 14 0 16 -24 38 -33 30z"/>
<path d="M10941 3098 c-5 -14 -5 -24 1 -27 12 -4 28 17 28 37 0 20 -20 13 -29
-10z"/>
<path d="M11637 3113 c-4 -3 -7 -19 -7 -35 l0 -28 160 0 160 0 0 35 0 35 -153
0 c-85 0 -157 -3 -160 -7z"/>
<path d="M11428 3079 c7 -18 22 -28 22 -14 0 3 0 12 0 20 0 8 -7 15 -15 15
-10 0 -12 -6 -7 -21z"/>
<path d="M10930 3026 c0 -14 5 -26 10 -26 6 0 10 9 10 19 0 11 -4 23 -10 26
-6 4 -10 -5 -10 -19z"/>
<path d="M11293 3036 c-26 -12 -30 -26 -8 -26 12 0 15 -13 15 -55 0 -42 -3
-55 -15 -55 -8 0 -15 -4 -15 -10 0 -5 20 -10 45 -10 25 0 45 5 45 10 0 6 -7
10 -15 10 -12 0 -15 15 -15 75 0 41 -3 74 -7 74 -5 -1 -18 -6 -30 -13z"/>
<path d="M11438 2995 c-3 -24 0 -35 9 -35 8 0 13 13 13 35 0 19 -4 35 -9 35
-5 0 -11 -16 -13 -35z"/>
<path d="M11630 2950 l0 -30 160 0 160 0 0 30 0 30 -160 0 -160 0 0 -30z"/>
<path d="M10930 2958 c0 -7 4 -19 9 -27 11 -17 25 3 17 24 -7 18 -26 20 -26 3z"/>
<path d="M11427 2934 c-10 -10 -9 -44 2 -44 13 0 23 32 13 42 -5 5 -11 5 -15
2z"/>
<path d="M10958 2905 c-8 -9 12 -55 24 -55 4 0 8 6 8 13 0 18 -24 50 -32 42z"/>
<path d="M11386 2854 c-4 -9 -4 -19 -1 -22 6 -6 35 18 35 29 0 16 -28 10 -34
-7z"/>
<path d="M10996 2842 c-9 -15 21 -49 34 -36 7 7 5 15 -9 28 -10 9 -22 13 -25
8z"/>
<path d="M11337 2805 c-13 -9 -15 -15 -7 -20 7 -4 19 -1 27 8 19 19 3 29 -20
12z"/>
<path d="M11045 2791 c-7 -13 32 -34 47 -25 7 5 5 11 -7 21 -22 15 -32 16 -40
4z"/>
<path d="M11273 2773 c-7 -2 -13 -9 -13 -15 0 -12 41 -6 41 7 1 12 -11 15 -28
8z"/>
<path d="M10280 2766 c0 -5 226 -146 234 -146 3 0 -3 14 -13 31 -17 28 -17 33
-4 60 8 16 18 29 22 29 4 0 16 7 27 15 17 13 4 14 -123 15 -79 0 -143 -2 -143
-4z"/>
<path d="M11120 2755 c0 -8 9 -15 20 -15 24 0 27 15 4 24 -22 9 -24 8 -24 -9z"/>
<path d="M11185 2751 c-3 -5 -2 -12 3 -15 12 -7 52 4 52 15 0 12 -47 12 -55 0z"/>
<path d="M10527 2696 c-7 -18 49 -41 59 -25 8 13 -4 25 -32 33 -14 4 -24 2
-27 -8z"/>
<path d="M10617 2666 c-5 -13 19 -26 51 -26 21 0 13 27 -10 34 -32 8 -35 8
-41 -8z"/>
<path d="M10710 2639 c0 -10 6 -19 14 -19 8 0 22 -3 31 -6 13 -5 16 -2 14 11
-2 10 -16 22 -31 26 -23 6 -28 4 -28 -12z"/>
<path d="M10800 2616 c0 -14 21 -26 46 -26 23 0 16 27 -8 34 -33 8 -38 8 -38
-8z"/>
<path d="M10890 2586 c0 -12 28 -25 53 -26 14 0 7 28 -9 34 -26 10 -44 7 -44
-8z"/>
<path d="M10981 2565 c2 -10 16 -22 32 -26 22 -6 27 -4 27 12 0 10 -6 19 -14
19 -8 0 -22 3 -31 6 -13 5 -16 2 -14 -11z"/>
<path d="M11070 2536 c0 -19 51 -31 61 -14 5 8 2 15 -9 20 -29 11 -52 9 -52
-6z"/>
<path d="M11164 2518 c-9 -13 6 -26 36 -30 17 -2 25 2 25 11 0 17 -52 34 -61
19z"/>
<path d="M11257 2486 c-5 -13 19 -26 51 -26 21 0 13 27 -10 34 -32 8 -35 8
-41 -8z"/>
<path d="M11350 2459 c0 -10 3 -19 8 -19 4 0 17 -3 30 -6 35 -10 28 22 -8 35
-27 9 -30 8 -30 -10z"/>
<path d="M11442 2434 c4 -24 58 -33 58 -10 0 9 -6 16 -14 16 -8 0 -22 3 -31 6
-13 5 -16 2 -13 -12z"/>
<path d="M11530 2406 c0 -12 28 -25 53 -26 14 0 7 28 -9 34 -26 10 -44 7 -44
-8z"/>
<path d="M11620 2385 c0 -9 12 -20 26 -25 33 -13 34 -13 34 5 0 9 -12 20 -26
25 -33 13 -34 13 -34 -5z"/>
<path d="M11710 2356 c0 -14 21 -26 46 -26 23 0 16 27 -8 34 -33 8 -38 8 -38
-8z"/>
<path d="M11800 2326 c0 -17 52 -28 62 -13 4 6 2 15 -5 19 -20 13 -57 9 -57
-6z"/>
<path d="M11897 2313 c-13 -12 -7 -21 22 -31 39 -14 54 14 15 28 -30 12 -29
12 -37 3z"/>
<path d="M9886 2260 c-60 -24 -119 -79 -148 -140 -31 -63 -31 -167 0 -232 44
-89 149 -158 242 -158 55 0 132 31 175 71 62 57 89 118 89 199 0 86 -17 134
-71 192 -77 82 -186 108 -287 68z m224 -45 c24 -17 58 -52 75 -79 27 -45 30
-58 30 -131 0 -73 -3 -87 -30 -131 -19 -30 -49 -60 -79 -79 -44 -27 -58 -30
-126 -30 -68 0 -82 3 -126 30 -30 19 -60 49 -79 79 -27 44 -30 58 -30 130 0
72 3 86 30 131 l30 50 3 -122 3 -123 65 0 c68 0 117 17 128 45 12 33 5 67 -19
89 -22 21 -23 25 -10 36 21 17 19 46 -5 70 -15 15 -33 20 -77 20 -60 0 -61 6
-8 35 22 12 51 15 105 13 64 -3 82 -7 120 -33z m-165 -80 c0 -29 -2 -30 -47
-33 l-48 -3 0 36 0 36 48 -3 c45 -3 47 -4 47 -33z m6 -75 c12 -7 19 -21 19
-40 0 -36 -23 -50 -79 -50 l-41 0 0 50 0 50 41 0 c22 0 49 -5 60 -10z"/>
<path d="M10083 2025 c-26 -11 -30 -25 -8 -25 12 0 15 -13 15 -55 0 -42 -3
-55 -15 -55 -8 0 -15 -4 -15 -10 0 -5 20 -10 45 -10 25 0 45 5 45 10 0 6 -9
10 -20 10 -17 0 -19 8 -22 73 -3 71 -3 72 -25 62z"/>
<path d="M12325 2267 c-95 -38 -156 -109 -175 -204 -45 -214 167 -389 367
-303 207 89 211 396 7 495 -47 23 -156 30 -199 12z m195 -37 c48 -25 107 -93
120 -139 16 -56 12 -142 -9 -186 -49 -108 -174 -166 -287 -135 -60 17 -137 87
-160 145 -25 68 -16 167 22 225 l29 45 3 -117 3 -118 69 0 c58 0 73 4 96 23
36 31 38 82 4 109 -18 14 -20 22 -12 30 18 18 14 63 -6 81 -9 9 -40 17 -67 19
-49 3 -49 3 -25 17 61 35 153 35 220 1z m-149 -66 c22 -26 -1 -49 -55 -52
l-46 -3 0 35 c0 36 0 36 44 36 28 0 48 -6 57 -16z m20 -105 c28 -44 -4 -79
-72 -79 l-49 0 0 51 0 51 56 -4 c33 -3 60 -11 65 -19z"/>
<path d="M12477 2043 c-15 -14 -5 -18 33 -15 37 4 40 2 40 -22 0 -17 -13 -38
-40 -63 -55 -52 -52 -63 15 -63 30 0 55 5 55 10 0 6 -19 10 -41 10 l-42 0 42
45 c44 48 47 56 31 86 -8 14 -21 19 -49 19 -21 0 -41 -3 -44 -7z"/>
<path d="M11135 2260 c-4 -6 7 -10 24 -10 17 0 31 5 31 10 0 6 -11 10 -24 10
-14 0 -28 -4 -31 -10z"/>
<path d="M11210 2261 c0 -5 11 -11 25 -13 17 -4 25 -1 25 8 0 8 -11 14 -25 14
-14 0 -25 -4 -25 -9z"/>
<path d="M11081 2251 c-7 -5 -10 -14 -7 -20 8 -13 46 3 46 19 0 12 -20 13 -39
1z"/>
<path d="M11280 2241 c0 -11 39 -25 47 -18 3 3 2 10 -2 16 -8 13 -45 15 -45 2z"/>
<path d="M11025 2210 c-16 -18 -14 -25 8 -21 4 0 7 -55 7 -124 l0 -125 43 -1
c89 -3 111 10 127 72 23 83 -31 148 -100 122 l-30 -11 0 42 c0 38 -13 66 -30
66 -4 0 -15 -9 -25 -20z m145 -119 c11 -22 13 -71 4 -96 -8 -21 -45 -35 -73
-28 -18 5 -21 13 -21 64 0 45 4 60 18 68 27 16 60 13 72 -8z"/>
<path d="M11346 2212 c-3 -5 3 -17 13 -26 11 -10 22 -13 25 -8 3 5 -3 17 -13
26 -11 10 -22 13 -25 8z"/>
<path d="M10550 2105 l0 -65 -71 0 -70 0 3 -32 3 -33 68 -3 67 -3 0 -64 0 -65
35 0 35 0 0 65 0 65 65 0 65 0 0 35 0 35 -65 0 -65 0 0 65 0 65 -35 0 -35 0 0
-65z"/>
<path d="M10970 2150 c-8 -16 -8 -20 4 -20 9 0 20 9 26 20 8 16 8 20 -4 20 -9
0 -20 -9 -26 -20z"/>
<path d="M11390 2153 c0 -5 7 -16 14 -26 16 -20 30 -8 20 17 -6 16 -34 23 -34
9z"/>
<path d="M10947 2103 c-10 -10 -8 -43 2 -43 9 0 21 24 21 41 0 11 -14 12 -23
2z"/>
<path d="M11637 2103 c-4 -3 -7 -19 -7 -35 l0 -28 160 0 160 0 0 35 0 35 -153
0 c-85 0 -157 -3 -160 -7z"/>
<path d="M11434 2092 c-8 -5 -8 -15 -2 -31 6 -16 12 -21 19 -14 13 13 -3 54
-17 45z"/>
<path d="M10930 2015 c0 -14 5 -25 10 -25 6 0 10 11 10 25 0 14 -4 25 -10 25
-5 0 -10 -11 -10 -25z"/>
<path d="M11260 2028 c0 -8 14 -13 37 -13 45 0 52 -23 13 -42 l-24 -12 28 -10
c20 -8 27 -17 24 -34 -3 -19 -9 -22 -46 -21 -55 1 -50 -20 6 -24 34 -3 43 1
57 22 13 19 14 29 5 45 -6 12 -16 21 -23 21 -7 0 -4 5 6 11 21 13 22 55 1 63
-28 11 -84 7 -84 -6z"/>
<path d="M11440 1985 c0 -19 5 -35 10 -35 6 0 10 16 10 35 0 19 -4 35 -10 35
-5 0 -10 -16 -10 -35z"/>
<path d="M10935 1957 c-4 -10 -3 -23 4 -30 16 -16 26 0 14 25 -10 21 -11 22
-18 5z"/>
<path d="M11630 1940 l0 -30 160 0 160 0 0 30 0 30 -160 0 -160 0 0 -30z"/>
<path d="M11420 1911 c-7 -14 -7 -22 1 -27 12 -7 29 12 29 34 0 19 -18 14 -30
-7z"/>
<path d="M10958 1894 c-9 -8 9 -44 22 -44 14 0 12 13 -3 34 -7 9 -16 14 -19
10z"/>
<path d="M11392 1858 c-14 -14 -16 -38 -3 -38 5 0 14 7 21 15 17 20 0 41 -18
23z"/>
<path d="M10996 1832 c-3 -5 3 -17 13 -26 11 -10 22 -13 25 -8 3 5 -3 17 -13
26 -11 10 -22 13 -25 8z"/>
<path d="M11331 1796 c-9 -10 -9 -16 -1 -21 12 -7 40 11 40 26 0 14 -26 10
-39 -5z"/>
<path d="M11040 1782 c0 -5 11 -14 25 -20 29 -14 44 2 16 17 -24 13 -41 14
-41 3z"/>
<path d="M11265 1759 c-4 -6 -5 -13 -2 -16 8 -7 47 7 47 18 0 13 -37 11 -45
-2z"/>
<path d="M10362 1751 l-73 -6 109 -67 c60 -38 112 -68 115 -68 3 0 -3 16 -14
35 -12 19 -19 35 -17 35 1 0 332 -94 735 -208 567 -162 733 -206 737 -195 3 8
0 16 -7 18 -6 3 -331 95 -722 206 -390 110 -714 205 -719 209 -4 5 6 16 23 24
17 9 31 19 31 21 0 6 -96 4 -198 -4z"/>
<path d="M11116 1751 c-3 -5 1 -12 10 -15 25 -10 34 -7 34 9 0 16 -35 21 -44
6z"/>
<path d="M11185 1740 c-4 -6 7 -10 24 -10 17 0 31 5 31 10 0 6 -11 10 -24 10
-14 0 -28 -4 -31 -10z"/>
<path d="M9943 1272 c-34 -5 -28 -22 7 -22 17 0 30 4 30 9 0 14 -11 18 -37 13z"/>
<path d="M12313 1264 c-121 -43 -196 -198 -159 -327 36 -122 133 -197 256
-197 124 0 220 75 256 197 39 133 -37 283 -164 329 -49 17 -137 16 -189 -2z
m205 -33 c50 -25 109 -93 122 -140 16 -56 12 -142 -9 -186 -36 -80 -136 -145
-221 -145 -95 0 -207 82 -230 170 -19 70 -8 158 26 211 l29 44 3 -117 3 -118
65 0 c68 0 117 17 128 45 12 33 5 67 -19 89 -22 21 -23 25 -10 36 21 17 19 46
-5 70 -15 15 -33 20 -72 20 -59 0 -56 12 8 36 50 18 129 12 182 -15z m-143
-86 c0 -29 -2 -30 -47 -33 l-48 -3 0 36 0 36 48 -3 c45 -3 47 -4 47 -33z m6
-75 c12 -7 19 -21 19 -40 0 -36 -23 -50 -79 -50 l-41 0 0 50 0 50 41 0 c22 0
49 -5 60 -10z"/>
<path d="M12513 1035 c-26 -11 -30 -25 -8 -25 12 0 15 -13 15 -55 0 -42 -3
-55 -15 -55 -8 0 -15 -4 -15 -10 0 -5 20 -10 45 -10 25 0 45 5 45 10 0 6 -9
10 -20 10 -17 0 -19 8 -22 73 -3 71 -3 72 -25 62z"/>
<path d="M10000 1260 c0 -5 11 -10 25 -10 14 0 25 5 25 10 0 6 -11 10 -25 10
-14 0 -25 -4 -25 -10z"/>
<path d="M11158 1263 c-27 -7 -22 -23 7 -23 16 0 25 6 25 15 0 15 -2 16 -32 8z"/>
<path d="M11220 1254 c0 -8 11 -14 25 -14 14 0 25 4 25 9 0 5 -11 11 -25 13
-17 4 -25 1 -25 -8z"/>
<path d="M9867 1253 c-4 -3 -7 -12 -7 -19 0 -11 5 -11 25 -2 13 6 22 15 19 19
-6 11 -28 12 -37 2z"/>
<path d="M10070 1246 c0 -16 27 -29 42 -20 5 3 1 12 -9 20 -23 17 -33 17 -33
0z"/>
<path d="M11087 1243 c-4 -3 -7 -12 -7 -19 0 -11 5 -11 25 -2 13 6 22 15 19
19 -6 11 -28 12 -37 2z"/>
<path d="M11290 1236 c0 -16 27 -29 42 -20 7 5 4 12 -7 21 -24 17 -35 17 -35
-1z"/>
<path d="M9812 1218 c-17 -17 -15 -39 3 -32 13 5 15 -12 15 -120 l0 -126 43
-1 c89 -3 111 10 127 72 23 83 -31 148 -100 122 l-30 -11 0 40 c0 27 -6 45
-17 54 -22 17 -26 17 -41 2z m148 -127 c11 -22 13 -71 4 -96 -8 -21 -45 -35
-73 -28 -18 5 -21 13 -21 64 0 45 4 60 18 68 27 16 60 13 72 -8z"/>
<path d="M10134 1209 c-7 -12 13 -29 35 -29 11 0 10 5 -4 20 -21 23 -22 23
-31 9z"/>
<path d="M11032 1208 c-17 -17 -15 -39 3 -32 13 5 15 -12 15 -119 l0 -126 33
-1 c17 0 43 -1 56 -1 58 -2 96 85 68 154 -18 42 -54 56 -99 39 -28 -10 -28
-10 -28 32 0 37 -13 66 -30 66 -3 0 -11 -5 -18 -12z m137 -122 c7 -8 11 -36 9
-63 -2 -40 -7 -50 -28 -60 -15 -7 -36 -10 -48 -6 -19 5 -22 12 -22 64 0 45 4
60 18 68 25 15 58 13 71 -3z"/>
<path d="M11350 1196 c0 -8 7 -17 16 -20 30 -11 37 -6 19 14 -21 23 -35 26
-35 6z"/>
<path d="M9760 1160 c-15 -28 -4 -39 17 -17 13 12 14 20 6 28 -8 8 -14 5 -23
-11z"/>
<path d="M10186 1162 c-9 -15 4 -42 20 -42 12 0 13 4 3 23 -16 29 -16 30 -23
19z"/>
<path d="M10550 1105 l0 -65 -71 0 -70 0 3 -32 3 -33 68 -3 67 -3 0 -64 0 -65
35 0 35 0 0 65 0 65 65 0 65 0 0 35 0 35 -65 0 -65 0 0 65 0 65 -35 0 -35 0 0
-65z"/>
<path d="M10980 1150 c-15 -28 -4 -39 17 -17 13 12 14 20 6 28 -8 8 -14 5 -23
-11z"/>
<path d="M11406 1152 c-9 -15 4 -42 20 -42 12 0 13 4 3 23 -16 29 -16 30 -23
19z"/>
<path d="M9730 1100 c-11 -21 -5 -44 9 -35 13 7 20 44 11 50 -5 3 -14 -4 -20
-15z"/>
<path d="M10950 1090 c-11 -21 -5 -44 9 -35 13 7 20 44 11 50 -5 3 -14 -4 -20
-15z"/>
<path d="M11637 1103 c-4 -3 -7 -19 -7 -35 l0 -28 160 0 160 0 0 35 0 35 -153
0 c-85 0 -157 -3 -160 -7z"/>
<path d="M10210 1092 c0 -19 12 -42 22 -42 14 0 5 43 -9 48 -7 2 -13 -1 -13
-6z"/>
<path d="M11430 1078 c0 -19 18 -43 25 -36 9 9 -4 48 -16 48 -5 0 -9 -6 -9
-12z"/>
<path d="M9710 1014 c0 -31 23 -28 28 4 2 15 -2 22 -12 22 -11 0 -16 -9 -16
-26z"/>
<path d="M10083 1025 c-26 -11 -30 -25 -8 -25 12 0 15 -13 15 -55 0 -42 -3
-55 -15 -55 -8 0 -15 -4 -15 -10 0 -5 20 -10 45 -10 25 0 45 5 45 10 0 6 -9
10 -20 10 -17 0 -19 8 -22 73 -3 71 -3 72 -25 62z"/>
<path d="M10225 1017 c-9 -22 -2 -62 10 -60 6 1 11 14 13 29 4 32 -14 56 -23
31z"/>
<path d="M10930 1004 c0 -31 23 -28 28 4 2 15 -2 22 -12 22 -11 0 -16 -9 -16
-26z"/>
<path d="M11260 1018 c0 -8 14 -13 37 -13 54 0 55 -29 3 -80 -55 -54 -52 -65
15 -65 30 0 55 5 55 10 0 6 -19 10 -42 10 l-42 0 37 38 c40 41 51 94 21 106
-28 11 -84 7 -84 -6z"/>
<path d="M11440 985 c0 -25 4 -35 13 -32 6 2 12 16 12 32 0 16 -6 30 -12 33
-9 2 -13 -8 -13 -33z"/>
<path d="M9720 945 c0 -16 6 -25 16 -25 11 0 14 5 10 16 -3 9 -6 20 -6 25 0 5
-4 9 -10 9 -5 0 -10 -11 -10 -25z"/>
<path d="M11630 940 l0 -30 160 0 160 0 0 30 0 30 -160 0 -160 0 0 -30z"/>
<path d="M10938 935 c2 -14 11 -25 19 -25 10 0 13 6 9 16 -3 9 -6 20 -6 25 0
5 -6 9 -14 9 -9 0 -12 -8 -8 -25z"/>
<path d="M10206 914 c-7 -18 1 -37 13 -29 5 2 11 14 14 25 6 24 -18 28 -27 4z"/>
<path d="M11426 904 c-7 -18 1 -37 13 -29 5 2 11 14 14 25 6 24 -18 28 -27 4z"/>
<path d="M9740 891 c0 -21 13 -41 26 -41 17 0 17 5 4 31 -11 20 -30 26 -30 10z"/>
<path d="M10960 878 c0 -22 17 -41 29 -34 8 5 8 13 1 27 -12 21 -30 26 -30 7z"/>
<path d="M10173 850 c-7 -10 -9 -21 -4 -24 11 -7 43 28 34 37 -10 11 -17 8
-30 -13z"/>
<path d="M11391 841 c-6 -10 -7 -21 -4 -25 9 -8 33 14 33 30 0 20 -18 17 -29
-5z"/>
<path d="M9780 825 c0 -16 27 -32 37 -21 7 7 -16 36 -28 36 -5 0 -9 -7 -9 -15z"/>
<path d="M11000 815 c0 -16 27 -32 37 -21 7 7 -16 36 -28 36 -5 0 -9 -7 -9
-15z"/>
<path d="M10128 806 c-19 -14 -24 -36 -9 -36 12 0 33 28 29 39 -2 6 -10 4 -20
-3z"/>
<path d="M11348 796 c-19 -14 -24 -36 -9 -36 12 0 33 28 29 39 -2 6 -10 4 -20
-3z"/>
<path d="M9830 782 c0 -5 11 -14 25 -20 20 -9 25 -9 25 2 0 8 -7 17 -16 20
-22 8 -34 8 -34 -2z"/>
<path d="M11050 776 c0 -15 37 -32 48 -22 6 6 -27 35 -40 36 -5 0 -8 -6 -8
-14z"/>
<path d="M10061 769 c-16 -6 -21 -13 -14 -20 13 -13 43 -1 43 17 0 8 -1 14 -2
13 -2 0 -14 -5 -27 -10z"/>
<path d="M11282 759 c-13 -5 -21 -13 -18 -18 9 -13 46 -1 46 15 0 8 -1 14 -2
13 -2 0 -13 -4 -26 -10z"/>
<path d="M9900 751 c0 -9 24 -21 41 -21 5 0 9 7 9 15 0 9 -9 15 -25 15 -14 0
-25 -4 -25 -9z"/>
<path d="M9988 753 c-27 -7 -22 -23 7 -23 16 0 25 6 25 15 0 15 -2 16 -32 8z"/>
<path d="M11120 740 c0 -5 4 -10 9 -10 5 0 16 -3 25 -6 11 -4 16 -1 16 10 0
10 -9 16 -25 16 -14 0 -25 -4 -25 -10z"/>
<path d="M11203 743 c-22 -8 -14 -23 12 -23 16 0 25 6 25 15 0 15 -14 18 -37
8z"/>
<path d="M355 4878 c-31 -18 -36 -29 -59 -130 -4 -16 -13 -28 -21 -28 -30 0
-30 72 0 143 6 14 2 17 -28 17 -30 0 -37 -4 -46 -31 -14 -39 -14 -119 -1 -153
24 -64 98 -88 139 -47 19 19 41 79 41 112 0 9 6 22 14 28 12 10 17 8 25 -8 17
-31 13 -58 -24 -143 -6 -15 -2 -18 29 -18 46 0 59 24 60 110 1 78 -17 126 -55
145 -33 18 -47 18 -74 3z"/>
<path d="M4280 4750 c-25 -25 -25 -47 -2 -73 13 -15 14 -21 4 -25 -22 -7 -34
-50 -21 -75 17 -31 28 -37 75 -37 65 0 98 57 58 101 -15 16 -15 20 0 41 9 12
16 28 16 35 0 25 -39 53 -75 53 -22 0 -43 -8 -55 -20z m85 -14 c17 -12 18 -18
7 -40 -13 -30 -28 -32 -60 -10 -26 18 -28 39 -4 53 23 14 35 13 57 -3z m-7
-102 c43 -30 12 -84 -40 -71 -29 8 -39 32 -27 65 10 26 36 28 67 6z"/>
<path d="M5068 4759 c-31 -17 -38 -43 -22 -74 13 -25 13 -30 -1 -45 -20 -23
-19 -63 3 -83 11 -10 36 -17 60 -17 71 0 106 56 62 100 -19 19 -19 22 -5 36
50 51 -32 121 -97 83z m72 -24 c16 -19 5 -65 -16 -65 -29 0 -54 21 -54 45 0
34 47 48 70 20z m-16 -96 c31 -14 39 -34 26 -60 -12 -22 -59 -26 -78 -7 -22
22 -8 78 20 78 4 0 18 -5 32 -11z"/>
<path d="M12990 4750 c-25 -25 -25 -47 -2 -73 13 -15 14 -21 4 -25 -22 -7 -34
-50 -21 -75 17 -31 28 -37 75 -37 65 0 98 57 58 101 -15 16 -15 20 0 41 9 12
16 28 16 35 0 25 -39 53 -75 53 -22 0 -43 -8 -55 -20z m85 -14 c17 -12 18 -18
7 -40 -13 -30 -28 -32 -60 -10 -26 18 -28 39 -4 53 23 14 35 13 57 -3z m-7
-102 c43 -30 12 -84 -40 -71 -29 8 -39 32 -27 65 10 26 36 28 67 6z"/>
<path d="M8752 4742 c-39 -19 -42 -55 -4 -60 19 -3 22 -9 22 -52 0 -43 -3 -49
-22 -52 -15 -2 -24 -11 -26 -25 -3 -22 -1 -23 77 -23 80 0 81 0 81 25 0 18 -5
25 -20 25 -19 0 -20 7 -20 90 l0 90 -27 -1 c-16 -1 -43 -9 -61 -17z m15 -48
c-3 -3 -12 -4 -19 -1 -8 3 -5 6 6 6 11 1 17 -2 13 -5z"/>
<path d="M8970 4698 c-33 -42 -50 -72 -50 -90 0 -27 2 -28 50 -28 47 0 50 -2
50 -25 0 -22 4 -25 35 -25 31 0 35 3 35 25 0 16 6 25 15 25 9 0 15 9 15 25 0
16 -6 25 -15 25 -12 0 -15 14 -15 65 l0 65 -35 0 c-30 0 -40 -8 -85 -62z m47
-65 c-3 -3 -13 -3 -21 -1 -15 3 -15 6 1 28 l18 25 3 -23 c2 -13 1 -26 -1 -29z"/>
<path d="M243 4545 c-17 -7 -36 -22 -42 -34 -15 -27 -13 -81 4 -111 8 -14 14
-28 15 -32 0 -5 -29 -8 -65 -8 l-65 0 0 -45 0 -45 195 0 195 0 0 45 0 44 -102
3 -102 3 -10 33 c-15 52 5 64 118 70 l96 5 0 43 0 44 -102 0 c-65 -1 -115 -6
-135 -15z"/>
<path d="M200 4180 l0 -40 -40 0 -40 0 0 -45 0 -45 40 0 c33 0 40 -3 40 -20 0
-16 7 -20 30 -20 23 0 30 4 30 20 0 18 7 20 88 20 79 0 91 2 110 23 20 21 28
60 24 120 -2 23 -6 27 -31 27 -27 0 -30 -3 -33 -37 l-3 -38 -77 -3 -78 -3 0
41 c0 38 -2 40 -30 40 -28 0 -30 -2 -30 -40z"/>
<path d="M8720 4035 l0 -55 55 0 55 0 0 55 0 55 -55 0 -55 0 0 -55z m83 -42
c-13 -2 -35 -2 -50 0 -16 2 -5 4 22 4 28 0 40 -2 28 -4z"/>
<path d="M4300 4040 c0 -28 3 -30 35 -30 32 0 35 2 35 30 0 28 -3 30 -35 30
-32 0 -35 -2 -35 -30z"/>
<path d="M5070 4040 c0 -28 3 -30 35 -30 32 0 35 2 35 30 0 28 -3 30 -35 30
-32 0 -35 -2 -35 -30z"/>
<path d="M13000 4040 c0 -28 3 -30 35 -30 32 0 35 2 35 30 0 28 -3 30 -35 30
-32 0 -35 -2 -35 -30z"/>
<path d="M221 3926 c-26 -27 -38 -107 -27 -180 7 -45 8 -46 43 -46 29 0 34 3
28 18 -15 39 -17 107 -2 126 20 27 37 11 37 -35 0 -88 50 -147 115 -135 63 12
92 87 59 151 -10 19 -11 31 -5 33 6 2 11 24 11 48 l0 44 -118 0 c-112 0 -120
-1 -141 -24z m200 -92 c12 -32 4 -60 -19 -69 -23 -8 -52 29 -52 66 0 26 4 29
30 29 24 0 33 -6 41 -26z"/>
<path d="M8720 3845 l0 -55 55 0 55 0 0 55 0 55 -55 0 -55 0 0 -55z m83 -42
c-13 -2 -35 -2 -50 0 -16 2 -5 4 22 4 28 0 40 -2 28 -4z"/>
<path d="M4300 3850 c0 -28 3 -30 35 -30 32 0 35 2 35 30 0 28 -3 30 -35 30
-32 0 -35 -2 -35 -30z"/>
<path d="M5070 3850 c0 -28 3 -30 35 -30 32 0 35 2 35 30 0 28 -3 30 -35 30
-32 0 -35 -2 -35 -30z"/>
<path d="M13000 3850 c0 -28 3 -30 35 -30 32 0 35 2 35 30 0 28 -3 30 -35 30
-32 0 -35 -2 -35 -30z"/>
<path d="M8720 3660 l0 -50 55 0 55 0 0 50 0 50 -55 0 -55 0 0 -50z"/>
<path d="M4300 3660 c0 -28 3 -30 35 -30 32 0 35 2 35 30 0 28 -3 30 -35 30
-32 0 -35 -2 -35 -30z"/>
<path d="M5070 3660 c0 -28 3 -30 35 -30 32 0 35 2 35 30 0 28 -3 30 -35 30
-32 0 -35 -2 -35 -30z"/>
<path d="M13000 3660 c0 -28 3 -30 35 -30 32 0 35 2 35 30 0 28 -3 30 -35 30
-32 0 -35 -2 -35 -30z"/>
<path d="M265 3615 c-22 -8 -41 -15 -42 -15 -1 0 -9 -13 -18 -30 -19 -38 -19
-73 1 -113 12 -21 13 -32 5 -35 -6 -2 -11 -24 -11 -48 l0 -44 190 0 190 0 0
45 0 45 -56 0 c-53 0 -55 1 -48 22 12 39 7 96 -10 124 -21 30 -89 64 -131 63
-16 0 -48 -6 -70 -14z m140 -109 c9 -14 15 -37 13 -53 -3 -27 -5 -28 -72 -31
-76 -3 -86 3 -86 54 0 42 16 54 77 54 45 0 55 -4 68 -24z"/>
<path d="M4288 3123 c-10 -2 -18 -10 -18 -17 0 -8 16 -12 48 -12 42 1 47 -2
50 -22 3 -18 -3 -25 -27 -33 -36 -13 -41 -29 -8 -29 47 0 62 -43 27 -75 -18
-16 -27 -17 -61 -8 -35 9 -40 8 -37 -6 2 -12 17 -17 55 -19 43 -2 55 1 72 19
28 30 27 63 -3 86 -23 19 -23 20 -5 31 10 7 19 23 19 37 0 42 -52 64 -112 48z"/>
<path d="M8738 3119 c-32 -18 -41 -47 -24 -80 14 -27 14 -33 1 -46 -21 -20
-19 -59 5 -83 27 -27 118 -28 148 -2 30 25 33 70 6 96 -14 15 -14 17 0 32 23
23 19 50 -10 73 -29 23 -96 28 -126 10z m82 -59 c0 -23 -4 -24 -31 -9 -23 12
-16 29 12 29 12 0 19 -7 19 -20z m-15 -82 c30 -14 28 -32 -5 -36 -25 -4 -41
13 -33 35 6 16 6 16 38 1z"/>
<path d="M12988 3119 c-31 -18 -19 -27 35 -25 49 1 52 0 52 -24 0 -17 -7 -26
-24 -30 -36 -8 -36 -26 -1 -33 25 -6 30 -11 30 -37 0 -40 -34 -58 -80 -42 -28
10 -31 9 -28 -6 5 -26 98 -30 120 -5 29 34 31 61 5 87 -22 22 -23 24 -5 35 25
16 23 57 -4 75 -25 18 -74 20 -100 5z"/>
<path d="M5050 3065 l0 -55 38 0 c44 0 62 -14 62 -47 0 -33 -41 -51 -81 -36
-26 10 -29 9 -29 -8 0 -16 7 -19 50 -19 62 0 90 24 90 74 0 42 -29 66 -78 66
-30 0 -33 2 -30 28 3 25 7 27 56 30 75 4 65 22 -13 22 l-65 0 0 -55z"/>
<path d="M200 3028 c0 -29 -2 -75 -5 -103 -5 -39 -2 -57 14 -81 40 -65 167
-82 227 -31 34 30 47 89 29 139 -13 38 -12 38 9 32 36 -10 48 -35 43 -89 -2
-27 -6 -57 -8 -65 -3 -11 5 -15 31 -15 33 0 35 2 42 45 11 58 1 129 -22 168
-26 42 -68 52 -228 52 l-133 0 1 -52z m201 -65 c18 -45 -6 -77 -60 -81 -56 -4
-81 17 -81 70 l0 38 65 0 c62 0 66 -1 76 -27z"/>
<path d="M243 2705 c-54 -23 -69 -85 -37 -148 12 -21 13 -32 5 -35 -6 -2 -11
-24 -11 -48 l0 -44 140 0 140 0 0 45 0 44 -102 3 -102 3 -10 33 c-15 52 5 64
118 70 l96 5 0 43 0 44 -102 0 c-65 -1 -115 -6 -135 -15z"/>
<path d="M90 2311 l0 -51 36 0 35 0 -3 48 c-3 45 -4 47 -35 50 l-33 3 0 -50z"/>
<path d="M200 2305 l0 -45 140 0 140 0 0 45 0 45 -140 0 -140 0 0 -45z"/>
<path d="M200 2128 c0 -29 -2 -75 -5 -103 -5 -39 -2 -57 14 -81 40 -65 167
-82 227 -31 34 30 47 89 29 139 -13 38 -12 38 9 32 36 -10 48 -35 43 -89 -2
-27 -6 -57 -8 -65 -3 -11 5 -15 31 -15 33 0 35 2 42 45 11 58 1 129 -22 168
-26 42 -68 52 -228 52 l-133 0 1 -52z m201 -65 c18 -45 -6 -77 -60 -81 -56 -4
-81 17 -81 70 l0 38 65 0 c62 0 66 -1 76 -27z"/>
<path d="M4283 2120 c-16 -6 -23 -18 -23 -35 0 -25 1 -26 50 -19 49 6 50 6 50
-19 0 -19 -14 -38 -50 -69 -32 -28 -50 -51 -50 -65 0 -22 3 -23 90 -23 89 0
90 0 90 25 0 23 -4 25 -41 25 l-41 0 36 40 c46 51 49 98 10 129 -28 22 -82 27
-121 11z"/>
<path d="M12993 2120 c-17 -7 -23 -18 -23 -40 0 -27 2 -30 19 -20 11 5 33 10
50 10 50 0 42 -39 -19 -92 -32 -28 -50 -51 -50 -65 0 -22 3 -23 90 -23 89 0
90 0 90 25 0 23 -4 25 -42 25 l-42 0 33 34 c22 22 34 47 38 73 5 35 2 43 -22
61 -29 23 -82 28 -122 12z"/>
<path d="M200 1818 c0 -18 7 -42 15 -52 19 -25 19 -36 0 -36 -11 0 -15 -12
-15 -45 l0 -45 140 0 140 0 0 45 0 45 -94 0 c-105 0 -106 0 -106 76 l0 44 -40
0 c-39 0 -40 -1 -40 -32z"/>
<path d="M253 1565 c-75 -32 -87 -172 -20 -243 27 -29 89 -45 138 -37 88 15
137 121 108 233 -14 56 -15 57 -51 60 -42 4 -44 -1 -23 -38 30 -53 10 -160
-31 -160 -11 0 -14 20 -14 100 l0 100 -37 0 c-21 -1 -52 -7 -70 -15z m47 -136
l0 -61 -22 14 c-40 26 -33 108 8 108 10 0 14 -16 14 -61z"/>
<path d="M102 1153 l3 -56 94 -41 93 -40 -96 -45 -96 -44 0 -53 0 -54 190 0
190 0 0 45 0 45 -122 0 -123 1 75 32 c71 31 75 35 78 68 3 35 3 36 -70 65
l-73 29 118 3 117 3 0 49 0 50 -190 0 -191 0 3 -57z"/>
<path d="M4316 1115 c-3 -8 -15 -15 -26 -15 -15 0 -20 -7 -20 -25 0 -20 5 -25
25 -25 24 0 25 -3 25 -55 0 -52 -1 -55 -25 -55 -20 0 -25 -5 -25 -25 0 -25 1
-25 80 -25 79 0 80 0 80 25 0 20 -5 25 -25 25 -25 0 -25 0 -25 95 l0 95 -29 0
c-16 0 -31 -6 -35 -15z"/>
<path d="M13026 1115 c-3 -8 -15 -15 -26 -15 -15 0 -20 -7 -20 -25 0 -18 5
-25 20 -25 18 0 20 -7 20 -55 0 -48 -2 -55 -20 -55 -15 0 -20 -7 -20 -25 0
-25 1 -25 80 -25 79 0 80 0 80 25 0 20 -5 25 -25 25 -25 0 -25 0 -25 95 l0 95
-29 0 c-16 0 -31 -6 -35 -15z"/>
</g>
</svg>
