<svg version="1.1" viewBox="0.0 0.0 226.77165354330708 151.1811023622047" fill="none" stroke="none" stroke-linecap="square" stroke-miterlimit="10" xmlns:xlink="http://www.w3.org/1999/xlink" xmlns="http://www.w3.org/2000/svg"><clipPath id="p.0"><path d="m0 0l226.77165 0l0 151.1811l-226.77165 0l0 -151.1811z" clip-rule="nonzero"/></clipPath><g clip-path="url(#p.0)"><path fill="#ffffff" d="m0 0l226.77165 0l0 151.1811l-226.77165 0z" fill-rule="evenodd"/><path fill="#000000" fill-opacity="0.0" d="m44.22788 25.552082l0 0c0 -2.8788967 2.333809 -5.2127037 5.2127037 -5.2127037l101.5746 0c1.3824921 0 2.7083588 0.54919434 3.6859283 1.5267658c0.9775696 0.9775715 1.5267639 2.303444 1.5267639 3.685938l0 20.850185c0 2.8788948 -2.3338013 5.2127037 -5.2126923 5.2127037l-101.5746 0c-2.8788948 0 -5.2127037 -2.333809 -5.2127037 -5.2127037z" fill-rule="evenodd"/><path stroke="#000000" stroke-width="1.0" stroke-linejoin="round" stroke-linecap="butt" stroke-dasharray="8.0,3.0" d="m44.22788 25.552082l0 0c0 -2.8788967 2.333809 -5.2127037 5.2127037 -5.2127037l101.5746 0c1.3824921 0 2.7083588 0.54919434 3.6859283 1.5267658c0.9775696 0.9775715 1.5267639 2.303444 1.5267639 3.685938l0 20.850185c0 2.8788948 -2.3338013 5.2127037 -5.2126923 5.2127037l-101.5746 0c-2.8788948 0 -5.2127037 -2.333809 -5.2127037 -5.2127037z" fill-rule="evenodd"/><path fill="#000000" fill-opacity="0.0" d="m47.99204 39.970734l58.582676 0l0 13.354328l-58.582676 0z" fill-rule="evenodd"/><path fill="#000000" d="m49.976414 48.37073l1.828125 -4.765625l0.6875 0l1.953125 4.765625l-0.71875 0l-0.5625 -1.4375l-1.984375 0l-0.53125 1.4375l-0.671875 0zm1.375 -1.953125l1.625 0l-0.5 -1.328125q-0.234375 -0.59375 -0.34375 -0.984375q-0.09375 0.453125 -0.25 0.90625l-0.53125 1.40625zm3.4084167 2.234375l0.578125 0.09375q0.03125 0.265625 0.1875 0.375q0.21875 0.171875 0.59375 0.171875q0.40625 0 0.625 -0.171875q0.234375 -0.15625 0.3125 -0.453125q0.046875 -0.171875 0.03125 -0.75q-0.375 0.453125 -0.953125 0.453125q-0.703125 0 -1.09375 -0.515625q-0.390625 -0.515625 -0.390625 -1.234375q0 -0.484375 0.171875 -0.90625q0.1875 -0.421875 0.515625 -0.640625q0.34375 -0.234375 0.796875 -0.234375q0.625 0 1.015625 0.5l0 -0.421875l0.53125 0l0 2.984375q0 0.8125 -0.171875 1.140625q-0.15625 0.34375 -0.515625 0.53125q-0.34375 0.203125 -0.859375 0.203125q-0.625 0 -1.015625 -0.28125q-0.375 -0.28125 -0.359375 -0.84375zm0.484375 -2.0625q0 0.671875 0.265625 0.984375q0.28125 0.3125 0.6875 0.3125q0.40625 0 0.671875 -0.3125q0.265625 -0.3125 0.265625 -0.96875q0 -0.640625 -0.28125 -0.953125q-0.28125 -0.328125 -0.671875 -0.328125q-0.390625 0 -0.671875 0.328125q-0.265625 0.3125 -0.265625 0.9375zm5.686264 0.671875l0.609375 0.078125q-0.140625 0.53125 -0.53125 0.828125q-0.390625 0.28125 -0.984375 0.28125q-0.765625 0 -1.203125 -0.46875q-0.4375 -0.46875 -0.4375 -1.3125q0 -0.859375 0.4375 -1.34375q0.453125 -0.484375 1.171875 -0.484375q0.6875 0 1.125 0.46875q0.4375 0.46875 0.4375 1.328125q0 0.046875 0 0.15625l-2.578125 0q0.03125 0.578125 0.3125 0.875q0.296875 0.296875 0.734375 0.296875q0.328125 0 0.546875 -0.15625q0.234375 -0.171875 0.359375 -0.546875zm-1.921875 -0.953125l1.9375 0q-0.046875 -0.4375 -0.21875 -0.640625q-0.28125 -0.34375 -0.734375 -0.34375q-0.40625 0 -0.6875 0.265625q-0.265625 0.265625 -0.296875 0.71875zm3.264389 2.0625l0 -3.453125l0.53125 0l0 0.5q0.375 -0.578125 1.09375 -0.578125q0.3125038 0 0.5781288 0.109375q0.265625 0.109375 0.390625 0.296875q0.125 0.1875 0.1875 0.4375q0.03125 0.15625 0.03125 0.5625l0 2.125l-0.59375 0l0 -2.09375q0 -0.359375 -0.078125 -0.53125q-0.0625 -0.1875 -0.234375 -0.28125q-0.171875 -0.109375 -0.4062538 -0.109375q-0.375 0 -0.640625 0.234375q-0.265625 0.234375 -0.265625 0.890625l0 1.890625l-0.59375 0zm4.983143 -0.515625l0.078125 0.515625q-0.25 0.046875 -0.4375 0.046875q-0.3125 0 -0.5 -0.09375q-0.171875 -0.109375 -0.25 -0.265625q-0.0625 -0.171875 -0.0625 -0.703125l0 -1.984375l-0.4375 0l0 -0.453125l0.4375 0l0 -0.859375l0.578125 -0.34375l0 1.203125l0.59375 0l0 0.453125l-0.59375 0l0 2.015625q0 0.25 0.03125 0.328125q0.03125 0.078125 0.09375 0.125q0.078125 0.03125 0.203125 0.03125q0.109375 0 0.265625 -0.015625zm4.464264 0.515625l-0.59375 0l0 -3.734375q-0.203125 0.203125 -0.546875 0.40625q-0.34375 0.203125 -0.625 0.3125l0 -0.578125q0.5 -0.21875 0.859375 -0.546875q0.375 -0.328125 0.53125 -0.640625l0.375 0l0 4.78125z" fill-rule="nonzero"/><path fill="#ead1dc" d="m75.586 24.294613l72.598434 0l0 14.173229l-72.598434 0z" fill-rule="evenodd"/><path stroke="#000000" stroke-width="1.0" stroke-linejoin="round" stroke-linecap="butt" d="m75.586 24.294613l72.598434 0l0 14.173229l-72.598434 0z" fill-rule="evenodd"/><path fill="#000000" d="m91.10242 33.781227l0 -4.765625l2.03125 0q0.765625 0 1.109375 0.125q0.34375 0.125 0.546875 0.46875q0.21875 0.328125 0.21875 0.75q0 0.53125 -0.328125 0.890625q-0.3125 0.34375 -0.9375 0.421875q0.3125 0.1875 0.515625 0.40625q0.203125 0.21875 0.546875 0.78125l0.578125 0.921875l-1.140625 0l-0.703125 -1.03125q-0.375 -0.5625 -0.515625 -0.703125q-0.125 -0.140625 -0.28125 -0.1875q-0.15625 -0.0625 -0.484375 -0.0625l-0.1875 0l0 1.984375l-0.96875 0zm0.96875 -2.75l0.703125 0q0.703125 0 0.875 -0.046875q0.171875 -0.0625 0.265625 -0.203125q0.09375 -0.15625 0.09375 -0.359375q0 -0.25 -0.125 -0.390625q-0.125 -0.15625 -0.359375 -0.1875q-0.125 -0.015625 -0.703125 -0.015625l-0.75 0l0 1.203125zm5.8381805 1.65625l0.90625 0.140625q-0.171875 0.515625 -0.5625 0.78125q-0.375 0.25 -0.9375 0.25q-0.90625 0 -1.34375 -0.59375q-0.328125 -0.46875 -0.328125 -1.1875q0 -0.859375 0.4375 -1.34375q0.453125 -0.484375 1.140625 -0.484375q0.765625 0 1.203125 0.515625q0.453125 0.5 0.4375 1.546875l-2.296875 0q0.015625 0.40625 0.21875 0.640625q0.21875 0.21875 0.53125 0.21875q0.21875 0 0.359375 -0.109375q0.15625 -0.125 0.234375 -0.375zm0.046875 -0.921875q-0.015625 -0.40625 -0.21875 -0.609375q-0.1875 -0.203125 -0.46875 -0.203125q-0.296875 0 -0.484375 0.21875q-0.203125 0.21875 -0.203125 0.59375l1.375 0zm1.623764 -1.4375l0.84375 0l0 0.515625q0.171875 -0.265625 0.453125 -0.421875q0.28125 -0.171875 0.625 -0.171875q0.609375 0 1.015625 0.46875q0.421875 0.46875 0.421875 1.3125q0 0.875 -0.421875 1.359375q-0.421875 0.46875 -1.015625 0.46875q-0.28125 0 -0.515625 -0.109375q-0.234375 -0.125 -0.5 -0.390625l0 1.734375l-0.90625 0l0 -4.765625zm0.90625 1.671875q0 0.578125 0.21875 0.859375q0.234375 0.28125 0.5625 0.28125q0.328125 0 0.53125 -0.25q0.21875 -0.265625 0.21875 -0.84375q0 -0.546875 -0.21875 -0.8125q-0.21875 -0.265625 -0.546875 -0.265625q-0.328125 0 -0.546875 0.265625q-0.21875 0.25 -0.21875 0.765625zm3.1909027 1.78125l0 -4.765625l0.90625 0l0 4.765625l-0.90625 0zm2.5211945 -2.40625l-0.828125 -0.140625q0.140625 -0.5 0.484375 -0.734375q0.34375 -0.25 1.015625 -0.25q0.609375 0 0.90625 0.15625q0.296875 0.140625 0.421875 0.359375q0.125 0.21875 0.125 0.8125l-0.015625 1.0625q0 0.46875 0.046875 0.6875q0.046875 0.203125 0.171875 0.453125l-0.90625 0q-0.046875 -0.09375 -0.09375 -0.265625q-0.015625 -0.078125 -0.03125 -0.109375q-0.234375 0.21875 -0.5 0.34375q-0.265625 0.109375 -0.5625 0.109375q-0.546875 0 -0.859375 -0.28125q-0.296875 -0.296875 -0.296875 -0.734375q0 -0.296875 0.140625 -0.515625q0.140625 -0.234375 0.390625 -0.359375q0.25 -0.125 0.734375 -0.21875q0.640625 -0.109375 0.875 -0.21875l0 -0.09375q0 -0.265625 -0.125 -0.375q-0.125 -0.109375 -0.484375 -0.109375q-0.25 0 -0.390625 0.09375q-0.125 0.09375 -0.21875 0.328125zm1.21875 0.75q-0.171875 0.0625 -0.546875 0.140625q-0.375 0.078125 -0.5 0.15625q-0.171875 0.125 -0.171875 0.328125q0 0.1875 0.140625 0.328125q0.140625 0.140625 0.359375 0.140625q0.25 0 0.46875 -0.171875q0.171875 -0.109375 0.21875 -0.296875q0.03125 -0.109375 0.03125 -0.4375l0 -0.1875zm1.373764 -1.796875l0.96875 0l0.828125 2.453125l0.8125 -2.453125l0.9375 0l-1.21875 3.328125l-0.21875 0.59375q-0.125 0.3125 -0.234375 0.46875q-0.109375 0.15625 -0.25 0.25q-0.140625 0.109375 -0.34375 0.15625q-0.203125 0.0625 -0.46875 0.0625q-0.265625 0 -0.515625 -0.0625l-0.078125 -0.71875q0.21875 0.046875 0.390625 0.046875q0.3125 0 0.46875 -0.1875q0.15625 -0.1875 0.234375 -0.46875l-1.3125 -3.46875zm5.9418335 3.453125l0 -4.765625l0.921875 0l0 1.71875q0.421875 -0.484375 1.0 -0.484375q0.625 0 1.03125 0.46875q0.421875 0.453125 0.421875 1.296875q0 0.890625 -0.421875 1.375q-0.421875 0.46875 -1.03125 0.46875q-0.28125 0 -0.578125 -0.140625q-0.28125 -0.15625 -0.5 -0.4375l0 0.5l-0.84375 0zm0.90625 -1.796875q0 0.53125 0.171875 0.796875q0.234375 0.359375 0.625 0.359375q0.3125 0 0.515625 -0.25q0.21875 -0.265625 0.21875 -0.828125q0 -0.59375 -0.21875 -0.84375q-0.21875 -0.265625 -0.546875 -0.265625q-0.328125 0 -0.546875 0.25q-0.21875 0.25 -0.21875 0.78125zm5.4721527 1.796875l0 -0.515625q-0.1875 0.28125 -0.5 0.4375q-0.296875 0.15625 -0.640625 0.15625q-0.359375 0 -0.640625 -0.15625q-0.265625 -0.15625 -0.390625 -0.421875q-0.125 -0.28125 -0.125 -0.765625l0 -2.1875l0.921875 0l0 1.59375q0 0.71875 0.046875 0.890625q0.046875 0.15625 0.171875 0.25q0.140625 0.09375 0.34375 0.09375q0.234375 0 0.421875 -0.125q0.1875 -0.125 0.25 -0.3125q0.078125 -0.1875 0.078125 -0.9375l0 -1.453125l0.90625 0l0 3.453125l-0.84375 0zm1.3940277 -3.453125l0.5 0l0 -0.265625q0 -0.421875 0.09375 -0.640625q0.09375 -0.21875 0.34375 -0.34375q0.25 -0.140625 0.625 -0.140625q0.390625 0 0.765625 0.109375l-0.125 0.640625q-0.203125 -0.046875 -0.40625 -0.046875q-0.203125 0 -0.296875 0.09375q-0.078125 0.09375 -0.078125 0.34375l0 0.25l0.6875 0l0 0.71875l-0.6875 0l0 2.734375l-0.921875 0l0 -2.734375l-0.5 0l0 -0.71875zm2.2165833 0l0.5 0l0 -0.265625q0 -0.421875 0.09375 -0.640625q0.09375 -0.21875 0.34375 -0.34375q0.25 -0.140625 0.625 -0.140625q0.390625 0 0.765625 0.109375l-0.125 0.640625q-0.203125 -0.046875 -0.40625 -0.046875q-0.203125 0 -0.296875 0.09375q-0.078125 0.09375 -0.078125 0.34375l0 0.25l0.6875 0l0 0.71875l-0.6875 0l0 2.734375l-0.921875 0l0 -2.734375l-0.5 0l0 -0.71875zm4.6228333 2.359375l0.90625 0.140625q-0.171875 0.515625 -0.5625 0.78125q-0.375 0.25 -0.9375 0.25q-0.90625 0 -1.34375 -0.59375q-0.328125 -0.46875 -0.328125 -1.1875q0 -0.859375 0.4375 -1.34375q0.453125 -0.484375 1.140625 -0.484375q0.765625 0 1.203125 0.515625q0.453125 0.5 0.4375 1.546875l-2.296875 0q0.015625 0.40625 0.21875 0.640625q0.21875 0.21875 0.53125 0.21875q0.21875 0 0.359375 -0.109375q0.15625 -0.125 0.234375 -0.375zm0.046875 -0.921875q-0.015625 -0.40625 -0.21875 -0.609375q-0.1875 -0.203125 -0.46875 -0.203125q-0.296875 0 -0.484375 0.21875q-0.203125 0.21875 -0.203125 0.59375l1.375 0zm2.530014 2.015625l-0.921875 0l0 -3.453125l0.84375 0l0 0.5q0.21875 -0.359375 0.390625 -0.46875q0.1875 -0.109375 0.40625 -0.109375q0.3125 0 0.59375 0.171875l-0.28125 0.796875q-0.234375 -0.140625 -0.421875 -0.140625q-0.203125 0 -0.34375 0.109375q-0.125 0.09375 -0.203125 0.375q-0.0625 0.265625 -0.0625 1.15625l0 1.0625z" fill-rule="nonzero"/><path fill="#ead1dc" d="m47.99204 24.615545l24.125988 0l0 14.173227l-24.125988 0z" fill-rule="evenodd"/><path stroke="#000000" stroke-width="1.0" stroke-linejoin="round" stroke-linecap="butt" d="m47.99204 24.615545l24.125988 0l0 14.173227l-24.125988 0z" fill-rule="evenodd"/><path fill="#000000" d="m52.59784 33.82216l0 -3.8125l1.234375 0q0.703125 0 0.921875 0.0625q0.3125 0.078125 0.53125 0.375q0.234375 0.28125 0.234375 0.734375q0 0.34375 -0.140625 0.59375q-0.125 0.234375 -0.328125 0.375q-0.1875 0.140625 -0.390625 0.171875q-0.265625 0.0625 -0.796875 0.0625l-0.5 0l0 1.4375l-0.765625 0zm0.765625 -3.171875l0 1.078125l0.421875 0q0.453125 0 0.609375 -0.046875q0.15625 -0.0625 0.234375 -0.1875q0.09375 -0.140625 0.09375 -0.296875q0 -0.21875 -0.125 -0.34375q-0.125 -0.140625 -0.3125 -0.171875q-0.125 -0.03125 -0.546875 -0.03125l-0.375 0zm2.6163177 1.75q0 -0.359375 0.171875 -0.703125q0.1875 -0.34375 0.515625 -0.515625q0.328125 -0.1875 0.734375 -0.1875q0.625 0 1.015625 0.40625q0.40625 0.40625 0.40625 1.03125q0 0.625 -0.40625 1.046875q-0.40625 0.40625 -1.015625 0.40625q-0.375 0 -0.71875 -0.171875q-0.34375 -0.171875 -0.53125 -0.5q-0.171875 -0.328125 -0.171875 -0.8125zm0.75 0.046875q0 0.40625 0.1875 0.625q0.203125 0.21875 0.484375 0.21875q0.28125 0 0.46875 -0.21875q0.203125 -0.21875 0.203125 -0.640625q0 -0.40625 -0.203125 -0.625q-0.1875 -0.21875 -0.46875 -0.21875q-0.28125 0 -0.484375 0.21875q-0.1875 0.21875 -0.1875 0.640625zm2.6608887 1.375l0 -3.8125l0.734375 0l0 3.8125l-0.734375 0zm1.4803314 -3.140625l0 -0.671875l0.734375 0l0 0.671875l-0.734375 0zm0 3.140625l0 -2.765625l0.734375 0l0 2.765625l-0.734375 0zm3.9022064 -1.953125l-0.71875 0.140625q-0.046875 -0.21875 -0.171875 -0.328125q-0.125 -0.109375 -0.328125 -0.109375q-0.28125 0 -0.453125 0.1875q-0.15625 0.1875 -0.15625 0.625q0 0.5 0.15625 0.703125q0.171875 0.203125 0.453125 0.203125q0.21875 0 0.34375 -0.109375q0.140625 -0.125 0.1875 -0.421875l0.71875 0.125q-0.109375 0.5 -0.4375 0.75q-0.3125 0.25 -0.84375 0.25q-0.609375 0 -0.96875 -0.375q-0.359375 -0.390625 -0.359375 -1.0625q0 -0.6875 0.359375 -1.0625q0.359375 -0.390625 0.984375 -0.390625q0.5 0 0.796875 0.21875q0.296875 0.21875 0.4375 0.65625zm0.19763184 -0.8125l0.78125 0l0.65625 1.96875l0.65625 -1.96875l0.75 0l-0.96875 2.65625l-0.171875 0.484375q-0.109375 0.25 -0.203125 0.375q-0.078125 0.125 -0.1875 0.203125q-0.109375 0.078125 -0.28125 0.125q-0.15625 0.046875 -0.375 0.046875q-0.203125 0 -0.40625 -0.046875l-0.0625 -0.578125q0.171875 0.03125 0.296875 0.03125q0.265625 0 0.375 -0.15625q0.125 -0.140625 0.203125 -0.375l-1.0625 -2.765625z" fill-rule="nonzero"/><path fill="#000000" fill-opacity="0.0" d="m47.99204 97.92451l0 0c0 -2.8788986 2.333809 -5.2127075 5.2127037 -5.2127075l101.5746 0c1.3824921 0 2.7083588 0.54919434 3.6859283 1.5267639c0.9775696 0.9775772 1.5267639 2.303444 1.5267639 3.6859436l0 20.850182c0 2.8788986 -2.3338013 5.2127 -5.2126923 5.2127l-101.5746 0c-2.8788948 0 -5.2127037 -2.3338013 -5.2127037 -5.2127z" fill-rule="evenodd"/><path stroke="#000000" stroke-width="1.0" stroke-linejoin="round" stroke-linecap="butt" stroke-dasharray="8.0,3.0" d="m47.99204 97.92451l0 0c0 -2.8788986 2.333809 -5.2127075 5.2127037 -5.2127075l101.5746 0c1.3824921 0 2.7083588 0.54919434 3.6859283 1.5267639c0.9775696 0.9775772 1.5267639 2.303444 1.5267639 3.6859436l0 20.850182c0 2.8788986 -2.3338013 5.2127 -5.2126923 5.2127l-101.5746 0c-2.8788948 0 -5.2127037 -2.3338013 -5.2127037 -5.2127z" fill-rule="evenodd"/><path fill="#000000" fill-opacity="0.0" d="m46.42117 110.39647l65.44882 0l0 13.354324l-65.44882 0z" fill-rule="evenodd"/><path fill="#000000" d="m48.405544 118.79646l1.828125 -4.765625l0.6875 0l1.953125 4.765625l-0.71875 0l-0.5625 -1.4375l-1.984375 0l-0.53125 1.4375l-0.671875 0zm1.375 -1.953125l1.625 0l-0.5 -1.328125q-0.234375 -0.59375 -0.34375 -0.984375q-0.09375 0.453125 -0.25 0.90625l-0.53125 1.40625zm3.4084167 2.234375l0.578125 0.09375q0.03125 0.265625 0.1875 0.375q0.21875 0.171875 0.59375 0.171875q0.40625 0 0.625 -0.171875q0.234375 -0.15625 0.3125 -0.453125q0.046875 -0.171875 0.03125 -0.75q-0.375 0.453125 -0.953125 0.453125q-0.703125 0 -1.09375 -0.515625q-0.390625 -0.515625 -0.390625 -1.234375q0 -0.484375 0.171875 -0.90625q0.1875 -0.421875 0.515625 -0.640625q0.34375 -0.234375 0.796875 -0.234375q0.625 0 1.015625 0.5l0 -0.421875l0.53125 0l0 2.984375q0 0.8125 -0.171875 1.140625q-0.15625 0.34375 -0.515625 0.53125q-0.34375 0.203125 -0.859375 0.203125q-0.625 0 -1.015625 -0.28125q-0.375 -0.28125 -0.359375 -0.84375zm0.484375 -2.0625q0 0.671875 0.265625 0.984375q0.28125 0.3125 0.6875 0.3125q0.40625 0 0.671875 -0.3125q0.265625 -0.3125 0.265625 -0.96875q0 -0.640625 -0.28125 -0.953125q-0.28125 -0.328125 -0.671875 -0.328125q-0.390625 0 -0.671875 0.328125q-0.265625 0.3125 -0.265625 0.9375zm5.686264 0.671875l0.609375 0.078125q-0.140625 0.53125 -0.53125 0.828125q-0.390625 0.28125 -0.984375 0.28125q-0.765625 0 -1.203125 -0.46875q-0.4375 -0.46875 -0.4375 -1.3125q0 -0.859375 0.4375 -1.34375q0.453125 -0.484375 1.171875 -0.484375q0.6875 0 1.125 0.46875q0.4375 0.46875 0.4375 1.328125q0 0.046875 0 0.15625l-2.578125 0q0.03125 0.578125 0.3125 0.875q0.296875 0.296875 0.734375 0.296875q0.328125 0 0.546875 -0.15625q0.234375 -0.171875 0.359375 -0.546875zm-1.921875 -0.953125l1.9375 0q-0.046875 -0.4375 -0.21875 -0.640625q-0.28125 -0.34375 -0.734375 -0.34375q-0.40625 0 -0.6875 0.265625q-0.265625 0.265625 -0.296875 0.71875zm3.264389 2.0625l0 -3.453125l0.53125 0l0 0.5q0.375 -0.578125 1.09375 -0.578125q0.3125 0 0.578125 0.109375q0.265625 0.109375 0.390625 0.296875q0.125 0.1875 0.1875 0.4375q0.03125 0.15625 0.03125 0.5625l0 2.125l-0.59375 0l0 -2.09375q0 -0.359375 -0.078125 -0.53125q-0.0625 -0.1875 -0.234375 -0.28125q-0.171875 -0.109375 -0.40625 -0.109375q-0.375 0 -0.640625 0.234375q-0.265625 0.234375 -0.265625 0.890625l0 1.890625l-0.59375 0zm4.983143 -0.515625l0.078125 0.515625q-0.25 0.046875 -0.4375 0.046875q-0.3125 0 -0.5 -0.09375q-0.171875 -0.109375 -0.25 -0.265625q-0.0625 -0.171875 -0.0625 -0.703125l0 -1.984375l-0.4375 0l0 -0.453125l0.4375 0l0 -0.859375l0.578125 -0.34375l0 1.203125l0.59375 0l0 0.453125l-0.59375 0l0 2.015625q0 0.25 0.03125 0.328125q0.03125 0.078125 0.09375 0.125q0.078125 0.03125 0.203125 0.03125q0.109375 0 0.265625 -0.015625zm5.323639 -0.046875l0 0.5625l-3.140625 0q-0.015625 -0.21875 0.0625 -0.40625q0.125 -0.328125 0.390625 -0.640625q0.265625 -0.3125 0.765625 -0.71875q0.78125 -0.640625 1.046875 -1.0q0.28125 -0.375 0.28125 -0.703125q0 -0.359375 -0.25 -0.59375q-0.25 -0.234375 -0.65625 -0.234375q-0.421875 0 -0.671875 0.25q-0.25 0.25 -0.265625 0.703125l-0.59375 -0.0625q0.0625 -0.671875 0.46875 -1.015625q0.40625 -0.359375 1.078125 -0.359375q0.6875 0 1.078125 0.375q0.40625 0.375 0.40625 0.9375q0 0.296875 -0.125 0.578125q-0.109375 0.265625 -0.390625 0.578125q-0.265625 0.296875 -0.890625 0.828125q-0.53125 0.453125 -0.6875 0.609375q-0.140625 0.15625 -0.234375 0.3125l2.328125 0z" fill-rule="nonzero"/><path fill="#ead1dc" d="m51.7562 96.22312l24.125988 0l0 14.173225l-24.125988 0z" fill-rule="evenodd"/><path stroke="#000000" stroke-width="1.0" stroke-linejoin="round" stroke-linecap="butt" d="m51.7562 96.22312l24.125988 0l0 14.173225l-24.125988 0z" fill-rule="evenodd"/><path fill="#000000" d="m56.362 105.42973l0 -3.8125l1.234375 0q0.703125 0 0.921875 0.0625q0.3125 0.078125 0.53125 0.375q0.234375 0.28125 0.234375 0.734375q0 0.34375 -0.140625 0.59375q-0.125 0.234375 -0.328125 0.375q-0.1875 0.140625 -0.390625 0.171875q-0.265625 0.0625 -0.796875 0.0625l-0.5 0l0 1.4375l-0.765625 0zm0.765625 -3.171875l0 1.078125l0.421875 0q0.453125 0 0.609375 -0.046875q0.15625 -0.0625 0.234375 -0.1875q0.09375 -0.140625 0.09375 -0.296875q0 -0.21875 -0.125 -0.34375q-0.125 -0.140625 -0.3125 -0.171875q-0.125 -0.03125 -0.546875 -0.03125l-0.375 0zm2.6163177 1.75q0 -0.359375 0.171875 -0.703125q0.1875 -0.34375 0.515625 -0.515625q0.328125 -0.1875 0.734375 -0.1875q0.625 0 1.015625 0.40625q0.40625 0.40625 0.40625 1.03125q0 0.625 -0.40625 1.046875q-0.40625 0.40625 -1.015625 0.40625q-0.375 0 -0.71875 -0.171875q-0.34375 -0.171875 -0.53125 -0.5q-0.171875 -0.328125 -0.171875 -0.8125zm0.75 0.046875q0 0.40625 0.1875 0.625q0.203125 0.21875 0.484375 0.21875q0.28125 0 0.46875 -0.21875q0.203125 -0.21875 0.203125 -0.640625q0 -0.40625 -0.203125 -0.625q-0.1875 -0.21875 -0.46875 -0.21875q-0.28125 0 -0.484375 0.21875q-0.1875 0.21875 -0.1875 0.640625zm2.6608887 1.375l0 -3.8125l0.734375 0l0 3.8125l-0.734375 0zm1.4803314 -3.140625l0 -0.671875l0.734375 0l0 0.671875l-0.734375 0zm0 3.140625l0 -2.765625l0.734375 0l0 2.765625l-0.734375 0zm3.9022064 -1.953125l-0.71875 0.140625q-0.046875 -0.21875 -0.171875 -0.328125q-0.125 -0.109375 -0.328125 -0.109375q-0.28125 0 -0.453125 0.1875q-0.15625 0.1875 -0.15625 0.625q0 0.5 0.15625 0.703125q0.171875 0.203125 0.453125 0.203125q0.21875 0 0.34375 -0.109375q0.140625 -0.125 0.1875 -0.421875l0.71875 0.125q-0.109375 0.5 -0.4375 0.75q-0.3125 0.25 -0.84375 0.25q-0.609375 0 -0.96875 -0.375q-0.359375 -0.390625 -0.359375 -1.0625q0 -0.6875 0.359375 -1.0625q0.359375 -0.390625 0.984375 -0.390625q0.5 0 0.796875 0.21875q0.296875 0.21875 0.4375 0.65625zm0.19763184 -0.8125l0.78125 0l0.65625 1.96875l0.65625 -1.96875l0.75 0l-0.96875 2.65625l-0.171875 0.484375q-0.109375 0.25 -0.203125 0.375q-0.078125 0.125 -0.1875 0.203125q-0.109375 0.078125 -0.28125 0.125q-0.15625 0.046875 -0.375 0.046875q-0.203125 0 -0.40625 -0.046875l-0.0625 -0.578125q0.171875 0.03125 0.296875 0.03125q0.265625 0 0.375 -0.15625q0.125 -0.140625 0.203125 -0.375l-1.0625 -2.765625z" fill-rule="nonzero"/><path fill="#000000" fill-opacity="0.0" d="m90.30708 96.55118l0 -57.291336" fill-rule="evenodd"/><path stroke="#ff0000" stroke-width="2.0" stroke-linejoin="round" stroke-linecap="butt" d="m90.30708 89.69701l0 -50.437164" fill-rule="evenodd"/><path fill="#ff0000" stroke="#ff0000" stroke-width="2.0" stroke-linecap="butt" d="m90.30708 89.69701l-2.2491608 -2.2491684l2.2491608 6.1795425l2.2491684 -6.1795425z" fill-rule="evenodd"/><path fill="#000000" fill-opacity="0.0" d="m156.21906 24.294613l24.125977 0l0 11.716537l-24.125977 0z" fill-rule="evenodd"/><path fill="#000000" fill-opacity="0.0" d="m136.51787 9.507205l33.637802 0l0 11.7165365l-33.637802 0z" fill-rule="evenodd"/><path fill="#000000" fill-opacity="0.0" d="m194.78087 24.293585c0 -12.5 -20.724411 -25.007874 -41.448822 -25.0c-20.724411 0.007874012 -41.448822 12.531496 -41.448822 25.062992" fill-rule="evenodd"/><path stroke="#000000" stroke-width="1.0" stroke-linejoin="round" stroke-linecap="butt" d="m194.78085 24.293585c0 -12.500001 -20.724396 -25.007874 -41.448807 -25.0c-10.362198 0.003937006 -20.724411 3.1368108 -28.496056 7.8351374c-3.885826 2.3491635 -7.124016 5.0896897 -9.390747 8.026144c-1.1333694 1.4682264 -2.0238724 2.9854364 -2.6310349 4.527198c-0.1517868 0.38544083 -0.2858734 0.77241516 -0.40161133 1.1605434l-0.035102844 0.12271118" fill-rule="evenodd"/><path fill="#000000" stroke="#000000" stroke-width="1.0" stroke-linecap="butt" d="m112.37749 20.965317l-0.9506378 -1.275013l0.66722107 3.219654l1.5584335 -2.895279z" fill-rule="evenodd"/><path fill="#000000" fill-opacity="0.0" d="m176.57614 25.20501l36.409454 0l0 23.02362l-36.409454 0z" fill-rule="evenodd"/><path fill="#000000" d="m184.68712 34.88501l0 -5.734375l4.25 0l0 0.96875l-3.09375 0l0 1.28125l2.875 0l0 0.953125l-2.875 0l0 1.5625l3.203125 0l0 0.96875l-4.359375 0zm9.1015625 0l-1.09375 0l0 -2.125q0 -0.671875 -0.078125 -0.859375q-0.0625 -0.203125 -0.21875 -0.3125q-0.15625 -0.109375 -0.375 -0.109375q-0.296875 0 -0.53125 0.15625q-0.21875 0.15625 -0.296875 0.421875q-0.078125 0.25 -0.078125 0.953125l0 1.875l-1.109375 0l0 -4.15625l1.03125 0l0 0.609375q0.53125 -0.703125 1.359375 -0.703125q0.359375 0 0.65625 0.140625q0.3125 0.125 0.46875 0.328125q0.15625 0.203125 0.203125 0.46875q0.0625 0.25 0.0625 0.734375l0 2.578125zm2.2617188 0l-1.671875 -4.15625l1.15625 0l0.78125 2.125l0.21875 0.703125q0.09375 -0.265625 0.109375 -0.359375q0.0625 -0.171875 0.125 -0.34375l0.78125 -2.125l1.140625 0l-1.65625 4.15625l-0.984375 0zm8.109375 0l-1.109375 0l0 -4.140625q-0.59375 0.5625 -1.40625 0.828125l0 -0.984375q0.421875 -0.140625 0.921875 -0.53125q0.515625 -0.40625 0.703125 -0.921875l0.890625 0l0 5.75z" fill-rule="nonzero"/><path fill="#000000" fill-opacity="0.0" d="m47.99204 126.537605l112.0 0l0 13.354332l-112.0 0z" fill-rule="evenodd"/><path fill="#ead1dc" d="m78.02319 96.22312l72.598434 0l0 14.173225l-72.598434 0z" fill-rule="evenodd"/><path stroke="#000000" stroke-width="1.0" stroke-linejoin="round" stroke-linecap="butt" d="m78.02319 96.22312l72.598434 0l0 14.173225l-72.598434 0z" fill-rule="evenodd"/><path fill="#000000" d="m93.53961 105.70973l0 -4.765625l2.03125 0q0.765625 0 1.109375 0.125q0.34375 0.125 0.546875 0.46875q0.21875 0.328125 0.21875 0.75q0 0.53125 -0.328125 0.890625q-0.3125 0.34375 -0.9375 0.421875q0.3125 0.1875 0.515625 0.40625q0.203125 0.21875 0.546875 0.78125l0.578125 0.921875l-1.140625 0l-0.703125 -1.03125q-0.375 -0.5625 -0.515625 -0.703125q-0.125 -0.140625 -0.28125 -0.1875q-0.15625 -0.0625 -0.484375 -0.0625l-0.1875 0l0 1.984375l-0.96875 0zm0.96875 -2.75l0.703125 0q0.703125 0 0.875 -0.046875q0.171875 -0.0625 0.265625 -0.203125q0.09375 -0.15625 0.09375 -0.359375q0 -0.25 -0.125 -0.390625q-0.125 -0.15625 -0.359375 -0.1875q-0.125 -0.015625 -0.703125 -0.015625l-0.75 0l0 1.203125zm5.8381805 1.65625l0.90625 0.140625q-0.171875 0.515625 -0.5625 0.78125q-0.375 0.25 -0.9375 0.25q-0.90625 0 -1.34375 -0.59375q-0.328125 -0.46875 -0.328125 -1.1875q0 -0.859375 0.4375 -1.34375q0.453125 -0.484375 1.140625 -0.484375q0.765625 0 1.203125 0.515625q0.453125 0.5 0.4375 1.546875l-2.296875 0q0.015625 0.40625 0.21875 0.640625q0.21875 0.21875 0.53125 0.21875q0.21875 0 0.359375 -0.109375q0.15625 -0.125 0.234375 -0.375zm0.046875 -0.921875q-0.015625 -0.40625 -0.21875 -0.609375q-0.1875 -0.203125 -0.46875 -0.203125q-0.296875 0 -0.484375 0.21875q-0.203125 0.21875 -0.203125 0.59375l1.375 0zm1.623764 -1.4375l0.84375 0l0 0.515625q0.171875 -0.265625 0.453125 -0.421875q0.28125 -0.171875 0.625 -0.171875q0.609375 0 1.015625 0.46875q0.421875 0.46875 0.421875 1.3125q0 0.875 -0.421875 1.359375q-0.421875 0.46875 -1.015625 0.46875q-0.28125 0 -0.515625 -0.109375q-0.234375 -0.125 -0.5 -0.390625l0 1.734375l-0.90625 0l0 -4.765625zm0.90625 1.671875q0 0.578125 0.21875 0.859375q0.234375 0.28125 0.5625 0.28125q0.328125 0 0.53125 -0.25q0.21875 -0.265625 0.21875 -0.84375q0 -0.546875 -0.21875 -0.8125q-0.21875 -0.265625 -0.546875 -0.265625q-0.328125 0 -0.546875 0.265625q-0.21875 0.25 -0.21875 0.765625zm3.1909027 1.78125l0 -4.765625l0.90625 0l0 4.765625l-0.90625 0zm2.5211945 -2.40625l-0.828125 -0.140625q0.140625 -0.5 0.484375 -0.734375q0.34375 -0.25 1.015625 -0.25q0.609375 0 0.90625 0.15625q0.296875 0.140625 0.421875 0.359375q0.125 0.21875 0.125 0.8125l-0.015625 1.0625q0 0.46875 0.046875 0.6875q0.046875 0.203125 0.171875 0.453125l-0.90625 0q-0.046875 -0.09375 -0.09375 -0.265625q-0.015625 -0.078125 -0.03125 -0.109375q-0.234375 0.21875 -0.5 0.34375q-0.265625 0.109375 -0.5625 0.109375q-0.546875 0 -0.859375 -0.28125q-0.296875 -0.296875 -0.296875 -0.734375q0 -0.296875 0.140625 -0.515625q0.140625 -0.234375 0.390625 -0.359375q0.25 -0.125 0.734375 -0.21875q0.640625 -0.109375 0.875 -0.21875l0 -0.09375q0 -0.265625 -0.125 -0.375q-0.125 -0.109375 -0.484375 -0.109375q-0.25 0 -0.390625 0.09375q-0.125 0.09375 -0.21875 0.328125zm1.21875 0.75q-0.171875 0.0625 -0.546875 0.140625q-0.375 0.078125 -0.5 0.15625q-0.171875 0.125 -0.171875 0.328125q0 0.1875 0.140625 0.328125q0.140625 0.140625 0.359375 0.140625q0.25 0 0.46875 -0.171875q0.171875 -0.109375 0.21875 -0.296875q0.03125 -0.109375 0.03125 -0.4375l0 -0.1875zm1.373764 -1.796875l0.96875 0l0.828125 2.453125l0.8125 -2.453125l0.9375 0l-1.21875 3.328125l-0.21875 0.59375q-0.125 0.3125 -0.234375 0.46875q-0.109375 0.15625 -0.25 0.25q-0.140625 0.109375 -0.34375 0.15625q-0.203125 0.0625 -0.46875 0.0625q-0.265625 0 -0.515625 -0.0625l-0.078125 -0.71875q0.21875 0.046875 0.390625 0.046875q0.3125 0 0.46875 -0.1875q0.15625 -0.1875 0.234375 -0.46875l-1.3125 -3.46875zm5.9418335 3.453125l0 -4.765625l0.921875 0l0 1.71875q0.421875 -0.484375 1.0 -0.484375q0.625 0 1.03125 0.46875q0.421875 0.453125 0.421875 1.296875q0 0.890625 -0.421875 1.375q-0.421875 0.46875 -1.03125 0.46875q-0.28125 0 -0.578125 -0.140625q-0.28125 -0.15625 -0.5 -0.4375l0 0.5l-0.84375 0zm0.90625 -1.796875q0 0.53125 0.171875 0.796875q0.234375 0.359375 0.625 0.359375q0.3125 0 0.515625 -0.25q0.21875 -0.265625 0.21875 -0.828125q0 -0.59375 -0.21875 -0.84375q-0.21875 -0.265625 -0.546875 -0.265625q-0.328125 0 -0.546875 0.25q-0.21875 0.25 -0.21875 0.78125zm5.4721527 1.796875l0 -0.515625q-0.1875 0.28125 -0.5 0.4375q-0.296875 0.15625 -0.640625 0.15625q-0.359375 0 -0.640625 -0.15625q-0.265625 -0.15625 -0.390625 -0.421875q-0.125 -0.28125 -0.125 -0.765625l0 -2.1875l0.921875 0l0 1.59375q0 0.71875 0.046875 0.890625q0.046875 0.15625 0.171875 0.25q0.140625 0.09375 0.34375 0.09375q0.234375 0 0.421875 -0.125q0.1875 -0.125 0.25 -0.3125q0.078125 -0.1875 0.078125 -0.9375l0 -1.453125l0.90625 0l0 3.453125l-0.84375 0zm1.3940277 -3.453125l0.5 0l0 -0.265625q0 -0.421875 0.09375 -0.640625q0.09375 -0.21875 0.34375 -0.34375q0.25 -0.140625 0.625 -0.140625q0.390625 0 0.765625 0.109375l-0.125 0.640625q-0.203125 -0.046875 -0.40625 -0.046875q-0.203125 0 -0.296875 0.09375q-0.078125 0.09375 -0.078125 0.34375l0 0.25l0.6875 0l0 0.71875l-0.6875 0l0 2.734375l-0.921875 0l0 -2.734375l-0.5 0l0 -0.71875zm2.2165833 0l0.5 0l0 -0.265625q0 -0.421875 0.09375 -0.640625q0.09375 -0.21875 0.34375 -0.34375q0.25 -0.140625 0.625 -0.140625q0.390625 0 0.765625 0.109375l-0.125 0.640625q-0.203125 -0.046875 -0.40625 -0.046875q-0.203125 0 -0.296875 0.09375q-0.078125 0.09375 -0.078125 0.34375l0 0.25l0.6875 0l0 0.71875l-0.6875 0l0 2.734375l-0.921875 0l0 -2.734375l-0.5 0l0 -0.71875zm4.6228333 2.359375l0.90625 0.140625q-0.171875 0.515625 -0.5625 0.78125q-0.375 0.25 -0.9375 0.25q-0.90625 0 -1.34375 -0.59375q-0.328125 -0.46875 -0.328125 -1.1875q0 -0.859375 0.4375 -1.34375q0.453125 -0.484375 1.140625 -0.484375q0.765625 0 1.203125 0.515625q0.453125 0.5 0.4375 1.546875l-2.296875 0q0.015625 0.40625 0.21875 0.640625q0.21875 0.21875 0.53125 0.21875q0.21875 0 0.359375 -0.109375q0.15625 -0.125 0.234375 -0.375zm0.046875 -0.921875q-0.015625 -0.40625 -0.21875 -0.609375q-0.1875 -0.203125 -0.46875 -0.203125q-0.296875 0 -0.484375 0.21875q-0.203125 0.21875 -0.203125 0.59375l1.375 0zm2.530014 2.015625l-0.921875 0l0 -3.453125l0.84375 0l0 0.5q0.21875 -0.359375 0.390625 -0.46875q0.1875 -0.109375 0.40625 -0.109375q0.3125 0 0.59375 0.171875l-0.28125 0.796875q-0.234375 -0.140625 -0.421875 -0.140625q-0.203125 0 -0.34375 0.109375q-0.125 0.09375 -0.203125 0.375q-0.0625 0.265625 -0.0625 1.15625l0 1.0625z" fill-rule="nonzero"/><path fill="#000000" fill-opacity="0.0" d="m176.57614 99.90836l36.409454 0l0 14.960632l-36.409454 0z" fill-rule="evenodd"/><path fill="#000000" d="m184.68712 109.58836l0 -5.734375l4.25 0l0 0.96875l-3.09375 0l0 1.28125l2.875 0l0 0.953125l-2.875 0l0 1.5625l3.203125 0l0 0.96875l-4.359375 0zm9.1015625 0l-1.09375 0l0 -2.125q0 -0.671875 -0.078125 -0.859375q-0.0625 -0.203125 -0.21875 -0.3125q-0.15625 -0.109375 -0.375 -0.109375q-0.296875 0 -0.53125 0.15625q-0.21875 0.15625 -0.296875 0.421875q-0.078125 0.25 -0.078125 0.953125l0 1.875l-1.109375 0l0 -4.15625l1.03125 0l0 0.609375q0.53125 -0.703125 1.359375 -0.703125q0.359375 0 0.65625 0.140625q0.3125 0.125 0.46875 0.328125q0.15625 0.203125 0.203125 0.46875q0.0625 0.25 0.0625 0.734375l0 2.578125zm2.2617188 0l-1.671875 -4.15625l1.15625 0l0.78125 2.125l0.21875 0.703125q0.09375 -0.265625 0.109375 -0.359375q0.0625 -0.171875 0.125 -0.34375l0.78125 -2.125l1.140625 0l-1.65625 4.15625l-0.984375 0zm9.0 -1.015625l0 1.015625l-3.84375 0q0.0625 -0.578125 0.375 -1.09375q0.3125 -0.515625 1.234375 -1.375q0.734375 -0.6875 0.90625 -0.9375q0.234375 -0.34375 0.234375 -0.671875q0 -0.375 -0.203125 -0.5625q-0.203125 -0.203125 -0.546875 -0.203125q-0.34375 0 -0.546875 0.21875q-0.203125 0.203125 -0.234375 0.671875l-1.09375 -0.109375q0.09375 -0.90625 0.609375 -1.296875q0.515625 -0.390625 1.296875 -0.390625q0.84375 0 1.328125 0.453125q0.484375 0.453125 0.484375 1.140625q0 0.390625 -0.140625 0.734375q-0.140625 0.34375 -0.4375 0.734375q-0.203125 0.25 -0.71875 0.734375q-0.515625 0.46875 -0.65625 0.625q-0.140625 0.15625 -0.21875 0.3125l2.171875 0z" fill-rule="nonzero"/><path fill="#000000" fill-opacity="0.0" d="m176.57614 24.293585l36.409454 0l0 14.173227l-36.409454 0z" fill-rule="evenodd"/><path stroke="#595959" stroke-width="1.0" stroke-linejoin="round" stroke-linecap="butt" d="m176.57614 24.293585l36.409454 0l0 14.173227l-36.409454 0z" fill-rule="evenodd"/><path fill="#000000" fill-opacity="0.0" d="m176.57614 99.69839l36.409454 0l0 14.173233l-36.409454 0z" fill-rule="evenodd"/><path stroke="#595959" stroke-width="1.0" stroke-linejoin="round" stroke-linecap="butt" d="m176.57614 99.69839l36.409454 0l0 14.173233l-36.409454 0z" fill-rule="evenodd"/><path fill="#000000" fill-opacity="0.0" d="m157.36354 49.55343c18.708664 0 37.417328 -5.5433083 37.417328 -11.0866165" fill-rule="evenodd"/><path stroke="#000000" stroke-width="1.0" stroke-linejoin="round" stroke-linecap="butt" d="m157.36354 49.553425c9.354324 0 18.708664 -1.3858261 25.724411 -3.4645653c3.5078735 -1.0393715 6.4310913 -2.2519684 8.477356 -3.5511818c0.51156616 -0.3248024 0.96832275 -0.65501785 1.3656921 -0.98929596l0.13394165 -0.11499405" fill-rule="evenodd"/><path fill="#000000" stroke="#000000" stroke-width="1.0" stroke-linecap="butt" d="m193.06494 41.433388l0.4104004 1.5365372l0.5735626 -3.2376518l-2.5204926 2.1115112z" fill-rule="evenodd"/><path fill="#000000" fill-opacity="0.0" d="m158.71788 120.64327c18.031494 0 36.06299 -3.385826 36.06299 -6.771652" fill-rule="evenodd"/><path stroke="#000000" stroke-width="1.0" stroke-linejoin="round" stroke-linecap="butt" d="m158.71788 120.64327c9.015732 0 18.031479 -0.84645844 24.79329 -2.1161423c3.3809052 -0.6348419 6.1983337 -1.3754959 8.170532 -2.1690445c0.12324524 -0.049606323 0.24320984 -0.09940338 0.35980225 -0.14940643l0.16607666 -0.07362366" fill-rule="evenodd"/><path fill="#000000" stroke="#000000" stroke-width="1.0" stroke-linecap="butt" d="m192.20758 116.135056l-0.10166931 1.5871506l1.5772552 -2.8850708l-3.062729 1.1962509z" fill-rule="evenodd"/><path fill="#000000" fill-opacity="0.0" d="m194.78087 99.69839c0 -10.010292 -20.118118 -19.587517 -40.23622 -20.020584c-20.118118 -0.43307495 -40.23622 8.2780075 -40.23622 16.556023" fill-rule="evenodd"/><path stroke="#000000" stroke-width="1.0" stroke-linejoin="round" stroke-linecap="butt" d="m194.78085 99.69839c0 -10.010292 -20.118103 -19.587517 -40.236206 -20.020584c-10.0590515 -0.21653748 -20.118103 1.8529663 -27.6624 5.0113525c-3.7721481 1.5791931 -6.915596 3.430603 -9.11602 5.404602c-0.55010223 0.49349976 -1.0412674 0.9946594 -1.4685822 1.5011444c-0.21365356 0.25323486 -0.41134644 0.5078125 -0.59246826 0.7634201c-0.09055328 0.12780762 -0.17697144 0.25587463 -0.25917053 0.38415527c-0.04109192 0.06414795 -0.08113861 0.12834167 -0.12010956 0.19259644l-0.013061523 0.022155762" fill-rule="evenodd"/><path fill="#000000" stroke="#000000" stroke-width="1.0" stroke-linecap="butt" d="m115.312836 92.95722l-0.74560547 -1.4047928l0.16965485 3.2836838l1.9807434 -2.6244965z" fill-rule="evenodd"/><path fill="#000000" fill-opacity="0.0" d="m102.34908 38.7979l0 56.629917" fill-rule="evenodd"/><path stroke="#0011ff" stroke-width="2.0" stroke-linejoin="round" stroke-linecap="butt" d="m102.34908 45.652073l0 49.775745" fill-rule="evenodd"/><path fill="#0011ff" stroke="#0011ff" stroke-width="2.0" stroke-linecap="butt" d="m102.34908 45.652073l2.2491684 2.2491684l-2.2491684 -6.179535l-2.2491684 6.179535z" fill-rule="evenodd"/></g></svg>