<?xml version="1.0" standalone="no"?>
<!DOCTYPE svg PUBLIC "-//W3C//DTD SVG 20010904//EN"
 "http://www.w3.org/TR/2001/REC-SVG-20010904/DTD/svg10.dtd">
<svg version="1.0" xmlns="http://www.w3.org/2000/svg"
 width="1298.000000pt" height="1194.000000pt" viewBox="0 0 1298.000000 1194.000000"
 preserveAspectRatio="xMidYMid meet">

<g transform="translate(0.000000,1194.000000) scale(0.100000,-0.100000)"
fill="#000000" stroke="none">
<path d="M6630 11580 l0 -270 30 0 30 0 0 144 0 144 38 24 c46 28 113 31 139
5 15 -15 18 -40 21 -167 l3 -150 36 0 35 0 -4 153 c-4 173 -15 209 -73 233
-49 20 -85 17 -141 -11 -27 -14 -50 -25 -51 -25 -2 0 -3 43 -3 95 l0 95 -30 0
-30 0 0 -270z"/>
<path d="M5482 11568 l3 -263 33 -3 32 -3 0 100 0 101 63 0 c136 1 209 61 209
171 0 62 -26 106 -77 133 -32 17 -62 22 -153 24 l-112 4 2 -264z m218 187 c35
-18 50 -43 50 -85 0 -75 -46 -110 -146 -110 l-54 0 0 105 0 105 60 0 c35 0 74
-7 90 -15z"/>
<path d="M7414 11673 c-31 -87 -74 -203 -95 -258 -20 -55 -35 -103 -32 -107 7
-13 50 -9 60 5 5 6 20 40 33 75 l22 62 114 0 c108 0 113 -1 120 -22 3 -13 15
-47 26 -75 18 -50 21 -53 54 -53 19 0 34 3 34 8 0 4 -42 122 -94 262 l-93 255
-46 3 -45 3 -58 -158z m146 -36 c24 -64 41 -120 38 -123 -3 -2 -43 -4 -89 -2
l-84 3 44 123 c24 67 45 121 46 120 1 -2 22 -56 45 -121z"/>
<path d="M6340 11755 c0 -48 -2 -55 -20 -55 -16 0 -20 -7 -20 -30 0 -23 5 -30
19 -30 17 0 19 -11 23 -127 5 -146 18 -184 69 -202 35 -12 82 -14 117 -5 16 5
22 14 22 33 0 27 -1 28 -54 23 -78 -6 -86 9 -86 160 l0 118 71 0 70 0 -3 28
c-3 26 -5 27 -70 30 l-68 3 0 54 0 55 -35 0 -35 0 0 -55z"/>
<path d="M5955 11701 c-25 -5 -31 -11 -33 -40 -3 -31 -2 -33 20 -26 13 4 52 9
88 12 56 4 69 2 93 -17 15 -12 27 -29 27 -39 0 -15 -12 -19 -77 -25 -96 -8
-155 -35 -177 -80 -20 -42 -20 -67 -2 -111 31 -73 124 -96 210 -50 45 24 46
24 46 4 0 -17 5 -20 33 -17 l32 3 0 145 c0 174 -9 204 -69 231 -41 19 -129 23
-191 10z m195 -239 l0 -58 -44 -22 c-48 -24 -86 -28 -119 -11 -29 16 -37 28
-37 60 0 50 64 83 173 88 26 1 27 0 27 -57z"/>
<path d="M3563 11100 c-91 -18 -172 -84 -215 -175 l-28 -60 0 -4315 0 -4315
29 -60 c33 -71 100 -135 169 -162 45 -17 160 -18 2736 -21 l2688 -2 -7 -28 -7
-27 29 28 c16 15 34 27 41 27 9 0 12 -80 12 -325 0 -318 0 -325 20 -325 20 0
20 7 20 325 0 245 3 325 12 325 7 0 25 -12 41 -27 l29 -28 -7 26 -7 27 279 4
c234 4 286 8 327 23 68 25 148 107 175 180 l21 56 -2 4312 -3 4312 -22 47
c-27 58 -97 129 -160 160 l-48 23 -3040 1 c-1672 1 -3059 -2 -3082 -6z m6163
-72 c58 -30 98 -73 125 -133 18 -39 19 -200 19 -4345 0 -4164 -1 -4306 -19
-4346 -26 -58 -72 -106 -128 -134 -47 -25 -53 -25 -335 -28 l-286 -4 -17 59
c-9 32 -23 83 -32 113 -8 30 -18 58 -22 62 -3 4 -21 -47 -40 -112 l-34 -120
-2696 2 c-2464 3 -2699 4 -2732 19 -54 25 -107 76 -137 133 l-27 51 0 4305 0
4305 23 45 c43 82 101 131 179 149 22 5 1314 8 3073 8 l3035 -2 51 -27z"/>
<path d="M4090 10673 c-51 -8 -147 -47 -196 -79 -105 -69 -178 -167 -220 -291
-24 -71 -26 -89 -22 -193 6 -129 23 -186 84 -279 57 -86 126 -146 220 -193 82
-40 89 -42 199 -46 95 -4 124 -1 183 17 245 74 409 336 373 595 -20 139 -70
236 -176 335 -119 111 -282 160 -445 134z m190 -53 c193 -43 347 -206 380
-401 33 -194 -42 -377 -202 -494 -205 -152 -504 -104 -661 105 -80 106 -113
233 -96 371 34 279 309 478 579 419z"/>
<path d="M3976 10511 c-10 -16 -186 -500 -186 -511 0 -7 14 -10 33 -8 30 3 33
7 57 76 l25 73 114 -3 114 -3 26 -70 c25 -65 29 -70 59 -73 23 -2 32 1 32 11
0 16 -163 465 -180 498 -8 14 -21 19 -50 19 -21 0 -41 -4 -44 -9z m89 -183
c22 -61 42 -115 43 -120 2 -4 -38 -8 -88 -8 -69 0 -91 3 -88 13 3 6 22 60 44
120 21 59 41 107 44 107 3 0 24 -50 45 -112z"/>
<path d="M4300 10180 c0 -19 7 -20 95 -20 52 0 95 -3 95 -6 0 -3 -34 -68 -75
-143 -41 -76 -75 -141 -75 -145 0 -4 10 -6 23 -4 17 2 39 34 99 148 43 80 78
155 78 168 0 22 -2 22 -120 22 -113 0 -120 -1 -120 -20z"/>
<path d="M6517 10673 c-23 -4 -27 -8 -21 -26 3 -12 7 -23 8 -24 1 -1 20 1 44
4 36 5 42 9 42 29 0 25 -7 27 -73 17z"/>
<path d="M6640 10656 c0 -21 6 -26 43 -34 28 -5 44 -5 49 2 14 21 8 36 -17 41
-14 3 -36 7 -50 10 -21 5 -25 2 -25 -19z"/>
<path d="M8856 10664 c-166 -40 -318 -182 -377 -354 -33 -93 -33 -258 -1 -352
31 -88 85 -171 157 -236 102 -93 205 -132 349 -132 152 0 256 41 359 139 114
107 166 218 174 371 9 172 -39 302 -157 420 -136 136 -320 189 -504 144z m225
-44 c170 -33 318 -169 371 -343 27 -90 22 -244 -11 -326 -107 -266 -412 -390
-661 -269 -88 42 -190 145 -230 230 -93 198 -55 422 97 574 117 117 271 165
434 134z"/>
<path d="M8776 10521 c-10 -16 -186 -500 -186 -511 0 -7 14 -10 33 -8 30 3 33
7 57 76 l25 73 114 -3 114 -3 26 -70 c25 -65 29 -70 59 -73 23 -2 32 1 32 11
0 16 -163 465 -180 498 -8 14 -21 19 -50 19 -21 0 -41 -4 -44 -9z m89 -183
c22 -61 42 -115 43 -120 2 -4 -38 -8 -88 -8 -69 0 -91 3 -88 13 3 6 22 60 44
120 21 59 41 107 44 107 3 0 24 -50 45 -112z"/>
<path d="M9170 10193 c-59 -22 -83 -106 -38 -137 l22 -16 -27 -28 c-45 -47
-34 -117 23 -147 63 -33 159 -6 181 52 14 37 2 81 -27 99 l-24 16 25 30 c40
47 30 95 -25 123 -29 15 -81 19 -110 8z m97 -45 c18 -15 16 -63 -3 -82 -19
-20 -28 -20 -70 0 -34 16 -53 52 -39 74 18 29 82 33 112 8z m-24 -144 c37 -20
47 -31 47 -60 0 -54 -95 -80 -131 -35 -23 28 -24 59 -3 89 18 26 43 28 87 6z"/>
<path d="M6390 10634 c-44 -19 -44 -19 -31 -42 11 -20 12 -20 51 -4 30 13 40
22 38 36 -4 26 -16 28 -58 10z"/>
<path d="M6787 10633 c-17 -16 -4 -41 28 -56 44 -21 42 -21 55 3 9 17 5 22
-29 40 -45 23 -45 23 -54 13z"/>
<path d="M6266 10557 c-36 -31 -37 -33 -19 -49 17 -15 20 -14 52 12 30 26 32
30 19 48 -14 20 -15 20 -52 -11z"/>
<path d="M6912 10558 c-19 -19 -15 -31 22 -60 30 -24 36 -26 47 -12 10 13 7
21 -22 50 -27 27 -37 32 -47 22z"/>
<path d="M6163 10445 c-28 -42 -28 -42 -3 -55 16 -9 23 -5 44 27 19 27 23 40
14 50 -17 21 -31 15 -55 -22z"/>
<path d="M5320 10330 l0 -130 -135 0 -135 0 0 -65 0 -65 135 0 135 0 0 -135 0
-135 70 0 70 0 0 135 0 135 130 0 130 0 0 65 0 65 -130 0 -130 0 0 130 0 130
-70 0 -70 0 0 -130z"/>
<path d="M7008 10447 c-15 -10 -15 -14 5 -49 23 -39 32 -44 56 -29 12 8 10 16
-12 50 -15 23 -28 41 -30 40 -1 0 -10 -5 -19 -12z"/>
<path d="M6345 10401 c-25 -5 -31 -11 -33 -40 -3 -31 -2 -33 20 -26 13 4 52 9
88 12 56 4 69 2 93 -17 15 -12 27 -29 27 -39 0 -15 -12 -19 -77 -25 -96 -8
-155 -35 -177 -80 -20 -42 -20 -67 -2 -111 31 -73 124 -96 210 -50 45 24 46
24 46 4 0 -17 5 -20 33 -17 l32 3 0 145 c0 174 -9 204 -69 231 -41 19 -129 23
-191 10z m195 -239 l0 -58 -44 -22 c-48 -24 -86 -28 -119 -11 -29 16 -37 28
-37 60 0 50 64 83 173 88 26 1 27 0 27 -57z"/>
<path d="M6107 10343 c-3 -5 -9 -25 -15 -45 -8 -30 -7 -38 5 -42 26 -10 31 -7
46 38 14 40 14 45 0 50 -20 8 -31 7 -36 -1z"/>
<path d="M7470 10265 l0 -65 320 0 320 0 0 65 0 65 -320 0 -320 0 0 -65z"/>
<path d="M7066 10312 c-3 -5 0 -27 6 -50 9 -37 13 -42 32 -36 11 4 22 7 23 8
1 1 -3 21 -9 44 -7 30 -16 42 -29 42 -10 0 -20 -4 -23 -8z"/>
<path d="M6070 10161 c0 -48 2 -51 26 -51 24 0 25 2 22 48 -3 40 -6 47 -25 50
-21 3 -23 0 -23 -47z"/>
<path d="M6750 10191 c-18 -5 -26 -15 -28 -35 l-3 -27 30 15 c60 32 131 13
131 -34 0 -23 -36 -50 -67 -50 -16 0 -23 -6 -23 -20 0 -15 7 -20 28 -20 42 0
65 -22 65 -60 0 -62 -63 -87 -139 -55 l-35 15 3 -27 c2 -21 10 -29 38 -36 100
-26 184 24 178 106 -2 34 -9 45 -35 63 l-32 21 25 12 c53 24 50 100 -6 128
-27 14 -89 15 -130 4z"/>
<path d="M7087 10113 c-3 -38 -4 -69 -4 -69 1 -1 12 -4 23 -8 18 -5 22 -1 28
25 3 17 6 51 6 75 0 40 -2 44 -24 44 -22 0 -24 -5 -29 -67z"/>
<path d="M6074 10043 c2 -10 8 -33 11 -51 5 -24 11 -32 22 -28 8 3 19 6 24 6
6 0 8 8 6 18 -3 9 -8 29 -11 45 -5 21 -12 27 -32 27 -19 0 -24 -4 -20 -17z"/>
<path d="M7470 9995 l0 -65 320 0 320 0 0 65 0 65 -320 0 -320 0 0 -65z"/>
<path d="M7055 9954 c-19 -46 -19 -50 1 -58 23 -9 24 -9 40 29 19 47 18 65 -6
65 -13 0 -25 -12 -35 -36z"/>
<path d="M6127 9919 c-17 -10 -16 -12 5 -50 22 -40 36 -47 55 -28 9 9 6 21
-10 50 -24 43 -24 43 -50 28z"/>
<path d="M6999 9843 c-39 -47 -40 -49 -20 -67 19 -17 21 -16 46 23 26 39 27
61 1 61 -7 0 -19 -8 -27 -17z"/>
<path d="M6208 9797 c-15 -10 -15 -13 3 -39 29 -41 52 -51 66 -29 10 15 6 24
-20 49 -26 24 -35 28 -49 19z"/>
<path d="M6892 9732 c-23 -19 -31 -33 -26 -45 9 -24 23 -21 62 11 32 26 33 28
15 44 -17 16 -20 15 -51 -10z"/>
<path d="M6321 9707 c-20 -20 -12 -36 29 -57 l39 -20 11 21 c7 11 10 22 8 23
-40 28 -77 43 -87 33z"/>
<path d="M6770 9666 c-63 -23 -48 -67 15 -46 40 13 48 22 39 44 -7 19 -8 19
-54 2z"/>
<path d="M6450 9649 c0 -4 -3 -14 -6 -22 -4 -11 5 -19 33 -26 55 -16 63 -14
63 12 0 20 -7 25 -45 34 -25 6 -45 7 -45 2z"/>
<path d="M6623 9633 c-27 -4 -33 -9 -33 -28 0 -23 2 -24 48 -18 26 3 49 7 50
9 8 6 -10 44 -21 42 -7 0 -27 -3 -44 -5z"/>
<path d="M4997 9326 c128 -79 238 -148 244 -152 7 -4 -6 27 -29 69 -24 42 -40
77 -38 77 11 0 1313 -371 1334 -380 17 -7 22 -18 22 -45 l0 -35 70 0 c56 0 70
3 70 15 0 8 5 15 12 15 6 0 329 -90 716 -200 388 -110 706 -199 707 -198 1 2
5 15 8 29 5 21 3 28 -13 32 -259 68 -1418 404 -1426 413 -6 8 -26 14 -45 14
-25 0 -1334 363 -1429 396 -10 4 6 17 45 39 33 19 67 38 75 44 10 7 -77 10
-270 10 l-285 1 232 -144z"/>
<path d="M4110 8920 l0 -60 70 0 70 0 0 60 0 60 -70 0 -70 0 0 -60z"/>
<path d="M8960 8920 l0 -60 70 0 70 0 0 60 0 60 -70 0 -70 0 0 -60z"/>
<path d="M4110 8540 l0 -60 70 0 70 0 0 60 0 60 -70 0 -70 0 0 -60z"/>
<path d="M6530 8540 l0 -60 70 0 70 0 0 60 0 60 -70 0 -70 0 0 -60z"/>
<path d="M8960 8540 l0 -60 70 0 70 0 0 60 0 60 -70 0 -70 0 0 -60z"/>
<path d="M4110 8170 l0 -60 70 0 70 0 0 60 0 60 -70 0 -70 0 0 -60z"/>
<path d="M6530 8170 l0 -60 70 0 70 0 0 60 0 60 -70 0 -70 0 0 -60z"/>
<path d="M8960 8170 l0 -60 70 0 70 0 0 60 0 60 -70 0 -70 0 0 -60z"/>
<path d="M4010 7387 c-314 -107 -459 -468 -308 -768 165 -331 589 -400 848
-139 109 109 160 233 160 390 0 147 -48 266 -151 375 -112 118 -224 165 -388
165 -72 0 -112 -6 -161 -23z m360 -64 c79 -37 142 -87 197 -161 62 -83 85
-149 90 -268 8 -160 -33 -272 -141 -380 -124 -124 -295 -172 -461 -129 -85 23
-151 62 -220 130 -150 150 -187 376 -95 573 53 114 194 233 313 263 18 4 82 7
142 5 98 -2 117 -6 175 -33z"/>
<path d="M3935 7188 c-82 -219 -185 -504 -185 -511 0 -4 15 -7 32 -5 30 3 35
9 55 58 12 30 24 63 26 73 5 15 19 17 119 17 l113 0 26 -72 c25 -71 27 -73 60
-73 25 0 33 4 31 15 -2 11 -135 379 -179 498 -3 7 -23 12 -49 12 -27 0 -47 -5
-49 -12z m129 -286 c7 -21 5 -22 -83 -22 l-90 0 40 113 c22 61 42 119 45 127
5 12 54 -110 88 -218z"/>
<path d="M4310 6862 c-16 -5 -26 -17 -28 -31 -3 -20 0 -23 15 -17 64 25 118
18 134 -18 17 -36 -13 -88 -92 -158 -49 -43 -69 -68 -69 -84 0 -24 1 -24 115
-24 108 0 115 1 115 20 0 19 -7 20 -89 20 l-89 0 79 78 c76 74 79 80 79 123 0
61 -30 91 -97 95 -26 2 -59 0 -73 -4z"/>
<path d="M6497 7403 c-4 -3 -7 -15 -7 -25 0 -17 7 -19 48 -16 40 3 47 6 50 26
3 20 -1 22 -41 22 -24 0 -47 -3 -50 -7z"/>
<path d="M6637 7391 c-6 -25 -4 -27 49 -35 36 -6 42 -5 47 13 6 25 2 28 -50
37 -35 5 -41 3 -46 -15z"/>
<path d="M8850 7387 c-220 -75 -362 -279 -361 -517 0 -161 39 -264 144 -376
67 -73 130 -115 213 -146 48 -17 81 -21 174 -21 93 0 126 4 174 21 165 61 309
221 346 387 17 74 14 216 -5 282 -51 178 -196 328 -364 377 -84 24 -240 21
-321 -7z m373 -69 c268 -128 366 -470 206 -719 -134 -209 -395 -285 -619 -181
-78 36 -188 149 -227 232 -131 277 9 600 302 696 26 9 79 13 150 11 104 -2
114 -4 188 -39z"/>
<path d="M8816 7251 c-10 -16 -186 -500 -186 -511 0 -7 14 -10 33 -8 30 3 33
7 57 76 l25 73 114 -3 114 -3 26 -70 c25 -65 29 -70 59 -73 23 -2 32 1 32 11
0 16 -163 465 -180 498 -8 14 -21 19 -50 19 -21 0 -41 -4 -44 -9z m89 -183
c22 -61 42 -115 43 -120 2 -4 -38 -8 -88 -8 -69 0 -91 3 -88 13 3 6 22 60 44
120 21 59 41 107 44 107 3 0 24 -50 45 -112z"/>
<path d="M9190 6931 c-16 -4 -26 -15 -28 -30 -3 -20 -1 -23 15 -16 44 18 103
18 123 0 11 -10 20 -24 20 -32 0 -24 -39 -53 -71 -53 -45 0 -36 -33 11 -40 52
-9 60 -17 60 -60 0 -64 -58 -88 -135 -56 -34 15 -35 14 -35 -9 0 -30 9 -35 73
-42 86 -9 147 35 147 105 0 34 -36 82 -62 82 -7 1 -1 7 14 16 51 27 50 102 -2
129 -30 15 -86 18 -130 6z"/>
<path d="M6393 7370 c-44 -20 -49 -26 -34 -48 6 -11 16 -10 49 4 44 17 45 18
34 46 -7 16 -10 16 -49 -2z"/>
<path d="M6780 7371 c0 -5 -2 -16 -5 -23 -7 -17 67 -54 84 -44 17 11 13 34 -8
46 -38 20 -71 29 -71 21z"/>
<path d="M6257 7289 c-36 -30 -37 -32 -21 -50 16 -18 18 -17 54 13 32 27 36
35 26 50 -14 23 -15 23 -59 -13z"/>
<path d="M6901 7281 c-9 -16 -5 -23 25 -46 29 -22 38 -24 50 -14 13 11 11 17
-18 46 -37 38 -44 40 -57 14z"/>
<path d="M6157 7177 c-20 -31 -24 -43 -14 -49 22 -14 35 -8 56 26 26 41 26 43
3 55 -15 8 -23 3 -45 -32z"/>
<path d="M5320 7060 l0 -130 -135 0 -135 0 0 -65 0 -65 135 0 135 0 0 -135 0
-135 70 0 70 0 0 135 0 135 130 0 130 0 0 65 0 65 -130 0 -130 0 0 130 0 130
-70 0 -70 0 0 -130z"/>
<path d="M7001 7176 c-9 -11 -7 -21 10 -50 23 -39 26 -41 49 -26 13 8 12 14
-5 47 -23 42 -37 50 -54 29z"/>
<path d="M6345 7131 c-25 -5 -31 -11 -33 -40 -3 -31 -2 -33 20 -27 13 4 55 10
94 13 64 5 74 3 93 -16 11 -11 21 -29 21 -40 0 -15 -11 -19 -74 -24 -119 -10
-168 -38 -186 -108 -32 -117 93 -197 213 -136 44 23 47 23 47 6 0 -15 8 -19
35 -19 l35 0 0 145 c0 177 -9 206 -72 235 -43 20 -129 25 -193 11z m195 -240
l0 -59 -43 -21 c-58 -28 -102 -27 -132 4 -51 50 -14 112 75 125 106 15 100 18
100 -49z"/>
<path d="M6095 7056 c-21 -50 -19 -66 9 -66 17 0 26 7 30 24 3 13 9 31 12 39
3 10 -3 20 -16 27 -18 10 -22 7 -35 -24z"/>
<path d="M7069 7053 c-14 -3 -15 -10 -6 -48 9 -38 14 -45 34 -45 16 0 23 6 23
19 0 24 -20 81 -28 80 -4 -1 -14 -3 -23 -6z"/>
<path d="M7470 6995 l0 -65 320 0 320 0 0 65 0 65 -320 0 -320 0 0 -65z"/>
<path d="M6060 6890 c0 -46 2 -50 24 -50 22 0 24 5 28 50 3 49 2 50 -24 50
-27 0 -28 -2 -28 -50z"/>
<path d="M6810 6910 c-6 -12 -24 -23 -41 -27 -42 -8 -38 -33 6 -33 l36 0 -3
-112 -3 -113 -32 -3 c-21 -2 -33 -9 -33 -18 0 -11 18 -14 90 -14 72 0 90 3 90
14 0 9 -12 16 -32 18 l-33 3 -3 153 c-2 124 -5 152 -17 152 -8 0 -19 -9 -25
-20z"/>
<path d="M7080 6840 c0 -68 1 -70 25 -70 24 0 25 2 25 70 0 68 -1 70 -25 70
-24 0 -25 -2 -25 -70z"/>
<path d="M6081 6791 c-18 -11 -6 -80 15 -88 25 -9 35 11 28 55 -7 42 -17 50
-43 33z"/>
<path d="M7470 6725 l0 -65 320 0 320 0 0 65 0 65 -320 0 -320 0 0 -65z"/>
<path d="M7049 6686 c-16 -43 -15 -44 7 -55 21 -9 24 -6 38 36 9 26 15 47 13
48 -1 2 -11 5 -22 9 -17 5 -23 -2 -36 -38z"/>
<path d="M6122 6651 c-11 -7 -10 -16 7 -50 23 -44 32 -49 50 -27 9 11 8 22 -6
50 -17 37 -28 42 -51 27z"/>
<path d="M6982 6564 c-18 -28 -21 -39 -11 -50 17 -21 23 -18 53 24 24 34 25
38 9 50 -24 17 -25 16 -51 -24z"/>
<path d="M6206 6531 c-16 -17 -15 -21 9 -50 30 -34 50 -39 59 -15 4 10 -5 29
-23 49 -28 32 -30 33 -45 16z"/>
<path d="M6883 6462 c-26 -22 -30 -30 -22 -45 11 -19 22 -15 69 22 20 16 22
21 11 35 -18 21 -20 20 -58 -12z"/>
<path d="M6312 6438 c-7 -7 -12 -15 -12 -19 0 -14 70 -51 85 -45 25 9 17 33
-21 55 -41 25 -37 24 -52 9z"/>
<path d="M6765 6401 c-22 -8 -41 -15 -42 -16 -1 0 0 -11 4 -23 4 -18 10 -21
32 -16 14 4 36 12 48 18 18 9 20 14 10 32 -11 19 -14 20 -52 5z"/>
<path d="M6447 6383 c-4 -3 -7 -14 -7 -24 0 -21 80 -43 92 -25 15 21 8 36 -19
42 -16 3 -35 8 -44 10 -8 2 -18 1 -22 -3z"/>
<path d="M4795 6366 c57 -39 447 -277 450 -274 2 2 -15 34 -36 72 -22 38 -38
70 -37 71 2 1 660 -186 1463 -415 803 -229 1463 -414 1467 -411 4 4 9 17 10
30 3 23 -28 32 -1448 436 -798 227 -1458 415 -1465 417 -8 3 20 23 61 46 l75
42 -280 0 c-238 0 -277 -2 -260 -14z"/>
<path d="M6587 6363 c-4 -3 -7 -15 -7 -25 0 -17 7 -19 48 -16 40 3 47 6 50 26
3 20 -1 22 -41 22 -24 0 -47 -3 -50 -7z"/>
<path d="M8930 5414 c-148 -29 -276 -117 -362 -248 -56 -86 -79 -171 -80 -288
0 -162 49 -284 159 -393 105 -105 227 -155 373 -155 239 0 448 159 515 393 21
73 21 222 0 301 -43 161 -183 311 -343 367 -56 20 -209 33 -262 23z m215 -59
c84 -22 154 -66 223 -139 72 -77 107 -146 129 -251 48 -238 -94 -486 -324
-566 -80 -27 -227 -26 -311 2 -113 38 -219 133 -277 248 -73 146 -67 343 17
480 36 58 128 149 183 181 102 58 242 75 360 45z"/>
<path d="M8754 5103 c-31 -87 -74 -203 -95 -258 -20 -55 -35 -103 -32 -107 7
-13 50 -9 60 5 5 6 20 40 33 75 l22 62 114 0 c108 0 113 -1 120 -22 3 -13 15
-47 26 -75 18 -50 21 -53 54 -53 19 0 34 3 34 8 0 4 -42 122 -94 262 l-93 255
-46 3 -45 3 -58 -158z m146 -36 c24 -64 41 -120 38 -123 -3 -2 -43 -4 -89 -2
l-84 3 44 123 c24 67 45 121 46 120 1 -2 22 -56 45 -121z"/>
<path d="M9180 4931 c-18 -5 -26 -15 -28 -35 l-3 -27 30 15 c41 22 94 20 114
-2 36 -40 12 -89 -87 -178 -44 -40 -66 -66 -66 -81 0 -23 2 -23 115 -23 108 0
115 1 115 20 0 19 -7 20 -91 20 l-91 0 61 51 c91 77 119 132 99 190 -17 50
-90 72 -168 50z"/>
<path d="M4010 5387 c-88 -30 -160 -77 -224 -148 -199 -221 -191 -553 19 -763
210 -210 535 -208 745 4 108 109 160 234 160 389 0 240 -161 458 -389 525 -83
24 -230 21 -311 -7z m360 -64 c79 -37 142 -87 197 -161 62 -83 85 -149 90
-268 8 -160 -33 -272 -141 -380 -124 -124 -295 -172 -461 -129 -85 23 -151 62
-220 130 -150 150 -187 376 -95 573 53 114 194 233 313 263 18 4 82 7 142 5
98 -2 117 -6 175 -33z"/>
<path d="M3975 5248 c-82 -219 -185 -504 -185 -511 0 -4 15 -7 32 -5 30 3 35
9 55 58 12 30 24 63 26 73 5 15 19 17 119 17 l113 0 26 -72 c25 -71 27 -73 60
-73 25 0 33 4 31 15 -2 11 -135 379 -179 498 -3 7 -23 12 -49 12 -27 0 -47 -5
-49 -12z m129 -286 c7 -21 5 -22 -83 -22 l-90 0 40 113 c22 61 42 119 45 127
5 12 54 -110 88 -218z"/>
<path d="M4407 4911 c-3 -13 -17 -22 -41 -26 -48 -9 -49 -35 -1 -35 l35 0 0
-115 0 -115 -35 0 c-24 0 -35 -5 -35 -15 0 -12 17 -15 95 -15 78 0 95 3 95 15
0 10 -11 15 -35 15 l-35 0 0 155 c0 145 -1 155 -19 155 -10 0 -21 -9 -24 -19z"/>
<path d="M6497 5393 c-4 -3 -7 -15 -7 -25 0 -17 7 -19 48 -16 40 3 47 6 50 26
3 20 -1 22 -41 22 -24 0 -47 -3 -50 -7z"/>
<path d="M6637 5381 c-6 -24 -2 -26 54 -35 32 -6 37 -4 42 16 8 28 9 27 -45
34 -40 6 -46 4 -51 -15z"/>
<path d="M6388 5359 c-40 -20 -43 -26 -30 -46 12 -19 95 15 87 35 -3 7 -5 18
-5 23 0 13 -10 11 -52 -12z"/>
<path d="M6780 5361 c0 -5 -2 -16 -5 -23 -7 -17 67 -54 84 -44 22 14 10 36
-29 56 -44 23 -50 24 -50 11z"/>
<path d="M6260 5281 c-33 -28 -34 -31 -18 -46 15 -16 18 -16 51 11 30 23 33
30 24 46 -15 23 -17 23 -57 -11z"/>
<path d="M6901 5271 c-9 -16 -5 -23 25 -46 29 -22 38 -24 50 -14 13 11 11 17
-18 46 -37 38 -44 40 -57 14z"/>
<path d="M6161 5174 c-24 -35 -23 -64 3 -64 12 0 56 57 56 73 0 4 -8 11 -18
16 -14 8 -22 3 -41 -25z"/>
<path d="M5320 5060 l0 -130 -135 0 -135 0 0 -65 0 -65 135 0 135 0 0 -135 0
-135 70 0 70 0 0 135 0 135 130 0 130 0 0 65 0 65 -130 0 -130 0 0 130 0 130
-70 0 -70 0 0 -130z"/>
<path d="M7001 5166 c-9 -11 -7 -22 10 -50 23 -40 28 -42 51 -23 15 11 14 16
-8 50 -26 40 -35 44 -53 23z"/>
<path d="M6340 5122 c-31 -6 -35 -11 -38 -41 -3 -31 -2 -33 20 -27 13 4 53 10
90 13 78 7 118 -11 118 -51 0 -21 -5 -24 -68 -29 -131 -11 -192 -53 -192 -134
0 -113 103 -165 213 -109 44 22 47 22 47 5 0 -15 8 -19 35 -19 l35 0 0 153 c0
163 -6 186 -52 220 -29 22 -141 32 -208 19z m190 -242 l0 -61 -42 -19 c-86
-39 -148 -18 -148 50 0 48 24 67 97 80 96 16 93 18 93 -50z"/>
<path d="M6094 5045 c-20 -49 -18 -65 10 -65 16 0 25 7 29 23 3 12 8 32 12 43
5 16 2 23 -15 27 -17 4 -24 -1 -36 -28z"/>
<path d="M7470 4995 l0 -65 320 0 320 0 0 65 0 65 -320 0 -320 0 0 -65z"/>
<path d="M7069 5043 c-13 -3 -14 -11 -5 -48 9 -37 15 -45 33 -45 16 0 23 6 23
19 0 24 -20 81 -28 80 -4 -1 -14 -3 -23 -6z"/>
<path d="M6062 4883 c3 -40 6 -48 24 -51 20 -3 22 2 25 47 4 50 3 51 -24 51
-27 0 -28 -1 -25 -47z"/>
<path d="M6743 4919 c-24 -7 -33 -15 -33 -30 0 -17 4 -20 23 -15 49 15 95 18
116 7 45 -24 11 -91 -46 -91 -16 0 -23 -6 -23 -20 0 -16 7 -20 34 -20 42 0 66
-22 66 -61 0 -62 -68 -87 -145 -55 -34 15 -35 14 -35 -9 0 -19 7 -26 38 -34
52 -15 98 -14 132 4 65 34 77 130 21 163 l-28 16 28 24 c47 39 36 101 -22 121
-38 13 -81 13 -126 0z"/>
<path d="M7080 4830 c0 -68 1 -70 25 -70 24 0 25 2 25 70 0 68 -1 70 -25 70
-24 0 -25 -2 -25 -70z"/>
<path d="M6075 4779 c-11 -17 5 -80 21 -86 25 -9 35 11 28 55 -5 31 -11 42
-25 42 -10 0 -21 -5 -24 -11z"/>
<path d="M7470 4725 l0 -65 320 0 320 0 0 65 0 65 -320 0 -320 0 0 -65z"/>
<path d="M7049 4675 c-16 -43 -16 -45 3 -51 24 -7 32 0 47 45 12 38 13 36 -14
45 -17 5 -23 -2 -36 -39z"/>
<path d="M6122 4641 c-11 -7 -10 -16 7 -50 23 -44 32 -49 50 -27 9 11 8 22 -6
50 -17 37 -28 42 -51 27z"/>
<path d="M6982 4554 c-18 -28 -21 -39 -11 -50 17 -21 23 -18 53 24 24 34 25
38 9 50 -24 17 -25 16 -51 -24z"/>
<path d="M6206 4524 c-21 -15 -10 -43 26 -68 28 -20 34 -20 42 0 4 10 -5 29
-22 49 -25 28 -31 30 -46 19z"/>
<path d="M6883 4454 c-28 -21 -31 -29 -23 -45 12 -21 22 -18 70 20 20 16 22
21 11 35 -17 21 -20 20 -58 -10z"/>
<path d="M6312 4428 c-7 -7 -12 -15 -12 -19 0 -14 70 -51 85 -45 25 9 17 33
-21 55 -41 25 -37 24 -52 9z"/>
<path d="M6763 4391 c-36 -13 -42 -19 -37 -36 4 -11 7 -21 9 -22 4 -6 95 29
95 36 0 4 -6 14 -12 22 -12 14 -18 14 -55 0z"/>
<path d="M6447 4373 c-4 -3 -7 -14 -7 -24 0 -12 11 -19 40 -24 21 -4 44 -4 50
0 21 13 9 34 -27 44 -45 13 -48 13 -56 4z"/>
<path d="M4776 4362 c7 -7 420 -263 463 -287 8 -4 -5 27 -29 70 -24 44 -37 76
-29 73 42 -16 2920 -830 2924 -827 2 2 6 15 10 29 l6 25 -1461 414 c-803 228
-1460 418 -1460 423 0 4 21 19 48 32 110 57 115 55 -197 56 -157 0 -281 -4
-275 -8z"/>
<path d="M6580 4334 c0 -24 2 -25 48 -22 40 3 47 6 50 26 3 20 0 22 -47 22
-48 0 -51 -2 -51 -26z"/>
<path d="M8850 3397 c-217 -75 -361 -278 -361 -512 -1 -167 43 -276 157 -392
335 -342 904 -101 905 383 1 158 -49 282 -156 390 -112 112 -216 154 -379 154
-78 0 -116 -6 -166 -23z m256 -28 c170 -31 323 -166 377 -333 28 -88 27 -230
-2 -315 -118 -341 -524 -452 -781 -214 -135 125 -193 299 -156 473 22 105 59
173 135 250 119 121 266 169 427 139z"/>
<path d="M8764 3113 c-31 -87 -74 -203 -95 -258 -20 -55 -35 -103 -32 -107 7
-13 50 -9 60 5 5 6 20 40 33 75 l22 62 114 0 c108 0 113 -1 120 -22 3 -13 15
-47 26 -75 18 -50 21 -53 54 -53 19 0 34 3 34 8 0 4 -42 122 -94 262 l-93 255
-46 3 -45 3 -58 -158z m146 -36 c24 -64 41 -120 38 -123 -3 -2 -43 -4 -89 -2
l-84 3 44 123 c24 67 45 121 46 120 1 -2 22 -56 45 -121z"/>
<path d="M9250 2920 c-6 -12 -24 -23 -41 -27 -42 -8 -38 -33 6 -33 l36 0 -3
-112 -3 -113 -32 -3 c-21 -2 -33 -9 -33 -18 0 -11 18 -14 90 -14 72 0 90 3 90
14 0 9 -12 16 -32 18 l-33 3 -3 153 c-2 124 -5 152 -17 152 -8 0 -19 -9 -25
-20z"/>
<path d="M4083 3403 c-7 -2 -13 -14 -13 -24 0 -18 6 -20 48 -17 40 3 47 6 50
26 3 20 -1 22 -35 21 -21 0 -44 -3 -50 -6z"/>
<path d="M4216 3394 c-9 -23 1 -31 50 -39 36 -5 42 -4 47 14 6 25 2 28 -50 37
-33 5 -41 3 -47 -12z"/>
<path d="M3968 3367 c-44 -20 -46 -23 -33 -41 14 -19 16 -19 55 -1 42 19 43
20 32 47 -7 16 -11 16 -54 -5z"/>
<path d="M6507 3383 c-4 -3 -7 -15 -7 -25 0 -14 8 -18 34 -18 47 0 66 9 66 31
0 16 -7 19 -43 19 -24 0 -47 -3 -50 -7z"/>
<path d="M6646 3373 c-9 -22 1 -29 50 -37 38 -5 42 -4 46 18 4 20 0 25 -25 30
-48 10 -64 7 -71 -11z"/>
<path d="M4356 3354 c-4 -9 -5 -18 -4 -19 49 -31 77 -42 87 -32 18 18 13 32
-18 50 -37 21 -57 22 -65 1z"/>
<path d="M6398 3353 c-38 -16 -45 -27 -30 -50 12 -19 95 15 87 35 -3 7 -5 18
-5 23 0 12 -7 10 -52 -8z"/>
<path d="M6790 3351 c0 -5 -2 -16 -5 -23 -4 -10 8 -21 35 -33 36 -16 43 -17
51 -4 14 23 11 27 -31 49 -44 23 -50 24 -50 11z"/>
<path d="M3836 3289 c-35 -30 -36 -32 -20 -50 16 -18 18 -18 50 9 36 30 41 44
21 60 -10 9 -22 4 -51 -19z"/>
<path d="M4481 3282 c-8 -15 -4 -25 23 -51 31 -30 33 -31 49 -13 16 17 15 20
-16 50 -38 37 -43 38 -56 14z"/>
<path d="M6270 3271 c-33 -28 -34 -31 -18 -46 15 -16 18 -16 51 11 30 23 33
30 24 46 -15 23 -17 23 -57 -11z"/>
<path d="M6912 3268 c-18 -18 -15 -23 23 -53 30 -22 39 -24 51 -14 13 11 11
17 -18 46 -36 37 -39 38 -56 21z"/>
<path d="M3737 3177 c-20 -31 -24 -43 -14 -49 22 -14 35 -8 56 26 26 41 26 43
3 55 -15 8 -23 3 -45 -32z"/>
<path d="M6165 3159 c-21 -33 -24 -43 -13 -50 23 -15 36 -10 58 26 18 29 20
38 10 50 -18 22 -25 19 -55 -26z"/>
<path d="M4581 3176 c-9 -11 -7 -21 10 -50 23 -39 26 -41 49 -26 13 8 12 14
-5 47 -23 42 -37 50 -54 29z"/>
<path d="M5320 3060 l0 -130 -135 0 -135 0 0 -65 0 -65 135 0 135 0 0 -135 0
-135 70 0 70 0 0 135 0 135 130 0 130 0 0 65 0 65 -130 0 -130 0 0 130 0 130
-70 0 -70 0 0 -130z"/>
<path d="M7011 3156 c-9 -11 -7 -22 10 -50 23 -40 28 -42 51 -23 15 11 14 16
-8 50 -26 40 -35 44 -53 23z"/>
<path d="M3925 3131 c-25 -5 -31 -11 -33 -40 -3 -31 -2 -33 20 -27 13 4 55 10
94 13 64 5 74 3 93 -16 11 -11 21 -29 21 -40 0 -15 -11 -19 -74 -24 -119 -10
-168 -38 -186 -108 -32 -117 93 -197 213 -136 44 23 47 23 47 6 0 -15 8 -19
35 -19 l35 0 0 145 c0 177 -9 206 -72 235 -43 20 -129 25 -193 11z m195 -240
l0 -59 -43 -21 c-58 -28 -102 -27 -132 4 -51 50 -14 112 75 125 106 15 100 18
100 -49z"/>
<path d="M6345 3111 c-25 -5 -31 -11 -33 -40 -3 -31 -2 -33 20 -27 13 4 55 10
94 13 64 5 74 3 93 -16 11 -11 21 -29 21 -40 0 -15 -11 -19 -74 -24 -119 -10
-168 -38 -186 -108 -32 -117 93 -197 213 -136 44 23 47 23 47 6 0 -15 8 -19
35 -19 l35 0 0 145 c0 177 -9 206 -72 235 -43 20 -129 25 -193 11z m195 -240
l0 -59 -43 -21 c-58 -28 -102 -27 -132 4 -51 50 -14 112 75 125 106 15 100 18
100 -49z"/>
<path d="M3675 3056 c-24 -56 -17 -75 23 -64 5 2 31 61 32 75 0 1 -9 7 -20 13
-18 10 -22 7 -35 -24z"/>
<path d="M6102 3031 c-17 -53 -15 -61 11 -61 17 0 25 9 35 41 14 46 15 44 -14
53 -17 5 -23 0 -32 -33z"/>
<path d="M4647 3053 c-12 -3 -16 -10 -12 -21 4 -10 9 -29 12 -44 4 -21 11 -28
29 -28 13 0 24 6 24 13 0 23 -21 87 -28 86 -4 -1 -15 -3 -25 -6z"/>
<path d="M7470 2995 l0 -65 320 0 320 0 0 65 0 65 -320 0 -320 0 0 -65z"/>
<path d="M7074 3034 c-8 -3 -8 -17 -1 -49 9 -38 14 -45 34 -45 26 0 29 18 12
69 -10 30 -20 35 -45 25z"/>
<path d="M3640 2890 c0 -47 2 -50 25 -50 23 0 25 3 25 50 0 47 -2 50 -25 50
-23 0 -25 -3 -25 -50z"/>
<path d="M4387 2911 c-3 -13 -17 -22 -41 -26 -48 -9 -49 -35 -1 -35 l35 0 0
-115 0 -115 -35 0 c-24 0 -35 -5 -35 -15 0 -12 17 -15 95 -15 78 0 95 3 95 15
0 10 -11 15 -35 15 l-35 0 0 155 c0 145 -1 155 -19 155 -10 0 -21 -9 -24 -19z"/>
<path d="M6072 2873 c3 -40 6 -48 23 -48 17 0 20 8 23 48 3 45 2 47 -23 47
-25 0 -26 -2 -23 -47z"/>
<path d="M6750 2911 c-18 -5 -26 -15 -28 -35 l-3 -27 30 15 c41 22 94 20 114
-2 36 -40 12 -89 -87 -178 -44 -40 -66 -66 -66 -81 0 -23 2 -23 115 -23 108 0
115 1 115 20 0 19 -7 20 -91 20 l-91 0 61 51 c91 77 119 132 99 190 -17 50
-90 72 -168 50z"/>
<path d="M4660 2839 c0 -67 1 -70 23 -67 20 3 22 9 25 71 3 66 3 67 -23 67
-24 0 -25 -2 -25 -71z"/>
<path d="M7090 2819 c0 -67 1 -70 23 -67 20 3 22 9 25 71 3 66 3 67 -23 67
-24 0 -25 -2 -25 -71z"/>
<path d="M3661 2791 c-18 -11 -6 -80 15 -88 25 -9 35 10 26 52 -8 41 -19 50
-41 36z"/>
<path d="M7470 2725 l0 -65 320 0 320 0 0 65 0 65 -320 0 -320 0 0 -65z"/>
<path d="M6085 2769 c-11 -17 5 -80 21 -86 25 -9 35 11 28 55 -5 31 -11 42
-25 42 -10 0 -21 -5 -24 -11z"/>
<path d="M4629 2686 c-16 -43 -15 -44 7 -55 21 -9 24 -6 38 36 9 26 15 47 13
48 -1 2 -11 5 -22 9 -17 5 -23 -2 -36 -38z"/>
<path d="M7058 2665 c-16 -43 -16 -44 4 -51 24 -7 32 0 47 45 9 27 8 36 -1 43
-24 15 -34 8 -50 -37z"/>
<path d="M3702 2651 c-11 -7 -10 -16 7 -50 23 -44 32 -49 50 -27 9 11 8 22 -6
50 -17 37 -28 42 -51 27z"/>
<path d="M6125 2630 c-3 -5 4 -28 15 -50 18 -35 23 -39 40 -30 24 13 24 11 3
55 -16 34 -45 46 -58 25z"/>
<path d="M4562 2564 c-18 -28 -21 -39 -11 -50 17 -21 23 -18 53 24 24 34 25
38 9 50 -24 17 -25 16 -51 -24z"/>
<path d="M6991 2545 c-19 -29 -21 -38 -11 -50 18 -22 24 -19 54 23 24 34 25
38 9 50 -23 17 -25 16 -52 -23z"/>
<path d="M3780 2525 c-11 -13 -8 -21 15 -45 32 -34 50 -38 59 -13 4 10 -3 26
-21 45 -31 32 -36 34 -53 13z"/>
<path d="M6216 2514 c-17 -12 -17 -14 0 -39 24 -36 49 -48 64 -30 10 12 7 21
-17 48 -26 29 -32 32 -47 21z"/>
<path d="M4463 2462 c-26 -22 -30 -30 -22 -45 11 -19 22 -15 69 22 20 16 22
21 11 35 -18 21 -20 20 -58 -12z"/>
<path d="M6905 2454 c-11 -8 -26 -19 -34 -23 -10 -6 -11 -13 -2 -30 13 -23 22
-21 71 18 20 16 22 21 11 35 -16 20 -21 20 -46 0z"/>
<path d="M3892 2438 c-7 -7 -12 -15 -12 -19 0 -14 70 -51 85 -45 25 9 17 33
-21 55 -41 25 -37 24 -52 9z"/>
<path d="M6320 2415 c-15 -19 -8 -29 36 -50 30 -14 38 -15 45 -4 14 22 11 26
-25 48 -40 25 -40 25 -56 6z"/>
<path d="M4345 2401 c-22 -8 -41 -15 -42 -16 -1 0 0 -11 4 -23 6 -26 16 -27
65 -4 33 15 36 19 25 38 -11 19 -14 20 -52 5z"/>
<path d="M6773 2381 c-36 -13 -42 -19 -37 -36 4 -11 7 -21 9 -22 1 -2 22 4 47
13 37 12 45 19 41 35 -7 27 -12 27 -60 10z"/>
<path d="M4027 2383 c-4 -3 -7 -14 -7 -24 0 -21 80 -43 92 -25 15 21 8 36 -19
42 -16 3 -35 8 -44 10 -8 2 -18 1 -22 -3z"/>
<path d="M4167 2363 c-4 -3 -7 -15 -7 -25 0 -17 7 -19 48 -16 40 3 47 6 50 26
3 20 -1 22 -41 22 -24 0 -47 -3 -50 -7z"/>
<path d="M6457 2363 c-4 -3 -7 -14 -7 -24 0 -12 11 -19 40 -24 21 -4 44 -4 50
0 21 13 9 34 -27 44 -45 13 -48 13 -56 4z"/>
<path d="M6590 2325 c0 -22 4 -25 34 -25 47 0 66 9 66 31 0 16 -8 19 -50 19
-47 0 -50 -2 -50 -25z"/>
<path d="M10258 10369 c-110 -16 -166 -96 -124 -178 8 -15 22 -33 30 -40 13
-11 11 -17 -21 -47 -34 -32 -35 -36 -31 -86 4 -42 11 -57 36 -79 89 -79 287
-59 339 34 7 12 12 42 13 66 0 37 -5 48 -37 80 l-38 36 33 32 c24 23 32 40 32
66 0 36 -27 79 -62 98 -31 17 -117 26 -170 18z m90 -101 c14 -14 15 -47 3 -67
-8 -12 -15 -12 -47 1 -48 19 -63 40 -45 62 16 19 72 21 89 4z m-13 -197 c39
-22 44 -55 11 -76 -21 -14 -31 -15 -61 -5 -40 13 -54 47 -36 86 12 28 30 27
86 -5z"/>
<path d="M2824 10356 c-82 -36 -99 -134 -32 -187 19 -15 19 -16 -16 -51 -30
-30 -36 -43 -36 -77 0 -60 24 -99 73 -122 111 -50 237 8 239 109 0 49 -15 78
-54 102 l-30 18 24 16 c47 31 63 105 32 151 -31 48 -135 69 -200 41z m134 -52
c42 -29 20 -134 -28 -134 -50 0 -120 50 -120 87 0 55 93 85 148 47z m-41 -189
c55 -23 73 -43 73 -83 0 -54 -32 -82 -92 -82 -39 0 -54 5 -73 25 -32 31 -34
91 -4 129 24 30 45 32 96 11z"/>
<path d="M354 9721 c-105 -48 -134 -184 -64 -307 l30 -54 -135 0 -135 0 0 -90
0 -90 390 0 390 0 0 90 0 90 -200 0 -199 0 -16 30 c-21 41 -19 112 4 141 19
24 23 24 215 27 l196 4 0 89 0 89 -217 0 c-191 0 -223 -3 -259 -19z"/>
<path d="M1900 9370 l0 -30 233 2 232 3 3 28 3 27 -235 0 -236 0 0 -30z"/>
<path d="M2090 9242 c-48 -23 -72 -73 -67 -138 7 -95 69 -146 178 -146 66 0
109 20 142 64 25 34 34 125 18 186 -11 37 -15 42 -41 42 -34 0 -35 -4 -15 -40
20 -35 19 -120 -1 -149 -15 -21 -70 -51 -94 -51 -6 0 -10 46 -10 125 l0 125
-37 0 c-21 0 -54 -8 -73 -18z m70 -137 c0 -52 -2 -95 -5 -95 -17 0 -66 33 -75
49 -5 11 -10 38 -10 60 0 48 27 81 65 81 25 0 25 0 25 -95z"/>
<path d="M270 8985 l0 -84 -82 -3 -83 -3 -3 -87 -3 -87 83 -3 83 -3 3 -37 3
-38 60 0 59 0 0 40 0 40 165 0 c193 0 229 11 260 77 21 44 31 168 18 228 l-9
40 -63 3 -63 3 8 -33 c13 -52 9 -96 -11 -118 -17 -18 -30 -20 -162 -20 l-143
0 0 85 0 85 -60 0 -60 0 0 -85z"/>
<path d="M10150 8915 l0 -105 105 0 105 0 0 105 0 105 -105 0 -105 0 0 -105z"/>
<path d="M2830 8920 l0 -60 70 0 70 0 0 60 0 60 -70 0 -70 0 0 -60z"/>
<path d="M2030 8872 c0 -26 7 -30 130 -77 71 -27 126 -52 122 -56 -4 -3 -62
-28 -129 -54 -120 -45 -123 -47 -123 -77 0 -20 4 -28 13 -25 6 3 83 33 170 67
149 59 157 63 157 89 0 26 -8 31 -165 94 -90 37 -167 67 -170 67 -3 0 -5 -12
-5 -28z"/>
<path d="M10150 8540 l0 -100 105 0 105 0 0 100 0 100 -105 0 -105 0 0 -100z"/>
<path d="M2830 8540 l0 -60 70 0 70 0 0 60 0 60 -70 0 -70 0 0 -60z"/>
<path d="M350 8518 c-70 -36 -94 -93 -99 -234 -2 -62 2 -144 9 -183 l12 -71
69 0 c38 0 69 3 69 8 0 4 -9 36 -20 70 -40 126 -15 252 49 252 16 0 19 -12 24
-94 13 -194 76 -286 196 -286 76 0 130 35 162 105 32 69 19 175 -30 244 l-21
30 27 3 c28 3 28 3 31 91 l3 87 -218 0 c-207 0 -221 -1 -263 -22z m346 -184
c10 -14 19 -46 22 -72 7 -80 -49 -126 -105 -87 -24 17 -38 56 -47 133 l-7 52
60 0 c54 0 62 -3 77 -26z"/>
<path d="M2093 8511 c-103 -47 -99 -203 7 -265 74 -44 193 -21 242 45 26 34
34 131 16 184 -11 34 -18 40 -45 43 l-32 3 21 -42 c41 -86 8 -180 -69 -195
l-33 -6 0 126 0 126 -32 0 c-18 0 -52 -9 -75 -19z m67 -136 c0 -106 -6 -114
-58 -70 -36 30 -47 66 -32 111 13 37 33 53 68 54 21 0 22 -3 22 -95z"/>
<path d="M10150 8170 l0 -100 105 0 105 0 0 100 0 100 -105 0 -105 0 0 -100z"/>
<path d="M2830 8170 l0 -60 70 0 70 0 0 60 0 60 -70 0 -70 0 0 -60z"/>
<path d="M1890 8105 l0 -25 235 0 235 0 0 25 0 25 -235 0 -235 0 0 -25z"/>
<path d="M440 7879 c-158 -31 -230 -185 -154 -329 16 -30 30 -58 32 -62 2 -5
-8 -8 -22 -8 l-26 0 0 -90 0 -90 385 0 385 0 0 90 0 90 -119 0 -119 0 20 53
c40 103 7 229 -77 293 -71 54 -193 75 -305 53z m193 -193 c18 -7 41 -23 51
-35 20 -23 33 -103 22 -145 l-6 -26 -140 0 c-162 0 -164 1 -164 101 -1 60 17
92 59 110 32 13 143 10 178 -5z"/>
<path d="M2068 7734 c-15 -8 -32 -23 -38 -34 -17 -31 -12 -102 10 -137 16 -27
17 -33 5 -33 -10 0 -15 -10 -15 -30 l0 -30 165 0 165 0 0 30 0 30 -125 0
c-120 0 -125 1 -140 24 -27 40 -30 88 -7 116 18 23 27 24 146 28 125 4 126 5
126 28 l0 24 -132 0 c-98 -1 -140 -5 -160 -16z"/>
<path d="M2105 7366 c-69 -31 -104 -106 -84 -180 21 -78 104 -125 198 -112 88
12 141 63 148 143 9 97 -61 163 -172 162 -33 0 -73 -6 -90 -13z m186 -75 c33
-33 39 -82 14 -118 -21 -30 -78 -47 -138 -40 -84 10 -126 72 -92 137 20 39 44
49 123 49 57 1 66 -2 93 -28z"/>
<path d="M10225 7103 c-11 -2 -37 -9 -57 -14 l-38 -10 0 -54 c0 -61 5 -64 63
-40 49 20 131 20 148 -1 23 -27 -1 -48 -62 -54 l-54 -5 -3 -47 -3 -48 46 0
c61 0 85 -14 85 -49 0 -49 -74 -66 -155 -35 -80 31 -75 33 -75 -34 l0 -60 44
-11 c77 -19 193 -14 244 10 47 23 81 78 82 129 0 33 -33 87 -60 95 -20 6 -20
7 4 26 29 23 46 74 39 113 -13 68 -140 114 -248 89z"/>
<path d="M2805 7086 c-35 -10 -40 -16 -43 -44 -3 -30 10 -43 22 -23 3 5 28 14
56 21 55 13 114 1 124 -26 20 -53 -8 -92 -73 -101 -35 -5 -41 -9 -41 -29 0
-21 5 -24 39 -24 55 0 91 -31 91 -79 0 -75 -61 -112 -150 -91 -28 7 -53 16
-56 21 -11 19 -24 8 -24 -21 0 -37 20 -48 98 -56 75 -8 122 7 162 52 54 62 37
159 -33 189 l-30 13 24 12 c57 29 77 100 43 149 -34 47 -123 63 -209 37z"/>
<path d="M1910 6954 c0 -33 2 -35 28 -32 22 2 28 8 30 36 3 30 1 32 -27 32
-29 0 -31 -3 -31 -36z"/>
<path d="M2020 6955 l0 -25 170 0 170 0 0 25 0 25 -170 0 -170 0 0 -25z"/>
<path d="M2027 6853 c-4 -3 -7 -30 -7 -60 l0 -53 -45 0 c-43 0 -45 -1 -45 -30
0 -29 2 -30 44 -30 35 0 45 -4 49 -20 7 -27 47 -27 47 -1 0 18 10 20 119 23
110 3 121 5 145 27 46 43 44 143 -3 149 -22 3 -23 1 -17 -33 5 -26 3 -44 -9
-61 -15 -23 -20 -24 -125 -24 l-110 0 0 60 c0 52 -3 60 -18 60 -10 0 -22 -3
-25 -7z"/>
<path d="M402 6807 c-96 -35 -144 -111 -150 -238 -6 -113 13 -180 69 -243 60
-68 107 -89 210 -94 72 -4 93 -1 137 18 65 28 125 93 149 163 25 73 25 249 -1
335 l-19 62 -73 0 c-41 0 -74 -3 -74 -7 0 -3 12 -31 27 -62 32 -64 43 -176 24
-234 -14 -41 -56 -83 -93 -92 l-28 -7 0 206 0 206 -72 -1 c-40 0 -88 -6 -106
-12z m68 -283 l0 -116 -27 7 c-16 3 -39 17 -53 31 -21 21 -25 34 -25 85 0 54
3 63 28 85 15 13 39 24 53 24 l24 0 0 -116z"/>
<path d="M2067 6559 c-31 -18 -47 -65 -47 -138 0 -88 5 -101 41 -101 26 0 28
2 19 26 -14 36 -12 127 3 146 6 9 21 19 33 22 20 6 22 2 28 -65 10 -113 45
-159 121 -159 90 1 132 93 85 185 -24 47 -24 45 -5 45 9 0 15 9 15 25 l0 25
-137 0 c-76 0 -146 -5 -156 -11z m233 -81 c24 -52 25 -77 4 -106 -11 -16 -25
-22 -50 -22 -30 0 -37 5 -49 33 -11 26 -20 98 -16 130 1 4 21 7 46 7 44 0 47
-2 65 -42z"/>
<path d="M2022 6204 c3 -24 15 -32 131 -77 70 -27 125 -52 122 -55 -3 -3 -61
-27 -128 -53 -119 -45 -122 -47 -125 -79 -3 -24 0 -31 10 -27 7 2 84 33 171
68 156 62 158 63 155 92 -3 27 -12 32 -161 93 -86 35 -162 64 -168 64 -6 0 -9
-12 -7 -26z"/>
<path d="M50 6010 l0 -90 390 0 390 0 0 90 0 90 -390 0 -390 0 0 -90z"/>
<path d="M2114 5849 c-42 -12 -91 -69 -100 -115 -16 -84 45 -167 131 -179 107
-17 194 26 215 106 37 135 -92 233 -246 188z m155 -63 c26 -14 51 -53 51 -81
0 -28 -25 -67 -51 -81 -37 -19 -122 -18 -160 1 -60 31 -63 120 -6 155 39 24
125 27 166 6z"/>
<path d="M278 5744 c-13 -12 -9 -172 3 -176 9 -3 7 -19 -6 -57 -12 -38 -16
-72 -13 -115 12 -150 115 -236 283 -236 186 0 278 80 279 240 1 59 -4 84 -22
117 -30 58 -34 54 41 38 45 -9 67 -57 67 -146 0 -42 -7 -98 -15 -125 -8 -27
-15 -52 -15 -56 0 -5 31 -8 69 -8 56 0 70 3 76 18 5 9 10 76 13 148 5 154 -10
222 -61 281 -64 73 -86 77 -407 81 -157 2 -288 0 -292 -4z m396 -214 c21 -53
20 -98 -3 -137 -39 -62 -183 -66 -244 -5 -34 34 -47 106 -28 155 l11 27 124 0
124 0 16 -40z"/>
<path d="M2110 5461 c-55 -12 -77 -28 -90 -66 -13 -38 -6 -88 16 -120 18 -25
18 -35 -1 -35 -10 0 -15 -10 -15 -30 l0 -30 170 0 170 0 0 30 0 30 -128 0
-129 0 -17 33 c-11 19 -16 47 -14 72 4 56 27 65 171 65 l117 0 0 25 c0 24 -3
25 -57 25 -32 0 -80 2 -108 4 -27 3 -66 1 -85 -3z"/>
<path d="M10225 5103 c-82 -18 -85 -21 -85 -79 0 -60 6 -64 60 -38 39 20 104
22 125 4 43 -36 -2 -114 -118 -206 -73 -57 -76 -61 -76 -101 l-1 -43 185 0
185 0 0 50 0 50 -88 0 -88 0 66 68 c71 72 96 129 84 191 -17 83 -131 131 -249
104z"/>
<path d="M2795 5087 c-35 -11 -40 -17 -43 -46 -3 -29 -1 -33 15 -26 74 32 105
38 142 26 28 -8 42 -19 51 -40 22 -54 -1 -95 -116 -207 -79 -78 -104 -108
-104 -128 l0 -26 155 0 155 0 0 25 0 25 -120 0 -119 0 99 98 c115 113 135 153
109 225 -8 22 -26 49 -41 60 -34 25 -125 32 -183 14z"/>
<path d="M2135 5076 c-5 -3 -27 -7 -48 -11 -69 -11 -99 -103 -57 -173 24 -39
24 -42 5 -42 -10 0 -15 -10 -15 -30 l0 -30 168 2 167 3 3 28 3 27 -131 0 -131
0 -21 47 c-15 35 -18 53 -12 72 15 41 48 51 177 51 l117 0 0 25 c0 24 -2 25
-64 25 -35 0 -83 2 -107 5 -24 2 -48 3 -54 1z"/>
<path d="M350 5008 c-25 -13 -55 -38 -67 -56 -44 -67 -39 -175 13 -254 30 -46
30 -48 -1 -48 -25 0 -25 -1 -25 -90 l0 -90 280 0 280 0 0 90 0 90 -200 0 -199
0 -16 30 c-21 41 -19 112 4 141 19 24 23 24 215 27 l196 4 0 89 0 89 -218 0
c-206 0 -220 -1 -262 -22z"/>
<path d="M1910 4610 c0 -83 1 -90 20 -90 16 0 20 7 20 30 l0 30 180 0 180 0 0
-30 c0 -25 4 -30 25 -30 l26 0 -3 88 c-3 82 -4 87 -25 90 -20 3 -23 -1 -23
-27 l0 -31 -180 0 -180 0 0 30 c0 23 -4 30 -20 30 -19 0 -20 -7 -20 -90z"/>
<path d="M50 4205 l0 -95 70 0 70 0 0 95 0 95 -70 0 -70 0 0 -95z"/>
<path d="M270 4210 l0 -90 280 0 280 0 0 90 0 90 -280 0 -280 0 0 -90z"/>
<path d="M505 3976 c-66 -30 -101 -94 -140 -262 -32 -134 -45 -156 -88 -152
-25 2 -36 11 -49 38 -35 69 -13 232 41 308 34 48 29 52 -64 52 -99 0 -95 4
-121 -128 -51 -265 49 -472 229 -472 62 0 126 36 164 92 23 35 39 80 58 165
29 125 42 155 76 173 16 9 26 8 44 -4 70 -46 53 -257 -31 -382 -15 -22 -22
-40 -16 -46 5 -5 47 -8 93 -6 l83 3 25 75 c21 64 25 94 25 205 0 111 -3 138
-22 185 -27 69 -73 125 -123 150 -45 23 -138 26 -184 6z"/>
<path d="M10253 3091 c-5 -21 -43 -41 -78 -41 -23 0 -25 -4 -25 -45 l0 -45 45
0 45 0 0 -110 0 -110 -45 0 -45 0 0 -45 0 -45 155 0 155 0 0 45 0 45 -45 0
-45 0 0 185 0 185 -56 0 c-46 0 -57 -3 -61 -19z"/>
<path d="M2868 3070 c-13 -23 -26 -31 -57 -36 -31 -5 -41 -11 -41 -25 0 -16 8
-19 50 -19 l50 0 0 -149 0 -150 -47 -3 c-41 -3 -48 -6 -51 -25 -3 -23 -2 -23
123 -23 125 0 126 0 123 23 -2 18 -10 23 -45 25 l-43 3 -2 202 c-3 193 -4 202
-23 205 -13 2 -26 -7 -37 -28z"/>
<path d="M10520 2554 c0 -2 37 -77 83 -167 l82 -162 3 53 c2 28 6 52 10 51 4
0 212 -225 462 -499 389 -426 457 -496 469 -485 18 17 38 -6 -487 565 l-409
445 51 5 51 5 -157 97 c-87 53 -158 95 -158 92z"/>
<path d="M3530 1836 c0 -20 36 -62 74 -85 19 -12 69 -31 112 -43 76 -21 105
-22 734 -29 532 -5 668 -10 727 -22 82 -18 148 -49 165 -77 20 -32 72 -26 106
11 36 40 131 67 287 79 66 5 359 10 650 10 564 1 618 4 740 51 62 23 125 75
125 103 0 12 -10 16 -40 16 -31 0 -43 -5 -55 -24 -18 -27 -66 -50 -155 -72
-55 -14 -161 -18 -720 -24 -628 -6 -658 -7 -733 -28 -43 -12 -96 -31 -118 -43
l-39 -22 -47 25 c-109 59 -129 60 -843 68 -550 6 -666 10 -723 24 -81 19 -142
49 -157 76 -13 24 -90 30 -90 6z"/>
<path d="M4910 1025 l0 -235 38 0 c20 1 60 -2 87 -5 101 -13 165 56 165 178 0
82 -20 131 -64 158 -40 24 -82 24 -131 -1 -22 -11 -41 -20 -42 -20 -2 0 -3 36
-3 80 0 79 0 80 -25 80 l-25 0 0 -235z m196 47 c41 -27 52 -153 17 -200 -27
-36 -73 -48 -123 -33 l-40 12 0 94 c0 89 1 95 26 114 27 21 97 29 120 13z"/>
<path d="M9600 1025 l0 -235 30 0 30 0 0 235 0 235 -30 0 -30 0 0 -235z"/>
<path d="M12640 1189 c0 -69 -1 -70 -22 -62 -44 15 -115 9 -145 -13 -49 -37
-67 -80 -67 -159 0 -107 38 -164 116 -172 30 -3 54 2 81 15 29 16 37 17 37 6
0 -9 11 -14 30 -14 l30 0 0 235 0 235 -30 0 -30 0 0 -71z m-8 -115 c4 -3 8
-50 8 -105 l0 -100 -43 -19 c-58 -26 -96 -16 -119 31 -35 67 -13 168 42 197
23 12 90 9 112 -4z"/>
<path d="M3617 1236 c-103 -38 -155 -156 -127 -290 28 -138 177 -203 323 -142
33 13 37 19 37 51 l0 36 -28 -19 c-39 -28 -108 -45 -154 -37 -162 28 -165 330
-3 361 46 8 116 -8 156 -37 l29 -20 0 36 c0 32 -4 38 -37 52 -53 22 -150 26
-196 9z"/>
<path d="M5290 1220 c0 -27 3 -30 30 -30 27 0 30 3 30 30 0 27 -3 30 -30 30
-27 0 -30 -3 -30 -30z"/>
<path d="M6460 1220 c0 -28 3 -30 35 -30 32 0 35 2 35 30 0 28 -3 30 -35 30
-32 0 -35 -2 -35 -30z"/>
<path d="M8100 1015 l0 -225 25 0 c25 0 25 1 25 90 l0 90 44 0 c44 0 46 -1
118 -89 68 -84 76 -90 111 -90 20 -1 37 1 37 3 0 3 -36 46 -79 97 l-80 93 42
37 c40 35 42 40 42 92 0 95 -49 127 -195 127 l-90 0 0 -225z m207 152 c26 -26
23 -91 -5 -119 -18 -19 -34 -23 -85 -23 l-62 0 -3 84 -3 83 71 -4 c49 -2 75
-9 87 -21z"/>
<path d="M10500 1015 l0 -225 30 0 30 0 0 90 0 90 43 -1 c41 0 44 -3 115 -90
67 -80 77 -89 108 -89 19 0 34 2 34 5 0 3 -36 48 -79 99 l-80 92 30 18 c55 32
76 114 44 175 -23 45 -69 61 -179 61 l-96 0 0 -225z m211 146 c28 -35 24 -77
-10 -112 -26 -25 -37 -29 -85 -29 l-56 0 0 86 0 86 66 -4 c55 -3 70 -8 85 -27z"/>
<path d="M6227 1223 c-4 -3 -7 -26 -7 -50 0 -32 -4 -43 -15 -43 -9 0 -15 -9
-15 -25 0 -16 6 -25 15 -25 12 0 15 -16 15 -87 1 -157 29 -213 110 -213 53 0
70 8 70 35 0 21 -3 22 -44 18 -65 -8 -76 14 -76 144 l0 103 60 0 c57 0 60 1
60 25 0 24 -3 25 -60 25 l-60 0 0 50 c0 46 -2 50 -23 50 -13 0 -27 -3 -30 -7z"/>
<path d="M9770 1180 c0 -43 -3 -50 -20 -50 -15 0 -20 -7 -20 -25 0 -18 5 -25
20 -25 19 0 20 -7 20 -121 0 -120 0 -121 29 -150 23 -22 39 -29 69 -29 55 0
72 8 72 34 0 20 -5 22 -47 22 -63 -1 -73 18 -73 147 l0 97 60 0 c57 0 60 1 60
25 0 24 -3 25 -60 25 l-60 0 0 50 c0 47 -2 50 -25 50 -23 0 -25 -3 -25 -50z"/>
<path d="M4005 1126 c-64 -29 -95 -85 -95 -170 0 -173 183 -239 284 -103 30
41 30 173 0 213 -48 64 -126 89 -189 60z m106 -46 c29 -16 49 -64 49 -120 0
-83 -35 -130 -95 -130 -14 0 -35 5 -46 10 -64 35 -66 202 -2 239 23 13 69 14
94 1z"/>
<path d="M4407 1120 c-44 -24 -47 -24 -47 -5 0 9 -9 15 -25 15 l-25 0 0 -170
0 -170 25 0 25 0 0 124 0 125 30 21 c17 12 47 22 66 23 58 2 66 -15 72 -162 5
-129 5 -131 28 -131 24 0 24 0 24 128 l0 128 31 18 c40 24 99 24 116 0 9 -12
13 -56 13 -146 l0 -128 31 0 31 0 -4 146 -3 146 -33 29 c-42 37 -90 38 -152 3
-27 -15 -46 -21 -48 -14 -6 16 -58 40 -89 40 -16 0 -45 -9 -66 -20z"/>
<path d="M5558 1119 c-32 -16 -38 -17 -38 -4 0 10 -10 15 -30 15 l-30 0 0
-170 0 -170 30 0 30 0 0 130 0 129 31 17 c35 18 96 21 111 6 17 -17 28 -85 28
-184 0 -98 0 -98 25 -98 l25 0 0 141 0 141 -34 34 c-40 40 -89 45 -148 13z"/>
<path d="M5888 1133 c-24 -4 -28 -9 -28 -35 0 -23 4 -29 16 -24 9 3 40 9 70
12 59 7 97 -9 107 -45 4 -18 -1 -21 -52 -26 -74 -8 -138 -32 -156 -58 -18 -25
-20 -86 -4 -120 25 -55 105 -72 174 -37 47 24 45 24 45 5 0 -9 9 -15 25 -15
l25 0 0 138 c0 154 -6 173 -66 198 -32 13 -96 16 -156 7z m172 -207 c0 -36 -5
-48 -26 -65 -64 -50 -144 -32 -144 33 0 18 7 39 15 46 19 16 68 28 118 29 l37
1 0 -44z"/>
<path d="M6700 1122 c-64 -32 -100 -115 -85 -202 26 -152 215 -192 283 -60 15
31 22 62 22 101 0 136 -110 217 -220 161z m127 -56 c26 -23 28 -29 28 -106 0
-77 -2 -83 -28 -106 -30 -26 -75 -31 -109 -13 -44 24 -62 127 -33 194 23 57
94 72 142 31z"/>
<path d="M7108 1119 c-32 -16 -38 -17 -38 -4 0 10 -10 15 -30 15 l-30 0 0
-170 0 -170 30 0 30 0 0 130 0 129 31 17 c35 18 96 21 111 6 17 -17 28 -85 28
-184 0 -98 0 -98 25 -98 l25 0 0 141 0 141 -34 34 c-40 40 -89 45 -148 13z"/>
<path d="M8606 1130 c-67 -21 -106 -85 -106 -176 0 -114 74 -182 188 -171 87
8 112 21 112 56 l0 30 -42 -19 c-97 -44 -184 -12 -200 73 l-5 27 123 0 124 0
0 41 c0 50 -24 103 -56 124 -30 19 -100 27 -138 15z m108 -62 c14 -13 27 -34
28 -48 3 -25 3 -25 -89 -28 -89 -3 -93 -2 -93 18 0 12 13 35 29 51 37 37 88
39 125 7z"/>
<path d="M8935 1126 c-45 -20 -67 -50 -67 -91 0 -52 30 -80 110 -100 74 -18
92 -29 92 -56 0 -47 -90 -64 -162 -29 -23 11 -43 20 -45 20 -2 0 -3 -14 -3
-30 0 -24 6 -33 28 -41 74 -29 154 -23 201 16 34 30 44 69 26 111 -13 33 -37
45 -123 64 -41 10 -56 18 -65 37 -25 55 70 83 146 44 l37 -19 0 33 c0 30 -3
33 -44 44 -58 14 -94 13 -131 -3z"/>
<path d="M11006 1130 c-67 -21 -106 -85 -106 -176 0 -114 74 -182 188 -171 87
8 112 21 112 56 l0 30 -42 -19 c-97 -44 -184 -12 -200 73 l-5 27 123 0 124 0
0 41 c0 50 -24 103 -56 124 -30 19 -100 27 -138 15z m108 -62 c14 -13 27 -34
28 -48 3 -25 3 -25 -89 -28 -89 -3 -93 -2 -93 18 0 12 13 35 29 51 37 37 88
39 125 7z"/>
<path d="M11828 1133 c-23 -4 -28 -9 -28 -35 0 -28 2 -30 26 -24 96 24 149 18
166 -20 6 -13 9 -26 6 -29 -3 -3 -36 -9 -74 -14 -116 -15 -154 -46 -154 -127
0 -28 8 -44 34 -70 41 -41 90 -45 151 -14 47 24 45 24 45 5 0 -9 9 -15 25 -15
l25 0 0 143 0 143 -29 28 c-26 25 -39 29 -98 31 -37 2 -80 1 -95 -2z m172
-214 c0 -50 0 -50 -46 -70 -46 -21 -84 -20 -111 3 -17 13 -17 72 0 86 18 15
76 30 120 31 l37 1 0 -51z"/>
<path d="M5290 960 l0 -170 30 0 30 0 0 170 0 170 -30 0 -30 0 0 -170z"/>
<path d="M6470 960 l0 -170 25 0 25 0 0 170 0 170 -25 0 -25 0 0 -170z"/>
<path d="M9210 995 c0 -83 5 -144 12 -160 24 -54 106 -71 166 -35 39 24 42 24
42 5 0 -10 10 -15 30 -15 l30 0 0 170 0 170 -30 0 -30 0 0 -130 0 -129 -31
-17 c-43 -22 -95 -22 -117 -1 -14 15 -18 41 -20 147 -4 130 -4 130 -28 130
l-24 0 0 -135z"/>
<path d="M11260 1123 c1 -5 20 -80 43 -168 41 -152 44 -160 69 -163 25 -3 28
2 68 122 23 69 43 126 45 126 2 0 22 -56 45 -125 40 -119 43 -125 69 -125 26
0 27 3 66 158 22 86 41 163 43 170 2 7 -7 12 -26 12 -28 0 -29 -1 -52 -107
-34 -164 -32 -163 -79 -20 -38 112 -45 127 -65 127 -20 0 -27 -14 -62 -125
-34 -110 -54 -151 -54 -112 0 6 -12 63 -26 125 -26 111 -26 112 -55 112 -16 0
-29 -3 -29 -7z"/>
<path d="M12160 960 l0 -170 30 0 30 0 0 120 0 120 33 20 c18 12 50 20 75 20
40 0 42 1 42 31 0 32 0 32 -46 26 -25 -2 -59 -14 -75 -26 l-29 -22 0 26 c0 21
-5 25 -30 25 l-30 0 0 -170z"/>
</g>
</svg>
