<?xml version="1.0" encoding="UTF-8" standalone="no"?>
<!DOCTYPE svg PUBLIC "-//W3C//DTD SVG 1.1//EN" "http://www.w3.org/Graphics/SVG/1.1/DTD/svg11.dtd">
<svg xmlns="http://www.w3.org/2000/svg" xmlns:xlink="http://www.w3.org/1999/xlink" version="1.1" width="240.37795pt" height="170.07874pt" viewBox="0 0 240.37795 170.07874">
<g enable-background="new">
<g>
<path transform="matrix(1,0,0,-1,0,170.07874)" d="M 0 0 L 240.37796 0 L 240.37796 170.07874 L 0 170.07874 Z " fill="#ffffff"/>
<path transform="matrix(1,0,0,-1,0,170.07874)" d="M 52.64 38.39 L 231.73795 38.39 L 231.73795 161.43874 L 52.64 161.43874 Z " fill="#ffffff"/>
<clipPath id="cp0">
<path transform="matrix(1,0,0,-1,0,170.07874)" d="M 52.64 38.39 L 231.73795 38.39 L 231.73795 161.43874 L 52.64 161.43874 Z "/>
</clipPath>
<g clip-path="url(#cp0)">
<g>
<path transform="matrix(1,0,0,-1,0,170.07874)" d="M 60.780817 83.06017 L 60.780817 53.708787 L 64.95559 55.20124 L 69.13037 56.811738 L 73.305149 56.811735 L 77.47993 58.42223 L 98.35381 60.032724 L 140.1016 61.643217 L 223.59714 63.25371 L 140.1016 61.643217 L 98.35381 60.032724 L 77.47993 58.42223 L 73.305149 56.811735 L 69.13037 60.771299 L 64.95559 55.248987 L 60.780817 83.06017 Z " fill="#1f77b4" fill-opacity=".2"/>
<path transform="matrix(1,0,0,-1,0,170.07874)" stroke-width="1" stroke-linecap="butt" stroke-linejoin="round" fill="none" stroke="#1f77b4" stroke-opacity=".2" d="M 60.780817 83.06017 L 60.780817 53.708787 L 64.95559 55.20124 L 69.13037 56.811738 L 73.305149 56.811735 L 77.47993 58.42223 L 98.35381 60.032724 L 140.1016 61.643217 L 223.59714 63.25371 L 140.1016 61.643217 L 98.35381 60.032724 L 77.47993 58.42223 L 73.305149 56.811735 L 69.13037 60.771299 L 64.95559 55.248987 L 60.780817 83.06017 Z "/>
</g>
</g>
<clipPath id="cp1">
<path transform="matrix(1,0,0,-1,0,170.07874)" d="M 52.64 38.39 L 231.73795 38.39 L 231.73795 161.43874 L 52.64 161.43874 Z "/>
</clipPath>
<g clip-path="url(#cp1)">
<g>
<path transform="matrix(1,0,0,-1,0,170.07874)" d="M 60.780817 129.84123 L 60.780817 128.59662 L 64.95559 121.17771 L 69.13037 115.1206 L 73.305149 108.40451 L 77.47993 100.5528 L 98.35381 79.370449 L 140.1016 60.98236 L 223.59714 62.58739 L 223.59714 62.587808 L 140.1016 62.72468 L 98.35381 94.92818 L 77.47993 110.0823 L 73.305149 114.57584 L 69.13037 121.66387 L 64.95559 124.983058 L 60.780817 129.84123 Z " fill="#ff7f0e" fill-opacity=".2"/>
<path transform="matrix(1,0,0,-1,0,170.07874)" stroke-width="1" stroke-linecap="butt" stroke-linejoin="round" fill="none" stroke="#ff7f0e" stroke-opacity=".2" d="M 60.780817 129.84123 L 60.780817 128.59662 L 64.95559 121.17771 L 69.13037 115.1206 L 73.305149 108.40451 L 77.47993 100.5528 L 98.35381 79.370449 L 140.1016 60.98236 L 223.59714 62.58739 L 223.59714 62.587808 L 140.1016 62.72468 L 98.35381 94.92818 L 77.47993 110.0823 L 73.305149 114.57584 L 69.13037 121.66387 L 64.95559 124.983058 L 60.780817 129.84123 Z "/>
</g>
</g>
<clipPath id="cp2">
<path transform="matrix(1,0,0,-1,0,170.07874)" d="M 52.64 38.39 L 231.73795 38.39 L 231.73795 161.43874 L 52.64 161.43874 Z "/>
</clipPath>
<g clip-path="url(#cp2)">
<g>
<path transform="matrix(1,0,0,-1,0,170.07874)" d="M 60.780817 134.11363 L 60.780817 133.09287 L 64.95559 131.93256 L 69.13037 130.64484 L 73.305149 129.2578 L 77.47993 128.47835 L 98.35381 124.06014 L 140.1016 114.00835 L 223.59714 94.799518 L 223.59714 99.64681 L 140.1016 118.05343 L 98.35381 125.040828 L 77.47993 128.96193 L 73.305149 129.94379 L 69.13037 131.72303 L 64.95559 132.6208 L 60.780817 134.11363 Z " fill="#2ca02c" fill-opacity=".2"/>
<path transform="matrix(1,0,0,-1,0,170.07874)" stroke-width="1" stroke-linecap="butt" stroke-linejoin="round" fill="none" stroke="#2ca02c" stroke-opacity=".2" d="M 60.780817 134.11363 L 60.780817 133.09287 L 64.95559 131.93256 L 69.13037 130.64484 L 73.305149 129.2578 L 77.47993 128.47835 L 98.35381 124.06014 L 140.1016 114.00835 L 223.59714 94.799518 L 223.59714 99.64681 L 140.1016 118.05343 L 98.35381 125.040828 L 77.47993 128.96193 L 73.305149 129.94379 L 69.13037 131.72303 L 64.95559 132.6208 L 60.780817 134.11363 Z "/>
</g>
</g>
<clipPath id="cp3">
<path transform="matrix(1,0,0,-1,0,170.07874)" d="M 52.64 38.39 L 231.73795 38.39 L 231.73795 161.43874 L 52.64 161.43874 Z "/>
</clipPath>
<g clip-path="url(#cp3)">
<g>
<path transform="matrix(1,0,0,-1,0,170.07874)" d="M 60.780817 134.34183 L 60.780817 133.68271 L 64.95559 133.34075 L 69.13037 132.62332 L 73.305149 132.45482 L 77.47993 131.20781 L 98.35381 128.61534 L 140.1016 124.174488 L 223.59714 115.28002 L 223.59714 121.44908 L 140.1016 125.25193 L 98.35381 128.9813 L 77.47993 132.80474 L 73.305149 133.76805 L 69.13037 133.91872 L 64.95559 134.18831 L 60.780817 134.34183 Z " fill="#d62728" fill-opacity=".2"/>
<path transform="matrix(1,0,0,-1,0,170.07874)" stroke-width="1" stroke-linecap="butt" stroke-linejoin="round" fill="none" stroke="#d62728" stroke-opacity=".2" d="M 60.780817 134.34183 L 60.780817 133.68271 L 64.95559 133.34075 L 69.13037 132.62332 L 73.305149 132.45482 L 77.47993 131.20781 L 98.35381 128.61534 L 140.1016 124.174488 L 223.59714 115.28002 L 223.59714 121.44908 L 140.1016 125.25193 L 98.35381 128.9813 L 77.47993 132.80474 L 73.305149 133.76805 L 69.13037 133.91872 L 64.95559 134.18831 L 60.780817 134.34183 Z "/>
</g>
</g>
<path transform="matrix(1,0,0,-1,0,170.07874)" d="M 56.606039 38.39 L 56.606039 34.89 "/>
<path transform="matrix(1,0,0,-1,0,170.07874)" stroke-width=".8" stroke-linecap="butt" stroke-linejoin="round" fill="none" stroke="#000000" d="M 56.606039 38.39 L 56.606039 34.89 "/>
<text xml:space="preserve" transform="matrix(1 0 -0 1 0 170.07874)" font-size="8" font-family="DejaVuSans"><tspan y="-25.311875" x="54.059164">0</tspan></text>
<path transform="matrix(1,0,0,-1,0,170.07874)" d="M 98.35381 38.39 L 98.35381 34.89 "/>
<path transform="matrix(1,0,0,-1,0,170.07874)" stroke-width=".8" stroke-linecap="butt" stroke-linejoin="round" fill="none" stroke="#000000" d="M 98.35381 38.39 L 98.35381 34.89 "/>
<text xml:space="preserve" transform="matrix(1 0 -0 1 0 170.07874)" font-size="8" font-family="DejaVuSans"><tspan y="-25.311875" x="95.80694">2</tspan></text>
<path transform="matrix(1,0,0,-1,0,170.07874)" d="M 140.1016 38.39 L 140.1016 34.89 "/>
<path transform="matrix(1,0,0,-1,0,170.07874)" stroke-width=".8" stroke-linecap="butt" stroke-linejoin="round" fill="none" stroke="#000000" d="M 140.1016 38.39 L 140.1016 34.89 "/>
<text xml:space="preserve" transform="matrix(1 0 -0 1 0 170.07874)" font-size="8" font-family="DejaVuSans"><tspan y="-25.311875" x="137.55472">4</tspan></text>
<path transform="matrix(1,0,0,-1,0,170.07874)" d="M 181.84937 38.39 L 181.84937 34.89 "/>
<path transform="matrix(1,0,0,-1,0,170.07874)" stroke-width=".8" stroke-linecap="butt" stroke-linejoin="round" fill="none" stroke="#000000" d="M 181.84937 38.39 L 181.84937 34.89 "/>
<text xml:space="preserve" transform="matrix(1 0 -0 1 0 170.07874)" font-size="8" font-family="DejaVuSans"><tspan y="-25.311875" x="179.30249">6</tspan></text>
<path transform="matrix(1,0,0,-1,0,170.07874)" d="M 223.59714 38.39 L 223.59714 34.89 "/>
<path transform="matrix(1,0,0,-1,0,170.07874)" stroke-width=".8" stroke-linecap="butt" stroke-linejoin="round" fill="none" stroke="#000000" d="M 223.59714 38.39 L 223.59714 34.89 "/>
<text xml:space="preserve" transform="matrix(1 0 -0 1 0 170.07874)" font-size="8" font-family="DejaVuSans"><tspan y="-25.311875" x="221.05027">8</tspan></text>
<text xml:space="preserve" transform="matrix(1 0 -0 1 72.18898 158.43874)" font-size="8" font-family="DejaVuSans" font-style="italic"><tspan y="-.78125" x="0">e</tspan></text>
<text xml:space="preserve" transform="matrix(1 0 -0 1 72.18898 158.43874)" font-size="5.6" font-family="DejaVuSans"><tspan y="-3.84375" x="5.2944796">0</tspan><tspan y="1.40625" x="4.921875">0</tspan></text>
<text xml:space="preserve" transform="matrix(1 0 -0 1 72.18898 158.43874)" font-size="8" font-family="DejaVuSans"><tspan y="-.78125" x="9.07612 11.619089 14.162058 19.720652 24.642527 27.458933 32.380807 35.66987 40.591745 45.662057 50.060495 54.98237 57.525339 62.580026 67.65034 72.38471 74.60737 77.89643 82.79096 87.861278 95.65424 100.57612 105.64643 108.78315 113.68549 115.90815 118.45112 123.52924 126.66596 131.5683 134.70502">, Reference Environmental State</tspan></text>
<path transform="matrix(1,0,0,-1,0,170.07874)" d="M 52.64 38.39 L 49.14 38.39 "/>
<path transform="matrix(1,0,0,-1,0,170.07874)" stroke-width=".8" stroke-linecap="butt" stroke-linejoin="round" fill="none" stroke="#000000" d="M 52.64 38.39 L 49.14 38.39 "/>
<text xml:space="preserve" transform="matrix(1 0 -0 1 22.64 135.3528)" font-size="8" font-family="DejaVuSans"><tspan y="-.78125" x="0 5.0898439">10</tspan></text>
<text xml:space="preserve" transform="matrix(1 0 -0 1 22.64 135.3528)" font-size="5.6" font-family="DejaVuSans"><tspan y="-3.84375" x="10.25625 14.948438 18.511328">&#x2212;20</tspan></text>
<path transform="matrix(1,0,0,-1,0,170.07874)" d="M 52.64 59.78978 L 49.14 59.78978 "/>
<path transform="matrix(1,0,0,-1,0,170.07874)" stroke-width=".8" stroke-linecap="butt" stroke-linejoin="round" fill="none" stroke="#000000" d="M 52.64 59.78978 L 49.14 59.78978 "/>
<text xml:space="preserve" transform="matrix(1 0 -0 1 22.64 113.95302)" font-size="8" font-family="DejaVuSans"><tspan y="-.78125" x="0 5.0898439">10</tspan></text>
<text xml:space="preserve" transform="matrix(1 0 -0 1 22.64 113.95302)" font-size="5.6" font-family="DejaVuSans"><tspan y="-3.84375" x="10.25625 14.948438 18.511328">&#x2212;16</tspan></text>
<path transform="matrix(1,0,0,-1,0,170.07874)" d="M 52.64 81.18956 L 49.14 81.18956 "/>
<path transform="matrix(1,0,0,-1,0,170.07874)" stroke-width=".8" stroke-linecap="butt" stroke-linejoin="round" fill="none" stroke="#000000" d="M 52.64 81.18956 L 49.14 81.18956 "/>
<text xml:space="preserve" transform="matrix(1 0 -0 1 22.64 92.55324)" font-size="8" font-family="DejaVuSans"><tspan y="-.78125" x="0 5.0898439">10</tspan></text>
<text xml:space="preserve" transform="matrix(1 0 -0 1 22.64 92.55324)" font-size="5.6" font-family="DejaVuSans"><tspan y="-3.84375" x="10.25625 14.948438 18.511328">&#x2212;12</tspan></text>
<path transform="matrix(1,0,0,-1,0,170.07874)" d="M 52.64 102.58934 L 49.14 102.58934 "/>
<path transform="matrix(1,0,0,-1,0,170.07874)" stroke-width=".8" stroke-linecap="butt" stroke-linejoin="round" fill="none" stroke="#000000" d="M 52.64 102.58934 L 49.14 102.58934 "/>
<text xml:space="preserve" transform="matrix(1 0 -0 1 26.64 71.15346)" font-size="8" font-family="DejaVuSans"><tspan y="-.78125" x="0 5.0898439">10</tspan></text>
<text xml:space="preserve" transform="matrix(1 0 -0 1 26.64 71.15346)" font-size="5.6" font-family="DejaVuSans"><tspan y="-3.84375" x="10.25625 14.948438">&#x2212;8</tspan></text>
<path transform="matrix(1,0,0,-1,0,170.07874)" d="M 52.64 123.98912 L 49.14 123.98912 "/>
<path transform="matrix(1,0,0,-1,0,170.07874)" stroke-width=".8" stroke-linecap="butt" stroke-linejoin="round" fill="none" stroke="#000000" d="M 52.64 123.98912 L 49.14 123.98912 "/>
<text xml:space="preserve" transform="matrix(1 0 -0 1 26.64 49.753679)" font-size="8" font-family="DejaVuSans"><tspan y="-.8578125" x="0 5.0898439">10</tspan></text>
<text xml:space="preserve" transform="matrix(1 0 -0 1 26.64 49.753679)" font-size="5.6" font-family="DejaVuSans"><tspan y="-3.9203125" x="10.25625 14.948438">&#x2212;4</tspan></text>
<path transform="matrix(1,0,0,-1,0,170.07874)" d="M 52.64 145.3889 L 49.14 145.3889 "/>
<path transform="matrix(1,0,0,-1,0,170.07874)" stroke-width=".8" stroke-linecap="butt" stroke-linejoin="round" fill="none" stroke="#000000" d="M 52.64 145.3889 L 49.14 145.3889 "/>
<text xml:space="preserve" transform="matrix(1 0 -0 1 30.64 28.353898)" font-size="8" font-family="DejaVuSans"><tspan y="-.78125" x="0 5.0898439">10</tspan></text>
<text xml:space="preserve" transform="matrix(1 0 -0 1 30.64 28.353898)" font-size="5.6" font-family="DejaVuSans"><tspan y="-3.84375" x="10.25625">0</tspan></text>
<text xml:space="preserve" transform="matrix(0 -1 1 0 16.64 96.16437)" font-size="8" font-family="DejaVuSans"><tspan y="-.765625" x="5.423828">&#x0304;</tspan></text>
<text xml:space="preserve" transform="matrix(0 -1 1 0 16.64 96.16437)" font-size="8" font-family="DejaVuSans" font-style="italic"><tspan y="-.78125" x="0">&#x03c3;</tspan></text>
<text xml:space="preserve" transform="matrix(0 -1 1 0 16.64 96.16437)" font-size="5.6" font-family="DejaVuSans"><tspan y="-3.84375" x="6.2378909">*</tspan></text>
<text xml:space="preserve" transform="matrix(0 -1 1 0 16.64 96.16437)" font-size="8" font-family="DejaVuSans"><tspan y="-.78125" x="10.347656 12.890625 15.433594 20.257813 22.480469 27.382813 31.550782 34.6875 36.910158 41.308595 43.53125 46.66797">, Plasticity</tspan></text>
<clipPath id="cp4">
<path transform="matrix(1,0,0,-1,0,170.07874)" d="M 52.64 38.39 L 231.73795 38.39 L 231.73795 161.43874 L 52.64 161.43874 Z "/>
</clipPath>
<g clip-path="url(#cp4)">
<path transform="matrix(1,0,0,-1,0,170.07874)" stroke-width="1.5" stroke-linecap="square" stroke-linejoin="round" fill="none" stroke="#1f77b4" d="M 60.780817 80.50776 L 64.95559 55.21728 L 69.13037 58.939729 L 73.305149 56.811735 L 77.47993 58.42223 L 98.35381 60.032724 L 140.1016 61.643217 L 223.59714 63.25371 "/>
</g>
<clipPath id="cp5">
<path transform="matrix(1,0,0,-1,0,170.07874)" d="M 52.64 38.39 L 231.73795 38.39 L 231.73795 161.43874 L 52.64 161.43874 Z "/>
</clipPath>
<g clip-path="url(#cp5)">
<path transform="matrix(1,0,0,-1,0,170.07874)" stroke-width="1.5" stroke-linecap="square" stroke-linejoin="round" fill="none" stroke="#ff7f0e" d="M 60.780817 129.28649 L 64.95559 123.69133 L 69.13037 119.888729 L 73.305149 112.76336 L 77.47993 108.14843 L 98.35381 92.39258 L 140.1016 61.72516 L 223.59714 62.587594 "/>
</g>
<clipPath id="cp6">
<path transform="matrix(1,0,0,-1,0,170.07874)" d="M 52.64 38.39 L 231.73795 38.39 L 231.73795 161.43874 L 52.64 161.43874 Z "/>
</clipPath>
<g clip-path="url(#cp6)">
<path transform="matrix(1,0,0,-1,0,170.07874)" stroke-width="1.5" stroke-linecap="square" stroke-linejoin="round" fill="none" stroke="#2ca02c" d="M 60.780817 133.58863 L 64.95559 132.30124 L 69.13037 131.13799 L 73.305149 129.63646 L 77.47993 128.72263 L 98.35381 124.593929 L 140.1016 116.57744 L 223.59714 98.15826 "/>
</g>
<clipPath id="cp7">
<path transform="matrix(1,0,0,-1,0,170.07874)" d="M 52.64 38.39 L 231.73795 38.39 L 231.73795 161.43874 L 52.64 161.43874 Z "/>
</clipPath>
<g clip-path="url(#cp7)">
<path transform="matrix(1,0,0,-1,0,170.07874)" stroke-width="1.5" stroke-linecap="square" stroke-linejoin="round" fill="none" stroke="#d62728" d="M 60.780817 134.02854 L 64.95559 133.7316 L 69.13037 133.27689 L 73.305149 133.13159 L 77.47993 131.92842 L 98.35381 128.79779 L 140.1016 124.769008 L 223.59714 119.85065 "/>
</g>
<path transform="matrix(1,0,0,-1,0,170.07874)" stroke-width=".8" stroke-linecap="square" stroke-miterlimit="10" stroke-linejoin="miter" fill="none" stroke="#000000" d="M 52.64 38.39 L 52.64 161.43874 "/>
<path transform="matrix(1,0,0,-1,0,170.07874)" stroke-width=".8" stroke-linecap="square" stroke-miterlimit="10" stroke-linejoin="miter" fill="none" stroke="#000000" d="M 231.73795 38.39 L 231.73795 161.43874 "/>
<path transform="matrix(1,0,0,-1,0,170.07874)" stroke-width=".8" stroke-linecap="square" stroke-miterlimit="10" stroke-linejoin="miter" fill="none" stroke="#000000" d="M 52.64 38.39 L 231.73795 38.39 "/>
<path transform="matrix(1,0,0,-1,0,170.07874)" stroke-width=".8" stroke-linecap="square" stroke-miterlimit="10" stroke-linejoin="miter" fill="none" stroke="#000000" d="M 52.64 161.43874 L 231.73795 161.43874 "/>
<g>
<path transform="matrix(1,0,0,-1,0,170.07874)" d="M 192.23795 127.59499 L 228.23795 127.59499 C 228.90462 127.59499 229.23795 127.92832 229.23795 128.59499 L 229.23795 157.93874 C 229.23795 158.60541 228.90462 158.93874 228.23795 158.93874 L 192.23795 158.93874 C 191.57129 158.93874 191.23795 158.60541 191.23795 157.93874 L 191.23795 128.59499 C 191.23795 127.92832 191.57129 127.59499 192.23795 127.59499 Z " fill="#ffffff" fill-opacity=".8"/>
<path transform="matrix(1,0,0,-1,0,170.07874)" stroke-width="1" stroke-linecap="butt" stroke-miterlimit="10" stroke-linejoin="miter" fill="none" stroke="#d5d6d5" stroke-opacity=".8" d="M 192.23795 127.59499 L 228.23795 127.59499 C 228.90462 127.59499 229.23795 127.92832 229.23795 128.59499 L 229.23795 157.93874 C 229.23795 158.60541 228.90462 158.93874 228.23795 158.93874 L 192.23795 158.93874 C 191.57129 158.93874 191.23795 158.60541 191.23795 157.93874 L 191.23795 128.59499 C 191.23795 127.92832 191.57129 127.59499 192.23795 127.59499 Z "/>
</g>
<path transform="matrix(1,0,0,-1,0,170.07874)" stroke-width="1.5" stroke-linecap="square" stroke-linejoin="round" fill="none" stroke="#1f77b4" d="M 193.23795 154.89186 L 203.23795 154.89186 "/>
<text xml:space="preserve" transform="matrix(1 0 -0 1 207.23795 16.936875)" font-size="5" font-family="DejaVuSans" font-style="italic"><tspan y="-.359375" x="0">N</tspan></text>
<text xml:space="preserve" transform="matrix(1 0 -0 1 207.23795 16.936875)" font-size="5" font-family="DejaVuSans"><tspan y="-.359375" x="4.7143557 9.87793">=1</tspan></text>
<path transform="matrix(1,0,0,-1,0,170.07874)" stroke-width="1.5" stroke-linecap="square" stroke-linejoin="round" fill="none" stroke="#ff7f0e" d="M 193.23795 147.39186 L 203.23795 147.39186 "/>
<text xml:space="preserve" transform="matrix(1 0 -0 1 207.23795 24.436875)" font-size="5" font-family="DejaVuSans" font-style="italic"><tspan y="-.28125" x="0">N</tspan></text>
<text xml:space="preserve" transform="matrix(1 0 -0 1 207.23795 24.436875)" font-size="5" font-family="DejaVuSans"><tspan y="-.28125" x="4.7143557 9.87793 13.059082">=10</tspan></text>
<path transform="matrix(1,0,0,-1,0,170.07874)" stroke-width="1.5" stroke-linecap="square" stroke-linejoin="round" fill="none" stroke="#2ca02c" d="M 193.23795 139.89186 L 203.23795 139.89186 "/>
<text xml:space="preserve" transform="matrix(1 0 -0 1 207.23795 31.936875)" font-size="5" font-family="DejaVuSans" font-style="italic"><tspan y="-.28125" x="0">N</tspan></text>
<text xml:space="preserve" transform="matrix(1 0 -0 1 207.23795 31.936875)" font-size="5" font-family="DejaVuSans"><tspan y="-.28125" x="4.7143557 9.87793 13.059082">=50</tspan></text>
<path transform="matrix(1,0,0,-1,0,170.07874)" stroke-width="1.5" stroke-linecap="square" stroke-linejoin="round" fill="none" stroke="#d62728" d="M 193.23795 132.39186 L 203.23795 132.39186 "/>
<text xml:space="preserve" transform="matrix(1 0 -0 1 207.23795 39.436876)" font-size="5" font-family="DejaVuSans" font-style="italic"><tspan y="-.28125" x="0">N</tspan></text>
<text xml:space="preserve" transform="matrix(1 0 -0 1 207.23795 39.436876)" font-size="5" font-family="DejaVuSans"><tspan y="-.28125" x="4.7143557 9.87793 13.059082 16.240235">=100</tspan></text>
</g>
</g>
</svg>
