<?xml version="1.0" standalone="no"?>
<!DOCTYPE svg PUBLIC "-//W3C//DTD SVG 20010904//EN"
 "http://www.w3.org/TR/2001/REC-SVG-20010904/DTD/svg10.dtd">
<svg version="1.0" xmlns="http://www.w3.org/2000/svg"
 width="1600.000000pt" height="489.000000pt" viewBox="0 0 1600.000000 489.000000"
 preserveAspectRatio="xMidYMid meet">

<g transform="translate(0.000000,489.000000) scale(0.100000,-0.100000)"
fill="#000000" stroke="none">
<path d="M2630 4405 c0 -70 4 -115 10 -115 6 0 10 27 10 60 0 55 2 61 26 72
42 20 59 1 62 -71 2 -45 7 -61 17 -61 19 0 20 94 2 130 -11 22 -19 25 -60 23
l-47 -1 0 39 c0 21 -4 39 -10 39 -6 0 -10 -45 -10 -115z"/>
<path d="M6360 4405 c0 -121 17 -162 22 -53 3 59 5 63 31 73 39 13 57 -12 57
-82 0 -29 5 -53 10 -53 6 0 10 30 10 69 0 82 -11 97 -70 87 l-40 -6 0 40 c0
22 -4 40 -10 40 -6 0 -10 -45 -10 -115z"/>
<path d="M14330 4406 c0 -96 3 -116 15 -116 12 0 15 14 15 65 0 61 2 65 25 71
46 12 55 0 55 -71 0 -53 3 -65 16 -65 14 0 16 11 12 71 -4 80 -14 92 -70 85
-36 -4 -37 -3 -40 32 -2 19 -9 37 -15 40 -10 3 -13 -24 -13 -112z"/>
<path d="M2150 4395 c0 -63 4 -105 10 -105 6 0 10 18 10 40 0 39 1 40 35 40
25 0 44 8 60 25 29 28 31 51 9 83 -12 18 -25 22 -70 22 l-54 0 0 -105z m100
70 c19 -22 4 -64 -25 -71 -41 -10 -55 1 -55 46 0 39 1 40 34 40 18 0 39 -7 46
-15z"/>
<path d="M2510 4476 c0 -13 -6 -27 -12 -30 -10 -5 -10 -7 0 -12 7 -4 12 -27
12 -63 0 -31 5 -62 12 -69 14 -14 68 -16 68 -2 0 6 -11 10 -24 10 -28 0 -36
16 -36 76 0 42 1 44 30 44 38 0 40 18 3 22 -20 2 -29 9 -31 26 -4 30 -22 28
-22 -2z"/>
<path d="M2975 4488 c-2 -7 -18 -50 -35 -96 -33 -92 -35 -102 -19 -102 5 0 15
14 20 30 10 28 15 30 59 30 44 0 49 -2 59 -30 5 -16 17 -30 25 -30 13 0 12 11
-10 68 -14 37 -32 83 -38 102 -13 36 -52 54 -61 28z m44 -55 c7 -21 15 -44 17
-50 4 -9 -7 -13 -36 -13 -29 0 -40 4 -36 13 2 6 10 29 17 50 7 20 15 37 19 37
4 0 12 -17 19 -37z"/>
<path d="M5880 4395 c0 -63 4 -105 10 -105 6 0 10 18 10 40 0 39 1 40 34 40
47 0 79 29 79 70 0 43 -24 60 -85 60 l-48 0 0 -105z m100 70 c19 -22 4 -64
-25 -71 -41 -10 -55 1 -55 46 0 39 1 40 34 40 18 0 39 -7 46 -15z"/>
<path d="M6240 4476 c0 -13 -6 -27 -12 -30 -10 -5 -10 -7 0 -12 7 -4 12 -27
12 -63 0 -31 5 -62 12 -69 14 -14 68 -16 68 -2 0 6 -11 10 -24 10 -28 0 -36
16 -36 76 0 42 1 44 30 44 38 0 40 18 3 22 -20 2 -29 9 -31 26 -4 30 -22 28
-22 -2z"/>
<path d="M6660 4395 l0 -105 51 0 c50 0 87 12 101 34 14 20 8 53 -11 70 -16
14 -17 22 -8 46 17 44 -3 60 -74 60 l-59 0 0 -105z m105 55 c0 -22 -5 -25 -42
-28 -42 -3 -43 -2 -43 28 0 30 1 31 43 28 37 -3 42 -6 42 -28z m-1 -60 c18 -7
26 -17 26 -34 0 -30 -25 -46 -74 -46 -35 0 -36 1 -36 38 0 21 3 42 7 45 9 10
48 8 77 -3z"/>
<path d="M13850 4395 c0 -77 3 -105 13 -105 7 0 12 14 12 37 0 37 1 38 37 41
64 5 101 78 60 115 -12 11 -36 17 -70 17 l-52 0 0 -105z m100 70 c19 -22 4
-64 -25 -71 -41 -10 -55 1 -55 46 0 39 1 40 34 40 18 0 39 -7 46 -15z"/>
<path d="M14210 4477 c0 -14 -6 -28 -12 -31 -10 -5 -10 -7 0 -12 7 -4 12 -27
12 -63 0 -31 5 -62 12 -69 14 -14 68 -16 68 -2 0 6 -11 10 -25 10 -24 0 -25 3
-25 60 0 57 1 60 25 60 14 0 25 5 25 10 0 6 -11 10 -24 10 -18 0 -26 6 -28 22
-4 31 -28 35 -28 5z"/>
<path d="M14635 4490 c3 -5 15 -10 26 -10 18 0 20 -6 17 -82 l-3 -83 -32 -3
c-44 -4 -42 -22 1 -22 52 0 66 27 66 127 l0 83 -41 0 c-24 0 -38 -4 -34 -10z"/>
<path d="M2330 4436 c0 -11 9 -13 35 -9 21 3 41 1 50 -7 24 -20 17 -30 -21
-30 -51 0 -74 -15 -74 -50 0 -40 36 -65 74 -51 14 6 33 8 41 5 12 -5 15 5 15
63 0 40 -5 74 -12 81 -18 18 -108 16 -108 -2z m100 -84 c0 -10 -5 -23 -12 -30
-17 -17 -67 -15 -74 3 -10 24 15 45 52 45 26 0 34 -4 34 -18z"/>
<path d="M6060 4438 c0 -9 15 -13 42 -13 33 0 43 -4 46 -17 3 -15 -4 -18 -32
-18 -38 0 -76 -28 -76 -55 0 -8 9 -24 21 -36 16 -16 27 -19 47 -13 15 4 37 6
50 6 21 -2 22 2 22 66 0 40 -5 73 -12 80 -16 16 -108 16 -108 0z m100 -86 c0
-10 -5 -23 -12 -30 -17 -17 -67 -15 -74 3 -10 24 15 45 52 45 26 0 34 -4 34
-18z"/>
<path d="M14030 4437 c0 -9 15 -13 47 -13 37 1 48 -3 51 -16 3 -15 -4 -18 -36
-18 -67 0 -98 -63 -47 -96 20 -13 31 -15 49 -6 13 6 34 8 46 5 22 -6 22 -4 18
59 -2 36 -10 73 -17 82 -17 20 -111 23 -111 3z m100 -85 c0 -26 -20 -42 -51
-42 -31 0 -41 16 -27 43 13 24 78 24 78 -1z"/>
<path d="M293 4348 c-12 -13 -25 -43 -30 -68 -6 -31 -14 -46 -27 -48 -16 -3
-18 2 -14 45 3 26 8 56 12 66 7 14 3 17 -18 17 -35 0 -49 -37 -43 -109 3 -44
9 -59 31 -78 15 -13 35 -23 44 -23 32 0 61 30 67 68 11 60 16 72 30 72 28 0
28 -54 0 -122 -6 -15 -2 -18 24 -18 36 0 46 24 45 108 -1 44 -7 59 -30 83 -33
35 -63 37 -91 7z"/>
<path d="M1193 4160 c-68 -41 -63 111 -63 -1892 0 -1781 0 -1814 20 -1845 41
-67 -55 -63 1365 -63 1420 0 1324 -4 1365 63 20 31 20 64 20 1845 0 2003 5
1851 -63 1892 -31 19 -60 20 -1322 20 -1262 0 -1291 -1 -1322 -20z m2653 -34
l34 -34 0 -1822 0 -1822 -34 -34 -34 -34 -1297 0 -1297 0 -34 34 -34 34 0
1822 0 1822 34 34 34 34 1297 0 1297 0 34 -34z"/>
<path d="M1405 3981 c-200 -91 -167 -392 48 -432 98 -18 207 43 242 136 26 68
17 163 -21 217 -58 85 -179 120 -269 79z m170 -20 c150 -68 160 -284 17 -368
-93 -55 -197 -30 -269 63 -25 34 -28 45 -28 115 0 70 3 82 30 121 56 80 161
110 250 69z"/>
<path d="M1366 3839 c-20 -56 -34 -104 -31 -107 8 -8 35 27 35 45 0 9 16 13
51 13 47 0 51 -2 60 -30 6 -16 17 -30 25 -30 10 0 4 28 -24 105 -31 88 -40
105 -57 105 -18 0 -28 -17 -59 -101z m78 28 c21 -57 21 -57 -19 -57 -19 0 -35
5 -35 11 0 21 23 89 30 89 4 0 15 -19 24 -43z"/>
<path d="M1578 3793 c23 -2 42 -6 42 -9 0 -2 -14 -31 -30 -64 -17 -33 -27 -60
-23 -60 8 0 73 119 73 133 0 4 -24 6 -52 5 -51 -1 -51 -2 -10 -5z"/>
<path d="M2460 3990 c0 -5 9 -10 20 -10 11 0 20 5 20 10 0 6 -9 10 -20 10 -11
0 -20 -4 -20 -10z"/>
<path d="M2530 3990 c0 -5 9 -10 21 -10 11 0 17 5 14 10 -3 6 -13 10 -21 10
-8 0 -14 -4 -14 -10z"/>
<path d="M3420 3979 c-58 -26 -77 -44 -106 -101 -77 -153 28 -330 196 -330
128 0 220 97 220 231 0 50 -35 135 -66 163 -34 30 -108 58 -154 58 -25 0 -65
-10 -90 -21z m175 -18 c136 -63 158 -246 41 -349 -60 -52 -133 -64 -201 -33
-169 77 -172 313 -5 385 48 21 117 19 165 -3z"/>
<path d="M3390 3858 c-17 -46 -35 -93 -40 -105 -8 -18 -6 -23 6 -23 8 0 20 14
25 30 10 28 15 30 59 30 44 0 49 -2 59 -30 5 -16 17 -30 25 -30 13 0 12 7 -4
46 -11 25 -20 50 -20 55 0 6 -10 33 -21 60 -32 74 -51 67 -89 -33z m69 15 c8
-21 16 -44 18 -50 4 -9 -7 -13 -37 -13 -30 0 -41 4 -37 13 2 6 10 29 18 50 7
20 16 37 19 37 3 0 12 -17 19 -37z"/>
<path d="M3563 3784 c-3 -9 -1 -24 5 -34 7 -12 7 -21 0 -28 -15 -15 -5 -56 15
-60 37 -7 67 7 67 33 0 13 -4 27 -10 30 -6 4 -5 13 2 24 18 30 3 51 -37 51
-24 0 -38 -5 -42 -16z m67 -13 c0 -24 -13 -33 -34 -25 -27 10 -20 44 9 44 18
0 25 -5 25 -19z m-6 -56 c20 -20 10 -45 -19 -45 -25 0 -38 21 -29 45 8 19 28
19 48 0z"/>
<path d="M2420 3980 c-20 -12 -5 -24 16 -12 9 5 12 12 7 15 -5 3 -15 2 -23 -3z"/>
<path d="M2594 3965 c21 -16 32 -13 21 4 -3 6 -14 11 -23 11 -15 -1 -15 -2 2
-15z"/>
<path d="M2361 3946 c-19 -23 4 -28 24 -6 15 17 16 20 3 20 -9 0 -21 -6 -27
-14z"/>
<path d="M2642 3938 c5 -15 28 -23 28 -10 0 5 -7 13 -16 16 -10 4 -14 1 -12
-6z"/>
<path d="M2326 3904 c-9 -23 -2 -28 13 -10 7 8 8 17 3 20 -6 3 -13 -1 -16 -10z"/>
<path d="M1970 3855 l0 -55 -60 0 c-57 0 -60 -1 -60 -25 0 -22 4 -24 58 -27
l57 -3 3 -52 c3 -48 5 -53 27 -53 22 0 24 5 27 53 l3 52 53 3 c48 3 52 5 52
28 0 23 -3 24 -55 24 l-55 0 0 55 c0 52 -1 55 -25 55 -24 0 -25 -3 -25 -55z"/>
<path d="M2677 3903 c-4 -6 0 -16 8 -23 21 -17 28 -8 11 15 -8 11 -15 14 -19
8z"/>
<path d="M2390 3878 c0 -9 15 -13 42 -13 31 0 43 -4 46 -16 2 -12 -7 -18 -38
-22 -22 -3 -47 -11 -55 -17 -41 -34 10 -105 59 -82 13 6 33 8 45 5 20 -5 21
-1 21 60 0 46 -5 70 -16 81 -19 20 -104 22 -104 4z m90 -93 c0 -18 -7 -26 -25
-31 -34 -8 -55 1 -55 25 0 22 13 29 53 30 22 1 27 -3 27 -24z"/>
<path d="M2297 3851 c-3 -12 -2 -23 3 -26 12 -7 22 27 12 37 -6 6 -12 1 -15
-11z"/>
<path d="M2870 3830 l0 -30 135 0 135 0 0 30 0 30 -135 0 -135 0 0 -30z"/>
<path d="M2700 3843 c0 -14 19 -38 25 -32 8 8 -5 39 -16 39 -5 0 -9 -3 -9 -7z"/>
<path d="M2560 3801 c0 -4 11 -6 25 -3 30 5 48 -26 23 -42 -14 -8 -13 -12 5
-27 19 -15 20 -19 7 -34 -10 -12 -22 -15 -44 -11 -22 5 -27 3 -19 -5 6 -6 26
-9 44 -7 27 2 35 8 37 27 2 13 -1 28 -6 33 -7 7 -7 16 0 28 18 29 3 50 -37 50
-19 0 -35 -4 -35 -9z"/>
<path d="M2290 3780 c0 -11 2 -20 4 -20 2 0 6 9 9 20 3 11 1 20 -4 20 -5 0 -9
-9 -9 -20z"/>
<path d="M2710 3765 c0 -14 5 -25 10 -25 6 0 10 11 10 25 0 14 -4 25 -10 25
-5 0 -10 -11 -10 -25z"/>
<path d="M2877 3744 c-4 -4 -7 -18 -7 -31 0 -23 0 -23 136 -23 l135 0 -3 28
-3 27 -126 3 c-69 1 -128 -1 -132 -4z"/>
<path d="M2290 3726 c0 -8 5 -18 10 -21 6 -3 10 3 10 14 0 12 -4 21 -10 21 -5
0 -10 -6 -10 -14z"/>
<path d="M2700 3689 c0 -11 5 -17 10 -14 6 3 10 13 10 21 0 8 -4 14 -10 14 -5
0 -10 -9 -10 -21z"/>
<path d="M2314 3664 c3 -9 6 -18 6 -20 0 -3 4 -3 10 1 11 7 2 35 -12 35 -6 0
-7 -7 -4 -16z"/>
<path d="M2671 3646 c-8 -10 -9 -16 -1 -21 5 -3 13 1 16 10 9 22 -1 29 -15 11z"/>
<path d="M2350 3615 c7 -9 15 -13 17 -11 7 7 -7 26 -19 26 -6 0 -6 -6 2 -15z"/>
<path d="M2625 3599 c-11 -17 0 -20 21 -4 17 13 17 14 2 15 -9 0 -20 -5 -23
-11z"/>
<path d="M2385 3590 c-4 -6 -4 -10 -1 -10 2 0 11 -3 20 -6 9 -3 16 -2 16 4 0
14 -28 23 -35 12z"/>
<path d="M2570 3570 c-8 -5 -12 -12 -9 -15 8 -8 39 5 39 16 0 11 -11 11 -30
-1z"/>
<path d="M2440 3560 c0 -5 9 -10 20 -10 11 0 20 5 20 10 0 6 -9 10 -20 10 -11
0 -20 -4 -20 -10z"/>
<path d="M2505 3550 c3 -5 12 -7 20 -3 21 7 19 13 -6 13 -11 0 -18 -4 -14 -10z"/>
<path d="M1836 3434 c49 -31 93 -58 97 -61 5 -3 2 8 -5 23 -18 38 -12 69 15
82 17 8 -3 11 -87 11 l-109 1 89 -56z"/>
<path d="M1946 3435 c-3 -8 6 -16 21 -20 28 -7 38 -2 29 13 -10 16 -44 21 -50
7z"/>
<path d="M2025 3411 c-3 -5 4 -13 16 -16 23 -8 34 -1 24 14 -8 13 -32 14 -40
2z"/>
<path d="M2100 3391 c0 -11 39 -25 47 -18 3 3 2 10 -2 16 -8 13 -45 15 -45 2z"/>
<path d="M2180 3367 c0 -20 37 -29 44 -11 3 8 1 14 -3 14 -5 0 -16 3 -25 6
-10 4 -16 1 -16 -9z"/>
<path d="M2252 3350 c7 -21 45 -31 52 -14 3 8 -1 14 -8 14 -8 0 -22 3 -32 7
-11 4 -15 2 -12 -7z"/>
<path d="M2330 3325 c0 -8 4 -15 9 -15 5 0 17 -3 27 -7 11 -4 15 -2 12 7 -6
20 -48 33 -48 15z"/>
<path d="M2400 3301 c0 -11 40 -22 52 -15 5 3 6 10 3 15 -8 12 -55 12 -55 0z"/>
<path d="M2480 3271 c0 -26 4 -31 25 -31 20 0 25 5 25 25 0 14 -4 25 -9 25 -5
0 -16 3 -25 6 -13 5 -16 -1 -16 -25z"/>
<path d="M1460 3265 c0 -20 5 -25 25 -25 20 0 25 5 25 25 0 20 -5 25 -25 25
-20 0 -25 -5 -25 -25z"/>
<path d="M3490 3265 c0 -21 5 -25 30 -25 25 0 30 4 30 25 0 21 -5 25 -30 25
-25 0 -30 -4 -30 -25z"/>
<path d="M2562 3259 c5 -17 48 -25 48 -10 0 6 -4 11 -9 11 -5 0 -17 3 -27 7
-12 4 -15 2 -12 -8z"/>
<path d="M2635 3241 c-6 -11 33 -26 43 -16 4 3 0 10 -8 15 -19 12 -27 12 -35
1z"/>
<path d="M2710 3216 c0 -9 4 -16 9 -16 5 0 16 -3 25 -6 11 -4 16 -1 16 10 0 9
-4 16 -9 16 -5 0 -16 3 -25 6 -11 4 -16 1 -16 -10z"/>
<path d="M2790 3194 c0 -8 7 -14 15 -14 8 0 18 0 22 -1 21 -2 10 19 -12 23
-17 4 -25 1 -25 -8z"/>
<path d="M2860 3171 c0 -11 40 -22 52 -15 5 3 6 10 3 15 -8 12 -55 12 -55 0z"/>
<path d="M2942 3148 c5 -15 48 -24 48 -10 0 10 -23 22 -42 22 -5 0 -8 -6 -6
-12z"/>
<path d="M1483 3133 c-34 -7 -32 -53 2 -53 21 0 25 5 25 30 0 17 -1 29 -2 29
-2 -1 -13 -4 -25 -6z"/>
<path d="M2480 3109 c0 -24 4 -29 25 -29 20 0 25 5 25 24 0 17 -7 25 -25 28
-22 5 -25 2 -25 -23z"/>
<path d="M3015 3130 c-7 -11 42 -26 53 -16 7 8 -17 26 -35 26 -6 0 -15 -4 -18
-10z"/>
<path d="M3490 3108 c0 -26 3 -29 28 -26 19 2 28 9 30 24 2 17 -3 22 -27 26
-29 4 -31 2 -31 -24z"/>
<path d="M3094 3109 c-3 -5 3 -12 13 -16 10 -3 21 -8 26 -10 4 -2 7 2 7 10 0
17 -37 30 -46 16z"/>
<path d="M1460 2955 c0 -20 5 -25 25 -25 20 0 25 5 25 25 0 20 -5 25 -25 25
-20 0 -25 -5 -25 -25z"/>
<path d="M2480 2955 c0 -20 5 -25 25 -25 20 0 25 5 25 25 0 20 -5 25 -25 25
-20 0 -25 -5 -25 -25z"/>
<path d="M3490 2956 c0 -22 4 -26 31 -26 26 0 30 3 27 23 -2 16 -11 23 -30 25
-24 3 -28 0 -28 -22z"/>
<path d="M1392 2604 c-76 -38 -115 -98 -120 -184 -8 -140 82 -240 218 -240
130 0 220 93 220 226 0 88 -44 159 -123 199 -67 33 -127 33 -195 -1z m186 -13
c73 -38 112 -104 112 -191 0 -63 -18 -106 -61 -147 -33 -31 -103 -63 -138 -63
-70 0 -170 71 -192 137 -6 19 -9 64 -7 99 3 52 9 70 34 101 65 80 169 106 252
64z"/>
<path d="M1394 2523 c-9 -27 -27 -74 -40 -105 -18 -47 -20 -58 -8 -58 8 0 19
11 24 25 8 22 15 25 60 25 45 0 50 -2 56 -25 3 -14 12 -25 20 -25 19 0 19 0
-22 112 -43 116 -62 127 -90 51z m59 -40 l17 -43 -41 0 c-29 0 -40 4 -36 13 2
6 10 29 18 49 15 43 19 41 42 -19z"/>
<path d="M1563 2433 c-24 -9 -13 -20 17 -15 47 7 50 -22 6 -67 -20 -20 -36
-40 -36 -44 0 -4 21 -6 48 -5 44 1 45 2 9 5 l-38 4 35 40 c41 44 42 51 20 73
-15 16 -37 19 -61 9z"/>
<path d="M2460 2620 c0 -5 9 -10 20 -10 11 0 20 5 20 10 0 6 -9 10 -20 10 -11
0 -20 -4 -20 -10z"/>
<path d="M2520 2620 c0 -5 9 -10 20 -10 11 0 20 5 20 10 0 6 -9 10 -20 10 -11
0 -20 -4 -20 -10z"/>
<path d="M3440 2614 c-80 -34 -140 -127 -140 -215 0 -44 37 -133 68 -162 57
-55 168 -74 245 -42 52 21 113 96 127 156 42 176 -137 333 -300 263z m153 -13
c72 -28 137 -121 137 -196 0 -42 -29 -117 -58 -148 -24 -27 -83 -55 -130 -63
-44 -7 -119 20 -161 59 -105 97 -65 292 70 346 31 13 111 13 142 2z"/>
<path d="M3398 2465 c-27 -76 -33 -105 -24 -105 8 0 17 11 20 25 6 23 11 25
60 25 49 0 54 -2 60 -25 4 -14 13 -25 21 -25 19 0 20 -4 -14 82 -16 40 -33 85
-36 101 -5 19 -14 27 -29 27 -18 0 -27 -16 -58 -105z m86 -2 c7 -21 4 -23 -28
-23 -38 0 -41 5 -27 42 5 13 13 32 16 43 7 18 9 17 20 -10 7 -16 16 -40 19
-52z"/>
<path d="M3593 2433 c-23 -9 -13 -18 20 -18 25 0 31 -4 29 -17 -2 -10 2 -18 8
-18 5 0 10 11 10 24 0 30 -31 44 -67 29z"/>
<path d="M3610 2371 c0 -5 9 -11 21 -14 35 -9 20 -42 -19 -42 -36 0 -42 -10
-12 -20 44 -14 83 34 54 66 -18 20 -44 26 -44 10z"/>
<path d="M2417 2613 c-12 -12 -7 -22 8 -17 8 4 15 10 15 15 0 11 -14 12 -23 2z"/>
<path d="M2594 2595 c21 -16 32 -13 21 4 -3 6 -14 11 -23 11 -15 -1 -15 -2 2
-15z"/>
<path d="M2359 2574 c-12 -14 -11 -16 5 -13 11 2 21 10 24 17 5 17 -13 15 -29
-4z"/>
<path d="M2630 2571 c0 -11 31 -24 39 -16 3 3 -1 10 -9 15 -19 12 -30 12 -30
1z"/>
<path d="M1968 2493 l-3 -58 -57 -3 c-54 -3 -58 -5 -58 -27 0 -24 3 -25 60
-25 l60 0 0 -55 c0 -52 1 -55 25 -55 24 0 25 3 25 55 l0 55 55 0 c52 0 55 1
55 24 0 23 -4 25 -52 28 l-53 3 -3 58 c-3 53 -5 57 -27 57 -22 0 -24 -4 -27
-57z"/>
<path d="M2320 2530 c-12 -23 2 -27 19 -6 8 9 8 16 2 20 -6 4 -15 -3 -21 -14z"/>
<path d="M2676 2532 c-3 -5 1 -15 9 -22 16 -14 20 -3 6 19 -5 8 -11 9 -15 3z"/>
<path d="M2390 2504 c0 -11 6 -14 21 -9 28 9 69 -2 69 -19 0 -8 -16 -16 -39
-20 -65 -10 -91 -54 -54 -91 12 -13 26 -15 52 -11 20 3 44 6 54 6 26 0 25 120
-1 143 -25 23 -102 23 -102 1z m90 -89 c0 -28 -31 -49 -60 -40 -43 14 -14 64
38 65 17 0 22 -6 22 -25z"/>
<path d="M2297 2475 c-4 -8 -2 -17 3 -20 6 -4 10 -4 10 -1 0 2 3 11 6 20 3 9
2 16 -4 16 -5 0 -12 -7 -15 -15z"/>
<path d="M2870 2465 l0 -25 135 0 135 0 0 25 0 25 -135 0 -135 0 0 -25z"/>
<path d="M2700 2473 c0 -5 5 -15 10 -23 8 -12 10 -11 10 8 0 12 -4 22 -10 22
-5 0 -10 -3 -10 -7z"/>
<path d="M2580 2423 c-18 -9 -20 -13 -7 -13 14 0 17 -9 17 -49 0 -39 -4 -51
-17 -54 -10 -3 2 -5 27 -5 25 0 37 2 28 5 -13 3 -18 18 -20 66 l-3 63 -25 -13z"/>
<path d="M2286 2421 c-4 -7 -5 -15 -2 -18 9 -9 19 4 14 18 -4 11 -6 11 -12 0z"/>
<path d="M2710 2389 c0 -17 4 -28 10 -24 6 3 10 17 10 31 0 13 -4 24 -10 24
-5 0 -10 -14 -10 -31z"/>
<path d="M2870 2355 l0 -25 135 0 135 0 0 25 0 25 -135 0 -135 0 0 -25z"/>
<path d="M2290 2355 c0 -8 5 -15 10 -15 6 0 10 7 10 15 0 8 -4 15 -10 15 -5 0
-10 -7 -10 -15z"/>
<path d="M2697 2325 c-4 -8 -2 -17 3 -20 6 -4 10 -4 10 -1 0 2 3 11 6 20 3 9
2 16 -4 16 -5 0 -12 -7 -15 -15z"/>
<path d="M2307 2313 c-4 -6 0 -19 8 -29 11 -15 14 -16 15 -4 0 21 -16 44 -23
33z"/>
<path d="M2672 2278 c-14 -14 -16 -28 -3 -28 9 0 24 30 18 36 -2 2 -9 -2 -15
-8z"/>
<path d="M2340 2252 c0 -5 7 -13 16 -16 10 -4 14 -1 12 6 -5 15 -28 23 -28 10z"/>
<path d="M2627 2233 c-12 -12 -7 -22 8 -17 8 4 15 10 15 15 0 11 -14 12 -23 2z"/>
<path d="M2380 2221 c0 -11 31 -24 39 -16 3 3 -1 10 -9 15 -19 12 -30 12 -30
1z"/>
<path d="M2565 2200 c-3 -5 3 -10 14 -10 12 0 21 5 21 10 0 6 -6 10 -14 10 -8
0 -18 -4 -21 -10z"/>
<path d="M1750 2196 c0 -5 178 -116 185 -116 3 0 -1 10 -9 23 -20 29 -10 64
23 82 24 13 17 14 -86 15 -62 0 -113 -2 -113 -4z"/>
<path d="M2445 2190 c3 -5 13 -10 21 -10 8 0 12 5 9 10 -3 6 -13 10 -21 10 -8
0 -12 -4 -9 -10z"/>
<path d="M2508 2183 c6 -2 18 -2 25 0 6 3 1 5 -13 5 -14 0 -19 -2 -12 -5z"/>
<path d="M1945 2141 c-6 -11 42 -27 52 -17 8 8 3 12 -24 20 -12 4 -24 2 -28
-3z"/>
<path d="M2026 2123 c-3 -3 -3 -10 0 -14 7 -12 44 -12 44 0 0 10 -36 21 -44
14z"/>
<path d="M2100 2096 c0 -9 4 -16 9 -16 5 0 16 -3 25 -6 11 -4 16 -1 16 10 0 9
-4 16 -9 16 -5 0 -16 3 -25 6 -11 4 -16 1 -16 -10z"/>
<path d="M2176 2071 c-7 -10 33 -23 46 -15 5 3 6 10 3 15 -8 12 -42 12 -49 0z"/>
<path d="M2250 2050 c0 -5 4 -10 9 -10 5 0 16 -3 25 -6 11 -4 16 -1 16 10 0
10 -9 16 -25 16 -14 0 -25 -4 -25 -10z"/>
<path d="M2332 2028 c5 -15 48 -24 48 -10 0 10 -23 22 -42 22 -5 0 -8 -6 -6
-12z"/>
<path d="M2405 2011 c-6 -11 42 -27 52 -17 8 8 3 12 -24 20 -12 4 -24 2 -28
-3z"/>
<path d="M2482 1990 c6 -20 48 -33 48 -15 0 8 -4 15 -9 15 -5 0 -17 3 -27 7
-11 4 -15 2 -12 -7z"/>
<path d="M2560 1964 c0 -8 4 -14 9 -14 5 0 16 -3 25 -6 10 -4 16 -1 16 9 0 8
-11 17 -25 19 -17 4 -25 1 -25 -8z"/>
<path d="M2636 1944 c-3 -8 -1 -14 3 -14 5 0 16 -3 25 -6 10 -4 16 -1 16 9 0
20 -37 29 -44 11z"/>
<path d="M2710 1921 c0 -12 39 -25 48 -16 7 7 -17 25 -35 25 -7 0 -13 -4 -13
-9z"/>
<path d="M2790 1901 c0 -12 39 -25 48 -16 7 7 -17 25 -35 25 -7 0 -13 -4 -13
-9z"/>
<path d="M2862 1878 c6 -18 48 -30 48 -14 0 8 -7 17 -16 20 -24 9 -36 7 -32
-6z"/>
<path d="M2940 1856 c0 -10 9 -16 25 -16 14 0 25 5 25 10 0 6 -4 10 -9 10 -5
0 -16 3 -25 6 -11 4 -16 1 -16 -10z"/>
<path d="M3020 1835 c0 -8 7 -15 15 -15 8 0 17 0 20 0 14 0 4 15 -14 22 -15 5
-21 3 -21 -7z"/>
<path d="M3090 1811 c0 -11 39 -25 47 -18 3 3 2 10 -2 16 -8 13 -45 15 -45 2z"/>
<path d="M1394 1766 c-73 -34 -117 -99 -122 -182 -5 -76 8 -119 53 -171 87
-102 248 -100 334 4 40 48 55 102 48 177 -7 77 -45 131 -117 169 -68 34 -127
35 -196 3z m184 -15 c73 -38 112 -104 112 -191 0 -66 -18 -108 -65 -149 -97
-85 -200 -79 -287 17 -45 50 -52 73 -46 157 3 53 9 71 34 102 65 80 169 106
252 64z"/>
<path d="M1366 1629 c-20 -56 -34 -104 -31 -107 8 -8 35 27 35 45 0 9 16 13
51 13 47 0 51 -2 60 -30 6 -16 17 -30 25 -30 10 0 6 20 -17 83 -17 45 -33 92
-36 105 -4 15 -13 22 -27 22 -19 0 -28 -15 -60 -101z m88 -6 c7 -21 4 -23 -28
-23 -41 0 -45 11 -20 68 l16 37 13 -30 c7 -16 16 -40 19 -52z"/>
<path d="M1576 1574 c-11 -8 -14 -14 -8 -14 17 0 16 -97 0 -103 -7 -3 5 -5 27
-5 22 0 32 2 23 5 -13 3 -18 18 -20 68 -3 61 -4 63 -22 49z"/>
<path d="M2470 1780 c-12 -8 -11 -10 8 -10 12 0 22 5 22 10 0 13 -11 13 -30 0z"/>
<path d="M3418 1765 c-158 -83 -154 -320 6 -400 151 -75 320 30 320 200 0 171
-175 278 -326 200z m209 -21 c82 -48 122 -161 89 -247 -45 -118 -177 -173
-283 -118 -146 74 -150 295 -8 368 74 39 133 38 202 -3z"/>
<path d="M3396 1629 c-42 -116 -40 -109 -22 -109 8 0 17 14 21 30 6 28 9 30
56 30 47 0 51 -2 60 -30 6 -16 17 -30 25 -30 10 0 4 26 -22 97 -42 115 -40
113 -63 113 -14 0 -27 -23 -55 -101z m78 24 c9 -26 16 -48 16 -50 0 -2 -18 -3
-39 -3 l-39 0 16 50 c10 27 20 50 24 50 3 0 13 -21 22 -47z"/>
<path d="M3580 1591 c0 -6 12 -9 27 -8 44 3 43 -36 -1 -77 -20 -18 -36 -35
-36 -39 0 -4 24 -6 53 -5 43 1 45 2 15 5 -21 2 -38 7 -38 9 0 3 14 19 30 36
32 31 38 56 18 76 -14 14 -68 16 -68 3z"/>
<path d="M2520 1776 c0 -2 9 -6 20 -9 11 -3 20 -1 20 4 0 5 -9 9 -20 9 -11 0
-20 -2 -20 -4z"/>
<path d="M2405 1760 c-3 -5 1 -10 9 -10 8 0 18 5 21 10 3 6 -1 10 -9 10 -8 0
-18 -4 -21 -10z"/>
<path d="M2580 1761 c0 -11 31 -24 39 -16 3 3 -1 10 -9 15 -19 12 -30 12 -30
1z"/>
<path d="M2365 1736 c-11 -8 -14 -15 -8 -19 6 -4 16 0 23 8 17 21 8 28 -15 11z"/>
<path d="M2636 1732 c-3 -6 1 -15 8 -21 8 -7 17 -8 20 -3 3 6 -1 15 -8 21 -8
7 -17 8 -20 3z"/>
<path d="M1970 1655 l0 -55 -61 0 c-60 0 -60 0 -57 -27 3 -27 6 -28 61 -31
l57 -3 0 -54 c0 -52 1 -55 25 -55 24 0 25 3 25 55 l0 55 55 0 c54 0 55 0 55
30 0 30 -1 30 -55 30 l-55 0 0 55 c0 52 -1 55 -25 55 -24 0 -25 -3 -25 -55z"/>
<path d="M2320 1685 c-7 -8 -8 -15 -2 -15 5 0 15 7 22 15 7 8 8 15 2 15 -5 0
-15 -7 -22 -15z"/>
<path d="M2680 1669 c7 -11 14 -18 17 -15 8 8 -5 36 -17 36 -7 0 -7 -6 0 -21z"/>
<path d="M2387 1663 c-15 -14 -5 -19 40 -19 37 1 48 -3 51 -16 3 -14 -3 -18
-30 -18 -71 0 -105 -62 -53 -96 20 -13 31 -15 49 -6 13 6 33 8 45 5 20 -5 21
-1 21 54 0 79 -17 103 -74 103 -23 0 -46 -3 -49 -7z m93 -97 c0 -25 -16 -36
-55 -36 -27 0 -36 17 -23 43 6 11 20 17 43 17 30 0 35 -3 35 -24z"/>
<path d="M2296 1634 c-9 -22 3 -32 14 -14 12 19 12 30 1 30 -5 0 -12 -7 -15
-16z"/>
<path d="M2870 1625 l0 -25 135 0 135 0 0 25 0 25 -135 0 -135 0 0 -25z"/>
<path d="M2702 1623 c2 -9 8 -18 15 -20 7 -3 9 3 6 16 -6 25 -26 28 -21 4z"/>
<path d="M2287 1576 c-4 -10 -5 -21 -2 -24 9 -9 17 6 13 25 -3 17 -4 17 -11
-1z"/>
<path d="M2556 1581 c-3 -5 9 -8 26 -7 40 1 52 -28 16 -40 l-23 -7 23 -8 c17
-6 22 -15 20 -31 -2 -19 -9 -23 -35 -22 -18 1 -33 -2 -33 -8 0 -5 16 -8 36 -6
46 4 65 29 46 59 -10 15 -10 24 -2 34 18 22 1 45 -35 45 -19 0 -36 -4 -39 -9z"/>
<path d="M2710 1550 c0 -16 5 -30 10 -30 6 0 10 14 10 30 0 17 -4 30 -10 30
-5 0 -10 -13 -10 -30z"/>
<path d="M2870 1515 l0 -25 135 0 135 0 0 25 0 25 -135 0 -135 0 0 -25z"/>
<path d="M2290 1511 c0 -12 5 -21 10 -21 6 0 10 6 10 14 0 8 -4 18 -10 21 -5
3 -10 -3 -10 -14z"/>
<path d="M2696 1484 c-9 -22 3 -32 14 -14 12 19 12 30 1 30 -5 0 -12 -7 -15
-16z"/>
<path d="M2310 1449 c7 -11 14 -18 17 -15 8 8 -5 36 -17 36 -7 0 -7 -6 0 -21z"/>
<path d="M2671 1436 c-8 -9 -11 -19 -7 -23 9 -9 29 13 24 27 -2 8 -8 7 -17 -4z"/>
<path d="M2342 1409 c2 -7 10 -15 17 -17 8 -3 12 1 9 9 -2 7 -10 15 -17 17 -8
3 -12 -1 -9 -9z"/>
<path d="M2625 1389 c-4 -6 -5 -13 -2 -16 7 -7 27 6 27 18 0 12 -17 12 -25 -2z"/>
<path d="M2394 1365 c21 -16 32 -13 21 4 -3 6 -14 11 -23 11 -15 -1 -15 -2 2
-15z"/>
<path d="M2570 1360 c-8 -5 -12 -12 -9 -15 8 -8 39 5 39 16 0 11 -11 11 -30
-1z"/>
<path d="M2440 1351 c0 -11 31 -24 39 -16 3 3 -1 10 -9 15 -19 12 -30 12 -30
1z"/>
<path d="M1806 1312 c32 -21 77 -49 99 -62 l40 -25 -17 26 c-21 33 -13 65 21
84 24 13 16 14 -88 15 l-114 0 59 -38z"/>
<path d="M2500 1340 c0 -5 9 -10 20 -10 11 0 20 5 20 10 0 6 -9 10 -20 10 -11
0 -20 -4 -20 -10z"/>
<path d="M1946 1291 c-3 -5 6 -12 20 -15 29 -8 39 -3 29 13 -8 13 -42 14 -49
2z"/>
<path d="M2025 1271 c-3 -5 4 -13 16 -16 23 -8 34 -1 24 14 -8 13 -32 14 -40
2z"/>
<path d="M2100 1246 c0 -10 9 -16 25 -16 14 0 25 5 25 10 0 6 -4 10 -9 10 -5
0 -16 3 -25 6 -11 4 -16 1 -16 -10z"/>
<path d="M2180 1226 c0 -18 35 -22 45 -6 3 6 2 10 -4 10 -5 0 -16 3 -25 6 -11
4 -16 1 -16 -10z"/>
<path d="M2250 1206 c0 -9 4 -16 9 -16 5 0 16 -3 25 -6 11 -4 16 -1 16 10 0 9
-4 16 -9 16 -5 0 -16 3 -25 6 -11 4 -16 1 -16 -10z"/>
<path d="M2330 1180 c0 -5 7 -10 15 -10 8 0 18 0 22 -1 4 0 9 4 11 10 2 6 -8
11 -22 11 -14 0 -26 -4 -26 -10z"/>
<path d="M2400 1161 c0 -11 40 -22 53 -14 5 3 3 9 -4 14 -18 11 -49 11 -49 0z"/>
<path d="M2482 1138 c5 -15 48 -24 48 -10 0 10 -23 22 -42 22 -5 0 -8 -6 -6
-12z"/>
<path d="M2562 1118 c5 -15 48 -24 48 -10 0 10 -23 22 -42 22 -5 0 -8 -6 -6
-12z"/>
<path d="M2634 1099 c-3 -5 3 -12 13 -16 10 -3 21 -8 26 -10 4 -2 7 2 7 10 0
17 -37 30 -46 16z"/>
<path d="M2710 1077 c0 -8 11 -17 25 -19 17 -4 25 -1 25 8 0 8 -4 14 -9 14 -5
0 -16 3 -25 6 -10 4 -16 1 -16 -9z"/>
<path d="M2790 1051 c0 -12 29 -23 41 -15 5 3 7 10 4 15 -8 12 -45 12 -45 0z"/>
<path d="M2860 1031 c0 -11 40 -22 52 -15 5 3 6 10 3 15 -8 12 -55 12 -55 0z"/>
<path d="M2940 1011 c0 -12 39 -25 48 -16 7 7 -17 25 -35 25 -7 0 -13 -4 -13
-9z"/>
<path d="M3020 986 c0 -10 9 -16 25 -16 14 0 25 5 25 10 0 6 -4 10 -9 10 -5 0
-16 3 -25 6 -11 4 -16 1 -16 -10z"/>
<path d="M3095 970 c-3 -6 4 -14 17 -19 26 -10 39 6 17 20 -18 11 -26 11 -34
-1z"/>
<path d="M3452 941 c-61 -21 -96 -51 -123 -103 -49 -96 -30 -209 47 -277 75
-66 153 -78 240 -37 83 39 143 141 131 226 -13 97 -79 173 -171 197 -62 16
-60 16 -124 -6z m141 -17 c123 -42 175 -201 100 -307 -75 -107 -201 -128 -293
-50 -122 105 -99 287 45 354 49 23 88 24 148 3z"/>
<path d="M3427 858 c-8 -24 -27 -73 -41 -110 -20 -52 -23 -68 -12 -68 8 0 19
14 25 30 9 28 13 30 60 30 46 0 50 -2 60 -30 5 -16 15 -30 20 -30 16 0 15 5
-25 118 -42 118 -62 131 -87 60z m51 -37 c17 -56 16 -61 -23 -61 -19 0 -35 1
-35 3 0 15 34 97 39 97 4 0 13 -17 19 -39z"/>
<path d="M3606 745 c-17 -13 -18 -15 -3 -15 25 0 24 -85 0 -99 -14 -8 -10 -10
22 -10 22 0 34 3 28 6 -9 3 -13 27 -13 69 0 68 -3 72 -34 49z"/>
<path d="M1440 940 c0 -5 11 -10 25 -10 14 0 25 5 25 10 0 6 -11 10 -25 10
-14 0 -25 -4 -25 -10z"/>
<path d="M1510 940 c0 -5 9 -10 21 -10 11 0 17 5 14 10 -3 6 -13 10 -21 10 -8
0 -14 -4 -14 -10z"/>
<path d="M1397 933 c-13 -13 -7 -21 13 -16 11 3 17 9 14 14 -6 11 -18 12 -27
2z"/>
<path d="M1572 928 c5 -15 28 -23 28 -10 0 5 -7 13 -16 16 -10 4 -14 1 -12 -6z"/>
<path d="M2460 930 c0 -5 9 -10 19 -10 11 0 23 5 26 10 4 6 -5 10 -19 10 -14
0 -26 -4 -26 -10z"/>
<path d="M2530 930 c0 -5 9 -10 20 -10 11 0 20 5 20 10 0 6 -9 10 -20 10 -11
0 -20 -4 -20 -10z"/>
<path d="M2417 923 c-13 -13 -7 -21 13 -16 11 3 20 9 20 14 0 10 -24 12 -33 2z"/>
<path d="M2592 918 c5 -15 28 -23 28 -10 0 5 -7 13 -16 16 -10 4 -14 1 -12 -6z"/>
<path d="M1350 900 c-8 -5 -11 -12 -7 -16 4 -4 15 0 24 9 18 18 8 23 -17 7z"/>
<path d="M1622 889 c2 -7 10 -15 17 -17 8 -3 12 1 9 9 -2 7 -10 15 -17 17 -8
3 -12 -1 -9 -9z"/>
<path d="M2365 889 c-12 -19 5 -23 22 -6 16 16 16 17 1 17 -9 0 -20 -5 -23
-11z"/>
<path d="M2640 882 c0 -5 7 -13 16 -16 10 -4 14 -1 12 6 -5 15 -28 23 -28 10z"/>
<path d="M1306 854 c-9 -22 3 -32 14 -14 12 19 12 30 1 30 -5 0 -12 -7 -15
-16z"/>
<path d="M1660 848 c0 -18 18 -34 28 -24 3 4 -2 14 -11 23 -16 16 -17 16 -17
1z"/>
<path d="M1970 805 l0 -55 -60 0 c-57 0 -60 -1 -60 -25 0 -24 3 -25 60 -25
l60 0 0 -55 c0 -52 1 -55 25 -55 24 0 25 3 25 55 l0 55 55 0 c52 0 55 1 55 25
0 24 -3 25 -55 25 l-55 0 0 55 c0 52 -1 55 -25 55 -24 0 -25 -3 -25 -55z"/>
<path d="M2326 844 c-9 -24 -7 -28 9 -14 17 14 20 30 6 30 -5 0 -12 -7 -15
-16z"/>
<path d="M2680 845 c0 -18 19 -40 26 -32 4 4 0 15 -9 24 -9 10 -17 13 -17 8z"/>
<path d="M1388 833 c-33 -9 -18 -22 29 -25 60 -4 67 -23 11 -32 -53 -9 -68
-21 -68 -56 0 -39 19 -50 79 -48 l51 2 0 73 c0 39 -3 74 -8 77 -13 8 -76 14
-94 9z m80 -97 c3 -11 -4 -26 -14 -33 -46 -34 -97 4 -53 40 28 22 63 18 67 -7z"/>
<path d="M2408 833 c-32 -8 -19 -22 24 -25 55 -4 61 -24 9 -33 -53 -9 -78 -37
-65 -73 9 -25 13 -27 72 -28 l62 -1 0 61 c0 34 -6 70 -12 79 -14 18 -61 29
-90 20z m72 -103 c0 -23 -5 -31 -25 -36 -34 -8 -55 1 -55 26 0 21 28 38 63 39
12 1 17 -7 17 -29z"/>
<path d="M1277 800 c-6 -24 8 -36 17 -14 8 22 7 34 -3 34 -5 0 -11 -9 -14 -20z"/>
<path d="M2300 790 c0 -11 5 -20 10 -20 6 0 10 9 10 20 0 11 -4 20 -10 20 -5
0 -10 -9 -10 -20z"/>
<path d="M2870 785 l0 -25 135 0 135 0 0 25 0 25 -135 0 -135 0 0 -25z"/>
<path d="M1680 793 c0 -14 19 -38 25 -32 8 8 -5 39 -16 39 -5 0 -9 -3 -9 -7z"/>
<path d="M2706 776 c3 -9 11 -16 16 -16 13 0 5 23 -10 28 -7 2 -10 -2 -6 -12z"/>
<path d="M1270 729 c0 -11 5 -17 10 -14 6 3 10 13 10 21 0 8 -4 14 -10 14 -5
0 -10 -9 -10 -21z"/>
<path d="M1566 735 c-17 -13 -18 -15 -3 -15 13 0 17 -9 17 -45 0 -33 -4 -45
-15 -45 -8 0 -15 -4 -15 -10 0 -5 16 -10 35 -10 19 0 35 5 35 10 0 6 -4 10
-10 10 -6 0 -10 27 -10 60 0 64 -3 68 -34 45z"/>
<path d="M2290 731 c0 -12 5 -21 10 -21 6 0 10 6 10 14 0 8 -4 18 -10 21 -5 3
-10 -3 -10 -14z"/>
<path d="M2564 736 c-18 -13 -17 -14 16 -13 50 3 52 -25 4 -74 l-38 -39 54 2
c44 1 48 2 17 5 l-38 4 31 35 c35 40 38 69 11 84 -26 13 -33 13 -57 -4z"/>
<path d="M1690 709 c0 -17 4 -28 10 -24 6 3 10 17 10 31 0 13 -4 24 -10 24 -5
0 -10 -14 -10 -31z"/>
<path d="M2710 705 c0 -14 5 -25 10 -25 6 0 10 11 10 25 0 14 -4 25 -10 25 -5
0 -10 -11 -10 -25z"/>
<path d="M2872 673 l3 -28 133 -3 132 -3 0 31 0 30 -136 0 -135 0 3 -27z"/>
<path d="M1270 675 c0 -8 5 -15 10 -15 6 0 10 7 10 15 0 8 -4 15 -10 15 -5 0
-10 -7 -10 -15z"/>
<path d="M2294 679 c-3 -6 -1 -16 5 -22 8 -8 11 -5 11 11 0 24 -5 28 -16 11z"/>
<path d="M1680 639 c0 -11 5 -17 10 -14 6 3 10 13 10 21 0 8 -4 14 -10 14 -5
0 -10 -9 -10 -21z"/>
<path d="M2705 647 c-4 -10 -5 -21 -1 -24 10 -10 18 4 13 24 -4 17 -4 17 -12
0z"/>
<path d="M1290 628 c0 -18 18 -34 28 -24 3 4 -2 14 -11 23 -16 16 -17 16 -17
1z"/>
<path d="M2310 616 c0 -15 18 -31 26 -23 7 7 -7 37 -17 37 -5 0 -9 -6 -9 -14z"/>
<path d="M1651 596 c-8 -9 -8 -16 -2 -20 6 -4 15 3 21 14 12 23 -2 27 -19 6z"/>
<path d="M2671 586 c-8 -9 -8 -16 -2 -20 6 -4 15 3 21 14 12 23 -2 27 -19 6z"/>
<path d="M1326 582 c-3 -6 1 -15 8 -21 8 -7 17 -8 20 -3 3 6 -1 15 -8 21 -8 7
-17 8 -20 3z"/>
<path d="M2346 572 c-3 -6 1 -15 8 -21 8 -7 17 -8 20 -3 3 6 -1 15 -8 21 -8 7
-17 8 -20 3z"/>
<path d="M1610 555 c-17 -21 -8 -28 15 -11 11 8 14 15 8 19 -6 4 -16 0 -23 -8z"/>
<path d="M2630 545 c-17 -21 -9 -27 13 -10 10 7 14 16 9 19 -5 3 -15 -1 -22
-9z"/>
<path d="M1372 538 c5 -15 28 -23 28 -10 0 5 -7 13 -16 16 -10 4 -14 1 -12 -6z"/>
<path d="M2392 529 c2 -7 10 -15 17 -17 8 -3 12 1 9 9 -2 7 -10 15 -17 17 -8
3 -12 -1 -9 -9z"/>
<path d="M1545 520 c-3 -5 3 -10 14 -10 12 0 21 5 21 10 0 6 -6 10 -14 10 -8
0 -18 -4 -21 -10z"/>
<path d="M2575 520 c-19 -7 -19 -8 -2 -15 19 -8 31 -2 26 13 -2 5 -13 6 -24 2z"/>
<path d="M1425 510 c3 -5 13 -10 21 -10 8 0 14 5 14 10 0 6 -9 10 -21 10 -11
0 -17 -4 -14 -10z"/>
<path d="M1485 510 c-3 -5 3 -10 14 -10 12 0 21 5 21 10 0 6 -6 10 -14 10 -8
0 -18 -4 -21 -10z"/>
<path d="M2452 508 c5 -15 28 -23 28 -10 0 5 -7 13 -16 16 -10 4 -14 1 -12 -6z"/>
<path d="M2505 500 c-3 -5 3 -10 14 -10 12 0 21 5 21 10 0 6 -6 10 -14 10 -8
0 -18 -4 -21 -10z"/>
<path d="M4934 4170 c-11 -4 -33 -22 -47 -40 l-27 -32 0 -1826 c1 -1467 3
-1832 14 -1850 7 -13 26 -32 42 -43 28 -18 61 -19 1322 -19 1426 0 1327 -4
1366 60 15 26 16 179 16 1850 0 1174 -3 1828 -10 1839 -5 11 -23 31 -41 45
l-31 26 -1291 -1 c-711 0 -1301 -4 -1313 -9z m2625 -26 c54 -38 51 58 51
-1874 0 -1938 3 -1836 -53 -1873 -24 -16 -118 -17 -1320 -17 -1289 0 -1294 0
-1320 20 -15 12 -31 38 -37 58 -13 50 -14 3573 0 3622 5 19 22 45 37 57 l28
23 1295 0 c1182 0 1298 -1 1319 -16z"/>
<path d="M5135 3984 c-141 -52 -186 -256 -80 -365 49 -52 98 -72 168 -72 111
1 205 92 215 207 6 70 -10 114 -59 169 -62 71 -154 94 -244 61z m196 -39 c90
-65 117 -188 60 -278 -60 -93 -157 -128 -247 -88 -59 27 -81 45 -105 93 -29
57 -34 109 -15 166 10 28 24 56 32 62 12 11 14 -1 14 -80 l0 -92 71 4 c55 3
74 8 85 23 19 26 17 52 -5 74 -17 17 -18 24 -8 50 15 41 -2 59 -61 63 l-47 3
30 18 c48 28 143 19 196 -18z m-146 -55 c0 -22 -5 -25 -42 -28 -42 -3 -43 -2
-43 28 0 30 1 31 43 28 37 -3 42 -6 42 -28z m18 -67 c4 -2 7 -15 7 -28 0 -29
-26 -45 -74 -45 -35 0 -36 1 -36 38 0 21 3 42 7 46 7 7 80 -1 96 -11z"/>
<path d="M5303 3793 c20 -2 37 -9 37 -15 0 -6 -14 -35 -30 -65 -17 -29 -26
-53 -21 -53 9 0 71 111 71 129 0 7 -18 10 -47 9 -44 -1 -45 -2 -10 -5z"/>
<path d="M6185 3990 c-4 -6 5 -10 19 -10 14 0 26 5 26 10 0 6 -9 10 -19 10
-11 0 -23 -4 -26 -10z"/>
<path d="M6250 3990 c0 -5 9 -10 21 -10 11 0 17 5 14 10 -3 6 -13 10 -21 10
-8 0 -14 -4 -14 -10z"/>
<path d="M7150 3983 c-175 -75 -184 -331 -15 -413 117 -57 260 -2 306 117 18
47 13 146 -10 191 -51 100 -180 149 -281 105z m169 -22 c51 -27 98 -82 112
-133 14 -53 0 -134 -32 -179 -60 -85 -184 -111 -267 -56 -50 32 -91 91 -99
140 -9 56 6 124 32 155 l24 27 1 -92 0 -93 58 0 c73 0 102 18 102 65 0 25 -6
37 -21 45 -19 11 -19 13 -5 29 33 36 5 71 -55 71 -26 0 -38 4 -34 11 21 33
127 38 184 10z m-114 -71 c0 -22 -5 -25 -42 -28 -42 -3 -43 -2 -43 28 0 30 1
31 43 28 37 -3 42 -6 42 -28z m13 -78 c16 -21 15 -27 -4 -46 -9 -9 -32 -16
-55 -16 -39 0 -39 0 -39 38 0 21 3 42 7 46 12 12 77 -4 91 -22z"/>
<path d="M7290 3786 c-8 -10 -8 -20 -2 -32 7 -12 6 -24 -1 -36 -18 -28 3 -53
43 -53 42 0 61 25 42 56 -10 16 -10 24 -1 35 9 11 9 17 -1 29 -16 19 -64 19
-80 1z m68 -19 c2 -9 -4 -20 -13 -23 -20 -8 -50 19 -40 36 10 17 49 8 53 -13z
m-10 -46 c21 -13 10 -46 -16 -49 -24 -4 -38 18 -28 43 6 17 24 19 44 6z"/>
<path d="M6136 3975 c-8 -8 -19 -15 -24 -15 -5 0 -15 -7 -22 -15 -9 -10 -9
-15 -1 -15 7 0 11 -32 11 -99 l0 -98 41 -6 c52 -7 84 7 99 44 14 34 6 92 -15
109 -9 8 -31 11 -55 7 l-40 -5 0 38 c0 30 5 40 20 45 11 3 20 11 20 16 0 14
-17 11 -34 -6z m72 -117 c7 -7 12 -28 12 -48 0 -45 -15 -60 -57 -60 -33 0 -33
0 -33 50 0 36 5 52 18 59 23 14 45 14 60 -1z"/>
<path d="M6310 3971 c0 -11 26 -22 34 -14 3 3 3 10 0 14 -7 12 -34 11 -34 0z"/>
<path d="M6362 3939 c2 -7 10 -15 17 -17 8 -3 12 1 9 9 -2 7 -10 15 -17 17 -8
3 -12 -1 -9 -9z"/>
<path d="M6051 3906 c-8 -9 -11 -19 -7 -23 9 -9 29 13 24 27 -2 8 -8 7 -17 -4z"/>
<path d="M5690 3855 l0 -55 -55 0 c-52 0 -55 -1 -55 -25 0 -24 3 -25 55 -25
l55 0 0 -55 c0 -54 0 -55 30 -55 30 0 30 1 30 55 l0 55 55 0 c52 0 55 1 55 25
0 24 -3 25 -55 25 l-55 0 0 55 c0 54 0 55 -30 55 -30 0 -30 -1 -30 -55z"/>
<path d="M6400 3903 c0 -14 19 -38 25 -32 8 8 -5 39 -16 39 -5 0 -9 -3 -9 -7z"/>
<path d="M6026 3854 c-8 -21 -8 -24 3 -24 12 0 22 28 12 35 -5 3 -12 -2 -15
-11z"/>
<path d="M6600 3830 l0 -31 133 3 132 3 0 25 0 25 -132 3 -133 3 0 -31z"/>
<path d="M6430 3831 c0 -12 5 -21 10 -21 6 0 10 6 10 14 0 8 -4 18 -10 21 -5
3 -10 -3 -10 -14z"/>
<path d="M6290 3802 c0 -4 12 -8 27 -7 36 0 44 -31 11 -44 -15 -7 -17 -10 -7
-10 9 -1 22 -8 29 -16 20 -24 -6 -48 -44 -41 -22 5 -27 3 -19 -5 6 -6 26 -9
44 -7 27 2 35 8 37 27 2 13 -1 28 -6 33 -7 7 -7 16 0 28 18 29 3 50 -37 50
-19 0 -35 -4 -35 -8z"/>
<path d="M6010 3779 c0 -11 5 -17 10 -14 6 3 10 13 10 21 0 8 -4 14 -10 14 -5
0 -10 -9 -10 -21z"/>
<path d="M6440 3758 c0 -25 3 -29 10 -18 13 20 13 50 0 50 -5 0 -10 -15 -10
-32z"/>
<path d="M6600 3720 l0 -31 133 3 132 3 0 25 0 25 -132 3 -133 3 0 -31z"/>
<path d="M6010 3733 c0 -14 19 -38 25 -32 8 8 -5 39 -16 39 -5 0 -9 -3 -9 -7z"/>
<path d="M6427 3703 c-10 -9 -9 -23 2 -23 5 0 11 7 15 15 5 15 -5 20 -17 8z"/>
<path d="M6037 3683 c-4 -6 0 -19 8 -29 11 -15 14 -16 15 -4 0 21 -16 44 -23
33z"/>
<path d="M6397 3653 c-4 -3 -7 -13 -7 -21 0 -12 3 -12 15 -2 8 7 15 16 15 21
0 11 -14 12 -23 2z"/>
<path d="M6072 3619 c2 -7 10 -15 17 -17 8 -3 12 1 9 9 -2 7 -10 15 -17 17 -8
3 -12 -1 -9 -9z"/>
<path d="M6345 3601 c-10 -17 12 -21 25 -6 10 12 10 15 -3 15 -9 0 -18 -4 -22
-9z"/>
<path d="M6112 3588 c3 -7 13 -15 24 -17 16 -3 17 -1 5 13 -16 19 -34 21 -29
4z"/>
<path d="M6297 3573 c-12 -12 -7 -22 8 -17 8 4 15 10 15 15 0 11 -14 12 -23 2z"/>
<path d="M6170 3560 c0 -5 9 -10 21 -10 11 0 17 5 14 10 -3 6 -13 10 -21 10
-8 0 -14 -4 -14 -10z"/>
<path d="M6230 3551 c0 -5 9 -7 20 -4 11 3 20 7 20 9 0 2 -9 4 -20 4 -11 0
-20 -4 -20 -9z"/>
<path d="M5495 3476 c34 -23 155 -96 160 -96 3 0 0 9 -7 20 -7 10 -10 22 -7
25 6 5 118 -23 254 -65 33 -10 115 -33 182 -52 96 -26 123 -37 123 -50 0 -14
10 -17 58 -16 39 1 92 -9 167 -31 61 -18 142 -42 180 -52 39 -11 107 -31 151
-45 86 -25 114 -29 114 -16 0 8 -143 51 -495 147 -55 15 -104 31 -110 35 -5 5
-28 11 -50 15 -22 4 -77 18 -122 31 -79 23 -127 37 -345 99 -54 15 -98 31 -98
36 0 4 8 13 18 18 12 8 -12 10 -88 11 -91 0 -102 -2 -85 -14z"/>
<path d="M5180 3265 c0 -21 5 -25 30 -25 25 0 30 4 30 25 0 21 -5 25 -30 25
-25 0 -30 -4 -30 -25z"/>
<path d="M7212 3268 c2 -17 11 -24 31 -26 23 -3 27 0 27 22 0 22 -4 26 -31 26
-26 0 -30 -3 -27 -22z"/>
<path d="M5180 3108 c0 -26 3 -29 28 -26 19 2 28 9 30 24 2 17 -3 22 -27 26
-29 4 -31 2 -31 -24z"/>
<path d="M7237 3133 c-39 -6 -35 -47 6 -51 24 -3 27 0 27 27 0 17 -1 30 -2 30
-2 -1 -16 -4 -31 -6z"/>
<path d="M6200 3105 c0 -21 5 -25 30 -25 25 0 30 4 30 25 0 21 -5 25 -30 25
-25 0 -30 -4 -30 -25z"/>
<path d="M5180 2956 c0 -22 4 -26 31 -26 26 0 30 3 27 23 -2 16 -11 23 -30 25
-24 3 -28 0 -28 -22z"/>
<path d="M6207 2973 c-4 -3 -7 -15 -7 -25 0 -13 8 -18 30 -18 25 0 30 4 30 25
0 20 -5 25 -23 25 -13 0 -27 -3 -30 -7z"/>
<path d="M7217 2973 c-4 -3 -7 -15 -7 -25 0 -13 8 -18 30 -18 25 0 30 4 30 25
0 20 -5 25 -23 25 -13 0 -27 -3 -30 -7z"/>
<path d="M5123 2609 c-131 -65 -170 -221 -85 -343 53 -77 174 -109 263 -72
111 47 166 184 119 294 -52 121 -186 176 -297 121z m205 -34 c93 -66 118 -193
56 -286 -57 -85 -155 -117 -243 -79 -125 54 -166 188 -95 307 l29 48 3 -105 3
-105 70 5 c46 4 73 10 79 20 16 25 11 69 -10 87 -18 16 -18 18 -3 35 14 16 14
20 -1 42 -13 20 -25 26 -68 28 l-53 3 35 18 c55 27 145 19 198 -18z m-137 -41
c20 -24 -1 -48 -45 -52 -35 -3 -36 -2 -36 32 0 34 2 36 34 36 18 0 39 -7 47
-16z m23 -96 c19 -30 -4 -53 -58 -56 l-46 -3 0 41 0 41 46 -3 c31 -2 51 -9 58
-20z"/>
<path d="M5290 2430 c-11 -7 -7 -10 18 -10 26 0 32 -4 32 -22 0 -12 -17 -39
-37 -60 l-37 -38 54 2 c44 1 48 2 17 5 l-38 4 31 35 c35 40 38 69 11 84 -24
12 -32 12 -51 0z"/>
<path d="M6185 2620 c-3 -5 3 -10 14 -10 12 0 21 5 21 10 0 6 -6 10 -14 10 -8
0 -18 -4 -21 -10z"/>
<path d="M6250 2620 c0 -5 9 -10 21 -10 11 0 17 5 14 10 -3 6 -13 10 -21 10
-8 0 -14 -4 -14 -10z"/>
<path d="M7145 2602 c-109 -60 -150 -192 -94 -302 23 -46 76 -95 118 -109 50
-17 131 -13 176 8 132 61 166 243 67 353 -73 81 -175 100 -267 50z m211 -24
c145 -99 117 -319 -48 -374 -95 -31 -195 13 -242 107 -38 77 -31 153 20 215
l23 29 1 -97 0 -98 62 0 c43 0 67 5 80 17 25 23 23 68 -4 87 -17 12 -20 18
-10 28 16 16 15 53 -1 66 -7 6 -35 12 -62 14 l-50 3 35 17 c20 10 59 18 91 18
48 0 64 -5 105 -32z m-138 -57 c4 -28 -12 -41 -50 -41 -25 0 -28 3 -28 36 0
35 1 35 38 32 30 -2 38 -7 40 -27z m17 -101 c0 -35 0 -35 -47 -38 l-48 -3 0
41 0 41 48 -3 c47 -3 47 -3 47 -38z"/>
<path d="M7320 2430 c-11 -7 -7 -10 18 -10 38 0 45 -26 10 -39 -23 -9 -23 -9
5 -20 29 -11 32 -18 18 -40 -6 -9 -20 -12 -40 -9 -35 5 -43 -7 -10 -15 35 -9
69 9 69 37 0 14 -4 28 -10 31 -6 4 -5 13 3 26 10 17 9 22 -7 35 -23 16 -35 17
-56 4z"/>
<path d="M6140 2610 c-8 -5 -12 -12 -9 -15 8 -8 39 5 39 16 0 11 -11 11 -30
-1z"/>
<path d="M6314 2595 c21 -16 32 -13 21 4 -3 6 -14 11 -23 11 -15 -1 -15 -2 2
-15z"/>
<path d="M6093 2583 c-18 -7 -16 -23 2 -23 12 0 15 -18 15 -99 l0 -98 31 -7
c49 -10 58 -8 84 19 47 47 25 145 -33 145 -15 0 -34 -5 -42 -10 -12 -8 -16 -2
-20 32 -5 41 -14 51 -37 41z m115 -95 c7 -7 12 -31 12 -55 0 -48 -24 -69 -66
-59 -21 6 -24 12 -24 56 0 36 5 52 18 59 23 14 45 14 60 -1z"/>
<path d="M6362 2569 c2 -7 10 -15 17 -17 8 -3 12 1 9 9 -2 7 -10 15 -17 17 -8
3 -12 -1 -9 -9z"/>
<path d="M5690 2491 l0 -61 -55 0 c-52 0 -55 -1 -55 -25 0 -24 3 -25 55 -25
l55 0 0 -55 c0 -54 0 -55 30 -55 30 0 30 1 30 55 l0 55 55 0 c52 0 55 1 55 25
0 24 -3 25 -55 25 l-54 0 -3 58 c-3 54 -4 57 -30 60 -28 3 -28 3 -28 -57z"/>
<path d="M6047 2533 c-10 -9 -9 -23 2 -23 5 0 11 7 15 15 5 15 -5 20 -17 8z"/>
<path d="M6400 2528 c0 -9 5 -20 11 -23 17 -11 20 0 4 21 -13 17 -14 17 -15 2z"/>
<path d="M6020 2469 c0 -11 5 -17 10 -14 6 3 10 13 10 21 0 8 -4 14 -10 14 -5
0 -10 -9 -10 -21z"/>
<path d="M6600 2465 l0 -25 135 0 135 0 0 25 0 25 -135 0 -135 0 0 -25z"/>
<path d="M6427 2460 c3 -11 9 -20 14 -20 11 0 11 3 3 24 -9 23 -23 20 -17 -4z"/>
<path d="M6317 2425 c-15 -11 -16 -13 -2 -19 23 -8 21 -93 -2 -99 -10 -3 0 -5
22 -5 22 0 32 2 23 5 -13 3 -18 18 -20 68 -3 59 -4 63 -21 50z"/>
<path d="M6010 2414 c0 -8 5 -12 10 -9 6 3 10 10 10 16 0 5 -4 9 -10 9 -5 0
-10 -7 -10 -16z"/>
<path d="M6438 2395 c-3 -14 -1 -28 3 -31 5 -3 9 9 9 25 0 38 -6 40 -12 6z"/>
<path d="M6600 2355 l0 -25 135 0 135 0 0 25 0 25 -135 0 -135 0 0 -25z"/>
<path d="M6010 2363 c0 -5 5 -15 10 -23 8 -12 10 -11 10 8 0 12 -4 22 -10 22
-5 0 -10 -3 -10 -7z"/>
<path d="M6420 2319 c0 -11 5 -17 10 -14 6 3 10 13 10 21 0 8 -4 14 -10 14 -5
0 -10 -9 -10 -21z"/>
<path d="M6037 2313 c-4 -6 0 -19 8 -29 11 -15 14 -16 15 -4 0 21 -16 44 -23
33z"/>
<path d="M6394 2275 c-9 -22 1 -29 15 -11 8 10 9 16 1 21 -5 3 -13 -1 -16 -10z"/>
<path d="M6066 2261 c-7 -10 22 -37 30 -28 4 3 -1 13 -9 22 -9 8 -18 11 -21 6z"/>
<path d="M6345 2229 c-12 -19 5 -23 22 -6 16 16 16 17 1 17 -9 0 -20 -5 -23
-11z"/>
<path d="M6105 2221 c-3 -5 4 -13 16 -16 28 -9 36 1 10 14 -12 7 -22 7 -26 2z"/>
<path d="M6295 2200 c-3 -5 1 -10 9 -10 9 0 16 5 16 10 0 6 -4 10 -9 10 -6 0
-13 -4 -16 -10z"/>
<path d="M5485 2190 c4 -6 23 -19 43 -30 20 -12 59 -34 85 -50 39 -24 46 -26
37 -11 -13 24 -13 44 -1 36 5 -3 42 -14 83 -24 40 -10 147 -40 238 -66 370
-107 478 -138 545 -156 39 -10 99 -27 135 -37 180 -53 210 -60 215 -52 5 8
-47 25 -257 85 -105 30 -208 59 -423 121 -88 26 -178 51 -200 56 -22 5 -76 20
-120 33 -44 13 -113 33 -154 45 l-74 22 29 19 29 19 -108 0 c-71 0 -106 -4
-102 -10z"/>
<path d="M6170 2190 c0 -5 9 -10 21 -10 11 0 17 5 14 10 -3 6 -13 10 -21 10
-8 0 -14 -4 -14 -10z"/>
<path d="M6230 2181 c0 -5 9 -7 20 -4 11 3 20 7 20 9 0 2 -9 4 -20 4 -11 0
-20 -4 -20 -9z"/>
<path d="M5125 1771 c-61 -27 -111 -89 -125 -154 -44 -195 151 -346 322 -250
44 25 59 41 86 92 21 42 32 77 32 104 0 50 -31 121 -68 161 -59 62 -168 83
-247 47z m203 -33 c57 -39 96 -120 90 -191 -6 -73 -50 -136 -120 -171 -28 -14
-66 -26 -82 -26 -39 0 -124 40 -153 71 -28 31 -53 100 -53 148 0 38 45 141 61
141 5 0 9 -43 9 -95 l0 -95 60 0 c47 0 64 4 80 20 26 26 26 62 0 85 -14 13
-17 22 -10 29 14 14 13 49 -2 64 -7 7 -32 12 -56 12 -28 0 -41 4 -37 11 13 20
50 29 111 26 47 -2 71 -9 102 -29z m-143 -58 c0 -22 -5 -25 -42 -28 -42 -3
-43 -2 -43 28 0 30 1 31 43 28 37 -3 42 -6 42 -28z m23 -89 c5 -32 -21 -51
-70 -51 -38 0 -38 0 -38 41 l0 40 53 -3 c47 -3 52 -6 55 -27z"/>
<path d="M5296 1575 c-17 -13 -18 -15 -3 -15 25 0 25 -97 0 -103 -10 -3 2 -5
27 -5 25 0 37 2 28 5 -15 4 -18 16 -18 69 0 68 -3 72 -34 49z"/>
<path d="M6190 1780 c-12 -8 -11 -10 8 -10 12 0 22 5 22 10 0 13 -11 13 -30 0z"/>
<path d="M7155 1771 c-91 -41 -145 -150 -124 -249 45 -221 337 -246 425 -37
31 75 4 196 -57 252 -58 53 -168 69 -244 34z m185 -21 c70 -36 110 -103 110
-185 0 -103 -64 -182 -167 -205 -115 -26 -243 87 -243 216 0 32 46 134 61 134
5 0 9 -43 9 -95 l0 -95 60 0 c47 0 64 4 80 20 25 25 25 51 2 81 -15 18 -17 28
-9 50 15 40 -4 59 -59 59 -50 0 -57 12 -16 28 64 25 112 23 172 -8z m-125 -70
c0 -22 -5 -25 -42 -28 -42 -3 -43 -2 -43 28 0 30 1 31 43 28 37 -3 42 -6 42
-28z m21 -87 c9 -34 -16 -53 -68 -53 -38 0 -38 0 -38 40 l0 40 50 0 c45 0 50
-2 56 -27z"/>
<path d="M7304 1588 c-5 -8 -2 -9 11 -4 26 9 55 -2 55 -23 0 -9 -16 -32 -35
-51 -19 -19 -35 -38 -35 -42 0 -4 21 -7 48 -6 44 1 45 2 9 5 l-38 4 35 40 c38
42 43 58 24 77 -15 15 -65 16 -74 0z"/>
<path d="M6250 1776 c0 -9 30 -14 35 -6 4 6 -3 10 -14 10 -12 0 -21 -2 -21 -4z"/>
<path d="M6130 1760 c0 -5 6 -10 14 -10 8 0 18 5 21 10 3 6 -3 10 -14 10 -12
0 -21 -4 -21 -10z"/>
<path d="M6306 1761 c-3 -5 1 -12 10 -15 20 -8 29 -1 19 13 -8 13 -22 14 -29
2z"/>
<path d="M6092 1738 c-15 -15 -16 -32 -2 -23 6 4 10 -31 10 -98 l0 -104 43 -6
c78 -11 125 52 93 127 -16 38 -17 39 -61 34 -44 -5 -45 -5 -45 22 0 53 -15 71
-38 48z m122 -120 c6 -18 6 -38 0 -55 -8 -23 -16 -29 -47 -31 l-37 -3 0 55 c0
58 7 66 50 63 17 -1 28 -10 34 -29z"/>
<path d="M6360 1732 c0 -5 7 -15 15 -22 8 -7 15 -8 15 -2 0 5 -7 15 -15 22 -8
7 -15 8 -15 2z"/>
<path d="M5690 1655 l0 -55 -55 0 c-54 0 -55 0 -55 -30 0 -30 1 -30 55 -30
l55 0 0 -55 c0 -54 0 -55 30 -55 30 0 30 1 30 55 l0 55 55 0 c54 0 55 0 55 30
0 30 -1 30 -55 30 l-55 0 0 55 c0 54 0 55 -30 55 -30 0 -30 -1 -30 -55z"/>
<path d="M6045 1689 c-4 -6 -5 -13 -2 -16 7 -7 27 6 27 18 0 12 -17 12 -25 -2z"/>
<path d="M6404 1674 c3 -9 6 -18 6 -20 0 -3 4 -3 10 1 11 7 2 35 -12 35 -6 0
-7 -7 -4 -16z"/>
<path d="M6020 1629 c0 -11 5 -17 10 -14 6 3 10 13 10 21 0 8 -4 14 -10 14 -5
0 -10 -9 -10 -21z"/>
<path d="M6600 1625 l0 -25 135 0 135 0 0 25 0 25 -135 0 -135 0 0 -25z"/>
<path d="M6430 1623 c0 -13 5 -23 10 -23 13 0 13 11 0 30 -8 12 -10 11 -10 -7z"/>
<path d="M6010 1568 c0 -19 2 -20 10 -8 13 19 13 30 0 30 -5 0 -10 -10 -10
-22z"/>
<path d="M6290 1582 c0 -4 12 -8 27 -7 35 0 44 -30 11 -41 l-23 -7 23 -8 c17
-6 22 -15 20 -31 -2 -19 -9 -23 -35 -22 -18 1 -33 -2 -33 -8 0 -5 16 -8 36 -6
44 4 65 28 48 56 -8 12 -8 22 -1 33 17 28 1 49 -38 49 -19 0 -35 -4 -35 -8z"/>
<path d="M6438 1555 c-6 -30 -3 -43 8 -33 3 4 4 19 2 35 l-3 28 -7 -30z"/>
<path d="M6600 1515 l0 -25 135 0 135 0 0 25 0 25 -135 0 -135 0 0 -25z"/>
<path d="M6012 1513 c2 -9 8 -18 15 -20 7 -3 9 3 6 16 -6 25 -26 28 -21 4z"/>
<path d="M6427 1494 c-4 -4 -7 -14 -7 -23 0 -11 3 -12 11 -4 6 6 10 16 7 23
-2 6 -7 8 -11 4z"/>
<path d="M6030 1463 c0 -14 19 -38 25 -32 8 8 -5 39 -16 39 -5 0 -9 -3 -9 -7z"/>
<path d="M6394 1435 c-9 -22 1 -29 15 -11 8 10 9 16 1 21 -5 3 -13 -1 -16 -10z"/>
<path d="M6070 1405 c7 -8 17 -15 22 -15 6 0 5 7 -2 15 -7 8 -17 15 -22 15 -6
0 -5 -7 2 -15z"/>
<path d="M6350 1390 c-8 -5 -11 -12 -7 -16 4 -4 13 -2 19 4 15 15 7 24 -12 12z"/>
<path d="M6106 1382 c-3 -4 4 -13 14 -20 11 -6 21 -8 24 -4 3 4 -4 13 -14 20
-11 6 -21 8 -24 4z"/>
<path d="M6300 1360 c-8 -5 -11 -12 -7 -16 4 -4 13 -2 19 4 15 15 7 24 -12 12z"/>
<path d="M6165 1350 c-3 -4 4 -10 15 -13 11 -3 22 -2 25 3 3 4 -4 10 -15 13
-11 3 -22 2 -25 -3z"/>
<path d="M5481 1345 c3 -2 44 -29 91 -59 79 -49 98 -51 64 -7 -13 17 1 14 134
-24 302 -88 411 -119 455 -130 28 -7 115 -32 195 -55 156 -45 184 -53 330 -94
104 -28 120 -31 120 -17 0 5 -15 12 -32 16 -18 4 -103 27 -188 52 -85 25 -177
51 -205 58 -27 7 -122 33 -210 59 -212 61 -310 89 -425 121 -52 15 -113 33
-135 40 l-40 12 30 16 c29 16 27 16 -79 17 -60 0 -107 -2 -105 -5z"/>
<path d="M6230 1340 c0 -5 6 -10 14 -10 8 0 18 5 21 10 3 6 -3 10 -14 10 -12
0 -21 -4 -21 -10z"/>
<path d="M7195 949 c-97 -23 -168 -116 -168 -219 0 -113 84 -211 193 -226 130
-18 250 92 250 227 0 144 -135 251 -275 218z m123 -25 c153 -63 178 -270 45
-366 -73 -53 -175 -49 -245 10 -38 32 -78 115 -78 162 0 39 43 140 60 140 6 0
10 -36 10 -95 l0 -95 58 0 c73 0 102 18 102 65 0 25 -6 37 -21 46 -15 8 -18
14 -10 22 16 16 14 67 -4 73 -8 3 -33 7 -55 7 -47 2 -47 16 1 33 47 17 93 17
137 -2z m-94 -70 c10 -25 -12 -44 -50 -44 -31 0 -34 3 -34 30 0 28 2 30 39 30
27 0 41 -5 45 -16z m6 -84 c33 -33 3 -70 -59 -70 -30 0 -31 1 -31 45 0 45 0
45 35 45 22 0 43 -8 55 -20z"/>
<path d="M7336 744 c-11 -8 -14 -14 -8 -14 17 0 16 -97 0 -103 -7 -3 5 -5 27
-5 22 0 32 2 23 5 -13 3 -18 18 -20 68 -3 61 -4 63 -22 49z"/>
<path d="M5170 940 c0 -5 9 -10 20 -10 11 0 20 5 20 10 0 6 -9 10 -20 10 -11
0 -20 -4 -20 -10z"/>
<path d="M5230 940 c0 -5 9 -10 20 -10 11 0 20 5 20 10 0 6 -9 10 -20 10 -11
0 -20 -4 -20 -10z"/>
<path d="M5122 933 c-6 -2 -10 -9 -7 -13 7 -11 35 -2 35 11 0 10 -8 10 -28 2z"/>
<path d="M5290 930 c0 -12 28 -25 36 -17 3 3 -4 10 -15 17 -15 7 -21 7 -21 0z"/>
<path d="M6190 930 c0 -5 9 -10 20 -10 11 0 20 5 20 10 0 6 -9 10 -20 10 -11
0 -20 -4 -20 -10z"/>
<path d="M6250 930 c0 -5 9 -10 20 -10 11 0 20 5 20 10 0 6 -9 10 -20 10 -11
0 -20 -4 -20 -10z"/>
<path d="M6135 920 c-3 -5 3 -10 14 -10 12 0 21 5 21 10 0 6 -6 10 -14 10 -8
0 -18 -4 -21 -10z"/>
<path d="M6310 921 c0 -5 7 -12 16 -15 24 -9 28 -7 14 9 -14 17 -30 20 -30 6z"/>
<path d="M5070 895 c-10 -12 -10 -15 4 -15 14 0 16 -15 16 -105 l0 -105 54 0
c45 0 58 4 70 22 23 33 21 103 -4 128 -23 23 -29 24 -64 10 -25 -9 -26 -8 -26
29 0 26 -5 41 -16 45 -21 8 -20 8 -34 -9z m130 -104 c26 -50 1 -101 -51 -101
-28 0 -29 1 -29 53 0 30 3 57 7 60 14 15 63 7 73 -12z"/>
<path d="M5340 891 c0 -5 7 -12 16 -15 24 -9 28 -7 14 9 -14 17 -30 20 -30 6z"/>
<path d="M6090 885 c-10 -12 -10 -15 4 -15 14 0 16 -14 16 -100 l0 -100 49 0
c42 0 53 4 70 26 29 37 27 89 -5 120 -24 25 -35 26 -76 9 -15 -6 -18 -1 -18
34 0 44 -16 54 -40 26z m128 -123 c4 -54 -11 -74 -52 -70 -30 3 -31 5 -34 52
-4 55 7 68 53 64 28 -3 30 -6 33 -46z"/>
<path d="M6370 875 c7 -8 16 -12 21 -9 13 8 1 24 -18 24 -13 0 -13 -3 -3 -15z"/>
<path d="M5031 856 c-8 -9 -11 -19 -7 -23 9 -9 29 13 24 27 -2 8 -8 7 -17 -4z"/>
<path d="M5387 853 c-7 -11 10 -40 18 -31 4 4 3 14 -3 24 -5 9 -12 12 -15 7z"/>
<path d="M5690 805 l0 -55 -55 0 c-52 0 -55 -1 -55 -25 0 -24 3 -25 55 -25
l55 0 0 -55 c0 -54 0 -55 30 -55 30 0 30 1 30 55 l0 55 55 0 c52 0 55 1 55 25
0 24 -3 25 -55 25 l-55 0 0 55 c0 54 0 55 -30 55 -30 0 -30 -1 -30 -55z"/>
<path d="M6051 846 c-8 -10 -9 -16 -1 -21 5 -3 13 1 16 10 9 22 -1 29 -15 11z"/>
<path d="M6400 843 c0 -14 19 -38 25 -32 8 8 -5 39 -16 39 -5 0 -9 -3 -9 -7z"/>
<path d="M5006 803 c-4 -9 -3 -20 2 -25 6 -6 12 -1 15 11 6 25 -8 38 -17 14z"/>
<path d="M6026 794 c-8 -21 -8 -24 3 -24 12 0 22 28 12 35 -5 3 -12 -2 -15
-11z"/>
<path d="M6600 785 l0 -25 136 0 c135 0 135 0 132 23 -3 21 -7 22 -135 25
l-133 3 0 -26z"/>
<path d="M5410 786 c0 -8 5 -18 10 -21 6 -3 10 3 10 14 0 12 -4 21 -10 21 -5
0 -10 -6 -10 -14z"/>
<path d="M6430 783 c0 -5 5 -15 10 -23 8 -12 10 -11 10 8 0 12 -4 22 -10 22
-5 0 -10 -3 -10 -7z"/>
<path d="M4990 736 c0 -8 5 -18 10 -21 6 -3 10 3 10 14 0 12 -4 21 -10 21 -5
0 -10 -6 -10 -14z"/>
<path d="M5296 735 c-17 -13 -18 -15 -3 -15 13 0 17 -9 17 -45 0 -33 -4 -45
-15 -45 -8 0 -15 -4 -15 -10 0 -5 16 -10 35 -10 19 0 35 5 35 10 0 6 -4 10
-10 10 -6 0 -10 27 -10 60 0 64 -3 68 -34 45z"/>
<path d="M6015 737 c-4 -10 -5 -21 -1 -24 10 -10 18 4 13 24 -4 17 -4 17 -12
0z"/>
<path d="M6303 743 c-24 -9 -13 -20 17 -15 26 4 30 1 30 -20 0 -14 -13 -37
-30 -53 -16 -16 -30 -32 -30 -37 0 -4 21 -7 48 -7 l47 2 -38 6 -39 6 31 29
c35 34 40 70 12 86 -21 11 -29 11 -48 3z"/>
<path d="M5420 709 c0 -17 4 -28 10 -24 6 3 10 17 10 31 0 13 -4 24 -10 24 -5
0 -10 -14 -10 -31z"/>
<path d="M6440 705 c0 -14 5 -25 10 -25 6 0 10 11 10 25 0 14 -4 25 -10 25 -5
0 -10 -11 -10 -25z"/>
<path d="M6600 670 l0 -31 133 3 132 3 0 25 0 25 -132 3 -133 3 0 -31z"/>
<path d="M4996 676 c3 -9 11 -16 16 -16 13 0 5 23 -10 28 -7 2 -10 -2 -6 -12z"/>
<path d="M6017 683 c-7 -11 10 -40 18 -31 4 4 3 14 -3 24 -5 9 -12 12 -15 7z"/>
<path d="M5406 653 c-4 -9 -3 -20 2 -25 6 -6 12 -1 15 11 6 25 -8 38 -17 14z"/>
<path d="M6426 644 c-8 -21 -8 -24 3 -24 12 0 22 28 12 35 -5 3 -12 -2 -15
-11z"/>
<path d="M5017 633 c-7 -11 10 -40 18 -31 4 4 3 14 -3 24 -5 9 -12 12 -15 7z"/>
<path d="M6040 616 c0 -8 5 -18 10 -21 6 -3 10 1 10 9 0 8 -4 18 -10 21 -5 3
-10 -1 -10 -9z"/>
<path d="M5376 594 c-9 -24 -7 -28 9 -14 17 14 20 30 6 30 -5 0 -12 -7 -15
-16z"/>
<path d="M6395 589 c-4 -6 -5 -13 -2 -16 7 -7 27 6 27 18 0 12 -17 12 -25 -2z"/>
<path d="M5050 577 c0 -8 7 -17 15 -21 8 -3 15 -2 15 3 0 5 -7 14 -15 21 -12
10 -15 10 -15 -3z"/>
<path d="M6070 571 c0 -5 7 -14 15 -21 12 -10 15 -10 15 3 0 8 -7 17 -15 21
-8 3 -15 2 -15 -3z"/>
<path d="M5325 551 c-10 -17 12 -21 25 -6 10 12 10 15 -3 15 -9 0 -18 -4 -22
-9z"/>
<path d="M6351 547 c-6 -8 -8 -17 -4 -20 7 -8 33 11 33 24 0 13 -16 11 -29 -4z"/>
<path d="M5090 541 c0 -5 7 -12 16 -15 24 -9 28 -7 14 9 -14 17 -30 20 -30 6z"/>
<path d="M6110 531 c0 -11 31 -24 39 -16 3 3 -1 10 -9 15 -19 12 -30 12 -30 1z"/>
<path d="M5275 520 c-3 -5 3 -10 14 -10 12 0 21 5 21 10 0 6 -6 10 -14 10 -8
0 -18 -4 -21 -10z"/>
<path d="M5150 510 c0 -5 9 -10 20 -10 11 0 20 5 20 10 0 6 -9 10 -20 10 -11
0 -20 -4 -20 -10z"/>
<path d="M5215 510 c-3 -5 3 -10 14 -10 12 0 21 5 21 10 0 6 -6 10 -14 10 -8
0 -18 -4 -21 -10z"/>
<path d="M6170 510 c0 -7 24 -20 36 -20 13 0 1 19 -16 23 -11 3 -20 2 -20 -3z"/>
<path d="M6290 510 c0 -5 6 -10 14 -10 8 0 18 5 21 10 3 6 -3 10 -14 10 -12 0
-21 -4 -21 -10z"/>
<path d="M6230 500 c0 -5 9 -10 20 -10 11 0 20 5 20 10 0 6 -9 10 -20 10 -11
0 -20 -4 -20 -10z"/>
<path d="M12852 4160 c-66 -41 -62 92 -62 -1890 0 -1982 -4 -1849 62 -1890 33
-20 47 -20 1323 -20 1276 0 1290 0 1323 20 66 41 62 -92 62 1890 0 1982 4
1849 -62 1890 -33 20 -47 20 -1323 20 -1276 0 -1290 0 -1323 -20z m2650 -29
l33 -29 3 -1827 2 -1827 -34 -34 -34 -34 -1297 0 -1297 0 -34 34 -34 34 0
1822 0 1822 34 34 34 34 1296 0 1296 0 32 -29z"/>
<path d="M13055 3976 c-59 -27 -77 -46 -104 -106 -70 -154 34 -322 199 -322
166 0 269 172 196 327 -27 59 -46 77 -106 104 -60 27 -123 26 -185 -3z m180
-15 c183 -84 139 -367 -62 -397 -114 -17 -227 88 -227 211 0 149 155 248 289
186z"/>
<path d="M13070 3930 c0 -5 9 -10 20 -10 20 0 21 -5 18 -82 l-3 -83 -32 -3
c-35 -3 -44 -18 -15 -24 21 -5 64 9 74 25 4 7 8 51 8 100 l0 87 -35 0 c-19 0
-35 -4 -35 -10z"/>
<path d="M13218 3793 c23 -2 42 -6 42 -9 0 -2 -13 -28 -30 -57 -32 -56 -37
-72 -20 -62 10 6 70 118 70 130 0 3 -24 4 -52 3 -51 -1 -51 -2 -10 -5z"/>
<path d="M14125 3990 c-3 -5 3 -10 14 -10 11 0 23 5 26 10 3 6 -3 10 -14 10
-11 0 -23 -4 -26 -10z"/>
<path d="M14190 3990 c0 -5 7 -10 15 -10 8 0 15 5 15 10 0 6 -7 10 -15 10 -8
0 -15 -4 -15 -10z"/>
<path d="M15070 3973 c-75 -39 -111 -92 -117 -176 -7 -77 7 -125 50 -173 44
-51 99 -76 167 -76 251 0 304 352 67 441 -50 19 -110 13 -167 -16z m178 -8
c78 -33 122 -101 122 -189 0 -69 -10 -95 -55 -145 -162 -179 -435 28 -323 244
47 89 161 129 256 90z"/>
<path d="M15100 3930 c0 -5 9 -10 20 -10 20 0 21 -5 18 -82 l-3 -83 -32 -3
c-35 -3 -44 -18 -15 -24 21 -5 64 9 74 25 4 7 8 51 8 100 l0 87 -35 0 c-19 0
-35 -4 -35 -10z"/>
<path d="M15225 3789 c-4 -5 -4 -22 -1 -36 4 -13 2 -31 -4 -38 -20 -24 6 -57
42 -53 40 4 58 30 40 59 -10 15 -10 25 -3 32 18 18 -6 47 -39 47 -16 0 -32 -5
-35 -11z m63 -22 c2 -9 -4 -20 -13 -23 -20 -8 -50 19 -40 36 10 17 49 8 53
-13z m-8 -52 c17 -20 5 -45 -20 -45 -23 0 -35 22 -26 45 7 19 30 19 46 0z"/>
<path d="M14080 3980 c-20 -12 -5 -24 16 -12 9 5 12 12 7 15 -5 3 -15 2 -23
-3z"/>
<path d="M14250 3972 c0 -5 7 -13 16 -16 10 -4 14 -1 12 6 -5 15 -28 23 -28
10z"/>
<path d="M14026 3945 c-3 -8 -2 -15 3 -15 5 0 14 7 21 15 10 12 10 15 -3 15
-8 0 -17 -7 -21 -15z"/>
<path d="M14117 3935 c-5 -10 0 -15 14 -15 12 0 19 5 17 12 -6 18 -25 20 -31
3z"/>
<path d="M14302 3939 c2 -7 10 -15 17 -17 8 -3 12 1 9 9 -2 7 -10 15 -17 17
-8 3 -12 -1 -9 -9z"/>
<path d="M13992 3908 c-14 -14 -16 -28 -3 -28 9 0 24 30 18 36 -2 2 -9 -2 -15
-8z"/>
<path d="M13628 3858 l-3 -53 -57 -3 c-54 -3 -58 -5 -58 -27 0 -22 4 -24 58
-27 l57 -3 3 -52 c3 -49 5 -53 28 -53 23 0 24 3 24 55 l0 55 55 0 c52 0 55 1
55 25 0 24 -3 25 -55 25 l-55 0 0 55 c0 52 -1 55 -24 55 -23 0 -25 -4 -28 -52z"/>
<path d="M14340 3898 c0 -9 5 -20 11 -23 17 -11 20 0 4 21 -13 17 -14 17 -15
2z"/>
<path d="M14080 3880 c0 -5 9 -10 20 -10 18 0 20 -7 20 -74 0 -91 -5 -106 -36
-106 -27 0 -32 -15 -8 -24 9 -4 27 1 40 9 23 15 24 21 24 115 l0 100 -30 0
c-16 0 -30 -4 -30 -10z"/>
<path d="M13957 3845 c-4 -8 -2 -17 3 -20 6 -4 10 -4 10 -1 0 2 3 11 6 20 3 9
2 16 -4 16 -5 0 -12 -7 -15 -15z"/>
<path d="M14530 3830 l0 -30 135 0 135 0 0 30 0 30 -135 0 -135 0 0 -30z"/>
<path d="M14360 3843 c0 -14 19 -38 25 -32 8 8 -5 39 -16 39 -5 0 -9 -3 -9 -7z"/>
<path d="M14190 3800 c0 -5 13 -7 29 -4 38 8 51 -13 23 -37 l-21 -17 20 -5
c15 -4 20 -12 17 -29 -2 -19 -9 -23 -35 -23 -18 0 -33 -3 -33 -7 0 -5 16 -8
35 -8 24 0 37 6 45 19 11 21 4 51 -11 51 -5 0 -4 8 2 19 19 30 4 51 -36 51
-19 0 -35 -4 -35 -10z"/>
<path d="M13947 3785 c-4 -8 -2 -17 2 -20 5 -2 11 4 14 15 6 23 -8 27 -16 5z"/>
<path d="M14376 3768 c-3 -13 -1 -27 4 -32 7 -7 10 1 10 22 0 37 -5 41 -14 10z"/>
<path d="M14537 3744 c-4 -4 -7 -18 -7 -31 0 -23 0 -23 136 -23 l135 0 -3 28
-3 27 -126 3 c-69 1 -128 -1 -132 -4z"/>
<path d="M13950 3726 c0 -8 5 -18 10 -21 6 -3 10 3 10 14 0 12 -4 21 -10 21
-5 0 -10 -6 -10 -14z"/>
<path d="M14357 3696 c-6 -16 2 -28 14 -20 12 7 11 34 0 34 -5 0 -11 -6 -14
-14z"/>
<path d="M13970 3672 c0 -5 7 -16 16 -23 14 -12 16 -11 13 5 -4 20 -29 35 -29
18z"/>
<path d="M14331 3647 c-6 -8 -8 -17 -4 -20 7 -8 33 11 33 24 0 13 -16 11 -29
-4z"/>
<path d="M14006 3632 c-3 -6 1 -15 8 -21 8 -7 17 -8 20 -3 3 6 -1 15 -8 21 -8
7 -17 8 -20 3z"/>
<path d="M14285 3599 c-12 -19 5 -23 22 -6 16 16 16 17 1 17 -9 0 -20 -5 -23
-11z"/>
<path d="M14050 3590 c0 -12 28 -25 36 -17 3 3 -4 10 -15 17 -15 7 -21 7 -21
0z"/>
<path d="M14237 3573 c-12 -12 -7 -22 8 -17 8 4 15 10 15 15 0 11 -14 12 -23
2z"/>
<path d="M14100 3560 c0 -5 9 -10 20 -10 11 0 20 5 20 10 0 6 -9 10 -20 10
-11 0 -20 -4 -20 -10z"/>
<path d="M14164 3551 c3 -5 15 -7 26 -4 28 7 25 13 -6 13 -14 0 -23 -4 -20 -9z"/>
<path d="M13411 3487 c2 -2 46 -29 97 -61 86 -53 92 -55 79 -29 -17 32 -8 65
20 82 13 8 -10 10 -91 11 -60 0 -107 -2 -105 -3z"/>
<path d="M13610 3435 c0 -15 27 -28 41 -19 13 8 3 21 -21 27 -12 3 -20 0 -20
-8z"/>
<path d="M13680 3411 c0 -11 39 -25 47 -18 3 3 2 10 -2 16 -8 13 -45 15 -45 2z"/>
<path d="M13760 3391 c0 -11 39 -25 47 -18 3 3 2 10 -2 16 -8 13 -45 15 -45 2z"/>
<path d="M13835 3370 c-3 -6 4 -14 17 -19 27 -10 47 10 20 21 -24 10 -30 9
-37 -2z"/>
<path d="M13917 3353 c-14 -13 -6 -23 18 -23 28 0 34 15 9 24 -19 7 -19 7 -27
-1z"/>
<path d="M13990 3324 c0 -8 4 -14 9 -14 5 0 16 -3 25 -6 10 -4 16 -1 16 9 0 8
-11 17 -25 19 -17 4 -25 1 -25 -8z"/>
<path d="M14065 3300 c-3 -5 -2 -10 4 -10 5 0 16 -3 25 -6 11 -4 16 -1 16 10
0 18 -35 22 -45 6z"/>
<path d="M14138 3295 c-3 -3 -3 -17 0 -30 6 -36 52 -36 52 0 0 14 -4 25 -9 25
-5 0 -16 2 -23 5 -8 3 -17 3 -20 0z"/>
<path d="M13112 3268 c2 -17 11 -24 31 -26 23 -3 27 0 27 22 0 22 -4 26 -31
26 -26 0 -30 -3 -27 -22z"/>
<path d="M15150 3265 c0 -20 5 -25 25 -25 20 0 25 5 25 25 0 20 -5 25 -25 25
-20 0 -25 -5 -25 -25z"/>
<path d="M14222 3259 c5 -17 48 -25 48 -10 0 6 -4 11 -9 11 -5 0 -17 3 -27 7
-12 4 -15 2 -12 -8z"/>
<path d="M14296 3241 c-9 -14 34 -25 47 -12 8 8 8 11 0 11 -6 0 -18 3 -26 6
-8 3 -18 1 -21 -5z"/>
<path d="M14370 3216 c0 -9 4 -16 9 -16 5 0 16 -3 25 -6 11 -4 16 -1 16 10 0
9 -4 16 -9 16 -5 0 -16 3 -25 6 -11 4 -16 1 -16 -10z"/>
<path d="M14450 3190 c0 -5 7 -10 15 -10 8 0 18 0 22 -1 4 0 9 4 11 10 2 6 -8
11 -22 11 -14 0 -26 -4 -26 -10z"/>
<path d="M14520 3171 c0 -9 41 -23 48 -16 2 2 1 8 -3 14 -8 13 -45 15 -45 2z"/>
<path d="M14602 3148 c5 -15 48 -24 48 -10 0 10 -23 22 -42 22 -5 0 -8 -6 -6
-12z"/>
<path d="M13137 3133 c-39 -6 -35 -47 6 -51 24 -3 27 0 27 27 0 17 -1 30 -2
30 -2 -1 -16 -4 -31 -6z"/>
<path d="M14160 3131 c-36 -9 -34 -45 3 -49 24 -3 27 0 27 27 0 17 -1 30 -2
30 -2 -1 -14 -4 -28 -8z"/>
<path d="M14675 3130 c-7 -11 42 -26 53 -16 7 8 -17 26 -35 26 -6 0 -15 -4
-18 -10z"/>
<path d="M15150 3105 c0 -20 5 -25 25 -25 20 0 25 5 25 25 0 20 -5 25 -25 25
-20 0 -25 -5 -25 -25z"/>
<path d="M14752 3110 c6 -20 48 -33 48 -15 0 8 -4 15 -9 15 -5 0 -17 3 -27 7
-11 4 -15 2 -12 -7z"/>
<path d="M13117 2973 c-4 -3 -7 -15 -7 -25 0 -13 8 -18 30 -18 25 0 30 4 30
25 0 20 -5 25 -23 25 -13 0 -27 -3 -30 -7z"/>
<path d="M14138 2974 c-14 -13 6 -44 28 -44 19 0 24 5 24 25 0 20 -5 25 -23
25 -13 0 -26 -3 -29 -6z"/>
<path d="M15150 2955 c0 -20 5 -25 25 -25 20 0 25 5 25 25 0 20 -5 25 -25 25
-20 0 -25 -5 -25 -25z"/>
<path d="M13043 2600 c-160 -92 -149 -334 19 -404 48 -20 128 -20 176 0 168
70 177 321 13 406 -74 39 -138 38 -208 -2z m195 -9 c171 -88 143 -341 -43
-392 -99 -28 -210 41 -241 148 -29 98 16 196 111 246 42 23 127 21 173 -2z"/>
<path d="M13060 2560 c0 -5 11 -10 25 -10 25 0 25 -1 25 -80 0 -87 -12 -105
-60 -93 -17 4 -21 2 -18 -8 7 -21 78 -16 95 7 8 11 13 49 13 106 l0 88 -40 0
c-22 0 -40 -4 -40 -10z"/>
<path d="M13195 2430 c-16 -7 -13 -9 18 -9 31 -1 37 -4 37 -22 0 -12 -16 -36
-35 -55 -19 -18 -35 -35 -35 -38 0 -3 24 -5 53 -4 47 1 48 2 11 5 l-41 4 34
34 c37 37 42 69 14 85 -23 12 -29 12 -56 0z"/>
<path d="M14120 2620 c0 -5 9 -10 20 -10 11 0 20 5 20 10 0 6 -9 10 -20 10
-11 0 -20 -4 -20 -10z"/>
<path d="M14190 2620 c0 -5 7 -10 15 -10 8 0 15 5 15 10 0 6 -7 10 -15 10 -8
0 -15 -4 -15 -10z"/>
<path d="M15095 2611 c-80 -37 -125 -103 -132 -194 -4 -54 -1 -69 24 -117 40
-75 94 -112 172 -118 32 -2 76 1 96 8 47 16 114 75 132 117 19 47 16 150 -6
198 -48 105 -182 154 -286 106z m159 -11 c83 -31 144 -138 130 -227 -18 -120
-139 -204 -250 -173 -180 51 -209 300 -43 387 45 25 118 30 163 13z"/>
<path d="M15100 2561 c0 -5 10 -11 23 -13 21 -3 22 -8 22 -80 -1 -43 -4 -80
-8 -84 -4 -4 -21 -7 -37 -6 -20 0 -30 -4 -27 -11 6 -19 46 -20 73 -3 23 16 24
22 24 111 l0 95 -35 0 c-19 0 -35 -4 -35 -9z"/>
<path d="M15233 2433 c-23 -9 -13 -18 20 -18 24 0 32 -4 31 -17 -2 -22 12 -24
20 -3 11 29 -34 53 -71 38z"/>
<path d="M15250 2370 c0 -5 9 -10 21 -10 15 0 20 -5 17 -22 -2 -19 -9 -23 -35
-23 -38 0 -43 -10 -11 -18 26 -7 68 17 68 38 0 7 -7 21 -16 29 -17 18 -44 21
-44 6z"/>
<path d="M14080 2610 c-8 -5 -12 -12 -9 -15 8 -8 39 5 39 16 0 11 -11 11 -30
-1z"/>
<path d="M14254 2595 c21 -16 32 -13 21 4 -3 6 -14 11 -23 11 -15 -1 -15 -2 2
-15z"/>
<path d="M14030 2580 c-8 -5 -11 -12 -7 -16 4 -4 15 0 24 9 18 18 8 23 -17 7z"/>
<path d="M14302 2569 c2 -7 10 -15 17 -17 8 -3 12 1 9 9 -2 7 -10 15 -17 17
-8 3 -12 -1 -9 -9z"/>
<path d="M14120 2560 c0 -5 7 -10 15 -10 8 0 15 5 15 10 0 6 -7 10 -15 10 -8
0 -15 -4 -15 -10z"/>
<path d="M13628 2493 l-3 -58 -57 -3 c-54 -3 -58 -5 -58 -27 0 -24 3 -25 61
-25 l61 0 -4 -55 c-3 -54 -3 -55 25 -55 26 0 27 2 27 55 l0 55 55 0 c52 0 55
1 55 25 0 24 -3 25 -55 25 l-55 0 0 60 c0 57 -1 60 -25 60 -22 0 -24 -4 -27
-57z"/>
<path d="M13985 2529 c-4 -6 -5 -13 -2 -16 7 -7 27 6 27 18 0 12 -17 12 -25
-2z"/>
<path d="M14340 2528 c0 -18 18 -34 28 -24 3 4 -2 14 -11 23 -16 16 -17 16
-17 1z"/>
<path d="M14090 2511 c0 -6 7 -11 15 -11 13 0 15 -14 13 -87 l-3 -88 -28 -3
c-16 -2 -27 -8 -24 -15 6 -18 40 -20 62 -3 18 13 20 26 20 113 l0 98 -27 3
c-16 2 -28 -1 -28 -7z"/>
<path d="M13957 2475 c-4 -8 -2 -17 3 -20 6 -4 10 -4 10 -1 0 2 3 11 6 20 3 9
2 16 -4 16 -5 0 -12 -7 -15 -15z"/>
<path d="M14530 2465 l0 -25 135 0 135 0 0 25 0 25 -135 0 -135 0 0 -25z"/>
<path d="M14360 2473 c0 -14 19 -38 25 -32 8 8 -5 39 -16 39 -5 0 -9 -3 -9 -7z"/>
<path d="M13946 2415 c-3 -8 -1 -15 4 -15 6 0 10 7 10 15 0 8 -2 15 -4 15 -2
0 -6 -7 -10 -15z"/>
<path d="M14216 2421 c-18 -7 -18 -8 -3 -14 25 -9 24 -94 0 -100 -10 -3 2 -5
27 -5 25 0 37 2 28 5 -15 4 -18 16 -18 64 0 61 -2 63 -34 50z"/>
<path d="M14373 2390 c-1 -17 2 -30 7 -30 6 0 10 14 10 30 0 39 -14 39 -17 0z"/>
<path d="M14530 2355 l0 -25 135 0 135 0 0 25 0 25 -135 0 -135 0 0 -25z"/>
<path d="M13950 2356 c0 -8 5 -18 10 -21 6 -3 10 3 10 14 0 12 -4 21 -10 21
-5 0 -10 -6 -10 -14z"/>
<path d="M14357 2326 c-6 -16 2 -28 14 -20 12 7 11 34 0 34 -5 0 -11 -6 -14
-14z"/>
<path d="M13970 2302 c0 -5 7 -16 16 -23 14 -12 16 -11 13 5 -4 20 -29 35 -29
18z"/>
<path d="M14331 2276 c-7 -8 -8 -17 -3 -20 6 -3 15 1 21 8 7 8 8 17 3 20 -6 3
-15 -1 -21 -8z"/>
<path d="M14006 2261 c-3 -5 1 -14 8 -20 18 -15 28 0 10 16 -7 7 -15 9 -18 4z"/>
<path d="M14285 2229 c-12 -19 5 -23 22 -6 16 16 16 17 1 17 -9 0 -20 -5 -23
-11z"/>
<path d="M14045 2221 c-3 -5 4 -13 16 -16 28 -9 36 1 10 14 -12 7 -22 7 -26 2z"/>
<path d="M14230 2200 c0 -5 7 -10 15 -10 8 0 15 5 15 10 0 6 -7 10 -15 10 -8
0 -15 -4 -15 -10z"/>
<path d="M13410 2196 c0 -5 178 -116 186 -116 4 0 -1 11 -9 24 -20 30 -11 63
22 81 24 13 17 14 -86 15 -62 0 -113 -2 -113 -4z"/>
<path d="M14105 2190 c3 -5 13 -10 21 -10 8 0 14 5 14 10 0 6 -9 10 -21 10
-11 0 -17 -4 -14 -10z"/>
<path d="M14173 2183 c9 -2 23 -2 30 0 6 3 -1 5 -18 5 -16 0 -22 -2 -12 -5z"/>
<path d="M13610 2141 c0 -17 30 -25 43 -12 8 8 8 11 0 11 -6 0 -18 3 -27 6 -9
3 -16 1 -16 -5z"/>
<path d="M13685 2122 c-3 -3 -5 -9 -5 -14 0 -11 47 -10 54 1 6 9 -40 22 -49
13z"/>
<path d="M13760 2096 c0 -9 4 -16 9 -16 5 0 16 -3 25 -6 11 -4 16 -1 16 10 0
9 -4 16 -9 16 -5 0 -16 3 -25 6 -11 4 -16 1 -16 -10z"/>
<path d="M13836 2071 c-7 -10 33 -23 46 -15 5 3 6 10 3 15 -8 12 -42 12 -49 0z"/>
<path d="M13910 2051 c0 -9 41 -23 48 -16 2 2 1 8 -3 14 -8 13 -45 15 -45 2z"/>
<path d="M13992 2028 c5 -15 48 -24 48 -10 0 10 -23 22 -42 22 -5 0 -8 -6 -6
-12z"/>
<path d="M14065 2011 c-7 -12 31 -25 46 -15 8 4 7 9 -2 15 -18 11 -36 11 -44
0z"/>
<path d="M14142 1990 c6 -20 48 -33 48 -15 0 8 -4 15 -9 15 -5 0 -17 3 -27 7
-11 4 -15 2 -12 -7z"/>
<path d="M14220 1965 c0 -8 7 -15 15 -15 8 0 17 0 20 0 14 0 4 15 -14 22 -15
5 -21 3 -21 -7z"/>
<path d="M14294 1948 c-7 -11 -5 -14 24 -22 16 -5 22 -3 22 7 0 17 -37 30 -46
15z"/>
<path d="M14370 1921 c0 -12 39 -25 48 -16 7 7 -17 25 -35 25 -7 0 -13 -4 -13
-9z"/>
<path d="M14452 1898 c5 -15 48 -24 48 -10 0 10 -23 22 -42 22 -5 0 -8 -6 -6
-12z"/>
<path d="M14522 1878 c6 -18 48 -30 48 -14 0 8 -7 17 -16 20 -24 9 -36 7 -32
-6z"/>
<path d="M14600 1856 c0 -10 9 -16 25 -16 14 0 25 5 25 10 0 6 -4 10 -9 10 -5
0 -16 3 -25 6 -11 4 -16 1 -16 -10z"/>
<path d="M14674 1839 c-3 -5 5 -13 18 -18 24 -9 42 -5 33 8 -8 13 -44 20 -51
10z"/>
<path d="M14750 1811 c0 -11 39 -25 47 -18 3 3 2 10 -2 16 -8 13 -45 15 -45 2z"/>
<path d="M13060 1769 c-58 -26 -77 -44 -106 -101 -57 -113 -12 -253 100 -310
79 -40 196 -18 258 48 60 64 74 174 34 259 -27 59 -46 77 -106 104 -57 26
-123 26 -180 0z m175 -18 c146 -67 157 -277 20 -365 -58 -36 -113 -43 -168
-22 -176 67 -189 301 -22 389 41 22 121 21 170 -2z"/>
<path d="M13070 1721 c0 -5 10 -11 23 -13 19 -3 22 -10 25 -50 2 -25 -1 -61
-6 -80 -7 -28 -13 -34 -40 -36 -34 -3 -45 -21 -14 -23 74 -5 82 7 82 117 l0
94 -35 0 c-19 0 -35 -4 -35 -9z"/>
<path d="M13216 1574 c-17 -12 -18 -14 -3 -14 25 0 24 -85 0 -99 -15 -8 -10
-10 21 -11 34 0 37 2 23 13 -11 8 -17 30 -19 69 -3 54 -4 56 -22 42z"/>
<path d="M14135 1780 c-18 -8 -17 -9 8 -9 16 -1 26 3 22 9 -3 6 -7 10 -8 9 -1
0 -11 -4 -22 -9z"/>
<path d="M15070 1758 c-152 -92 -145 -314 13 -393 155 -77 317 26 317 200 0
135 -89 225 -223 225 -42 0 -64 -7 -107 -32z m212 -10 c117 -66 139 -234 44
-330 -92 -92 -236 -77 -312 33 -25 37 -29 51 -29 114 0 61 4 77 27 113 64 95
174 124 270 70z"/>
<path d="M15100 1720 c0 -5 9 -10 20 -10 20 0 21 -5 18 -82 l-3 -83 -32 -3
c-35 -3 -43 -16 -17 -26 24 -9 63 4 74 24 6 10 10 57 10 104 l0 86 -35 0 c-19
0 -35 -4 -35 -10z"/>
<path d="M15220 1591 c0 -5 12 -9 28 -8 22 2 28 -2 30 -24 2 -19 -5 -33 -27
-52 -43 -36 -39 -47 17 -45 43 1 44 2 10 5 -21 2 -38 6 -38 8 0 2 14 17 31 34
22 22 29 38 27 58 -3 24 -8 28 -40 31 -21 2 -38 -1 -38 -7z"/>
<path d="M14190 1776 c0 -9 30 -14 35 -6 4 6 -3 10 -14 10 -12 0 -21 -2 -21
-4z"/>
<path d="M14070 1760 c0 -5 6 -10 14 -10 8 0 18 5 21 10 3 6 -3 10 -14 10 -12
0 -21 -4 -21 -10z"/>
<path d="M14246 1761 c-3 -5 1 -12 10 -15 20 -8 29 -1 19 13 -8 13 -22 14 -29
2z"/>
<path d="M14030 1735 c-20 -24 -6 -28 15 -5 10 11 13 20 8 20 -6 0 -16 -7 -23
-15z"/>
<path d="M14300 1732 c0 -5 7 -15 15 -22 8 -7 15 -8 15 -2 0 5 -7 15 -15 22
-8 7 -15 8 -15 2z"/>
<path d="M14117 1715 c-5 -10 0 -15 14 -15 12 0 19 5 17 12 -6 18 -25 20 -31
3z"/>
<path d="M13630 1655 l0 -55 -60 0 -60 0 0 -30 0 -30 60 0 60 0 0 -55 c0 -52
1 -55 25 -55 24 0 25 3 25 55 l0 55 55 0 c54 0 55 0 55 30 0 30 -1 30 -55 30
l-55 0 0 55 c0 52 -1 55 -25 55 -24 0 -25 -3 -25 -55z"/>
<path d="M13985 1689 c-4 -6 -5 -13 -2 -16 7 -7 27 6 27 18 0 12 -17 12 -25
-2z"/>
<path d="M14344 1674 c3 -9 6 -18 6 -20 0 -3 4 -3 10 1 11 7 2 35 -12 35 -6 0
-7 -7 -4 -16z"/>
<path d="M14080 1660 c0 -5 9 -10 20 -10 18 0 20 -7 20 -74 0 -91 -5 -106 -36
-106 -13 0 -24 -4 -24 -10 0 -14 54 -12 68 2 8 8 12 47 12 110 l0 98 -30 0
c-16 0 -30 -4 -30 -10z"/>
<path d="M13957 1630 c-3 -11 -1 -20 4 -20 5 0 9 2 9 4 0 2 3 11 6 20 3 9 2
16 -4 16 -5 0 -12 -9 -15 -20z"/>
<path d="M14530 1625 l0 -25 135 0 135 0 0 25 0 25 -135 0 -135 0 0 -25z"/>
<path d="M14360 1633 c0 -14 19 -38 25 -32 8 8 -5 39 -16 39 -5 0 -9 -3 -9 -7z"/>
<path d="M13950 1570 c0 -11 2 -20 4 -20 2 0 6 9 9 20 3 11 1 20 -4 20 -5 0
-9 -9 -9 -20z"/>
<path d="M14190 1582 c0 -5 13 -7 29 -4 38 5 51 -16 23 -39 l-21 -17 20 -5
c15 -4 20 -12 17 -29 -2 -19 -9 -23 -35 -23 -18 0 -33 -3 -33 -7 0 -5 16 -8
35 -8 24 0 37 6 45 19 11 21 4 51 -11 51 -5 0 -4 8 2 19 19 30 4 51 -36 51
-19 0 -35 -4 -35 -8z"/>
<path d="M14379 1578 c-6 -24 -5 -58 2 -58 5 0 9 14 9 30 0 17 -2 30 -5 30 -3
0 -5 -1 -6 -2z"/>
<path d="M14530 1515 l0 -25 135 0 135 0 0 25 0 25 -135 0 -135 0 0 -25z"/>
<path d="M13950 1516 c0 -8 5 -18 10 -21 6 -3 10 3 10 14 0 12 -4 21 -10 21
-5 0 -10 -6 -10 -14z"/>
<path d="M14360 1479 c0 -11 5 -17 10 -14 6 3 10 13 10 21 0 8 -4 14 -10 14
-5 0 -10 -9 -10 -21z"/>
<path d="M13970 1463 c0 -14 19 -38 25 -32 8 8 -5 39 -16 39 -5 0 -9 -3 -9 -7z"/>
<path d="M14334 1435 c-9 -22 1 -29 15 -11 8 10 9 16 1 21 -5 3 -13 -1 -16
-10z"/>
<path d="M14002 1408 c3 -7 13 -15 24 -17 16 -3 17 -1 5 13 -16 19 -34 21 -29
4z"/>
<path d="M14290 1390 c-8 -5 -11 -12 -7 -16 4 -4 13 -2 19 4 15 15 7 24 -12
12z"/>
<path d="M14045 1380 c-3 -5 3 -14 14 -20 26 -13 35 2 11 18 -11 7 -21 8 -25
2z"/>
<path d="M14240 1360 c-20 -12 -5 -24 16 -12 9 5 12 12 7 15 -5 3 -15 2 -23
-3z"/>
<path d="M14105 1351 c-2 -5 4 -11 15 -14 11 -3 20 -2 20 3 0 12 -28 21 -35
11z"/>
<path d="M13411 1346 c2 -2 36 -23 74 -46 39 -24 81 -50 95 -59 l25 -16 -17
27 c-20 30 -15 55 16 80 20 17 17 18 -88 18 -60 0 -107 -2 -105 -4z"/>
<path d="M14160 1340 c0 -5 9 -10 20 -10 11 0 20 5 20 10 0 6 -9 10 -20 10
-11 0 -20 -4 -20 -10z"/>
<path d="M13606 1291 c-7 -10 33 -23 46 -15 5 3 6 10 3 15 -8 12 -42 12 -49 0z"/>
<path d="M13680 1271 c0 -11 39 -25 47 -18 3 3 2 10 -2 16 -8 13 -45 15 -45 2z"/>
<path d="M13760 1246 c0 -10 9 -16 25 -16 14 0 25 5 25 10 0 6 -4 10 -9 10 -5
0 -16 3 -25 6 -11 4 -16 1 -16 -10z"/>
<path d="M13837 1234 c-3 -4 -4 -11 -1 -15 7 -12 54 -11 54 1 0 6 -4 10 -9 10
-5 0 -16 2 -23 5 -8 3 -17 3 -21 -1z"/>
<path d="M13914 1208 c-7 -11 -5 -14 24 -22 16 -5 22 -3 22 7 0 17 -37 30 -46
15z"/>
<path d="M13990 1180 c0 -5 4 -10 9 -10 5 0 16 -3 25 -6 11 -4 16 -1 16 10 0
10 -9 16 -25 16 -14 0 -25 -4 -25 -10z"/>
<path d="M14065 1161 c-7 -12 31 -25 46 -15 8 4 7 9 -2 15 -18 11 -36 11 -44
0z"/>
<path d="M14142 1138 c5 -15 48 -24 48 -10 0 10 -23 22 -42 22 -5 0 -8 -6 -6
-12z"/>
<path d="M14222 1118 c5 -15 48 -24 48 -10 0 10 -23 22 -42 22 -5 0 -8 -6 -6
-12z"/>
<path d="M14294 1099 c-3 -5 3 -12 13 -16 10 -3 21 -8 26 -10 4 -2 7 2 7 10 0
17 -37 30 -46 16z"/>
<path d="M14370 1077 c0 -8 11 -17 25 -19 17 -4 25 -1 25 8 0 8 -4 14 -9 14
-5 0 -16 3 -25 6 -10 4 -16 1 -16 -9z"/>
<path d="M14450 1055 c0 -15 27 -28 41 -19 13 8 3 21 -21 27 -12 3 -20 0 -20
-8z"/>
<path d="M14520 1030 c0 -5 4 -10 9 -10 5 0 16 -3 25 -6 11 -4 16 -1 16 10 0
10 -9 16 -25 16 -14 0 -25 -4 -25 -10z"/>
<path d="M14602 1008 c5 -15 48 -24 48 -10 0 10 -23 22 -42 22 -5 0 -8 -6 -6
-12z"/>
<path d="M14677 994 c-3 -4 -4 -11 -1 -15 7 -12 54 -11 54 1 0 6 -4 10 -9 10
-5 0 -16 2 -23 5 -8 3 -17 3 -21 -1z"/>
<path d="M14755 970 c-3 -6 4 -14 17 -19 26 -10 39 6 17 20 -18 11 -26 11 -34
-1z"/>
<path d="M15130 948 c-56 -12 -102 -47 -138 -101 -23 -36 -27 -53 -27 -119 0
-69 3 -80 30 -119 46 -66 101 -100 171 -106 51 -4 66 -1 114 24 79 42 113 94
118 183 5 84 -8 127 -55 175 -57 59 -131 81 -213 63z m123 -24 c140 -48 179
-246 68 -347 -98 -88 -235 -72 -307 37 -30 45 -39 95 -30 160 13 82 110 164
197 166 14 0 47 -7 72 -16z"/>
<path d="M15107 894 c-10 -11 3 -24 24 -24 17 0 19 -7 19 -73 0 -80 -9 -97
-52 -97 -15 0 -28 -4 -28 -10 0 -14 74 -12 88 2 8 8 12 47 12 110 l0 98 -28 0
c-16 0 -32 -3 -35 -6z"/>
<path d="M15246 745 c-17 -13 -18 -15 -3 -15 25 0 25 -97 0 -103 -10 -3 0 -5
22 -5 22 0 34 2 28 5 -9 3 -13 27 -13 69 0 68 -3 72 -34 49z"/>
<path d="M13100 940 c0 -5 9 -10 20 -10 11 0 20 5 20 10 0 6 -9 10 -20 10 -11
0 -20 -4 -20 -10z"/>
<path d="M13170 940 c0 -5 7 -10 15 -10 8 0 15 5 15 10 0 6 -7 10 -15 10 -8 0
-15 -4 -15 -10z"/>
<path d="M13055 929 c-10 -14 -1 -21 19 -13 9 3 13 10 10 15 -7 12 -21 11 -29
-2z"/>
<path d="M13226 933 c-3 -3 -3 -10 0 -14 7 -12 34 -11 34 0 0 11 -26 22 -34
14z"/>
<path d="M14120 930 c0 -5 9 -10 19 -10 11 0 23 5 26 10 4 6 -5 10 -19 10 -14
0 -26 -4 -26 -10z"/>
<path d="M14190 930 c0 -5 7 -10 15 -10 8 0 15 5 15 10 0 6 -7 10 -15 10 -8 0
-15 -4 -15 -10z"/>
<path d="M14075 919 c-11 -17 0 -20 21 -4 17 13 17 14 2 15 -9 0 -20 -5 -23
-11z"/>
<path d="M14252 918 c5 -15 28 -23 28 -10 0 5 -7 13 -16 16 -10 4 -14 1 -12
-6z"/>
<path d="M13005 899 c-12 -19 5 -23 22 -6 16 16 16 17 1 17 -9 0 -20 -5 -23
-11z"/>
<path d="M13282 889 c2 -7 10 -15 17 -17 8 -3 12 1 9 9 -2 7 -10 15 -17 17 -8
3 -12 -1 -9 -9z"/>
<path d="M14025 889 c-12 -19 5 -23 22 -6 16 16 16 17 1 17 -9 0 -20 -5 -23
-11z"/>
<path d="M14300 888 c0 -18 18 -34 28 -24 3 4 -2 14 -11 23 -16 16 -17 16 -17
1z"/>
<path d="M13100 874 c0 -9 5 -14 12 -12 18 6 21 28 4 28 -9 0 -16 -7 -16 -16z"/>
<path d="M14112 878 c6 -18 28 -21 28 -4 0 9 -7 16 -16 16 -9 0 -14 -5 -12
-12z"/>
<path d="M12966 854 c-9 -22 3 -32 14 -14 12 19 12 30 1 30 -5 0 -12 -7 -15
-16z"/>
<path d="M13320 848 c0 -9 5 -20 11 -23 17 -11 20 0 4 21 -13 17 -14 17 -15 2z"/>
<path d="M13628 808 l-3 -53 -57 -3 c-54 -3 -58 -5 -58 -27 0 -22 4 -24 58
-27 l57 -3 3 -52 c3 -49 5 -53 28 -53 23 0 24 3 24 55 l0 55 55 0 c52 0 55 1
55 25 0 24 -3 25 -55 25 l-55 0 0 55 c0 52 -1 55 -24 55 -23 0 -25 -4 -28 -52z"/>
<path d="M13986 844 c-9 -22 3 -32 14 -14 12 19 12 30 1 30 -5 0 -12 -7 -15
-16z"/>
<path d="M14344 834 c3 -9 6 -18 6 -20 0 -3 4 -3 10 1 11 7 2 35 -12 35 -6 0
-7 -7 -4 -16z"/>
<path d="M13070 820 c0 -5 7 -10 15 -10 12 0 15 -15 15 -74 0 -91 -5 -106 -36
-106 -13 0 -24 -4 -24 -10 0 -14 54 -12 68 2 8 8 12 47 12 110 0 98 0 98 -25
98 -14 0 -25 -4 -25 -10z"/>
<path d="M14080 821 c0 -5 9 -11 20 -14 17 -4 20 -13 19 -64 -1 -80 -10 -107
-37 -111 -33 -5 -27 -22 8 -22 41 0 50 23 50 129 l0 91 -30 0 c-16 0 -30 -4
-30 -9z"/>
<path d="M12937 800 c-6 -24 8 -36 17 -14 8 22 7 34 -3 34 -5 0 -11 -9 -14
-20z"/>
<path d="M13957 789 c-3 -13 -1 -19 6 -16 15 5 22 37 9 37 -5 0 -12 -9 -15
-21z"/>
<path d="M14530 785 l0 -25 135 0 135 0 0 25 0 25 -135 0 -135 0 0 -25z"/>
<path d="M13340 793 c0 -14 19 -38 25 -32 8 8 -5 39 -16 39 -5 0 -9 -3 -9 -7z"/>
<path d="M14366 775 c4 -8 10 -15 15 -15 4 0 6 7 3 15 -4 8 -10 15 -15 15 -4
0 -6 -7 -3 -15z"/>
<path d="M12932 730 c0 -14 2 -19 5 -12 2 6 2 18 0 25 -3 6 -5 1 -5 -13z"/>
<path d="M13196 735 c-17 -13 -18 -15 -3 -15 13 0 17 -9 17 -45 0 -33 -4 -45
-15 -45 -8 0 -15 -4 -15 -10 0 -5 16 -10 35 -10 19 0 35 5 35 10 0 6 -4 10
-10 10 -6 0 -10 27 -10 60 0 64 -3 68 -34 45z"/>
<path d="M13947 730 c-3 -11 -2 -20 3 -20 12 0 21 28 11 35 -5 2 -11 -4 -14
-15z"/>
<path d="M14203 743 c-24 -9 -13 -20 16 -15 44 6 47 -21 6 -67 -19 -21 -35
-41 -35 -45 0 -3 21 -5 48 -5 l47 2 -38 6 -39 6 31 29 c35 34 40 70 12 86 -21
11 -29 11 -48 3z"/>
<path d="M13352 715 c-1 -13 3 -27 8 -30 6 -4 10 7 10 24 0 37 -15 42 -18 6z"/>
<path d="M14376 712 c-4 -13 -5 -26 -2 -29 10 -11 18 4 14 29 l-4 23 -8 -23z"/>
<path d="M14530 670 l0 -31 133 3 132 3 0 25 0 25 -132 3 -133 3 0 -31z"/>
<path d="M12930 675 c0 -8 5 -15 10 -15 6 0 10 7 10 15 0 8 -4 15 -10 15 -5 0
-10 -7 -10 -15z"/>
<path d="M13950 665 c0 -8 5 -15 10 -15 6 0 10 7 10 15 0 8 -4 15 -10 15 -5 0
-10 -7 -10 -15z"/>
<path d="M13337 645 c-4 -8 -2 -17 3 -20 6 -4 10 -4 10 -1 0 2 3 11 6 20 3 9
2 16 -4 16 -5 0 -12 -7 -15 -15z"/>
<path d="M14360 641 c-7 -15 -7 -21 0 -21 12 0 25 28 17 36 -3 3 -10 -4 -17
-15z"/>
<path d="M12950 628 c0 -18 18 -34 28 -24 3 4 -2 14 -11 23 -16 16 -17 16 -17
1z"/>
<path d="M13970 623 c0 -14 19 -38 25 -32 8 8 -5 39 -16 39 -5 0 -9 -3 -9 -7z"/>
<path d="M13311 596 c-8 -9 -8 -16 -2 -20 6 -4 15 3 21 14 12 23 -2 27 -19 6z"/>
<path d="M14331 586 c-7 -8 -8 -17 -3 -19 4 -3 13 3 20 14 14 22 0 26 -17 5z"/>
<path d="M12986 582 c-3 -6 1 -15 8 -21 8 -7 17 -8 20 -3 3 6 -1 15 -8 21 -8
7 -17 8 -20 3z"/>
<path d="M14000 571 c0 -13 26 -32 33 -24 8 7 -11 33 -24 33 -5 0 -9 -4 -9 -9z"/>
<path d="M13271 556 c-16 -19 -11 -29 8 -17 7 5 12 14 9 21 -3 9 -8 7 -17 -4z"/>
<path d="M14290 545 c-17 -21 -9 -27 13 -10 10 7 14 16 9 19 -5 3 -15 -1 -22
-9z"/>
<path d="M13020 541 c0 -10 24 -21 43 -21 7 0 3 7 -7 15 -22 17 -36 19 -36 6z"/>
<path d="M14052 524 c9 -9 21 -13 28 -9 14 9 -5 25 -30 25 -12 0 -12 -3 2 -16z"/>
<path d="M13210 520 c0 -5 7 -10 15 -10 8 0 15 5 15 10 0 6 -7 10 -15 10 -8 0
-15 -4 -15 -10z"/>
<path d="M14243 523 c-18 -7 -16 -23 2 -23 8 0 15 7 15 15 0 8 -1 15 -2 14 -2
0 -9 -3 -15 -6z"/>
<path d="M13080 510 c0 -5 9 -10 20 -10 11 0 20 5 20 10 0 6 -9 10 -20 10 -11
0 -20 -4 -20 -10z"/>
<path d="M13145 510 c-3 -5 3 -10 14 -10 12 0 21 5 21 10 0 6 -6 10 -14 10 -8
0 -18 -4 -21 -10z"/>
<path d="M14105 510 c-4 -6 -4 -10 -1 -10 2 0 11 -3 20 -6 9 -3 16 -2 16 4 0
14 -28 23 -35 12z"/>
<path d="M14165 500 c-3 -5 3 -10 14 -10 12 0 21 5 21 10 0 6 -6 10 -14 10 -8
0 -18 -4 -21 -10z"/>
<path d="M195 4065 c-26 -25 -35 -88 -15 -100 6 -3 10 -12 10 -20 0 -10 -16
-15 -52 -17 l-53 -3 0 -35 0 -35 163 -3 162 -2 0 39 0 40 -87 3 -88 3 0 35 c0
41 16 47 113 49 l62 1 0 35 0 35 -95 0 c-88 0 -98 -2 -120 -25z"/>
<path d="M3998 3845 c-9 -20 -8 -28 6 -44 15 -16 15 -19 1 -31 -42 -35 6 -98
65 -85 42 9 59 45 37 79 -10 15 -13 27 -7 31 16 10 12 62 -6 69 -9 3 -31 6
-50 6 -27 0 -37 -5 -46 -25z m80 6 c18 -11 11 -55 -9 -59 -9 -1 -26 6 -40 16
-20 17 -21 22 -10 36 15 18 38 20 59 7z m-13 -83 c34 -15 32 -61 -3 -66 -42
-6 -69 37 -40 66 15 15 11 15 43 0z"/>
<path d="M7727 3863 c-4 -3 -7 -15 -7 -25 0 -16 5 -17 40 -12 38 6 40 5 40
-19 0 -17 -13 -36 -40 -60 -62 -53 -55 -67 35 -67 68 0 75 2 75 20 0 16 -7 20
-37 20 l-37 0 29 30 c32 34 40 94 15 111 -17 10 -103 12 -113 2z"/>
<path d="M7911 3844 c-41 -52 -21 -148 33 -162 76 -20 111 16 104 105 -6 65
-23 83 -79 83 -29 0 -42 -6 -58 -26z m81 -28 c22 -31 0 -110 -28 -99 -11 4
-14 19 -13 63 2 48 5 57 18 52 9 -3 19 -10 23 -16z"/>
<path d="M15672 3854 c-24 -17 -29 -43 -10 -62 9 -9 7 -16 -6 -31 -25 -28 -14
-65 23 -81 59 -24 117 35 78 78 -13 15 -14 20 -1 36 18 26 18 32 -6 56 -24 24
-48 25 -78 4z m63 -38 c0 -36 -15 -42 -45 -18 -31 25 -21 55 17 50 23 -2 28
-8 28 -32z m-7 -62 c26 -18 28 -36 7 -54 -18 -15 -61 -6 -69 16 -7 19 10 54
27 54 7 0 23 -7 35 -16z"/>
<path d="M175 3778 c0 -30 -3 -33 -32 -36 -30 -3 -33 -6 -33 -38 0 -31 2 -34
30 -34 18 0 33 -6 36 -15 4 -8 14 -15 24 -15 10 0 20 7 24 15 4 11 23 15 79
15 92 0 107 13 107 88 0 48 -2 52 -24 52 -21 0 -25 -6 -28 -32 l-3 -33 -67 -3
-68 -3 0 36 c0 30 -3 35 -23 35 -18 0 -22 -5 -22 -32z"/>
<path d="M233 3583 c-40 -8 -63 -49 -63 -112 0 -79 8 -101 34 -101 21 0 23 4
22 68 -1 53 2 67 14 67 10 0 17 -14 20 -46 10 -86 63 -129 116 -95 38 25 48
63 30 108 -8 21 -10 38 -5 38 5 0 9 18 9 40 l0 40 -77 -1 c-43 -1 -88 -4 -100
-6z m126 -95 c11 -31 2 -58 -20 -58 -20 0 -39 28 -39 59 0 30 48 29 59 -1z"/>
<path d="M224 3300 c-48 -19 -69 -86 -41 -131 8 -15 8 -23 2 -25 -6 -3 -9 -20
-7 -39 l4 -35 159 0 159 0 0 35 0 35 -48 0 -49 0 4 53 c4 55 -10 82 -54 106
-25 13 -98 14 -129 1z m123 -81 c7 -6 13 -27 13 -45 l0 -34 -65 0 c-61 0 -65
2 -71 25 -8 33 1 53 28 65 26 11 75 5 95 -11z"/>
<path d="M4020 3265 c0 -20 5 -25 25 -25 20 0 25 5 25 25 0 20 -5 25 -25 25
-20 0 -25 -5 -25 -25z"/>
<path d="M7740 3265 c0 -22 4 -25 35 -25 31 0 35 3 35 25 0 22 -4 25 -35 25
-31 0 -35 -3 -35 -25z"/>
<path d="M15674 3281 c-2 -2 -4 -13 -4 -23 0 -13 8 -18 30 -18 24 0 30 4 30
23 0 17 -6 22 -26 22 -14 0 -28 -2 -30 -4z"/>
<path d="M7740 3110 c0 -28 3 -30 35 -30 32 0 35 2 35 30 0 28 -3 30 -35 30
-32 0 -35 -2 -35 -30z"/>
<path d="M15697 3133 c-39 -6 -35 -47 6 -51 24 -3 27 0 27 27 0 17 -1 30 -2
30 -2 -1 -16 -4 -31 -6z"/>
<path d="M4020 3105 c0 -20 5 -25 25 -25 20 0 25 5 25 25 0 20 -5 25 -25 25
-20 0 -25 -5 -25 -25z"/>
<path d="M4020 2955 c0 -20 5 -25 25 -25 20 0 25 5 25 25 0 20 -5 25 -25 25
-20 0 -25 -5 -25 -25z"/>
<path d="M7740 2955 c0 -22 4 -25 35 -25 31 0 35 3 35 25 0 22 -4 25 -35 25
-31 0 -35 -3 -35 -25z"/>
<path d="M15677 2973 c-4 -3 -7 -15 -7 -25 0 -13 8 -18 30 -18 25 0 30 4 30
25 0 20 -5 25 -23 25 -13 0 -27 -3 -30 -7z"/>
<path d="M195 2829 c-24 -20 -26 -26 -20 -63 3 -23 6 -64 5 -93 l-1 -52 116
-3 115 -3 0 37 0 37 -87 3 -88 3 -3 30 c-5 42 19 55 105 55 l73 0 0 35 0 35
-94 0 c-80 0 -97 -3 -121 -21z"/>
<path d="M198 2530 c-29 -29 -30 -34 -26 -92 4 -53 9 -65 36 -89 107 -96 234
6 201 161 -10 47 -13 50 -41 50 -25 0 -29 -3 -23 -17 4 -10 10 -39 13 -66 3
-37 1 -52 -13 -67 -10 -11 -22 -20 -27 -20 -4 0 -8 38 -8 85 l0 85 -41 0 c-32
0 -47 -6 -71 -30z m62 -90 c0 -54 -19 -69 -40 -31 -14 27 -13 47 6 65 26 26
34 18 34 -34z"/>
<path d="M4007 2493 c-15 -15 -5 -22 23 -17 29 6 60 -8 60 -27 0 -5 -12 -15
-27 -23 l-28 -14 28 -11 c55 -21 24 -78 -39 -68 -25 4 -34 2 -31 -6 6 -19 82
-21 101 -2 20 21 21 59 1 75 -14 12 -14 15 0 30 21 23 19 47 -4 60 -22 11 -74
14 -84 3z"/>
<path d="M7770 2490 c0 -5 -9 -10 -20 -10 -13 0 -20 -7 -20 -20 0 -13 7 -20
20 -20 17 0 20 -7 20 -50 0 -43 -3 -50 -20 -50 -11 0 -20 -7 -20 -15 0 -21
115 -22 123 -1 4 10 -2 16 -16 18 -20 3 -22 9 -25 81 -3 69 -5 77 -22 77 -11
0 -20 -4 -20 -10z"/>
<path d="M7915 2475 c-37 -36 -32 -130 9 -157 6 -4 30 -8 53 -8 32 0 46 5 57
22 23 33 21 109 -5 142 -28 35 -80 36 -114 1z m79 -31 c17 -43 -3 -108 -29
-98 -15 6 -22 94 -8 107 11 12 31 7 37 -9z"/>
<path d="M15663 2493 c-26 -10 -12 -20 29 -19 53 1 64 -25 21 -48 l-28 -14 28
-11 c23 -9 28 -16 25 -39 -3 -25 -6 -27 -50 -26 -27 0 -48 -3 -48 -7 0 -21 92
-26 108 -6 22 27 23 56 3 76 -16 16 -17 21 -5 25 17 7 19 47 2 64 -12 12 -62
15 -85 5z"/>
<path d="M9380 2270 l0 -110 105 0 105 0 0 110 0 110 -105 0 -105 0 0 -110z"/>
<path d="M10030 2270 l0 -110 100 0 100 0 0 110 0 110 -100 0 -100 0 0 -110z"/>
<path d="M10670 2270 l0 -111 103 3 102 3 0 105 0 105 -102 3 -103 3 0 -111z"/>
<path d="M180 2245 c0 -33 -2 -35 -35 -35 -33 0 -35 -2 -35 -35 0 -32 2 -35
29 -35 21 0 32 -6 36 -20 3 -11 15 -20 25 -20 9 0 20 9 23 20 5 18 14 20 80
20 92 0 107 13 107 88 0 48 -2 52 -24 52 -21 0 -25 -6 -28 -32 l-3 -33 -67 -3
-68 -3 0 36 c0 28 -4 35 -20 35 -16 0 -20 -7 -20 -35z"/>
<path d="M240 1995 l0 -75 30 0 30 0 0 75 0 75 -30 0 -30 0 0 -75z"/>
<path d="M84 1885 c-4 -8 -3 -35 0 -60 8 -49 34 -75 74 -75 17 0 23 -4 18 -15
-4 -11 1 -15 19 -15 16 0 25 6 25 15 0 12 17 15 95 15 l95 0 0 35 0 34 -92 3
-93 3 -3 28 c-4 36 -42 39 -42 3 0 -14 -5 -28 -10 -31 -18 -11 -40 15 -40 46
0 22 -5 29 -20 29 -11 0 -23 -7 -26 -15z"/>
<path d="M208 1651 c-27 -24 -32 -36 -36 -89 -4 -60 -3 -63 31 -97 32 -32 40
-35 92 -35 50 0 60 3 85 30 29 32 45 86 35 123 -20 70 -56 97 -129 97 -36 0
-52 -6 -78 -29z m127 -53 c22 -10 26 -17 23 -47 -3 -33 -7 -37 -41 -46 -53
-12 -92 9 -92 50 0 46 56 68 110 43z"/>
<path d="M3997 1653 c-15 -14 -6 -19 28 -15 41 5 65 -11 58 -37 -3 -10 -25
-38 -49 -62 -24 -24 -44 -47 -44 -51 0 -4 27 -8 60 -8 33 0 60 4 60 10 0 6
-20 10 -45 10 l-45 0 40 36 c71 64 64 124 -14 124 -23 0 -46 -3 -49 -7z"/>
<path d="M7727 1642 c-20 -22 -22 -43 -6 -59 8 -8 7 -17 -5 -34 -21 -30 -20
-35 4 -59 22 -22 88 -27 121 -10 20 11 28 75 9 82 -7 2 -6 15 2 36 12 30 11
35 -6 48 -29 20 -99 18 -119 -4z m81 -35 c4 -18 -14 -22 -37 -8 -7 5 -10 14
-6 20 10 17 39 9 43 -12z m-14 -63 c9 -3 16 -15 16 -26 0 -29 -44 -20 -48 10
-3 23 4 27 32 16z"/>
<path d="M15650 1648 c0 -9 15 -13 42 -13 64 0 64 -30 -1 -91 -28 -27 -51 -52
-51 -56 0 -4 30 -8 66 -8 41 0 63 4 59 10 -3 6 -24 10 -47 10 l-41 0 42 45
c41 45 52 80 29 103 -16 16 -98 16 -98 0z"/>
<path d="M240 1310 l0 -80 30 0 30 0 0 80 0 80 -30 0 -30 0 0 -80z"/>
<path d="M178 1158 c-3 -29 -7 -33 -35 -36 -30 -3 -33 -6 -33 -38 0 -31 2 -34
30 -34 18 0 33 -6 36 -15 4 -8 14 -15 24 -15 10 0 20 7 24 15 4 11 23 15 79
15 92 0 107 13 107 88 0 48 -2 52 -24 52 -21 0 -25 -6 -28 -32 l-3 -33 -67 -3
-68 -3 0 36 c0 28 -4 35 -19 35 -15 0 -21 -8 -23 -32z"/>
<path d="M286 968 c-8 -13 -19 -42 -25 -66 -11 -49 -15 -57 -30 -47 -14 8 -14
80 -1 106 9 17 7 19 -18 19 -22 0 -31 -6 -36 -22 -12 -47 -6 -113 14 -145 16
-27 26 -33 54 -33 40 0 76 37 76 77 0 13 5 33 10 44 28 51 46 -8 25 -77 -8
-27 -15 -50 -15 -51 0 -2 13 -3 30 -3 35 0 44 22 44 107 0 69 -26 107 -77 111
-28 2 -39 -2 -51 -20z"/>
<path d="M4046 818 c-4 -10 -17 -18 -27 -18 -10 0 -19 -4 -19 -10 0 -5 9 -10
20 -10 18 0 20 -7 20 -64 0 -59 -2 -65 -22 -69 -13 -2 2 -5 32 -5 36 0 48 2
35 7 -17 7 -21 20 -25 97 -4 58 -8 83 -14 72z"/>
<path d="M7733 823 c-13 -4 -19 -53 -7 -53 3 0 14 4 24 10 10 5 26 7 34 4 28
-11 17 -41 -29 -82 -67 -59 -62 -72 30 -72 68 0 75 2 75 20 0 16 -7 20 -30 20
-37 0 -38 9 -5 40 29 27 34 80 9 104 -15 15 -74 21 -101 9z"/>
<path d="M15696 815 c-3 -8 -12 -15 -21 -15 -8 0 -15 -4 -15 -10 0 -5 9 -10
20 -10 18 0 20 -7 20 -60 0 -54 -3 -62 -22 -70 -18 -7 -11 -9 32 -9 43 0 50 2
33 9 -21 9 -23 16 -23 89 0 75 -11 110 -24 76z"/>
<path d="M265 733 c-11 -2 -30 -6 -42 -9 -47 -10 -70 -113 -38 -174 33 -64
140 -79 192 -27 28 27 47 102 37 146 -13 59 -15 61 -46 61 -25 0 -29 -3 -22
-17 24 -55 11 -143 -21 -143 -11 0 -15 19 -17 82 -3 82 -7 89 -43 81z m-5
-123 c0 -48 -1 -50 -20 -40 -39 21 -34 90 6 90 10 0 14 -14 14 -50z"/>
<path d="M260 410 c-27 -29 -28 -29 -45 -10 -26 29 -69 26 -94 -6 -18 -23 -21
-41 -21 -120 l0 -94 155 0 155 0 0 86 c0 97 -16 145 -56 163 -40 18 -64 13
-94 -19z m78 -62 c7 -7 12 -32 12 -56 l0 -43 -37 3 c-35 3 -38 6 -41 35 -6 58
33 94 66 61z m-124 -24 c3 -9 6 -29 6 -45 0 -28 -2 -30 -32 -27 -25 2 -34 8
-36 25 -7 48 46 88 62 47z"/>
</g>
</svg>
